v -0.3426 0.0062 1.0000
vt 0.5000 0.5
v -0.3426 0.0002 1.0000
vt 0.5000 0.5
v 0.3426 0.0002 1.0000
vt 0.5000 0.5
v 0.3426 0.0062 1.0000
vt 0.5000 0.5
v 0.3704 0.0062 0.9249
vt 0.5000 0.5
v 0.3704 0.0002 0.9249
vt 0.5000 0.5
v 0.3704 0.0002 -0.9249
vt 0.5000 0.5
v 0.3704 0.0062 -0.9249
vt 0.5000 0.5
v 0.3532 0.0062 -0.9943
vt 0.5000 0.5
v 0.3426 0.0062 -1.0000
vt 0.5000 0.5
v -0.3426 0.0062 -1.0000
vt 0.5000 0.5
v -0.3532 0.0062 -0.9943
vt 0.5000 0.5
v 0.3622 0.0062 -0.9780
vt 0.5000 0.5
v -0.3622 0.0062 -0.9780
vt 0.5000 0.5
v 0.3683 0.0062 -0.9537
vt 0.5000 0.5
v -0.3683 0.0062 -0.9537
vt 0.5000 0.5
v 0.3704 0.0062 -0.9249
vt 0.5000 0.5
v -0.3704 0.0062 -0.9249
vt 0.5000 0.5
v 0.3704 0.0062 0.9249
vt 0.5000 0.5
v -0.3704 0.0062 0.9249
vt 0.5000 0.5
v 0.3683 0.0062 0.9537
vt 0.5000 0.5
v -0.3683 0.0062 0.9537
vt 0.5000 0.5
v 0.3622 0.0062 0.9780
vt 0.5000 0.5
v -0.3622 0.0062 0.9780
vt 0.5000 0.5
v 0.3532 0.0062 0.9943
vt 0.5000 0.5
v -0.3532 0.0062 0.9943
vt 0.5000 0.5
v 0.3426 0.0062 1.0000
vt 0.5000 0.5
v -0.3426 0.0062 1.0000
vt 0.5000 0.5
v -0.3704 0.0062 -0.9249
vt 0.5000 0.5
v -0.3704 0.0002 -0.9249
vt 0.5000 0.5
v -0.3704 0.0002 0.9249
vt 0.5000 0.5
v -0.3704 0.0062 0.9249
vt 0.5000 0.5
v 0.3426 0.0062 -1.0000
vt 0.5000 0.5
v 0.3426 0.0002 -1.0000
vt 0.5000 0.5
v -0.3426 0.0002 -1.0000
vt 0.5000 0.5
v -0.3426 0.0062 -1.0000
vt 0.5000 0.5
v -0.3532 0.0062 0.9943
vt 0.5000 0.5
v -0.3532 0.0002 0.9943
vt 0.5000 0.5
v -0.3426 0.0002 1.0000
vt 0.5000 0.5
v -0.3426 0.0062 1.0000
vt 0.5000 0.5
v -0.3622 0.0062 0.9780
vt 0.5000 0.5
v -0.3622 0.0002 0.9780
vt 0.5000 0.5
v -0.3532 0.0002 0.9943
vt 0.5000 0.5
v -0.3532 0.0062 0.9943
vt 0.5000 0.5
v -0.3683 0.0062 0.9537
vt 0.5000 0.5
v -0.3683 0.0002 0.9537
vt 0.5000 0.5
v -0.3622 0.0002 0.9780
vt 0.5000 0.5
v -0.3622 0.0062 0.9780
vt 0.5000 0.5
v -0.3704 0.0062 0.9249
vt 0.5000 0.5
v -0.3704 0.0002 0.9249
vt 0.5000 0.5
v -0.3683 0.0002 0.9537
vt 0.5000 0.5
v -0.3683 0.0062 0.9537
vt 0.5000 0.5
v -0.3426 0.0062 -1.0000
vt 0.5000 0.5
v -0.3426 0.0002 -1.0000
vt 0.5000 0.5
v -0.3532 0.0002 -0.9943
vt 0.5000 0.5
v -0.3532 0.0062 -0.9943
vt 0.5000 0.5
v -0.3532 0.0062 -0.9943
vt 0.5000 0.5
v -0.3532 0.0002 -0.9943
vt 0.5000 0.5
v -0.3622 0.0002 -0.9780
vt 0.5000 0.5
v -0.3622 0.0062 -0.9780
vt 0.5000 0.5
v -0.3622 0.0062 -0.9780
vt 0.5000 0.5
v -0.3622 0.0002 -0.9780
vt 0.5000 0.5
v -0.3683 0.0002 -0.9537
vt 0.5000 0.5
v -0.3683 0.0062 -0.9537
vt 0.5000 0.5
v -0.3683 0.0062 -0.9537
vt 0.5000 0.5
v -0.3683 0.0002 -0.9537
vt 0.5000 0.5
v -0.3704 0.0002 -0.9249
vt 0.5000 0.5
v -0.3704 0.0062 -0.9249
vt 0.5000 0.5
v 0.3704 0.0062 -0.9249
vt 0.5000 0.5
v 0.3704 0.0002 -0.9249
vt 0.5000 0.5
v 0.3683 0.0002 -0.9537
vt 0.5000 0.5
v 0.3683 0.0062 -0.9537
vt 0.5000 0.5
v 0.3683 0.0062 -0.9537
vt 0.5000 0.5
v 0.3683 0.0002 -0.9537
vt 0.5000 0.5
v 0.3622 0.0002 -0.9780
vt 0.5000 0.5
v 0.3622 0.0062 -0.9780
vt 0.5000 0.5
v 0.3622 0.0062 -0.9780
vt 0.5000 0.5
v 0.3622 0.0002 -0.9780
vt 0.5000 0.5
v 0.3532 0.0002 -0.9943
vt 0.5000 0.5
v 0.3532 0.0062 -0.9943
vt 0.5000 0.5
v 0.3532 0.0062 -0.9943
vt 0.5000 0.5
v 0.3532 0.0002 -0.9943
vt 0.5000 0.5
v 0.3426 0.0002 -1.0000
vt 0.5000 0.5
v 0.3426 0.0062 -1.0000
vt 0.5000 0.5
v 0.3426 0.0062 1.0000
vt 0.5000 0.5
v 0.3426 0.0002 1.0000
vt 0.5000 0.5
v 0.3532 0.0002 0.9943
vt 0.5000 0.5
v 0.3532 0.0062 0.9943
vt 0.5000 0.5
v 0.3532 0.0062 0.9943
vt 0.5000 0.5
v 0.3532 0.0002 0.9943
vt 0.5000 0.5
v 0.3622 0.0002 0.9780
vt 0.5000 0.5
v 0.3622 0.0062 0.9780
vt 0.5000 0.5
v 0.3622 0.0062 0.9780
vt 0.5000 0.5
v 0.3622 0.0002 0.9780
vt 0.5000 0.5
v 0.3683 0.0002 0.9537
vt 0.5000 0.5
v 0.3683 0.0062 0.9537
vt 0.5000 0.5
v 0.3683 0.0062 0.9537
vt 0.5000 0.5
v 0.3683 0.0002 0.9537
vt 0.5000 0.5
v 0.3704 0.0002 0.9249
vt 0.5000 0.5
v 0.3704 0.0062 0.9249
vt 0.5000 0.5
v -0.3532 0.0002 -0.9943
vt 0.5000 0.5
v -0.3426 0.0002 -1.0000
vt 0.5000 0.5
v 0.3426 0.0002 -1.0000
vt 0.5000 0.5
v 0.3532 0.0002 -0.9943
vt 0.5000 0.5
v -0.3622 0.0002 -0.9780
vt 0.5000 0.5
v 0.3622 0.0002 -0.9780
vt 0.5000 0.5
v -0.3683 0.0002 -0.9537
vt 0.5000 0.5
v 0.3683 0.0002 -0.9537
vt 0.5000 0.5
v -0.3704 0.0002 -0.9249
vt 0.5000 0.5
v 0.3704 0.0002 -0.9249
vt 0.5000 0.5
v -0.3704 0.0002 0.9249
vt 0.5000 0.5
v 0.3704 0.0002 0.9249
vt 0.5000 0.5
v -0.3683 0.0002 0.9537
vt 0.5000 0.5
v 0.3683 0.0002 0.9537
vt 0.5000 0.5
v -0.3622 0.0002 0.9780
vt 0.5000 0.5
v 0.3622 0.0002 0.9780
vt 0.5000 0.5
v -0.3532 0.0002 0.9943
vt 0.5000 0.5
v 0.3532 0.0002 0.9943
vt 0.5000 0.5
v -0.3426 0.0002 1.0000
vt 0.5000 0.5
v 0.3426 0.0002 1.0000
vt 0.5000 0.5
f 1/1 2/2 3/3
f 1/1 3/3 4/4
f 5/5 6/6 7/7
f 5/5 7/7 8/8
f 9/9 10/10 11/11
f 9/9 11/11 12/12
f 13/13 9/9 12/12
f 13/13 12/12 14/14
f 15/15 13/13 14/14
f 15/15 14/14 16/16
f 17/17 15/15 16/16
f 17/17 16/16 18/18
f 19/19 17/17 18/18
f 19/19 18/18 20/20
f 21/21 19/19 20/20
f 21/21 20/20 22/22
f 23/23 21/21 22/22
f 23/23 22/22 24/24
f 25/25 23/23 24/24
f 25/25 24/24 26/26
f 27/27 25/25 26/26
f 27/27 26/26 28/28
f 29/29 30/30 31/31
f 29/29 31/31 32/32
f 33/33 34/34 35/35
f 33/33 35/35 36/36
f 37/37 38/38 39/39
f 37/37 39/39 40/40
f 41/41 42/42 43/43
f 41/41 43/43 44/44
f 45/45 46/46 47/47
f 45/45 47/47 48/48
f 49/49 50/50 51/51
f 49/49 51/51 52/52
f 53/53 54/54 55/55
f 53/53 55/55 56/56
f 57/57 58/58 59/59
f 57/57 59/59 60/60
f 61/61 62/62 63/63
f 61/61 63/63 64/64
f 65/65 66/66 67/67
f 65/65 67/67 68/68
f 69/69 70/70 71/71
f 69/69 71/71 72/72
f 73/73 74/74 75/75
f 73/73 75/75 76/76
f 77/77 78/78 79/79
f 77/77 79/79 80/80
f 81/81 82/82 83/83
f 81/81 83/83 84/84
f 85/85 86/86 87/87
f 85/85 87/87 88/88
f 89/89 90/90 91/91
f 89/89 91/91 92/92
f 93/93 94/94 95/95
f 93/93 95/95 96/96
f 97/97 98/98 99/99
f 97/97 99/99 100/100
f 101/101 102/102 103/103
f 101/101 103/103 104/104
f 105/105 101/101 104/104
f 105/105 104/104 106/106
f 107/107 105/105 106/106
f 107/107 106/106 108/108
f 109/109 107/107 108/108
f 109/109 108/108 110/110
f 111/111 109/109 110/110
f 111/111 110/110 112/112
f 113/113 111/111 112/112
f 113/113 112/112 114/114
f 115/115 113/113 114/114
f 115/115 114/114 116/116
f 117/117 115/115 116/116
f 117/117 116/116 118/118
f 119/119 117/117 118/118
f 119/119 118/118 120/120
