v -0.0000 0.0148 -0.2169
vt 0.5000 0.5
v -0.0000 -0.0000 -0.2169
vt 0.5000 0.5
v -0.0249 -0.0000 -0.2127
vt 0.5000 0.5
v -0.0249 0.0148 -0.2127
vt 0.5000 0.5
v 0.0709 0.0148 -0.1803
vt 0.5000 0.5
v 0.0709 -0.0000 -0.1803
vt 0.5000 0.5
v 0.0488 -0.0000 -0.2004
vt 0.5000 0.5
v 0.0488 0.0148 -0.2004
vt 0.5000 0.5
v 0.0902 0.0148 -0.1533
vt 0.5000 0.5
v 0.0902 -0.0000 -0.1533
vt 0.5000 0.5
v 0.0709 -0.0000 -0.1803
vt 0.5000 0.5
v 0.0709 0.0148 -0.1803
vt 0.5000 0.5
v 0.1061 0.0148 -0.1205
vt 0.5000 0.5
v 0.1061 -0.0000 -0.1205
vt 0.5000 0.5
v 0.0902 -0.0000 -0.1533
vt 0.5000 0.5
v 0.0902 0.0148 -0.1533
vt 0.5000 0.5
v 0.1179 0.0148 -0.0830
vt 0.5000 0.5
v 0.1179 -0.0000 -0.0830
vt 0.5000 0.5
v 0.1061 -0.0000 -0.1205
vt 0.5000 0.5
v 0.1061 0.0148 -0.1205
vt 0.5000 0.5
v 0.1251 0.0148 -0.0423
vt 0.5000 0.5
v 0.1251 -0.0000 -0.0423
vt 0.5000 0.5
v 0.1179 -0.0000 -0.0830
vt 0.5000 0.5
v 0.1179 0.0148 -0.0830
vt 0.5000 0.5
v 0.1276 0.0148 -0.0000
vt 0.5000 0.5
v 0.1276 -0.0000 -0.0000
vt 0.5000 0.5
v 0.1251 -0.0000 -0.0423
vt 0.5000 0.5
v 0.1251 0.0148 -0.0423
vt 0.5000 0.5
v 0.1251 0.0148 0.0423
vt 0.5000 0.5
v 0.1251 -0.0000 0.0423
vt 0.5000 0.5
v 0.1276 -0.0000 -0.0000
vt 0.5000 0.5
v 0.1276 0.0148 -0.0000
vt 0.5000 0.5
v 0.1179 0.0148 0.0830
vt 0.5000 0.5
v 0.1179 -0.0000 0.0830
vt 0.5000 0.5
v 0.1251 -0.0000 0.0423
vt 0.5000 0.5
v 0.1251 0.0148 0.0423
vt 0.5000 0.5
v 0.1061 0.0148 0.1205
vt 0.5000 0.5
v 0.1061 -0.0000 0.1205
vt 0.5000 0.5
v 0.1179 -0.0000 0.0830
vt 0.5000 0.5
v 0.1179 0.0148 0.0830
vt 0.5000 0.5
v 0.0902 0.0148 0.1533
vt 0.5000 0.5
v 0.0902 -0.0000 0.1533
vt 0.5000 0.5
v 0.1061 -0.0000 0.1205
vt 0.5000 0.5
v 0.1061 0.0148 0.1205
vt 0.5000 0.5
v 0.0709 0.0148 0.1803
vt 0.5000 0.5
v 0.0709 -0.0000 0.1803
vt 0.5000 0.5
v 0.0902 -0.0000 0.1533
vt 0.5000 0.5
v 0.0902 0.0148 0.1533
vt 0.5000 0.5
v 0.0488 0.0148 0.2004
vt 0.5000 0.5
v 0.0488 -0.0000 0.2004
vt 0.5000 0.5
v 0.0709 -0.0000 0.1803
vt 0.5000 0.5
v 0.0709 0.0148 0.1803
vt 0.5000 0.5
v 0.0249 0.0148 0.2127
vt 0.5000 0.5
v 0.0249 -0.0000 0.2127
vt 0.5000 0.5
v 0.0488 -0.0000 0.2004
vt 0.5000 0.5
v 0.0488 0.0148 0.2004
vt 0.5000 0.5
v -0.0000 0.0148 0.2169
vt 0.5000 0.5
v -0.0000 -0.0000 0.2169
vt 0.5000 0.5
v 0.0249 -0.0000 0.2127
vt 0.5000 0.5
v 0.0249 0.0148 0.2127
vt 0.5000 0.5
v -0.0249 0.0148 0.2127
vt 0.5000 0.5
v -0.0249 -0.0000 0.2127
vt 0.5000 0.5
v -0.0000 -0.0000 0.2169
vt 0.5000 0.5
v -0.0000 0.0148 0.2169
vt 0.5000 0.5
v -0.0488 0.0148 0.2004
vt 0.5000 0.5
v -0.0488 -0.0000 0.2004
vt 0.5000 0.5
v -0.0249 -0.0000 0.2127
vt 0.5000 0.5
v -0.0249 0.0148 0.2127
vt 0.5000 0.5
v -0.0709 0.0148 0.1803
vt 0.5000 0.5
v -0.0709 -0.0000 0.1803
vt 0.5000 0.5
v -0.0488 -0.0000 0.2004
vt 0.5000 0.5
v -0.0488 0.0148 0.2004
vt 0.5000 0.5
v -0.0902 0.0148 0.1533
vt 0.5000 0.5
v -0.0902 -0.0000 0.1533
vt 0.5000 0.5
v -0.0709 -0.0000 0.1803
vt 0.5000 0.5
v -0.0709 0.0148 0.1803
vt 0.5000 0.5
v -0.1061 0.0148 0.1205
vt 0.5000 0.5
v -0.1061 -0.0000 0.1205
vt 0.5000 0.5
v -0.0902 -0.0000 0.1533
vt 0.5000 0.5
v -0.0902 0.0148 0.1533
vt 0.5000 0.5
v -0.1179 0.0148 0.0830
vt 0.5000 0.5
v -0.1179 -0.0000 0.0830
vt 0.5000 0.5
v -0.1061 -0.0000 0.1205
vt 0.5000 0.5
v -0.1061 0.0148 0.1205
vt 0.5000 0.5
v -0.1251 0.0148 0.0423
vt 0.5000 0.5
v -0.1251 -0.0000 0.0423
vt 0.5000 0.5
v -0.1179 -0.0000 0.0830
vt 0.5000 0.5
v -0.1179 0.0148 0.0830
vt 0.5000 0.5
v -0.1276 0.0148 -0.0000
vt 0.5000 0.5
v -0.1276 -0.0000 -0.0000
vt 0.5000 0.5
v -0.1251 -0.0000 0.0423
vt 0.5000 0.5
v -0.1251 0.0148 0.0423
vt 0.5000 0.5
v -0.1251 0.0148 -0.0423
vt 0.5000 0.5
v -0.1251 -0.0000 -0.0423
vt 0.5000 0.5
v -0.1276 -0.0000 -0.0000
vt 0.5000 0.5
v -0.1276 0.0148 -0.0000
vt 0.5000 0.5
v -0.1179 0.0148 -0.0830
vt 0.5000 0.5
v -0.1179 -0.0000 -0.0830
vt 0.5000 0.5
v -0.1251 -0.0000 -0.0423
vt 0.5000 0.5
v -0.1251 0.0148 -0.0423
vt 0.5000 0.5
v -0.1061 0.0148 -0.1205
vt 0.5000 0.5
v -0.1061 -0.0000 -0.1205
vt 0.5000 0.5
v -0.1179 -0.0000 -0.0830
vt 0.5000 0.5
v -0.1179 0.0148 -0.0830
vt 0.5000 0.5
v -0.0902 0.0148 -0.1533
vt 0.5000 0.5
v -0.0902 -0.0000 -0.1533
vt 0.5000 0.5
v -0.1061 -0.0000 -0.1205
vt 0.5000 0.5
v -0.1061 0.0148 -0.1205
vt 0.5000 0.5
v -0.0709 0.0148 -0.1803
vt 0.5000 0.5
v -0.0709 -0.0000 -0.1803
vt 0.5000 0.5
v -0.0902 -0.0000 -0.1533
vt 0.5000 0.5
v -0.0902 0.0148 -0.1533
vt 0.5000 0.5
v -0.0488 0.0148 -0.2004
vt 0.5000 0.5
v -0.0488 -0.0000 -0.2004
vt 0.5000 0.5
v -0.0709 -0.0000 -0.1803
vt 0.5000 0.5
v -0.0709 0.0148 -0.1803
vt 0.5000 0.5
v -0.0249 0.0148 -0.2127
vt 0.5000 0.5
v -0.0249 -0.0000 -0.2127
vt 0.5000 0.5
v -0.0488 -0.0000 -0.2004
vt 0.5000 0.5
v -0.0488 0.0148 -0.2004
vt 0.5000 0.5
v 0.0249 0.0148 -0.2127
vt 0.5000 0.5
v 0.0249 -0.0000 -0.2127
vt 0.5000 0.5
v -0.0000 -0.0000 -0.2169
vt 0.5000 0.5
v -0.0000 0.0148 -0.2169
vt 0.5000 0.5
v 0.0488 0.0148 -0.2004
vt 0.5000 0.5
v 0.0488 -0.0000 -0.2004
vt 0.5000 0.5
v 0.0249 -0.0000 -0.2127
vt 0.5000 0.5
v 0.0249 0.0148 -0.2127
vt 0.5000 0.5
v -0.0249 -0.0000 -0.2127
vt 0.5000 0.5
v -0.0000 -0.0000 -0.2169
vt 0.5000 0.5
v 0.0249 -0.0000 -0.2127
vt 0.5000 0.5
v -0.0488 -0.0000 -0.2004
vt 0.5000 0.5
v 0.0488 -0.0000 -0.2004
vt 0.5000 0.5
v -0.0709 -0.0000 -0.1803
vt 0.5000 0.5
v 0.0709 -0.0000 -0.1803
vt 0.5000 0.5
v -0.0902 -0.0000 -0.1533
vt 0.5000 0.5
v 0.0902 -0.0000 -0.1533
vt 0.5000 0.5
v -0.1061 -0.0000 -0.1205
vt 0.5000 0.5
v 0.1061 -0.0000 -0.1205
vt 0.5000 0.5
v -0.1179 -0.0000 -0.0830
vt 0.5000 0.5
v 0.1179 -0.0000 -0.0830
vt 0.5000 0.5
v -0.1251 -0.0000 -0.0423
vt 0.5000 0.5
v 0.1251 -0.0000 -0.0423
vt 0.5000 0.5
v -0.1276 -0.0000 -0.0000
vt 0.5000 0.5
v 0.1276 -0.0000 -0.0000
vt 0.5000 0.5
v -0.1251 -0.0000 0.0423
vt 0.5000 0.5
v 0.1251 -0.0000 0.0423
vt 0.5000 0.5
v -0.1179 -0.0000 0.0830
vt 0.5000 0.5
v 0.1179 -0.0000 0.0830
vt 0.5000 0.5
v -0.1061 -0.0000 0.1205
vt 0.5000 0.5
v 0.1061 -0.0000 0.1205
vt 0.5000 0.5
v -0.0902 -0.0000 0.1533
vt 0.5000 0.5
v 0.0902 -0.0000 0.1533
vt 0.5000 0.5
v -0.0709 -0.0000 0.1803
vt 0.5000 0.5
v 0.0709 -0.0000 0.1803
vt 0.5000 0.5
v -0.0488 -0.0000 0.2004
vt 0.5000 0.5
v 0.0488 -0.0000 0.2004
vt 0.5000 0.5
v -0.0249 -0.0000 0.2127
vt 0.5000 0.5
v 0.0249 -0.0000 0.2127
vt 0.5000 0.5
v -0.0000 -0.0000 0.2169
vt 0.5000 0.5
v 0.0226 0.0255 -0.1936
vt 0.5000 0.5
v 0.0249 0.0148 -0.2127
vt 0.5000 0.5
v -0.0000 0.0148 -0.2169
vt 0.5000 0.5
v -0.0000 0.0255 -0.1973
vt 0.5000 0.5
v 0.0165 0.0322 -0.1412
vt 0.5000 0.5
v 0.0226 0.0255 -0.1936
vt 0.5000 0.5
v -0.0000 0.0255 -0.1973
vt 0.5000 0.5
v -0.0000 0.0322 -0.1440
vt 0.5000 0.5
v 0.0082 0.0404 -0.0698
vt 0.5000 0.5
v 0.0165 0.0322 -0.1412
vt 0.5000 0.5
v -0.0000 0.0322 -0.1440
vt 0.5000 0.5
v -0.0000 0.0404 -0.0711
vt 0.5000 0.5
v 0.0444 0.0255 -0.1823
vt 0.5000 0.5
v 0.0488 0.0148 -0.2004
vt 0.5000 0.5
v 0.0249 0.0148 -0.2127
vt 0.5000 0.5
v 0.0226 0.0255 -0.1936
vt 0.5000 0.5
v 0.0324 0.0322 -0.1330
vt 0.5000 0.5
v 0.0444 0.0255 -0.1823
vt 0.5000 0.5
v 0.0226 0.0255 -0.1936
vt 0.5000 0.5
v 0.0165 0.0322 -0.1412
vt 0.5000 0.5
v 0.0160 0.0404 -0.0657
vt 0.5000 0.5
v 0.0324 0.0322 -0.1330
vt 0.5000 0.5
v 0.0165 0.0322 -0.1412
vt 0.5000 0.5
v 0.0082 0.0404 -0.0698
vt 0.5000 0.5
v 0.0645 0.0255 -0.1641
vt 0.5000 0.5
v 0.0709 0.0148 -0.1803
vt 0.5000 0.5
v 0.0488 0.0148 -0.2004
vt 0.5000 0.5
v 0.0444 0.0255 -0.1823
vt 0.5000 0.5
v 0.0471 0.0322 -0.1197
vt 0.5000 0.5
v 0.0645 0.0255 -0.1641
vt 0.5000 0.5
v 0.0444 0.0255 -0.1823
vt 0.5000 0.5
v 0.0324 0.0322 -0.1330
vt 0.5000 0.5
v 0.0233 0.0404 -0.0592
vt 0.5000 0.5
v 0.0471 0.0322 -0.1197
vt 0.5000 0.5
v 0.0324 0.0322 -0.1330
vt 0.5000 0.5
v 0.0160 0.0404 -0.0657
vt 0.5000 0.5
v 0.0821 0.0255 -0.1395
vt 0.5000 0.5
v 0.0902 0.0148 -0.1533
vt 0.5000 0.5
v 0.0709 0.0148 -0.1803
vt 0.5000 0.5
v 0.0645 0.0255 -0.1641
vt 0.5000 0.5
v 0.0599 0.0322 -0.1018
vt 0.5000 0.5
v 0.0821 0.0255 -0.1395
vt 0.5000 0.5
v 0.0645 0.0255 -0.1641
vt 0.5000 0.5
v 0.0471 0.0322 -0.1197
vt 0.5000 0.5
v 0.0296 0.0404 -0.0503
vt 0.5000 0.5
v 0.0599 0.0322 -0.1018
vt 0.5000 0.5
v 0.0471 0.0322 -0.1197
vt 0.5000 0.5
v 0.0233 0.0404 -0.0592
vt 0.5000 0.5
v 0.0965 0.0255 -0.1096
vt 0.5000 0.5
v 0.1061 0.0148 -0.1205
vt 0.5000 0.5
v 0.0902 0.0148 -0.1533
vt 0.5000 0.5
v 0.0821 0.0255 -0.1395
vt 0.5000 0.5
v 0.0704 0.0322 -0.0800
vt 0.5000 0.5
v 0.0965 0.0255 -0.1096
vt 0.5000 0.5
v 0.0821 0.0255 -0.1395
vt 0.5000 0.5
v 0.0599 0.0322 -0.1018
vt 0.5000 0.5
v 0.0348 0.0404 -0.0395
vt 0.5000 0.5
v 0.0704 0.0322 -0.0800
vt 0.5000 0.5
v 0.0599 0.0322 -0.1018
vt 0.5000 0.5
v 0.0296 0.0404 -0.0503
vt 0.5000 0.5
v 0.1073 0.0255 -0.0755
vt 0.5000 0.5
v 0.1179 0.0148 -0.0830
vt 0.5000 0.5
v 0.1061 0.0148 -0.1205
vt 0.5000 0.5
v 0.0965 0.0255 -0.1096
vt 0.5000 0.5
v 0.0783 0.0322 -0.0551
vt 0.5000 0.5
v 0.1073 0.0255 -0.0755
vt 0.5000 0.5
v 0.0965 0.0255 -0.1096
vt 0.5000 0.5
v 0.0704 0.0322 -0.0800
vt 0.5000 0.5
v 0.0387 0.0404 -0.0272
vt 0.5000 0.5
v 0.0783 0.0322 -0.0551
vt 0.5000 0.5
v 0.0704 0.0322 -0.0800
vt 0.5000 0.5
v 0.0348 0.0404 -0.0395
vt 0.5000 0.5
v 0.1139 0.0255 -0.0385
vt 0.5000 0.5
v 0.1251 0.0148 -0.0423
vt 0.5000 0.5
v 0.1179 0.0148 -0.0830
vt 0.5000 0.5
v 0.1073 0.0255 -0.0755
vt 0.5000 0.5
v 0.0831 0.0322 -0.0281
vt 0.5000 0.5
v 0.1139 0.0255 -0.0385
vt 0.5000 0.5
v 0.1073 0.0255 -0.0755
vt 0.5000 0.5
v 0.0783 0.0322 -0.0551
vt 0.5000 0.5
v 0.0410 0.0404 -0.0139
vt 0.5000 0.5
v 0.0831 0.0322 -0.0281
vt 0.5000 0.5
v 0.0783 0.0322 -0.0551
vt 0.5000 0.5
v 0.0387 0.0404 -0.0272
vt 0.5000 0.5
v 0.1161 0.0255 -0.0000
vt 0.5000 0.5
v 0.1276 0.0148 -0.0000
vt 0.5000 0.5
v 0.1251 0.0148 -0.0423
vt 0.5000 0.5
v 0.1139 0.0255 -0.0385
vt 0.5000 0.5
v 0.0847 0.0322 0.0000
vt 0.5000 0.5
v 0.1161 0.0255 -0.0000
vt 0.5000 0.5
v 0.1139 0.0255 -0.0385
vt 0.5000 0.5
v 0.0831 0.0322 -0.0281
vt 0.5000 0.5
v 0.0419 0.0404 0.0000
vt 0.5000 0.5
v 0.0847 0.0322 0.0000
vt 0.5000 0.5
v 0.0831 0.0322 -0.0281
vt 0.5000 0.5
v 0.0410 0.0404 -0.0139
vt 0.5000 0.5
v 0.1139 0.0255 0.0385
vt 0.5000 0.5
v 0.1251 0.0148 0.0423
vt 0.5000 0.5
v 0.1276 0.0148 -0.0000
vt 0.5000 0.5
v 0.1161 0.0255 -0.0000
vt 0.5000 0.5
v 0.0831 0.0322 0.0281
vt 0.5000 0.5
v 0.1139 0.0255 0.0385
vt 0.5000 0.5
v 0.1161 0.0255 -0.0000
vt 0.5000 0.5
v 0.0847 0.0322 0.0000
vt 0.5000 0.5
v 0.0410 0.0404 0.0139
vt 0.5000 0.5
v 0.0831 0.0322 0.0281
vt 0.5000 0.5
v 0.0847 0.0322 0.0000
vt 0.5000 0.5
v 0.0419 0.0404 0.0000
vt 0.5000 0.5
v 0.1073 0.0255 0.0755
vt 0.5000 0.5
v 0.1179 0.0148 0.0830
vt 0.5000 0.5
v 0.1251 0.0148 0.0423
vt 0.5000 0.5
v 0.1139 0.0255 0.0385
vt 0.5000 0.5
v 0.0783 0.0322 0.0551
vt 0.5000 0.5
v 0.1073 0.0255 0.0755
vt 0.5000 0.5
v 0.1139 0.0255 0.0385
vt 0.5000 0.5
v 0.0831 0.0322 0.0281
vt 0.5000 0.5
v 0.0387 0.0404 0.0272
vt 0.5000 0.5
v 0.0783 0.0322 0.0551
vt 0.5000 0.5
v 0.0831 0.0322 0.0281
vt 0.5000 0.5
v 0.0410 0.0404 0.0139
vt 0.5000 0.5
v 0.0965 0.0255 0.1096
vt 0.5000 0.5
v 0.1061 0.0148 0.1205
vt 0.5000 0.5
v 0.1179 0.0148 0.0830
vt 0.5000 0.5
v 0.1073 0.0255 0.0755
vt 0.5000 0.5
v 0.0704 0.0322 0.0800
vt 0.5000 0.5
v 0.0965 0.0255 0.1096
vt 0.5000 0.5
v 0.1073 0.0255 0.0755
vt 0.5000 0.5
v 0.0783 0.0322 0.0551
vt 0.5000 0.5
v 0.0348 0.0404 0.0395
vt 0.5000 0.5
v 0.0704 0.0322 0.0800
vt 0.5000 0.5
v 0.0783 0.0322 0.0551
vt 0.5000 0.5
v 0.0387 0.0404 0.0272
vt 0.5000 0.5
v 0.0821 0.0255 0.1395
vt 0.5000 0.5
v 0.0902 0.0148 0.1533
vt 0.5000 0.5
v 0.1061 0.0148 0.1205
vt 0.5000 0.5
v 0.0965 0.0255 0.1096
vt 0.5000 0.5
v 0.0599 0.0322 0.1018
vt 0.5000 0.5
v 0.0821 0.0255 0.1395
vt 0.5000 0.5
v 0.0965 0.0255 0.1096
vt 0.5000 0.5
v 0.0704 0.0322 0.0800
vt 0.5000 0.5
v 0.0296 0.0404 0.0503
vt 0.5000 0.5
v 0.0599 0.0322 0.1018
vt 0.5000 0.5
v 0.0704 0.0322 0.0800
vt 0.5000 0.5
v 0.0348 0.0404 0.0395
vt 0.5000 0.5
v 0.0645 0.0255 0.1641
vt 0.5000 0.5
v 0.0709 0.0148 0.1803
vt 0.5000 0.5
v 0.0902 0.0148 0.1533
vt 0.5000 0.5
v 0.0821 0.0255 0.1395
vt 0.5000 0.5
v 0.0471 0.0322 0.1197
vt 0.5000 0.5
v 0.0645 0.0255 0.1641
vt 0.5000 0.5
v 0.0821 0.0255 0.1395
vt 0.5000 0.5
v 0.0599 0.0322 0.1018
vt 0.5000 0.5
v 0.0233 0.0404 0.0592
vt 0.5000 0.5
v 0.0471 0.0322 0.1197
vt 0.5000 0.5
v 0.0599 0.0322 0.1018
vt 0.5000 0.5
v 0.0296 0.0404 0.0503
vt 0.5000 0.5
v 0.0444 0.0255 0.1823
vt 0.5000 0.5
v 0.0488 0.0148 0.2004
vt 0.5000 0.5
v 0.0709 0.0148 0.1803
vt 0.5000 0.5
v 0.0645 0.0255 0.1641
vt 0.5000 0.5
v 0.0324 0.0322 0.1330
vt 0.5000 0.5
v 0.0444 0.0255 0.1823
vt 0.5000 0.5
v 0.0645 0.0255 0.1641
vt 0.5000 0.5
v 0.0471 0.0322 0.1197
vt 0.5000 0.5
v 0.0160 0.0404 0.0657
vt 0.5000 0.5
v 0.0324 0.0322 0.1330
vt 0.5000 0.5
v 0.0471 0.0322 0.1197
vt 0.5000 0.5
v 0.0233 0.0404 0.0592
vt 0.5000 0.5
v 0.0226 0.0255 0.1936
vt 0.5000 0.5
v 0.0249 0.0148 0.2127
vt 0.5000 0.5
v 0.0488 0.0148 0.2004
vt 0.5000 0.5
v 0.0444 0.0255 0.1823
vt 0.5000 0.5
v 0.0165 0.0322 0.1412
vt 0.5000 0.5
v 0.0226 0.0255 0.1936
vt 0.5000 0.5
v 0.0444 0.0255 0.1823
vt 0.5000 0.5
v 0.0324 0.0322 0.1330
vt 0.5000 0.5
v 0.0082 0.0404 0.0698
vt 0.5000 0.5
v 0.0165 0.0322 0.1412
vt 0.5000 0.5
v 0.0324 0.0322 0.1330
vt 0.5000 0.5
v 0.0160 0.0404 0.0657
vt 0.5000 0.5
v -0.0000 0.0255 0.1973
vt 0.5000 0.5
v -0.0000 0.0148 0.2169
vt 0.5000 0.5
v 0.0249 0.0148 0.2127
vt 0.5000 0.5
v 0.0226 0.0255 0.1936
vt 0.5000 0.5
v -0.0000 0.0255 0.1973
vt 0.5000 0.5
v 0.0226 0.0255 0.1936
vt 0.5000 0.5
v 0.0165 0.0322 0.1412
vt 0.5000 0.5
v -0.0000 0.0322 0.1440
vt 0.5000 0.5
v -0.0000 0.0404 0.0711
vt 0.5000 0.5
v -0.0000 0.0322 0.1440
vt 0.5000 0.5
v 0.0165 0.0322 0.1412
vt 0.5000 0.5
v 0.0082 0.0404 0.0698
vt 0.5000 0.5
v -0.0226 0.0255 0.1936
vt 0.5000 0.5
v -0.0249 0.0148 0.2127
vt 0.5000 0.5
v -0.0000 0.0148 0.2169
vt 0.5000 0.5
v -0.0000 0.0255 0.1973
vt 0.5000 0.5
v -0.0165 0.0322 0.1412
vt 0.5000 0.5
v -0.0226 0.0255 0.1936
vt 0.5000 0.5
v -0.0000 0.0255 0.1973
vt 0.5000 0.5
v -0.0000 0.0322 0.1440
vt 0.5000 0.5
v -0.0082 0.0404 0.0698
vt 0.5000 0.5
v -0.0165 0.0322 0.1412
vt 0.5000 0.5
v -0.0000 0.0322 0.1440
vt 0.5000 0.5
v -0.0000 0.0404 0.0711
vt 0.5000 0.5
v -0.0444 0.0255 0.1823
vt 0.5000 0.5
v -0.0488 0.0148 0.2004
vt 0.5000 0.5
v -0.0249 0.0148 0.2127
vt 0.5000 0.5
v -0.0226 0.0255 0.1936
vt 0.5000 0.5
v -0.0324 0.0322 0.1330
vt 0.5000 0.5
v -0.0444 0.0255 0.1823
vt 0.5000 0.5
v -0.0226 0.0255 0.1936
vt 0.5000 0.5
v -0.0165 0.0322 0.1412
vt 0.5000 0.5
v -0.0160 0.0404 0.0657
vt 0.5000 0.5
v -0.0324 0.0322 0.1330
vt 0.5000 0.5
v -0.0165 0.0322 0.1412
vt 0.5000 0.5
v -0.0082 0.0404 0.0698
vt 0.5000 0.5
v -0.0645 0.0255 0.1641
vt 0.5000 0.5
v -0.0709 0.0148 0.1803
vt 0.5000 0.5
v -0.0488 0.0148 0.2004
vt 0.5000 0.5
v -0.0444 0.0255 0.1823
vt 0.5000 0.5
v -0.0471 0.0322 0.1197
vt 0.5000 0.5
v -0.0645 0.0255 0.1641
vt 0.5000 0.5
v -0.0444 0.0255 0.1823
vt 0.5000 0.5
v -0.0324 0.0322 0.1330
vt 0.5000 0.5
v -0.0233 0.0404 0.0592
vt 0.5000 0.5
v -0.0471 0.0322 0.1197
vt 0.5000 0.5
v -0.0324 0.0322 0.1330
vt 0.5000 0.5
v -0.0160 0.0404 0.0657
vt 0.5000 0.5
v -0.0821 0.0255 0.1395
vt 0.5000 0.5
v -0.0902 0.0148 0.1533
vt 0.5000 0.5
v -0.0709 0.0148 0.1803
vt 0.5000 0.5
v -0.0645 0.0255 0.1641
vt 0.5000 0.5
v -0.0599 0.0322 0.1018
vt 0.5000 0.5
v -0.0821 0.0255 0.1395
vt 0.5000 0.5
v -0.0645 0.0255 0.1641
vt 0.5000 0.5
v -0.0471 0.0322 0.1197
vt 0.5000 0.5
v -0.0296 0.0404 0.0503
vt 0.5000 0.5
v -0.0599 0.0322 0.1018
vt 0.5000 0.5
v -0.0471 0.0322 0.1197
vt 0.5000 0.5
v -0.0233 0.0404 0.0592
vt 0.5000 0.5
v -0.0965 0.0255 0.1096
vt 0.5000 0.5
v -0.1061 0.0148 0.1205
vt 0.5000 0.5
v -0.0902 0.0148 0.1533
vt 0.5000 0.5
v -0.0821 0.0255 0.1395
vt 0.5000 0.5
v -0.0704 0.0322 0.0800
vt 0.5000 0.5
v -0.0965 0.0255 0.1096
vt 0.5000 0.5
v -0.0821 0.0255 0.1395
vt 0.5000 0.5
v -0.0599 0.0322 0.1018
vt 0.5000 0.5
v -0.0348 0.0404 0.0395
vt 0.5000 0.5
v -0.0704 0.0322 0.0800
vt 0.5000 0.5
v -0.0599 0.0322 0.1018
vt 0.5000 0.5
v -0.0296 0.0404 0.0503
vt 0.5000 0.5
v -0.1073 0.0255 0.0755
vt 0.5000 0.5
v -0.1179 0.0148 0.0830
vt 0.5000 0.5
v -0.1061 0.0148 0.1205
vt 0.5000 0.5
v -0.0965 0.0255 0.1096
vt 0.5000 0.5
v -0.0783 0.0322 0.0551
vt 0.5000 0.5
v -0.1073 0.0255 0.0755
vt 0.5000 0.5
v -0.0965 0.0255 0.1096
vt 0.5000 0.5
v -0.0704 0.0322 0.0800
vt 0.5000 0.5
v -0.0387 0.0404 0.0272
vt 0.5000 0.5
v -0.0783 0.0322 0.0551
vt 0.5000 0.5
v -0.0704 0.0322 0.0800
vt 0.5000 0.5
v -0.0348 0.0404 0.0395
vt 0.5000 0.5
v -0.1139 0.0255 0.0385
vt 0.5000 0.5
v -0.1251 0.0148 0.0423
vt 0.5000 0.5
v -0.1179 0.0148 0.0830
vt 0.5000 0.5
v -0.1073 0.0255 0.0755
vt 0.5000 0.5
v -0.0831 0.0322 0.0281
vt 0.5000 0.5
v -0.1139 0.0255 0.0385
vt 0.5000 0.5
v -0.1073 0.0255 0.0755
vt 0.5000 0.5
v -0.0783 0.0322 0.0551
vt 0.5000 0.5
v -0.0410 0.0404 0.0139
vt 0.5000 0.5
v -0.0831 0.0322 0.0281
vt 0.5000 0.5
v -0.0783 0.0322 0.0551
vt 0.5000 0.5
v -0.0387 0.0404 0.0272
vt 0.5000 0.5
v -0.1161 0.0255 -0.0000
vt 0.5000 0.5
v -0.1276 0.0148 -0.0000
vt 0.5000 0.5
v -0.1251 0.0148 0.0423
vt 0.5000 0.5
v -0.1139 0.0255 0.0385
vt 0.5000 0.5
v -0.0847 0.0322 -0.0000
vt 0.5000 0.5
v -0.1161 0.0255 -0.0000
vt 0.5000 0.5
v -0.1139 0.0255 0.0385
vt 0.5000 0.5
v -0.0831 0.0322 0.0281
vt 0.5000 0.5
v -0.0419 0.0404 -0.0000
vt 0.5000 0.5
v -0.0847 0.0322 -0.0000
vt 0.5000 0.5
v -0.0831 0.0322 0.0281
vt 0.5000 0.5
v -0.0410 0.0404 0.0139
vt 0.5000 0.5
v -0.1139 0.0255 -0.0385
vt 0.5000 0.5
v -0.1251 0.0148 -0.0423
vt 0.5000 0.5
v -0.1276 0.0148 -0.0000
vt 0.5000 0.5
v -0.1161 0.0255 -0.0000
vt 0.5000 0.5
v -0.0831 0.0322 -0.0281
vt 0.5000 0.5
v -0.1139 0.0255 -0.0385
vt 0.5000 0.5
v -0.1161 0.0255 -0.0000
vt 0.5000 0.5
v -0.0847 0.0322 -0.0000
vt 0.5000 0.5
v -0.0410 0.0404 -0.0139
vt 0.5000 0.5
v -0.0831 0.0322 -0.0281
vt 0.5000 0.5
v -0.0847 0.0322 -0.0000
vt 0.5000 0.5
v -0.0419 0.0404 -0.0000
vt 0.5000 0.5
v -0.1073 0.0255 -0.0755
vt 0.5000 0.5
v -0.1179 0.0148 -0.0830
vt 0.5000 0.5
v -0.1251 0.0148 -0.0423
vt 0.5000 0.5
v -0.1139 0.0255 -0.0385
vt 0.5000 0.5
v -0.0783 0.0322 -0.0551
vt 0.5000 0.5
v -0.1073 0.0255 -0.0755
vt 0.5000 0.5
v -0.1139 0.0255 -0.0385
vt 0.5000 0.5
v -0.0831 0.0322 -0.0281
vt 0.5000 0.5
v -0.0387 0.0404 -0.0272
vt 0.5000 0.5
v -0.0783 0.0322 -0.0551
vt 0.5000 0.5
v -0.0831 0.0322 -0.0281
vt 0.5000 0.5
v -0.0410 0.0404 -0.0139
vt 0.5000 0.5
v -0.0965 0.0255 -0.1096
vt 0.5000 0.5
v -0.1061 0.0148 -0.1205
vt 0.5000 0.5
v -0.1179 0.0148 -0.0830
vt 0.5000 0.5
v -0.1073 0.0255 -0.0755
vt 0.5000 0.5
v -0.0704 0.0322 -0.0800
vt 0.5000 0.5
v -0.0965 0.0255 -0.1096
vt 0.5000 0.5
v -0.1073 0.0255 -0.0755
vt 0.5000 0.5
v -0.0783 0.0322 -0.0551
vt 0.5000 0.5
v -0.0348 0.0404 -0.0395
vt 0.5000 0.5
v -0.0704 0.0322 -0.0800
vt 0.5000 0.5
v -0.0783 0.0322 -0.0551
vt 0.5000 0.5
v -0.0387 0.0404 -0.0272
vt 0.5000 0.5
v -0.0821 0.0255 -0.1395
vt 0.5000 0.5
v -0.0902 0.0148 -0.1533
vt 0.5000 0.5
v -0.1061 0.0148 -0.1205
vt 0.5000 0.5
v -0.0965 0.0255 -0.1096
vt 0.5000 0.5
v -0.0599 0.0322 -0.1018
vt 0.5000 0.5
v -0.0821 0.0255 -0.1395
vt 0.5000 0.5
v -0.0965 0.0255 -0.1096
vt 0.5000 0.5
v -0.0704 0.0322 -0.0800
vt 0.5000 0.5
v -0.0296 0.0404 -0.0503
vt 0.5000 0.5
v -0.0599 0.0322 -0.1018
vt 0.5000 0.5
v -0.0704 0.0322 -0.0800
vt 0.5000 0.5
v -0.0348 0.0404 -0.0395
vt 0.5000 0.5
v -0.0645 0.0255 -0.1641
vt 0.5000 0.5
v -0.0709 0.0148 -0.1803
vt 0.5000 0.5
v -0.0902 0.0148 -0.1533
vt 0.5000 0.5
v -0.0821 0.0255 -0.1395
vt 0.5000 0.5
v -0.0471 0.0322 -0.1197
vt 0.5000 0.5
v -0.0645 0.0255 -0.1641
vt 0.5000 0.5
v -0.0821 0.0255 -0.1395
vt 0.5000 0.5
v -0.0599 0.0322 -0.1018
vt 0.5000 0.5
v -0.0233 0.0404 -0.0592
vt 0.5000 0.5
v -0.0471 0.0322 -0.1197
vt 0.5000 0.5
v -0.0599 0.0322 -0.1018
vt 0.5000 0.5
v -0.0296 0.0404 -0.0503
vt 0.5000 0.5
v -0.0444 0.0255 -0.1823
vt 0.5000 0.5
v -0.0488 0.0148 -0.2004
vt 0.5000 0.5
v -0.0709 0.0148 -0.1803
vt 0.5000 0.5
v -0.0645 0.0255 -0.1641
vt 0.5000 0.5
v -0.0324 0.0322 -0.1330
vt 0.5000 0.5
v -0.0444 0.0255 -0.1823
vt 0.5000 0.5
v -0.0645 0.0255 -0.1641
vt 0.5000 0.5
v -0.0471 0.0322 -0.1197
vt 0.5000 0.5
v -0.0324 0.0322 -0.1330
vt 0.5000 0.5
v -0.0471 0.0322 -0.1197
vt 0.5000 0.5
v -0.0233 0.0404 -0.0592
vt 0.5000 0.5
v -0.0160 0.0404 -0.0657
vt 0.5000 0.5
v -0.0226 0.0255 -0.1936
vt 0.5000 0.5
v -0.0249 0.0148 -0.2127
vt 0.5000 0.5
v -0.0488 0.0148 -0.2004
vt 0.5000 0.5
v -0.0444 0.0255 -0.1823
vt 0.5000 0.5
v -0.0165 0.0322 -0.1412
vt 0.5000 0.5
v -0.0226 0.0255 -0.1936
vt 0.5000 0.5
v -0.0444 0.0255 -0.1823
vt 0.5000 0.5
v -0.0324 0.0322 -0.1330
vt 0.5000 0.5
v -0.0082 0.0404 -0.0698
vt 0.5000 0.5
v -0.0165 0.0322 -0.1412
vt 0.5000 0.5
v -0.0324 0.0322 -0.1330
vt 0.5000 0.5
v -0.0160 0.0404 -0.0657
vt 0.5000 0.5
v -0.0000 0.0255 -0.1973
vt 0.5000 0.5
v -0.0000 0.0148 -0.2169
vt 0.5000 0.5
v -0.0249 0.0148 -0.2127
vt 0.5000 0.5
v -0.0226 0.0255 -0.1936
vt 0.5000 0.5
v -0.0000 0.0322 -0.1440
vt 0.5000 0.5
v -0.0000 0.0255 -0.1973
vt 0.5000 0.5
v -0.0226 0.0255 -0.1936
vt 0.5000 0.5
v -0.0165 0.0322 -0.1412
vt 0.5000 0.5
v -0.0000 0.0404 -0.0711
vt 0.5000 0.5
v -0.0000 0.0322 -0.1440
vt 0.5000 0.5
v -0.0165 0.0322 -0.1412
vt 0.5000 0.5
v -0.0082 0.0404 -0.0698
vt 0.5000 0.5
v -0.1186 0.1781 -0.0075
vt 0.5000 0.5
v -0.0221 0.0404 -0.0075
vt 0.5000 0.5
v -0.0226 0.0404 -0.0000
vt 0.5000 0.5
v -0.1190 0.1781 -0.0000
vt 0.5000 0.5
v 0.0082 0.0404 -0.0698
vt 0.5000 0.5
v -0.0000 0.0404 -0.0711
vt 0.5000 0.5
v -0.0000 0.0404 -0.0383
vt 0.5000 0.5
v 0.0044 0.0404 -0.0376
vt 0.5000 0.5
v 0.0160 0.0404 -0.0657
vt 0.5000 0.5
v 0.0082 0.0404 -0.0698
vt 0.5000 0.5
v 0.0044 0.0404 -0.0376
vt 0.5000 0.5
v 0.0086 0.0404 -0.0354
vt 0.5000 0.5
v 0.0233 0.0404 -0.0592
vt 0.5000 0.5
v 0.0160 0.0404 -0.0657
vt 0.5000 0.5
v 0.0086 0.0404 -0.0354
vt 0.5000 0.5
v 0.0125 0.0404 -0.0319
vt 0.5000 0.5
v 0.0296 0.0404 -0.0503
vt 0.5000 0.5
v 0.0233 0.0404 -0.0592
vt 0.5000 0.5
v 0.0125 0.0404 -0.0319
vt 0.5000 0.5
v 0.0159 0.0404 -0.0271
vt 0.5000 0.5
v 0.0348 0.0404 -0.0395
vt 0.5000 0.5
v 0.0296 0.0404 -0.0503
vt 0.5000 0.5
v 0.0159 0.0404 -0.0271
vt 0.5000 0.5
v 0.0188 0.0404 -0.0213
vt 0.5000 0.5
v 0.0387 0.0404 -0.0272
vt 0.5000 0.5
v 0.0348 0.0404 -0.0395
vt 0.5000 0.5
v 0.0188 0.0404 -0.0213
vt 0.5000 0.5
v 0.0208 0.0404 -0.0147
vt 0.5000 0.5
v 0.0410 0.0404 -0.0139
vt 0.5000 0.5
v 0.0387 0.0404 -0.0272
vt 0.5000 0.5
v 0.0208 0.0404 -0.0147
vt 0.5000 0.5
v 0.0221 0.0404 -0.0075
vt 0.5000 0.5
v 0.0419 0.0404 0.0000
vt 0.5000 0.5
v 0.0226 0.0404 0.0000
vt 0.5000 0.5
v 0.0410 0.0404 0.0139
vt 0.5000 0.5
v 0.0221 0.0404 0.0075
vt 0.5000 0.5
v 0.0208 0.0404 0.0147
vt 0.5000 0.5
v 0.0387 0.0404 0.0272
vt 0.5000 0.5
v 0.0188 0.0404 0.0213
vt 0.5000 0.5
v 0.0348 0.0404 0.0395
vt 0.5000 0.5
v 0.0159 0.0404 0.0271
vt 0.5000 0.5
v 0.0296 0.0404 0.0503
vt 0.5000 0.5
v 0.0125 0.0404 0.0319
vt 0.5000 0.5
v 0.0233 0.0404 0.0592
vt 0.5000 0.5
v 0.0086 0.0404 0.0354
vt 0.5000 0.5
v 0.0160 0.0404 0.0657
vt 0.5000 0.5
v 0.0044 0.0404 0.0376
vt 0.5000 0.5
v 0.0082 0.0404 0.0698
vt 0.5000 0.5
v -0.0000 0.0404 0.0383
vt 0.5000 0.5
v -0.0000 0.0404 0.0711
vt 0.5000 0.5
v -0.0044 0.0404 0.0376
vt 0.5000 0.5
v -0.0082 0.0404 0.0698
vt 0.5000 0.5
v -0.0044 0.0404 0.0376
vt 0.5000 0.5
v -0.0086 0.0404 0.0354
vt 0.5000 0.5
v -0.0160 0.0404 0.0657
vt 0.5000 0.5
v -0.0082 0.0404 0.0698
vt 0.5000 0.5
v -0.0125 0.0404 0.0319
vt 0.5000 0.5
v -0.0233 0.0404 0.0592
vt 0.5000 0.5
v -0.0125 0.0404 0.0319
vt 0.5000 0.5
v -0.0159 0.0404 0.0271
vt 0.5000 0.5
v -0.0296 0.0404 0.0503
vt 0.5000 0.5
v -0.0233 0.0404 0.0592
vt 0.5000 0.5
v -0.0159 0.0404 0.0271
vt 0.5000 0.5
v -0.0188 0.0404 0.0213
vt 0.5000 0.5
v -0.0348 0.0404 0.0395
vt 0.5000 0.5
v -0.0296 0.0404 0.0503
vt 0.5000 0.5
v -0.0188 0.0404 0.0213
vt 0.5000 0.5
v -0.0208 0.0404 0.0147
vt 0.5000 0.5
v -0.0387 0.0404 0.0272
vt 0.5000 0.5
v -0.0348 0.0404 0.0395
vt 0.5000 0.5
v -0.0221 0.0404 0.0075
vt 0.5000 0.5
v -0.0410 0.0404 0.0139
vt 0.5000 0.5
v -0.0226 0.0404 -0.0000
vt 0.5000 0.5
v -0.0419 0.0404 -0.0000
vt 0.5000 0.5
v -0.0221 0.0404 -0.0075
vt 0.5000 0.5
v -0.0410 0.0404 -0.0139
vt 0.5000 0.5
v -0.0208 0.0404 -0.0147
vt 0.5000 0.5
v -0.0387 0.0404 -0.0272
vt 0.5000 0.5
v -0.0410 0.0404 -0.0139
vt 0.5000 0.5
v -0.0221 0.0404 -0.0075
vt 0.5000 0.5
v -0.0188 0.0404 -0.0213
vt 0.5000 0.5
v -0.0348 0.0404 -0.0395
vt 0.5000 0.5
v -0.0387 0.0404 -0.0272
vt 0.5000 0.5
v -0.0208 0.0404 -0.0147
vt 0.5000 0.5
v -0.0159 0.0404 -0.0271
vt 0.5000 0.5
v -0.0296 0.0404 -0.0503
vt 0.5000 0.5
v -0.0125 0.0404 -0.0319
vt 0.5000 0.5
v -0.0233 0.0404 -0.0592
vt 0.5000 0.5
v -0.0086 0.0404 -0.0354
vt 0.5000 0.5
v -0.0160 0.0404 -0.0657
vt 0.5000 0.5
v -0.0233 0.0404 -0.0592
vt 0.5000 0.5
v -0.0125 0.0404 -0.0319
vt 0.5000 0.5
v -0.0044 0.0404 -0.0376
vt 0.5000 0.5
v -0.0082 0.0404 -0.0698
vt 0.5000 0.5
v -0.0160 0.0404 -0.0657
vt 0.5000 0.5
v -0.0086 0.0404 -0.0354
vt 0.5000 0.5
v -0.0927 0.3215 -0.0376
vt 0.5000 0.5
v -0.0920 0.1781 -0.0376
vt 0.5000 0.5
v -0.0964 0.1781 -0.0383
vt 0.5000 0.5
v -0.0964 0.3237 -0.0383
vt 0.5000 0.5
v -0.0805 0.1781 0.0271
vt 0.5000 0.5
v 0.0159 0.0404 0.0271
vt 0.5000 0.5
v 0.0188 0.0404 0.0213
vt 0.5000 0.5
v -0.0777 0.1781 0.0213
vt 0.5000 0.5
v -0.1173 0.1781 -0.0147
vt 0.5000 0.5
v -0.0208 0.0404 -0.0147
vt 0.5000 0.5
v -0.0221 0.0404 -0.0075
vt 0.5000 0.5
v -0.1186 0.1781 -0.0075
vt 0.5000 0.5
v -0.0839 0.1781 0.0319
vt 0.5000 0.5
v 0.0125 0.0404 0.0319
vt 0.5000 0.5
v 0.0159 0.0404 0.0271
vt 0.5000 0.5
v -0.0805 0.1781 0.0271
vt 0.5000 0.5
v -0.1152 0.1781 -0.0213
vt 0.5000 0.5
v -0.0188 0.0404 -0.0213
vt 0.5000 0.5
v -0.0208 0.0404 -0.0147
vt 0.5000 0.5
v -0.1173 0.1781 -0.0147
vt 0.5000 0.5
v -0.0878 0.1781 0.0354
vt 0.5000 0.5
v 0.0086 0.0404 0.0354
vt 0.5000 0.5
v 0.0125 0.0404 0.0319
vt 0.5000 0.5
v -0.0839 0.1781 0.0319
vt 0.5000 0.5
v -0.0920 0.1781 -0.0376
vt 0.5000 0.5
v 0.0044 0.0404 -0.0376
vt 0.5000 0.5
v -0.0000 0.0404 -0.0383
vt 0.5000 0.5
v -0.0964 0.1781 -0.0383
vt 0.5000 0.5
v -0.1124 0.1781 -0.0271
vt 0.5000 0.5
v -0.0159 0.0404 -0.0271
vt 0.5000 0.5
v -0.0188 0.0404 -0.0213
vt 0.5000 0.5
v -0.1152 0.1781 -0.0213
vt 0.5000 0.5
v -0.0920 0.1781 0.0376
vt 0.5000 0.5
v 0.0044 0.0404 0.0376
vt 0.5000 0.5
v 0.0086 0.0404 0.0354
vt 0.5000 0.5
v -0.0878 0.1781 0.0354
vt 0.5000 0.5
v -0.0878 0.1781 -0.0354
vt 0.5000 0.5
v 0.0086 0.0404 -0.0354
vt 0.5000 0.5
v 0.0044 0.0404 -0.0376
vt 0.5000 0.5
v -0.0920 0.1781 -0.0376
vt 0.5000 0.5
v -0.1090 0.1781 -0.0319
vt 0.5000 0.5
v -0.0125 0.0404 -0.0319
vt 0.5000 0.5
v -0.0159 0.0404 -0.0271
vt 0.5000 0.5
v -0.1124 0.1781 -0.0271
vt 0.5000 0.5
v -0.0964 0.1781 0.0383
vt 0.5000 0.5
v -0.0000 0.0404 0.0383
vt 0.5000 0.5
v 0.0044 0.0404 0.0376
vt 0.5000 0.5
v -0.0920 0.1781 0.0376
vt 0.5000 0.5
v -0.0839 0.1781 -0.0319
vt 0.5000 0.5
v 0.0125 0.0404 -0.0319
vt 0.5000 0.5
v 0.0086 0.0404 -0.0354
vt 0.5000 0.5
v -0.0878 0.1781 -0.0354
vt 0.5000 0.5
v -0.1051 0.1781 -0.0354
vt 0.5000 0.5
v -0.0086 0.0404 -0.0354
vt 0.5000 0.5
v -0.0125 0.0404 -0.0319
vt 0.5000 0.5
v -0.1090 0.1781 -0.0319
vt 0.5000 0.5
v -0.1008 0.1781 0.0376
vt 0.5000 0.5
v -0.0044 0.0404 0.0376
vt 0.5000 0.5
v -0.0000 0.0404 0.0383
vt 0.5000 0.5
v -0.0964 0.1781 0.0383
vt 0.5000 0.5
v -0.0805 0.1781 -0.0271
vt 0.5000 0.5
v 0.0159 0.0404 -0.0271
vt 0.5000 0.5
v 0.0125 0.0404 -0.0319
vt 0.5000 0.5
v -0.0839 0.1781 -0.0319
vt 0.5000 0.5
v -0.1008 0.1781 -0.0376
vt 0.5000 0.5
v -0.0044 0.0404 -0.0376
vt 0.5000 0.5
v -0.0086 0.0404 -0.0354
vt 0.5000 0.5
v -0.1051 0.1781 -0.0354
vt 0.5000 0.5
v -0.1051 0.1781 0.0354
vt 0.5000 0.5
v -0.0086 0.0404 0.0354
vt 0.5000 0.5
v -0.0044 0.0404 0.0376
vt 0.5000 0.5
v -0.1008 0.1781 0.0376
vt 0.5000 0.5
v -0.0777 0.1781 -0.0213
vt 0.5000 0.5
v 0.0188 0.0404 -0.0213
vt 0.5000 0.5
v 0.0159 0.0404 -0.0271
vt 0.5000 0.5
v -0.0805 0.1781 -0.0271
vt 0.5000 0.5
v -0.0964 0.1781 -0.0383
vt 0.5000 0.5
v -0.0000 0.0404 -0.0383
vt 0.5000 0.5
v -0.0044 0.0404 -0.0376
vt 0.5000 0.5
v -0.1008 0.1781 -0.0376
vt 0.5000 0.5
v -0.1090 0.1781 0.0319
vt 0.5000 0.5
v -0.0125 0.0404 0.0319
vt 0.5000 0.5
v -0.0086 0.0404 0.0354
vt 0.5000 0.5
v -0.1051 0.1781 0.0354
vt 0.5000 0.5
v -0.0756 0.1781 -0.0147
vt 0.5000 0.5
v 0.0208 0.0404 -0.0147
vt 0.5000 0.5
v 0.0188 0.0404 -0.0213
vt 0.5000 0.5
v -0.0777 0.1781 -0.0213
vt 0.5000 0.5
v -0.1124 0.1781 0.0271
vt 0.5000 0.5
v -0.0159 0.0404 0.0271
vt 0.5000 0.5
v -0.0125 0.0404 0.0319
vt 0.5000 0.5
v -0.1090 0.1781 0.0319
vt 0.5000 0.5
v -0.0743 0.1781 -0.0075
vt 0.5000 0.5
v 0.0221 0.0404 -0.0075
vt 0.5000 0.5
v 0.0208 0.0404 -0.0147
vt 0.5000 0.5
v -0.0756 0.1781 -0.0147
vt 0.5000 0.5
v -0.1152 0.1781 0.0213
vt 0.5000 0.5
v -0.0188 0.0404 0.0213
vt 0.5000 0.5
v -0.0159 0.0404 0.0271
vt 0.5000 0.5
v -0.1124 0.1781 0.0271
vt 0.5000 0.5
v -0.0739 0.1781 0.0000
vt 0.5000 0.5
v 0.0226 0.0404 0.0000
vt 0.5000 0.5
v 0.0221 0.0404 -0.0075
vt 0.5000 0.5
v -0.0743 0.1781 -0.0075
vt 0.5000 0.5
v -0.1173 0.1781 0.0147
vt 0.5000 0.5
v -0.0208 0.0404 0.0147
vt 0.5000 0.5
v -0.0188 0.0404 0.0213
vt 0.5000 0.5
v -0.1152 0.1781 0.0213
vt 0.5000 0.5
v -0.0743 0.1781 0.0075
vt 0.5000 0.5
v 0.0221 0.0404 0.0075
vt 0.5000 0.5
v 0.0226 0.0404 0.0000
vt 0.5000 0.5
v -0.0739 0.1781 0.0000
vt 0.5000 0.5
v -0.1186 0.1781 0.0075
vt 0.5000 0.5
v -0.0221 0.0404 0.0075
vt 0.5000 0.5
v -0.0208 0.0404 0.0147
vt 0.5000 0.5
v -0.1173 0.1781 0.0147
vt 0.5000 0.5
v -0.0756 0.1781 0.0147
vt 0.5000 0.5
v 0.0208 0.0404 0.0147
vt 0.5000 0.5
v 0.0221 0.0404 0.0075
vt 0.5000 0.5
v -0.0743 0.1781 0.0075
vt 0.5000 0.5
v -0.1190 0.1781 -0.0000
vt 0.5000 0.5
v -0.0226 0.0404 -0.0000
vt 0.5000 0.5
v -0.0221 0.0404 0.0075
vt 0.5000 0.5
v -0.1186 0.1781 0.0075
vt 0.5000 0.5
v -0.0777 0.1781 0.0213
vt 0.5000 0.5
v 0.0188 0.0404 0.0213
vt 0.5000 0.5
v 0.0208 0.0404 0.0147
vt 0.5000 0.5
v -0.0756 0.1781 0.0147
vt 0.5000 0.5
v -0.0257 0.3837 -0.0271
vt 0.5000 0.5
v -0.0827 0.3156 -0.0271
vt 0.5000 0.5
v -0.0857 0.3173 -0.0319
vt 0.5000 0.5
v -0.0272 0.3867 -0.0319
vt 0.5000 0.5
v -0.1124 0.1781 -0.0271
vt 0.5000 0.5
v -0.1152 0.1781 -0.0213
vt 0.5000 0.5
v -0.1126 0.3332 -0.0213
vt 0.5000 0.5
v -0.1102 0.3318 -0.0271
vt 0.5000 0.5
v -0.0927 0.3215 0.0376
vt 0.5000 0.5
v -0.0920 0.1781 0.0376
vt 0.5000 0.5
v -0.0878 0.1781 0.0354
vt 0.5000 0.5
v -0.0890 0.3193 0.0354
vt 0.5000 0.5
v -0.0890 0.3193 -0.0354
vt 0.5000 0.5
v -0.0878 0.1781 -0.0354
vt 0.5000 0.5
v -0.0920 0.1781 -0.0376
vt 0.5000 0.5
v -0.0927 0.3215 -0.0376
vt 0.5000 0.5
v -0.1090 0.1781 -0.0319
vt 0.5000 0.5
v -0.1124 0.1781 -0.0271
vt 0.5000 0.5
v -0.1102 0.3318 -0.0271
vt 0.5000 0.5
v -0.1072 0.3301 -0.0319
vt 0.5000 0.5
v -0.0964 0.3237 0.0383
vt 0.5000 0.5
v -0.0964 0.1781 0.0383
vt 0.5000 0.5
v -0.0920 0.1781 0.0376
vt 0.5000 0.5
v -0.0927 0.3215 0.0376
vt 0.5000 0.5
v -0.0857 0.3173 -0.0319
vt 0.5000 0.5
v -0.0839 0.1781 -0.0319
vt 0.5000 0.5
v -0.0878 0.1781 -0.0354
vt 0.5000 0.5
v -0.0890 0.3193 -0.0354
vt 0.5000 0.5
v -0.1051 0.1781 -0.0354
vt 0.5000 0.5
v -0.1090 0.1781 -0.0319
vt 0.5000 0.5
v -0.1072 0.3301 -0.0319
vt 0.5000 0.5
v -0.1039 0.3281 -0.0354
vt 0.5000 0.5
v -0.1002 0.3259 0.0376
vt 0.5000 0.5
v -0.1008 0.1781 0.0376
vt 0.5000 0.5
v -0.0964 0.1781 0.0383
vt 0.5000 0.5
v -0.0964 0.3237 0.0383
vt 0.5000 0.5
v -0.0827 0.3156 -0.0271
vt 0.5000 0.5
v -0.0805 0.1781 -0.0271
vt 0.5000 0.5
v -0.0839 0.1781 -0.0319
vt 0.5000 0.5
v -0.0857 0.3173 -0.0319
vt 0.5000 0.5
v -0.1002 0.3259 -0.0376
vt 0.5000 0.5
v -0.1008 0.1781 -0.0376
vt 0.5000 0.5
v -0.1051 0.1781 -0.0354
vt 0.5000 0.5
v -0.1039 0.3281 -0.0354
vt 0.5000 0.5
v -0.1039 0.3281 0.0354
vt 0.5000 0.5
v -0.1051 0.1781 0.0354
vt 0.5000 0.5
v -0.1008 0.1781 0.0376
vt 0.5000 0.5
v -0.1002 0.3259 0.0376
vt 0.5000 0.5
v -0.0803 0.3142 -0.0213
vt 0.5000 0.5
v -0.0777 0.1781 -0.0213
vt 0.5000 0.5
v -0.0805 0.1781 -0.0271
vt 0.5000 0.5
v -0.0827 0.3156 -0.0271
vt 0.5000 0.5
v -0.0964 0.3237 -0.0383
vt 0.5000 0.5
v -0.0964 0.1781 -0.0383
vt 0.5000 0.5
v -0.1008 0.1781 -0.0376
vt 0.5000 0.5
v -0.1002 0.3259 -0.0376
vt 0.5000 0.5
v -0.1072 0.3301 0.0319
vt 0.5000 0.5
v -0.1090 0.1781 0.0319
vt 0.5000 0.5
v -0.1051 0.1781 0.0354
vt 0.5000 0.5
v -0.1039 0.3281 0.0354
vt 0.5000 0.5
v -0.0785 0.3131 -0.0147
vt 0.5000 0.5
v -0.0756 0.1781 -0.0147
vt 0.5000 0.5
v -0.0777 0.1781 -0.0213
vt 0.5000 0.5
v -0.0803 0.3142 -0.0213
vt 0.5000 0.5
v -0.1102 0.3318 0.0271
vt 0.5000 0.5
v -0.1124 0.1781 0.0271
vt 0.5000 0.5
v -0.1090 0.1781 0.0319
vt 0.5000 0.5
v -0.1072 0.3301 0.0319
vt 0.5000 0.5
v -0.0774 0.3125 -0.0075
vt 0.5000 0.5
v -0.0743 0.1781 -0.0075
vt 0.5000 0.5
v -0.0756 0.1781 -0.0147
vt 0.5000 0.5
v -0.0785 0.3131 -0.0147
vt 0.5000 0.5
v -0.1126 0.3332 0.0213
vt 0.5000 0.5
v -0.1152 0.1781 0.0213
vt 0.5000 0.5
v -0.1124 0.1781 0.0271
vt 0.5000 0.5
v -0.1102 0.3318 0.0271
vt 0.5000 0.5
v -0.0770 0.3122 0.0000
vt 0.5000 0.5
v -0.0739 0.1781 0.0000
vt 0.5000 0.5
v -0.0743 0.1781 -0.0075
vt 0.5000 0.5
v -0.0774 0.3125 -0.0075
vt 0.5000 0.5
v -0.1144 0.3343 0.0147
vt 0.5000 0.5
v -0.1173 0.1781 0.0147
vt 0.5000 0.5
v -0.1152 0.1781 0.0213
vt 0.5000 0.5
v -0.1126 0.3332 0.0213
vt 0.5000 0.5
v -0.0743 0.1781 0.0075
vt 0.5000 0.5
v -0.0739 0.1781 0.0000
vt 0.5000 0.5
v -0.0770 0.3122 0.0000
vt 0.5000 0.5
v -0.0774 0.3125 0.0075
vt 0.5000 0.5
v -0.1155 0.3350 0.0075
vt 0.5000 0.5
v -0.1186 0.1781 0.0075
vt 0.5000 0.5
v -0.1173 0.1781 0.0147
vt 0.5000 0.5
v -0.1144 0.3343 0.0147
vt 0.5000 0.5
v -0.0756 0.1781 0.0147
vt 0.5000 0.5
v -0.0743 0.1781 0.0075
vt 0.5000 0.5
v -0.0774 0.3125 0.0075
vt 0.5000 0.5
v -0.0785 0.3131 0.0147
vt 0.5000 0.5
v -0.1159 0.3352 -0.0000
vt 0.5000 0.5
v -0.1190 0.1781 -0.0000
vt 0.5000 0.5
v -0.1186 0.1781 0.0075
vt 0.5000 0.5
v -0.1155 0.3350 0.0075
vt 0.5000 0.5
v -0.0777 0.1781 0.0213
vt 0.5000 0.5
v -0.0756 0.1781 0.0147
vt 0.5000 0.5
v -0.0785 0.3131 0.0147
vt 0.5000 0.5
v -0.0803 0.3142 0.0213
vt 0.5000 0.5
v -0.1186 0.1781 -0.0075
vt 0.5000 0.5
v -0.1190 0.1781 -0.0000
vt 0.5000 0.5
v -0.1159 0.3352 -0.0000
vt 0.5000 0.5
v -0.1155 0.3350 -0.0075
vt 0.5000 0.5
v -0.0805 0.1781 0.0271
vt 0.5000 0.5
v -0.0777 0.1781 0.0213
vt 0.5000 0.5
v -0.0803 0.3142 0.0213
vt 0.5000 0.5
v -0.0827 0.3156 0.0271
vt 0.5000 0.5
v -0.1173 0.1781 -0.0147
vt 0.5000 0.5
v -0.1186 0.1781 -0.0075
vt 0.5000 0.5
v -0.1155 0.3350 -0.0075
vt 0.5000 0.5
v -0.1144 0.3343 -0.0199
vt 0.5000 0.5
v -0.0839 0.1781 0.0319
vt 0.5000 0.5
v -0.0805 0.1781 0.0271
vt 0.5000 0.5
v -0.0827 0.3156 0.0271
vt 0.5000 0.5
v -0.0857 0.3173 0.0319
vt 0.5000 0.5
v -0.1126 0.3332 -0.0213
vt 0.5000 0.5
v -0.1152 0.1781 -0.0213
vt 0.5000 0.5
v -0.1173 0.1781 -0.0147
vt 0.5000 0.5
v -0.1144 0.3343 -0.0199
vt 0.5000 0.5
v -0.0878 0.1781 0.0354
vt 0.5000 0.5
v -0.0839 0.1781 0.0319
vt 0.5000 0.5
v -0.0857 0.3173 0.0319
vt 0.5000 0.5
v -0.0890 0.3193 0.0354
vt 0.5000 0.5
v -0.0230 0.3781 0.0075
vt 0.5000 0.5
v -0.0228 0.3777 0.0000
vt 0.5000 0.5
v -0.0230 0.3781 -0.0075
vt 0.5000 0.5
v -0.0236 0.3793 0.0147
vt 0.5000 0.5
v -0.0236 0.3793 -0.0147
vt 0.5000 0.5
v -0.0245 0.3812 0.0213
vt 0.5000 0.5
v -0.0245 0.3812 -0.0213
vt 0.5000 0.5
v -0.0257 0.3837 -0.0271
vt 0.5000 0.5
v -0.0257 0.3837 0.0271
vt 0.5000 0.5
v -0.0272 0.3867 0.0319
vt 0.5000 0.5
v -0.0272 0.3867 -0.0319
vt 0.5000 0.5
v -0.0289 0.3903 0.0354
vt 0.5000 0.5
v -0.0289 0.3903 -0.0354
vt 0.5000 0.5
v -0.0308 0.3941 0.0376
vt 0.5000 0.5
v -0.0308 0.3941 -0.0376
vt 0.5000 0.5
v -0.0327 0.3980 -0.0383
vt 0.5000 0.5
v -0.0327 0.3980 0.0383
vt 0.5000 0.5
v -0.0346 0.4020 0.0376
vt 0.5000 0.5
v -0.0346 0.4020 -0.0376
vt 0.5000 0.5
v -0.0365 0.4058 -0.0354
vt 0.5000 0.5
v -0.0365 0.4058 0.0354
vt 0.5000 0.5
v -0.0382 0.4093 -0.0319
vt 0.5000 0.5
v -0.0382 0.4093 0.0319
vt 0.5000 0.5
v -0.0397 0.4124 0.0271
vt 0.5000 0.5
v -0.0397 0.4124 -0.0271
vt 0.5000 0.5
v -0.0409 0.4149 0.0213
vt 0.5000 0.5
v -0.0409 0.4149 -0.0213
vt 0.5000 0.5
v -0.0418 0.4168 -0.0199
vt 0.5000 0.5
v -0.0418 0.4168 0.0147
vt 0.5000 0.5
v -0.0424 0.4179 0.0075
vt 0.5000 0.5
v -0.0424 0.4179 -0.0075
vt 0.5000 0.5
v -0.0425 0.4183 -0.0000
vt 0.5000 0.5
v -0.0346 0.4020 -0.0376
vt 0.5000 0.5
v -0.1002 0.3259 -0.0376
vt 0.5000 0.5
v -0.1039 0.3281 -0.0354
vt 0.5000 0.5
v -0.0365 0.4058 -0.0354
vt 0.5000 0.5
v -0.1039 0.3281 0.0354
vt 0.5000 0.5
v -0.1002 0.3259 0.0376
vt 0.5000 0.5
v -0.0346 0.4020 0.0376
vt 0.5000 0.5
v -0.0365 0.4058 0.0354
vt 0.5000 0.5
v -0.0245 0.3812 -0.0213
vt 0.5000 0.5
v -0.0803 0.3142 -0.0213
vt 0.5000 0.5
v -0.0827 0.3156 -0.0271
vt 0.5000 0.5
v -0.0257 0.3837 -0.0271
vt 0.5000 0.5
v -0.0327 0.3980 -0.0383
vt 0.5000 0.5
v -0.0964 0.3237 -0.0383
vt 0.5000 0.5
v -0.1002 0.3259 -0.0376
vt 0.5000 0.5
v -0.0346 0.4020 -0.0376
vt 0.5000 0.5
v -0.1072 0.3301 0.0319
vt 0.5000 0.5
v -0.1039 0.3281 0.0354
vt 0.5000 0.5
v -0.0365 0.4058 0.0354
vt 0.5000 0.5
v -0.0382 0.4093 0.0319
vt 0.5000 0.5
v -0.0236 0.3793 -0.0147
vt 0.5000 0.5
v -0.0785 0.3131 -0.0147
vt 0.5000 0.5
v -0.0803 0.3142 -0.0213
vt 0.5000 0.5
v -0.0245 0.3812 -0.0213
vt 0.5000 0.5
v -0.1102 0.3318 0.0271
vt 0.5000 0.5
v -0.1072 0.3301 0.0319
vt 0.5000 0.5
v -0.0382 0.4093 0.0319
vt 0.5000 0.5
v -0.0397 0.4124 0.0271
vt 0.5000 0.5
v -0.0230 0.3781 -0.0075
vt 0.5000 0.5
v -0.0774 0.3125 -0.0075
vt 0.5000 0.5
v -0.0785 0.3131 -0.0147
vt 0.5000 0.5
v -0.0236 0.3793 -0.0147
vt 0.5000 0.5
v -0.1126 0.3332 0.0213
vt 0.5000 0.5
v -0.1102 0.3318 0.0271
vt 0.5000 0.5
v -0.0397 0.4124 0.0271
vt 0.5000 0.5
v -0.0409 0.4149 0.0213
vt 0.5000 0.5
v -0.0228 0.3777 0.0000
vt 0.5000 0.5
v -0.0770 0.3122 0.0000
vt 0.5000 0.5
v -0.0774 0.3125 -0.0075
vt 0.5000 0.5
v -0.0230 0.3781 -0.0075
vt 0.5000 0.5
v -0.1144 0.3343 0.0147
vt 0.5000 0.5
v -0.1126 0.3332 0.0213
vt 0.5000 0.5
v -0.0409 0.4149 0.0213
vt 0.5000 0.5
v -0.0418 0.4168 0.0147
vt 0.5000 0.5
v -0.0774 0.3125 0.0075
vt 0.5000 0.5
v -0.0770 0.3122 0.0000
vt 0.5000 0.5
v -0.0228 0.3777 0.0000
vt 0.5000 0.5
v -0.0230 0.3781 0.0075
vt 0.5000 0.5
v -0.1155 0.3350 0.0075
vt 0.5000 0.5
v -0.1144 0.3343 0.0147
vt 0.5000 0.5
v -0.0418 0.4168 0.0147
vt 0.5000 0.5
v -0.0424 0.4179 0.0075
vt 0.5000 0.5
v -0.0785 0.3131 0.0147
vt 0.5000 0.5
v -0.0774 0.3125 0.0075
vt 0.5000 0.5
v -0.0230 0.3781 0.0075
vt 0.5000 0.5
v -0.0236 0.3793 0.0147
vt 0.5000 0.5
v -0.1159 0.3352 -0.0000
vt 0.5000 0.5
v -0.1155 0.3350 0.0075
vt 0.5000 0.5
v -0.0424 0.4179 0.0075
vt 0.5000 0.5
v -0.0425 0.4183 -0.0000
vt 0.5000 0.5
v -0.0803 0.3142 0.0213
vt 0.5000 0.5
v -0.0785 0.3131 0.0147
vt 0.5000 0.5
v -0.0236 0.3793 0.0147
vt 0.5000 0.5
v -0.0245 0.3812 0.0213
vt 0.5000 0.5
v -0.0424 0.4179 -0.0075
vt 0.5000 0.5
v -0.1155 0.3350 -0.0075
vt 0.5000 0.5
v -0.1159 0.3352 -0.0000
vt 0.5000 0.5
v -0.0425 0.4183 -0.0000
vt 0.5000 0.5
v -0.0827 0.3156 0.0271
vt 0.5000 0.5
v -0.0803 0.3142 0.0213
vt 0.5000 0.5
v -0.0245 0.3812 0.0213
vt 0.5000 0.5
v -0.0257 0.3837 0.0271
vt 0.5000 0.5
v -0.0418 0.4168 -0.0199
vt 0.5000 0.5
v -0.1144 0.3343 -0.0199
vt 0.5000 0.5
v -0.1155 0.3350 -0.0075
vt 0.5000 0.5
v -0.0424 0.4179 -0.0075
vt 0.5000 0.5
v -0.0857 0.3173 0.0319
vt 0.5000 0.5
v -0.0827 0.3156 0.0271
vt 0.5000 0.5
v -0.0257 0.3837 0.0271
vt 0.5000 0.5
v -0.0272 0.3867 0.0319
vt 0.5000 0.5
v -0.0409 0.4149 -0.0213
vt 0.5000 0.5
v -0.1126 0.3332 -0.0213
vt 0.5000 0.5
v -0.1144 0.3343 -0.0199
vt 0.5000 0.5
v -0.0418 0.4168 -0.0199
vt 0.5000 0.5
v -0.0890 0.3193 0.0354
vt 0.5000 0.5
v -0.0857 0.3173 0.0319
vt 0.5000 0.5
v -0.0272 0.3867 0.0319
vt 0.5000 0.5
v -0.0289 0.3903 0.0354
vt 0.5000 0.5
v -0.0308 0.3941 -0.0376
vt 0.5000 0.5
v -0.0927 0.3215 -0.0376
vt 0.5000 0.5
v -0.0964 0.3237 -0.0383
vt 0.5000 0.5
v -0.0327 0.3980 -0.0383
vt 0.5000 0.5
v -0.0397 0.4124 -0.0271
vt 0.5000 0.5
v -0.1102 0.3318 -0.0271
vt 0.5000 0.5
v -0.1126 0.3332 -0.0213
vt 0.5000 0.5
v -0.0409 0.4149 -0.0213
vt 0.5000 0.5
v -0.0927 0.3215 0.0376
vt 0.5000 0.5
v -0.0890 0.3193 0.0354
vt 0.5000 0.5
v -0.0289 0.3903 0.0354
vt 0.5000 0.5
v -0.0308 0.3941 0.0376
vt 0.5000 0.5
v -0.0289 0.3903 -0.0354
vt 0.5000 0.5
v -0.0890 0.3193 -0.0354
vt 0.5000 0.5
v -0.0927 0.3215 -0.0376
vt 0.5000 0.5
v -0.0308 0.3941 -0.0376
vt 0.5000 0.5
v -0.0382 0.4093 -0.0319
vt 0.5000 0.5
v -0.1072 0.3301 -0.0319
vt 0.5000 0.5
v -0.1102 0.3318 -0.0271
vt 0.5000 0.5
v -0.0397 0.4124 -0.0271
vt 0.5000 0.5
v -0.0964 0.3237 0.0383
vt 0.5000 0.5
v -0.0927 0.3215 0.0376
vt 0.5000 0.5
v -0.0308 0.3941 0.0376
vt 0.5000 0.5
v -0.0327 0.3980 0.0383
vt 0.5000 0.5
v -0.0272 0.3867 -0.0319
vt 0.5000 0.5
v -0.0857 0.3173 -0.0319
vt 0.5000 0.5
v -0.0890 0.3193 -0.0354
vt 0.5000 0.5
v -0.0289 0.3903 -0.0354
vt 0.5000 0.5
v -0.0365 0.4058 -0.0354
vt 0.5000 0.5
v -0.1039 0.3281 -0.0354
vt 0.5000 0.5
v -0.1072 0.3301 -0.0319
vt 0.5000 0.5
v -0.0382 0.4093 -0.0319
vt 0.5000 0.5
v -0.1002 0.3259 0.0376
vt 0.5000 0.5
v -0.0964 0.3237 0.0383
vt 0.5000 0.5
v -0.0327 0.3980 0.0383
vt 0.5000 0.5
v -0.0346 0.4020 0.0376
vt 0.5000 0.5
v 0.0120 0.7527 0.7001
vt 0.5000 0.5
v 0.0120 0.7527 -0.6992
vt 0.5000 0.5
v -0.0120 0.7527 -0.6992
vt 0.5000 0.5
v -0.0120 0.7527 0.0005
vt 0.5000 0.5
v -0.0120 0.7527 0.7001
vt 0.5000 0.5
v -0.0120 0.4482 0.7001
vt 0.5000 0.5
v -0.0120 0.1437 0.7001
vt 0.5000 0.5
v 0.0120 0.1437 0.7001
vt 0.5000 0.5
v 0.0120 0.7527 0.7001
vt 0.5000 0.5
v -0.0120 0.7527 0.7001
vt 0.5000 0.5
v -0.0527 0.4477 0.0004
vt 0.5000 0.5
v -0.0120 0.1437 0.0003
vt 0.5000 0.5
v -0.0120 0.1437 0.7001
vt 0.5000 0.5
v -0.0120 0.4482 0.7001
vt 0.5000 0.5
v -0.0120 0.1437 0.0003
vt 0.5000 0.5
v -0.0120 0.1437 -0.6992
vt 0.5000 0.5
v 0.0120 0.1437 -0.6992
vt 0.5000 0.5
v 0.0120 0.1437 0.7001
vt 0.5000 0.5
v -0.0120 0.1437 0.7001
vt 0.5000 0.5
v 0.0120 0.1563 0.6710
vt 0.5000 0.5
v 0.0120 0.1563 -0.6700
vt 0.5000 0.5
v 0.0083 0.1563 -0.6700
vt 0.5000 0.5
v 0.0083 0.1563 0.6710
vt 0.5000 0.5
v 0.0120 0.7527 -0.6992
vt 0.5000 0.5
v 0.0120 0.1437 -0.6992
vt 0.5000 0.5
v -0.0120 0.1437 -0.6992
vt 0.5000 0.5
v -0.0120 0.4472 -0.6992
vt 0.5000 0.5
v -0.0120 0.7527 -0.6992
vt 0.5000 0.5
v -0.0120 0.7527 -0.6992
vt 0.5000 0.5
v -0.0120 0.4472 -0.6992
vt 0.5000 0.5
v -0.0527 0.4477 0.0004
vt 0.5000 0.5
v -0.0120 0.7527 0.0005
vt 0.5000 0.5
v -0.0120 0.1437 -0.6992
vt 0.5000 0.5
v -0.0120 0.1437 0.0003
vt 0.5000 0.5
v -0.0527 0.4477 0.0004
vt 0.5000 0.5
v -0.0120 0.4472 -0.6992
vt 0.5000 0.5
v -0.0120 0.7527 0.0005
vt 0.5000 0.5
v -0.0527 0.4477 0.0004
vt 0.5000 0.5
v -0.0120 0.4482 0.7001
vt 0.5000 0.5
v -0.0120 0.7527 0.7001
vt 0.5000 0.5
v 0.0120 0.1563 -0.6700
vt 0.5000 0.5
v 0.0120 0.1437 -0.6992
vt 0.5000 0.5
v 0.0120 0.7527 -0.6992
vt 0.5000 0.5
v 0.0120 0.7400 -0.6700
vt 0.5000 0.5
v 0.0120 0.7527 0.7001
vt 0.5000 0.5
v 0.0120 0.1437 0.7001
vt 0.5000 0.5
v 0.0120 0.1563 0.6710
vt 0.5000 0.5
v 0.0120 0.7400 0.6710
vt 0.5000 0.5
v 0.0083 0.7400 0.6710
vt 0.5000 0.5
v 0.0083 0.1563 0.6710
vt 0.5000 0.5
v 0.0083 0.1563 -0.6700
vt 0.5000 0.5
v 0.0083 0.7400 -0.6700
vt 0.5000 0.5
v 0.0120 0.7400 0.6710
vt 0.5000 0.5
v 0.0120 0.1563 0.6710
vt 0.5000 0.5
v 0.0083 0.1563 0.6710
vt 0.5000 0.5
v 0.0083 0.7400 0.6710
vt 0.5000 0.5
v 0.0083 0.7400 0.6710
vt 0.5000 0.5
v 0.0083 0.7400 -0.6700
vt 0.5000 0.5
v 0.0120 0.7400 -0.6700
vt 0.5000 0.5
v 0.0120 0.7400 0.6710
vt 0.5000 0.5
v 0.0083 0.7400 -0.6700
vt 0.5000 0.5
v 0.0083 0.1563 -0.6700
vt 0.5000 0.5
v 0.0120 0.1563 -0.6700
vt 0.5000 0.5
v 0.0120 0.7400 -0.6700
vt 0.5000 0.5
f 1/1 2/2 3/3
f 1/1 3/3 4/4
f 5/5 6/6 7/7
f 5/5 7/7 8/8
f 9/9 10/10 11/11
f 9/9 11/11 12/12
f 13/13 14/14 15/15
f 13/13 15/15 16/16
f 17/17 18/18 19/19
f 17/17 19/19 20/20
f 21/21 22/22 23/23
f 21/21 23/23 24/24
f 25/25 26/26 27/27
f 25/25 27/27 28/28
f 29/29 30/30 31/31
f 29/29 31/31 32/32
f 33/33 34/34 35/35
f 33/33 35/35 36/36
f 37/37 38/38 39/39
f 37/37 39/39 40/40
f 41/41 42/42 43/43
f 41/41 43/43 44/44
f 45/45 46/46 47/47
f 45/45 47/47 48/48
f 49/49 50/50 51/51
f 49/49 51/51 52/52
f 53/53 54/54 55/55
f 53/53 55/55 56/56
f 57/57 58/58 59/59
f 57/57 59/59 60/60
f 61/61 62/62 63/63
f 61/61 63/63 64/64
f 65/65 66/66 67/67
f 65/65 67/67 68/68
f 69/69 70/70 71/71
f 69/69 71/71 72/72
f 73/73 74/74 75/75
f 73/73 75/75 76/76
f 77/77 78/78 79/79
f 77/77 79/79 80/80
f 81/81 82/82 83/83
f 81/81 83/83 84/84
f 85/85 86/86 87/87
f 85/85 87/87 88/88
f 89/89 90/90 91/91
f 89/89 91/91 92/92
f 93/93 94/94 95/95
f 93/93 95/95 96/96
f 97/97 98/98 99/99
f 97/97 99/99 100/100
f 101/101 102/102 103/103
f 101/101 103/103 104/104
f 105/105 106/106 107/107
f 105/105 107/107 108/108
f 109/109 110/110 111/111
f 109/109 111/111 112/112
f 113/113 114/114 115/115
f 113/113 115/115 116/116
f 117/117 118/118 119/119
f 117/117 119/119 120/120
f 121/121 122/122 123/123
f 121/121 123/123 124/124
f 125/125 126/126 127/127
f 125/125 127/127 128/128
f 129/129 130/130 131/131
f 132/132 129/129 131/131
f 132/132 131/131 133/133
f 134/134 132/132 133/133
f 134/134 133/133 135/135
f 136/136 134/134 135/135
f 136/136 135/135 137/137
f 138/138 136/136 137/137
f 138/138 137/137 139/139
f 140/140 138/138 139/139
f 140/140 139/139 141/141
f 142/142 140/140 141/141
f 142/142 141/141 143/143
f 144/144 142/142 143/143
f 144/144 143/143 145/145
f 146/146 144/144 145/145
f 146/146 145/145 147/147
f 148/148 146/146 147/147
f 148/148 147/147 149/149
f 150/150 148/148 149/149
f 150/150 149/149 151/151
f 152/152 150/150 151/151
f 152/152 151/151 153/153
f 154/154 152/152 153/153
f 154/154 153/153 155/155
f 156/156 154/154 155/155
f 156/156 155/155 157/157
f 158/158 156/156 157/157
f 158/158 157/157 159/159
f 160/160 158/158 159/159
f 161/161 162/162 163/163
f 161/161 163/163 164/164
f 165/165 166/166 167/167
f 165/165 167/167 168/168
f 169/169 170/170 171/171
f 169/169 171/171 172/172
f 173/173 174/174 175/175
f 173/173 175/175 176/176
f 177/177 178/178 179/179
f 177/177 179/179 180/180
f 181/181 182/182 183/183
f 181/181 183/183 184/184
f 185/185 186/186 187/187
f 185/185 187/187 188/188
f 189/189 190/190 191/191
f 189/189 191/191 192/192
f 193/193 194/194 195/195
f 193/193 195/195 196/196
f 197/197 198/198 199/199
f 197/197 199/199 200/200
f 201/201 202/202 203/203
f 201/201 203/203 204/204
f 205/205 206/206 207/207
f 205/205 207/207 208/208
f 209/209 210/210 211/211
f 209/209 211/211 212/212
f 213/213 214/214 215/215
f 213/213 215/215 216/216
f 217/217 218/218 219/219
f 217/217 219/219 220/220
f 221/221 222/222 223/223
f 221/221 223/223 224/224
f 225/225 226/226 227/227
f 225/225 227/227 228/228
f 229/229 230/230 231/231
f 229/229 231/231 232/232
f 233/233 234/234 235/235
f 233/233 235/235 236/236
f 237/237 238/238 239/239
f 237/237 239/239 240/240
f 241/241 242/242 243/243
f 241/241 243/243 244/244
f 245/245 246/246 247/247
f 245/245 247/247 248/248
f 249/249 250/250 251/251
f 249/249 251/251 252/252
f 253/253 254/254 255/255
f 253/253 255/255 256/256
f 257/257 258/258 259/259
f 257/257 259/259 260/260
f 261/261 262/262 263/263
f 261/261 263/263 264/264
f 265/265 266/266 267/267
f 265/265 267/267 268/268
f 269/269 270/270 271/271
f 269/269 271/271 272/272
f 273/273 274/274 275/275
f 273/273 275/275 276/276
f 277/277 278/278 279/279
f 277/277 279/279 280/280
f 281/281 282/282 283/283
f 281/281 283/283 284/284
f 285/285 286/286 287/287
f 285/285 287/287 288/288
f 289/289 290/290 291/291
f 289/289 291/291 292/292
f 293/293 294/294 295/295
f 293/293 295/295 296/296
f 297/297 298/298 299/299
f 297/297 299/299 300/300
f 301/301 302/302 303/303
f 301/301 303/303 304/304
f 305/305 306/306 307/307
f 305/305 307/307 308/308
f 309/309 310/310 311/311
f 309/309 311/311 312/312
f 313/313 314/314 315/315
f 313/313 315/315 316/316
f 317/317 318/318 319/319
f 317/317 319/319 320/320
f 321/321 322/322 323/323
f 321/321 323/323 324/324
f 325/325 326/326 327/327
f 325/325 327/327 328/328
f 329/329 330/330 331/331
f 329/329 331/331 332/332
f 333/333 334/334 335/335
f 333/333 335/335 336/336
f 337/337 338/338 339/339
f 337/337 339/339 340/340
f 341/341 342/342 343/343
f 341/341 343/343 344/344
f 345/345 346/346 347/347
f 348/348 345/345 347/347
f 349/349 350/350 351/351
f 349/349 351/351 352/352
f 353/353 354/354 355/355
f 353/353 355/355 356/356
f 357/357 358/358 359/359
f 357/357 359/359 360/360
f 361/361 362/362 363/363
f 361/361 363/363 364/364
f 365/365 366/366 367/367
f 365/365 367/367 368/368
f 369/369 370/370 371/371
f 369/369 371/371 372/372
f 373/373 374/374 375/375
f 373/373 375/375 376/376
f 377/377 378/378 379/379
f 377/377 379/379 380/380
f 381/381 382/382 383/383
f 381/381 383/383 384/384
f 385/385 386/386 387/387
f 385/385 387/387 388/388
f 389/389 390/390 391/391
f 389/389 391/391 392/392
f 393/393 394/394 395/395
f 393/393 395/395 396/396
f 397/397 398/398 399/399
f 397/397 399/399 400/400
f 401/401 402/402 403/403
f 401/401 403/403 404/404
f 405/405 406/406 407/407
f 405/405 407/407 408/408
f 409/409 410/410 411/411
f 409/409 411/411 412/412
f 413/413 414/414 415/415
f 413/413 415/415 416/416
f 417/417 418/418 419/419
f 417/417 419/419 420/420
f 421/421 422/422 423/423
f 421/421 423/423 424/424
f 425/425 426/426 427/427
f 425/425 427/427 428/428
f 429/429 430/430 431/431
f 429/429 431/431 432/432
f 433/433 434/434 435/435
f 433/433 435/435 436/436
f 437/437 438/438 439/439
f 437/437 439/439 440/440
f 441/441 442/442 443/443
f 441/441 443/443 444/444
f 445/445 446/446 447/447
f 445/445 447/447 448/448
f 449/449 450/450 451/451
f 449/449 451/451 452/452
f 453/453 454/454 455/455
f 453/453 455/455 456/456
f 457/457 458/458 459/459
f 457/457 459/459 460/460
f 461/461 462/462 463/463
f 461/461 463/463 464/464
f 465/465 466/466 467/467
f 465/465 467/467 468/468
f 469/469 470/470 471/471
f 469/469 471/471 472/472
f 473/473 474/474 475/475
f 473/473 475/475 476/476
f 477/477 478/478 479/479
f 477/477 479/479 480/480
f 481/481 482/482 483/483
f 481/481 483/483 484/484
f 485/485 486/486 487/487
f 485/485 487/487 488/488
f 489/489 490/490 491/491
f 489/489 491/491 492/492
f 493/493 494/494 495/495
f 493/493 495/495 496/496
f 497/497 498/498 499/499
f 497/497 499/499 500/500
f 501/501 502/502 503/503
f 501/501 503/503 504/504
f 505/505 506/506 507/507
f 505/505 507/507 508/508
f 509/509 510/510 511/511
f 509/509 511/511 512/512
f 513/513 514/514 515/515
f 513/513 515/515 516/516
f 517/517 518/518 519/519
f 520/520 517/517 519/519
f 521/521 522/522 523/523
f 521/521 523/523 524/524
f 525/525 526/526 527/527
f 525/525 527/527 528/528
f 529/529 530/530 531/531
f 529/529 531/531 532/532
f 533/533 534/534 535/535
f 533/533 535/535 536/536
f 537/537 538/538 539/539
f 537/537 539/539 540/540
f 541/541 542/542 543/543
f 541/541 543/543 544/544
f 545/545 546/546 547/547
f 545/545 547/547 548/548
f 549/549 550/550 551/551
f 552/552 549/549 551/551
f 553/553 554/554 555/555
f 556/556 553/553 555/555
f 557/557 558/558 559/559
f 560/560 557/557 559/559
f 561/561 562/562 563/563
f 564/564 561/561 563/563
f 565/565 566/566 567/567
f 568/568 565/565 567/567
f 569/569 570/570 571/571
f 572/572 569/569 571/571
f 573/573 574/574 575/575
f 573/573 575/575 576/576
f 577/577 573/573 576/576
f 577/577 576/576 578/578
f 579/579 577/577 578/578
f 579/579 578/578 580/580
f 579/579 580/580 581/581
f 582/582 579/579 581/581
f 582/582 581/581 583/583
f 582/582 583/583 584/584
f 584/584 583/583 585/585
f 584/584 585/585 586/586
f 586/586 585/585 587/587
f 586/586 587/587 588/588
f 588/588 587/587 589/589
f 588/588 589/589 590/590
f 590/590 589/589 591/591
f 590/590 591/591 592/592
f 592/592 591/591 593/593
f 592/592 593/593 594/594
f 593/593 595/595 596/596
f 594/594 593/593 596/596
f 597/597 598/598 599/599
f 600/600 597/597 599/599
f 598/598 601/601 602/602
f 599/599 598/598 602/602
f 603/603 604/604 605/605
f 606/606 603/603 605/605
f 607/607 608/608 609/609
f 610/610 607/607 609/609
f 611/611 612/612 613/613
f 614/614 611/611 613/613
f 612/612 615/615 616/616
f 612/612 616/616 613/613
f 617/617 618/618 616/616
f 615/615 617/617 616/616
f 619/619 620/620 618/618
f 617/617 619/619 618/618
f 621/621 622/622 623/623
f 624/624 621/621 623/623
f 625/625 626/626 627/627
f 625/625 627/627 628/628
f 629/629 630/630 626/626
f 629/629 626/626 625/625
f 631/631 632/632 630/630
f 631/631 630/630 629/629
f 633/633 634/634 635/635
f 633/633 635/635 636/636
f 637/637 638/638 639/639
f 637/637 639/639 640/640
f 551/551 550/550 638/638
f 551/551 638/638 637/637
f 641/641 642/642 643/643
f 641/641 643/643 644/644
f 645/645 646/646 647/647
f 645/645 647/647 648/648
f 649/649 650/650 651/651
f 649/649 651/651 652/652
f 653/653 654/654 655/655
f 653/653 655/655 656/656
f 657/657 658/658 659/659
f 657/657 659/659 660/660
f 661/661 662/662 663/663
f 661/661 663/663 664/664
f 665/665 666/666 667/667
f 665/665 667/667 668/668
f 669/669 670/670 671/671
f 669/669 671/671 672/672
f 673/673 674/674 675/675
f 673/673 675/675 676/676
f 677/677 678/678 679/679
f 677/677 679/679 680/680
f 681/681 682/682 683/683
f 681/681 683/683 684/684
f 685/685 686/686 687/687
f 685/685 687/687 688/688
f 689/689 690/690 691/691
f 689/689 691/691 692/692
f 693/693 694/694 695/695
f 693/693 695/695 696/696
f 697/697 698/698 699/699
f 697/697 699/699 700/700
f 701/701 702/702 703/703
f 701/701 703/703 704/704
f 705/705 706/706 707/707
f 705/705 707/707 708/708
f 709/709 710/710 711/711
f 709/709 711/711 712/712
f 713/713 714/714 715/715
f 713/713 715/715 716/716
f 717/717 718/718 719/719
f 717/717 719/719 720/720
f 721/721 722/722 723/723
f 721/721 723/723 724/724
f 725/725 726/726 727/727
f 725/725 727/727 728/728
f 729/729 730/730 731/731
f 729/729 731/731 732/732
f 733/733 734/734 735/735
f 733/733 735/735 736/736
f 737/737 738/738 739/739
f 737/737 739/739 740/740
f 741/741 742/742 743/743
f 741/741 743/743 744/744
f 745/745 746/746 747/747
f 745/745 747/747 748/748
f 749/749 750/750 751/751
f 749/749 751/751 752/752
f 753/753 754/754 755/755
f 753/753 755/755 756/756
f 757/757 758/758 759/759
f 757/757 759/759 760/760
f 761/761 762/762 763/763
f 761/761 763/763 764/764
f 765/765 766/766 767/767
f 765/765 767/767 768/768
f 769/769 770/770 771/771
f 769/769 771/771 772/772
f 773/773 774/774 775/775
f 776/776 773/773 775/775
f 777/777 778/778 779/779
f 777/777 779/779 780/780
f 781/781 782/782 783/783
f 781/781 783/783 784/784
f 785/785 786/786 787/787
f 788/788 785/785 787/787
f 789/789 790/790 791/791
f 789/789 791/791 792/792
f 793/793 794/794 795/795
f 793/793 795/795 796/796
f 797/797 798/798 799/799
f 800/800 797/797 799/799
f 801/801 802/802 803/803
f 801/801 803/803 804/804
f 805/805 806/806 807/807
f 805/805 807/807 808/808
f 809/809 810/810 811/811
f 809/809 811/811 812/812
f 813/813 814/814 815/815
f 813/813 815/815 816/816
f 817/817 818/818 819/819
f 817/817 819/819 820/820
f 821/821 822/822 823/823
f 821/821 823/823 824/824
f 825/825 826/826 827/827
f 825/825 827/827 828/828
f 829/829 830/830 831/831
f 829/829 831/831 832/832
f 833/833 834/834 835/835
f 833/833 835/835 836/836
f 837/837 838/838 839/839
f 837/837 839/839 840/840
f 841/841 842/842 843/843
f 841/841 843/843 844/844
f 845/845 846/846 847/847
f 845/845 847/847 848/848
f 849/849 850/850 851/851
f 849/849 851/851 852/852
f 853/853 854/854 855/855
f 856/856 853/853 855/855
f 857/857 858/858 859/859
f 857/857 859/859 860/860
f 861/861 862/862 863/863
f 864/864 861/861 863/863
f 865/865 866/866 867/867
f 865/865 867/867 868/868
f 869/869 870/870 871/871
f 872/872 869/869 871/871
f 873/873 874/874 875/875
f 876/876 873/873 875/875
f 877/877 878/878 879/879
f 880/880 877/877 879/879
f 881/881 882/882 883/883
f 884/884 881/881 883/883
f 885/885 886/886 887/887
f 888/888 885/885 887/887
f 889/889 890/890 891/891
f 889/889 891/891 892/892
f 893/893 894/894 895/895
f 896/896 893/893 895/895
f 897/897 898/898 899/899
f 900/900 897/897 899/899
f 900/900 899/899 901/901
f 902/902 900/900 901/901
f 902/902 901/901 903/903
f 902/902 903/903 904/904
f 905/905 902/902 904/904
f 906/906 905/905 904/904
f 906/906 904/904 907/907
f 908/908 906/906 907/907
f 908/908 907/907 909/909
f 910/910 908/908 909/909
f 910/910 909/909 911/911
f 910/910 911/911 912/912
f 913/913 910/910 912/912
f 914/914 913/913 912/912
f 914/914 912/912 915/915
f 914/914 915/915 916/916
f 917/917 914/914 916/916
f 917/917 916/916 918/918
f 919/919 917/917 918/918
f 920/920 919/919 918/918
f 920/920 918/918 921/921
f 922/922 920/920 921/921
f 922/922 921/921 923/923
f 922/922 923/923 924/924
f 925/925 922/922 924/924
f 926/926 925/925 924/924
f 926/926 924/924 927/927
f 926/926 927/927 928/928
f 929/929 930/930 931/931
f 929/929 931/931 932/932
f 933/933 934/934 935/935
f 936/936 933/933 935/935
f 937/937 938/938 939/939
f 937/937 939/939 940/940
f 941/941 942/942 943/943
f 941/941 943/943 944/944
f 945/945 946/946 947/947
f 948/948 945/945 947/947
f 949/949 950/950 951/951
f 949/949 951/951 952/952
f 953/953 954/954 955/955
f 956/956 953/953 955/955
f 957/957 958/958 959/959
f 957/957 959/959 960/960
f 961/961 962/962 963/963
f 964/964 961/961 963/963
f 965/965 966/966 967/967
f 965/965 967/967 968/968
f 969/969 970/970 971/971
f 972/972 969/969 971/971
f 973/973 974/974 975/975
f 976/976 973/973 975/975
f 977/977 978/978 979/979
f 980/980 977/977 979/979
f 981/981 982/982 983/983
f 984/984 981/981 983/983
f 985/985 986/986 987/987
f 988/988 985/985 987/987
f 989/989 990/990 991/991
f 992/992 989/989 991/991
f 993/993 994/994 995/995
f 993/993 995/995 996/996
f 997/997 998/998 999/999
f 1000/1000 997/997 999/999
f 1001/1001 1002/1002 1003/1003
f 1001/1001 1003/1003 1004/1004
f 1005/1005 1006/1006 1007/1007
f 1008/1008 1005/1005 1007/1007
f 1009/1009 1010/1010 1011/1011
f 1009/1009 1011/1011 1012/1012
f 1013/1013 1014/1014 1015/1015
f 1016/1016 1013/1013 1015/1015
f 1017/1017 1018/1018 1019/1019
f 1017/1017 1019/1019 1020/1020
f 1021/1021 1022/1022 1023/1023
f 1021/1021 1023/1023 1024/1024
f 1025/1025 1026/1026 1027/1027
f 1028/1028 1025/1025 1027/1027
f 1029/1029 1030/1030 1031/1031
f 1029/1029 1031/1031 1032/1032
f 1033/1033 1034/1034 1035/1035
f 1033/1033 1035/1035 1036/1036
f 1037/1037 1038/1038 1039/1039
f 1040/1040 1037/1037 1039/1039
f 1041/1041 1042/1042 1043/1043
f 1041/1041 1043/1043 1044/1044
f 1045/1045 1046/1046 1047/1047
f 1045/1045 1047/1047 1048/1048
f 1049/1049 1050/1050 1051/1051
f 1052/1052 1049/1049 1051/1051
f 1053/1053 1054/1054 1055/1055
f 1053/1053 1055/1055 1056/1056
f 1053/1053 1056/1056 1057/1057
f 1058/1058 1059/1059 1060/1060
f 1058/1058 1060/1060 1061/1061
f 1062/1062 1058/1058 1061/1061
f 1063/1063 1064/1064 1065/1065
f 1063/1063 1065/1065 1066/1066
f 1067/1067 1068/1068 1069/1069
f 1067/1067 1069/1069 1070/1070
f 1071/1071 1067/1067 1070/1070
f 1072/1072 1073/1073 1074/1074
f 1072/1072 1074/1074 1075/1075
f 1076/1076 1077/1077 1078/1078
f 1076/1076 1078/1078 1079/1079
f 1076/1076 1079/1079 1080/1080
f 1081/1081 1082/1082 1083/1083
f 1081/1081 1083/1083 1084/1084
f 1085/1085 1086/1086 1087/1087
f 1088/1088 1085/1085 1087/1087
f 1089/1089 1090/1090 1091/1091
f 1089/1089 1091/1091 1092/1092
f 1093/1093 1094/1094 1095/1095
f 1096/1096 1093/1093 1095/1095
f 1097/1097 1098/1098 1099/1099
f 1097/1097 1099/1099 1100/1100
f 1097/1097 1100/1100 1096/1096
f 1097/1097 1096/1096 1095/1095
f 1099/1099 1098/1098 1094/1094
f 1099/1099 1094/1094 1093/1093
f 1101/1101 1102/1102 1103/1103
f 1101/1101 1103/1103 1104/1104
f 1105/1105 1106/1106 1107/1107
f 1105/1105 1107/1107 1108/1108
f 1109/1109 1110/1110 1111/1111
f 1109/1109 1111/1111 1112/1112
f 1113/1113 1114/1114 1115/1115
f 1113/1113 1115/1115 1116/1116
