v -0.0554 0.2065 0.0629
vt 0.1000 0.5
v -0.0554 0.2065 -0.0629
vt 0.1000 0.5
v -0.0499 0.2065 -0.0629
vt 0.1000 0.5
v -0.0499 0.2065 0.0629
vt 0.1000 0.5
v 0.0554 0.2115 0.0662
vt 0.1000 0.5
v 0.0554 0.1190 0.0057
vt 0.1000 0.5
v 0.0554 0.1190 -0.0057
vt 0.1000 0.5
v 0.0554 0.2115 -0.0662
vt 0.1000 0.5
v 0.0554 0.2208 0.0637
vt 0.1000 0.5
v 0.0554 0.2208 -0.0637
vt 0.1000 0.5
v 0.0554 0.1190 0.0057
vt 0.1000 0.5
v 0.0554 0.1017 0.0057
vt 0.1000 0.5
v 0.0571 0.1017 0.0057
vt 0.1000 0.5
v 0.0571 0.1190 0.0057
vt 0.1000 0.5
v -0.0554 0.0092 -0.0662
vt 0.1000 0.5
v -0.0554 -0.0001 -0.0637
vt 0.1000 0.5
v -0.0554 -0.0001 0.0637
vt 0.1000 0.5
v -0.0554 0.0092 0.0662
vt 0.1000 0.5
v -0.0554 0.0142 -0.0629
vt 0.1000 0.5
v -0.0554 0.0142 0.0629
vt 0.1000 0.5
v 0.0554 0.0092 0.0662
vt 0.1000 0.5
v 0.0554 -0.0001 0.0637
vt 0.1000 0.5
v 0.0554 -0.0001 -0.0637
vt 0.1000 0.5
v 0.0554 0.0092 -0.0662
vt 0.1000 0.5
v 0.0554 0.1017 0.0057
vt 0.1000 0.5
v 0.0554 0.1017 -0.0057
vt 0.1000 0.5
v 0.0554 0.2077 -0.0723
vt 0.1000 0.5
v 0.0554 0.1590 -0.0723
vt 0.1000 0.5
v -0.0554 0.1590 -0.0723
vt 0.1000 0.5
v -0.0554 0.2077 -0.0723
vt 0.1000 0.5
v -0.0554 -0.0001 0.0637
vt 0.1000 0.5
v -0.0554 -0.0001 -0.0637
vt 0.1000 0.5
v 0.0554 -0.0001 -0.0637
vt 0.1000 0.5
v 0.0554 -0.0001 0.0637
vt 0.1000 0.5
v 0.0554 0.0130 0.0723
vt 0.1000 0.5
v 0.0554 0.0092 0.0662
vt 0.1000 0.5
v 0.0554 0.0617 0.0723
vt 0.1000 0.5
v 0.0554 0.1103 0.0723
vt 0.1000 0.5
v 0.0554 0.1590 0.0723
vt 0.1000 0.5
v 0.0554 0.2115 0.0662
vt 0.1000 0.5
v 0.0554 0.2077 0.0723
vt 0.1000 0.5
v 0.0554 0.0130 -0.0723
vt 0.1000 0.5
v 0.0554 0.0617 -0.0723
vt 0.1000 0.5
v 0.0554 0.1103 -0.0723
vt 0.1000 0.5
v 0.0554 0.1590 -0.0723
vt 0.1000 0.5
v 0.0554 0.2115 -0.0662
vt 0.1000 0.5
v 0.0554 0.2077 -0.0723
vt 0.1000 0.5
v -0.0554 0.2077 0.0723
vt 0.1000 0.5
v -0.0554 0.1590 0.0723
vt 0.1000 0.5
v 0.0554 0.1590 0.0723
vt 0.1000 0.5
v 0.0554 0.2077 0.0723
vt 0.1000 0.5
v 0.0554 0.1017 0.0057
vt 0.1000 0.5
v 0.0554 0.1017 -0.0057
vt 0.1000 0.5
v 0.0571 0.1017 -0.0057
vt 0.1000 0.5
v 0.0571 0.1017 0.0057
vt 0.1000 0.5
v 0.0571 0.1190 0.0057
vt 0.1000 0.5
v 0.0571 0.1190 -0.0057
vt 0.1000 0.5
v 0.0554 0.1190 -0.0057
vt 0.1000 0.5
v 0.0554 0.1190 0.0057
vt 0.1000 0.5
v 0.0571 0.1190 -0.0057
vt 0.1000 0.5
v 0.0571 0.1017 -0.0057
vt 0.1000 0.5
v 0.0554 0.1017 -0.0057
vt 0.1000 0.5
v 0.0554 0.1190 -0.0057
vt 0.1000 0.5
v 0.0589 0.0043 -0.0694
vt 0.1000 0.5
v 0.0590 0.0004 -0.0684
vt 0.1000 0.5
v 0.0590 0.0004 0.0684
vt 0.1000 0.5
v 0.0589 0.0043 0.0694
vt 0.1000 0.5
v 0.0571 0.1017 -0.0057
vt 0.1000 0.5
v 0.0571 0.1017 0.0057
vt 0.1000 0.5
v 0.0590 0.0059 -0.0720
vt 0.1000 0.5
v 0.0589 0.0043 -0.0694
vt 0.1000 0.5
v 0.0571 0.1017 -0.0057
vt 0.1000 0.5
v 0.0590 0.2148 -0.0720
vt 0.1000 0.5
v 0.0571 0.1190 -0.0057
vt 0.1000 0.5
v 0.0589 0.2164 -0.0694
vt 0.1000 0.5
v 0.0616 0.0011 0.0702
vt 0.1000 0.5
v 0.0616 0.0004 0.0684
vt 0.1000 0.5
v 0.0620 0.0004 0.0684
vt 0.1000 0.5
v 0.0620 0.0011 0.0702
vt 0.1000 0.5
v 0.0620 0.0059 -0.0720
vt 0.1000 0.5
v 0.0620 0.0031 -0.0715
vt 0.1000 0.5
v 0.0616 0.0031 -0.0715
vt 0.1000 0.5
v 0.0616 0.0059 -0.0720
vt 0.1000 0.5
v 0.0616 0.0059 0.0720
vt 0.1000 0.5
v 0.0616 0.0031 0.0715
vt 0.1000 0.5
v 0.0620 0.0031 0.0715
vt 0.1000 0.5
v 0.0620 0.0059 0.0720
vt 0.1000 0.5
v 0.0616 0.0004 0.0684
vt 0.1000 0.5
v 0.0616 0.0004 -0.0684
vt 0.1000 0.5
v 0.0620 0.0004 -0.0684
vt 0.1000 0.5
v 0.0620 0.0004 0.0684
vt 0.1000 0.5
v 0.0620 0.0031 -0.0715
vt 0.1000 0.5
v 0.0620 0.0011 -0.0702
vt 0.1000 0.5
v 0.0616 0.0011 -0.0702
vt 0.1000 0.5
v 0.0616 0.0031 -0.0715
vt 0.1000 0.5
v 0.0616 0.0031 0.0715
vt 0.1000 0.5
v 0.0616 0.0011 0.0702
vt 0.1000 0.5
v 0.0620 0.0011 0.0702
vt 0.1000 0.5
v 0.0620 0.0031 0.0715
vt 0.1000 0.5
v 0.0620 0.0011 -0.0702
vt 0.1000 0.5
v 0.0620 0.0004 -0.0684
vt 0.1000 0.5
v 0.0616 0.0004 -0.0684
vt 0.1000 0.5
v 0.0616 0.0011 -0.0702
vt 0.1000 0.5
v -0.0554 0.0130 -0.0723
vt 0.1000 0.5
v -0.0554 0.0092 -0.0662
vt 0.1000 0.5
v -0.0554 0.0142 -0.0629
vt 0.1000 0.5
v -0.0554 0.0617 -0.0723
vt 0.1000 0.5
v -0.0554 0.2065 -0.0629
vt 0.1000 0.5
v -0.0554 0.1103 -0.0723
vt 0.1000 0.5
v -0.0554 0.1590 -0.0723
vt 0.1000 0.5
v -0.0554 0.2077 -0.0723
vt 0.1000 0.5
v -0.0554 0.2115 -0.0662
vt 0.1000 0.5
v -0.0554 0.2115 -0.0662
vt 0.1000 0.5
v -0.0554 0.2065 -0.0629
vt 0.1000 0.5
v -0.0554 0.2065 0.0629
vt 0.1000 0.5
v -0.0554 0.2115 0.0662
vt 0.1000 0.5
v -0.0554 0.2208 -0.0637
vt 0.1000 0.5
v -0.0554 0.2208 0.0637
vt 0.1000 0.5
v -0.0554 0.0142 0.0629
vt 0.1000 0.5
v -0.0554 0.0092 0.0662
vt 0.1000 0.5
v -0.0554 0.0130 0.0723
vt 0.1000 0.5
v -0.0554 0.0617 0.0723
vt 0.1000 0.5
v -0.0554 0.2065 0.0629
vt 0.1000 0.5
v -0.0554 0.1103 0.0723
vt 0.1000 0.5
v -0.0554 0.1590 0.0723
vt 0.1000 0.5
v -0.0554 0.2077 0.0723
vt 0.1000 0.5
v -0.0554 0.2115 0.0662
vt 0.1000 0.5
v -0.0499 0.0142 0.0629
vt 0.1000 0.5
v -0.0499 0.0142 -0.0629
vt 0.1000 0.5
v -0.0554 0.0142 -0.0629
vt 0.1000 0.5
v -0.0554 0.0142 0.0629
vt 0.1000 0.5
v -0.0554 0.2065 -0.0629
vt 0.1000 0.5
v -0.0554 0.0142 -0.0629
vt 0.1000 0.5
v -0.0499 0.0142 -0.0629
vt 0.1000 0.5
v -0.0499 0.2065 -0.0629
vt 0.1000 0.5
v -0.0499 0.2065 0.0629
vt 0.1000 0.5
v -0.0499 0.0142 0.0629
vt 0.1000 0.5
v -0.0554 0.0142 0.0629
vt 0.1000 0.5
v -0.0554 0.2065 0.0629
vt 0.1000 0.5
v -0.0445 0.0463 0.0134
vt 0.1000 0.5
v -0.0445 0.0462 0.0125
vt 0.1000 0.5
v -0.0445 0.0463 0.0116
vt 0.1000 0.5
v -0.0445 0.0465 0.0143
vt 0.1000 0.5
v -0.0445 0.0465 0.0108
vt 0.1000 0.5
v -0.0445 0.0469 0.0151
vt 0.1000 0.5
v -0.0445 0.0469 0.0100
vt 0.1000 0.5
v -0.0445 0.0475 0.0157
vt 0.1000 0.5
v -0.0445 0.0475 0.0093
vt 0.1000 0.5
v -0.0445 0.0482 0.0163
vt 0.1000 0.5
v -0.0445 0.0482 0.0087
vt 0.1000 0.5
v -0.0445 0.0490 0.0167
vt 0.1000 0.5
v -0.0445 0.0490 0.0083
vt 0.1000 0.5
v -0.0445 0.0498 0.0170
vt 0.1000 0.5
v -0.0445 0.0498 0.0081
vt 0.1000 0.5
v -0.0445 0.0507 0.0171
vt 0.1000 0.5
v -0.0445 0.0507 0.0080
vt 0.1000 0.5
v -0.0445 0.0516 0.0170
vt 0.1000 0.5
v -0.0445 0.0516 0.0081
vt 0.1000 0.5
v -0.0445 0.0525 0.0083
vt 0.1000 0.5
v -0.0445 0.0525 0.0167
vt 0.1000 0.5
v -0.0445 0.0532 0.0087
vt 0.1000 0.5
v -0.0445 0.0532 0.0163
vt 0.1000 0.5
v -0.0445 0.0539 0.0093
vt 0.1000 0.5
v -0.0445 0.0539 0.0157
vt 0.1000 0.5
v -0.0445 0.0545 0.0151
vt 0.1000 0.5
v -0.0445 0.0545 0.0100
vt 0.1000 0.5
v -0.0445 0.0549 0.0143
vt 0.1000 0.5
v -0.0445 0.0549 0.0108
vt 0.1000 0.5
v -0.0445 0.0552 0.0116
vt 0.1000 0.5
v -0.0445 0.0552 0.0134
vt 0.1000 0.5
v -0.0445 0.0553 0.0125
vt 0.1000 0.5
v -0.0505 0.0539 0.0093
vt 0.1000 0.5
v -0.0505 0.0532 0.0087
vt 0.1000 0.5
v -0.0505 0.0538 0.0079
vt 0.1000 0.5
v -0.0505 0.0547 0.0086
vt 0.1000 0.5
v -0.0505 0.0463 0.0116
vt 0.1000 0.5
v -0.0505 0.0452 0.0114
vt 0.1000 0.5
v -0.0505 0.0455 0.0104
vt 0.1000 0.5
v -0.0505 0.0465 0.0108
vt 0.1000 0.5
v -0.0505 0.0507 0.0182
vt 0.1000 0.5
v -0.0505 0.0496 0.0180
vt 0.1000 0.5
v -0.0505 0.0498 0.0170
vt 0.1000 0.5
v -0.0505 0.0507 0.0171
vt 0.1000 0.5
v -0.0505 0.0553 0.0125
vt 0.1000 0.5
v -0.0505 0.0552 0.0116
vt 0.1000 0.5
v -0.0505 0.0562 0.0114
vt 0.1000 0.5
v -0.0505 0.0563 0.0125
vt 0.1000 0.5
v -0.0505 0.0482 0.0087
vt 0.1000 0.5
v -0.0505 0.0476 0.0079
vt 0.1000 0.5
v -0.0505 0.0486 0.0073
vt 0.1000 0.5
v -0.0505 0.0490 0.0083
vt 0.1000 0.5
v -0.0505 0.0467 0.0165
vt 0.1000 0.5
v -0.0505 0.0460 0.0157
vt 0.1000 0.5
v -0.0505 0.0469 0.0151
vt 0.1000 0.5
v -0.0505 0.0475 0.0157
vt 0.1000 0.5
v -0.0505 0.0547 0.0165
vt 0.1000 0.5
v -0.0505 0.0539 0.0157
vt 0.1000 0.5
v -0.0505 0.0545 0.0151
vt 0.1000 0.5
v -0.0505 0.0554 0.0157
vt 0.1000 0.5
v -0.0505 0.0525 0.0083
vt 0.1000 0.5
v -0.0505 0.0529 0.0073
vt 0.1000 0.5
v -0.0505 0.0462 0.0125
vt 0.1000 0.5
v -0.0505 0.0451 0.0125
vt 0.1000 0.5
v -0.0505 0.0518 0.0180
vt 0.1000 0.5
v -0.0505 0.0516 0.0170
vt 0.1000 0.5
v -0.0505 0.0549 0.0108
vt 0.1000 0.5
v -0.0505 0.0559 0.0104
vt 0.1000 0.5
v -0.0505 0.0475 0.0093
vt 0.1000 0.5
v -0.0505 0.0467 0.0086
vt 0.1000 0.5
v -0.0505 0.0476 0.0172
vt 0.1000 0.5
v -0.0505 0.0482 0.0163
vt 0.1000 0.5
v -0.0505 0.0549 0.0143
vt 0.1000 0.5
v -0.0505 0.0559 0.0147
vt 0.1000 0.5
v -0.0505 0.0516 0.0081
vt 0.1000 0.5
v -0.0505 0.0518 0.0070
vt 0.1000 0.5
v -0.0505 0.0452 0.0136
vt 0.1000 0.5
v -0.0505 0.0463 0.0134
vt 0.1000 0.5
v -0.0505 0.0525 0.0167
vt 0.1000 0.5
v -0.0505 0.0529 0.0177
vt 0.1000 0.5
v -0.0505 0.0545 0.0100
vt 0.1000 0.5
v -0.0505 0.0554 0.0094
vt 0.1000 0.5
v -0.0505 0.0469 0.0100
vt 0.1000 0.5
v -0.0505 0.0460 0.0094
vt 0.1000 0.5
v -0.0505 0.0486 0.0177
vt 0.1000 0.5
v -0.0505 0.0490 0.0167
vt 0.1000 0.5
v -0.0505 0.0552 0.0134
vt 0.1000 0.5
v -0.0505 0.0562 0.0136
vt 0.1000 0.5
v -0.0505 0.0498 0.0081
vt 0.1000 0.5
v -0.0505 0.0496 0.0070
vt 0.1000 0.5
v -0.0505 0.0507 0.0069
vt 0.1000 0.5
v -0.0505 0.0507 0.0080
vt 0.1000 0.5
v -0.0505 0.0507 0.0080
vt 0.1000 0.5
v -0.0505 0.0507 0.0069
vt 0.1000 0.5
v -0.0505 0.0455 0.0147
vt 0.1000 0.5
v -0.0505 0.0465 0.0143
vt 0.1000 0.5
v -0.0505 0.0532 0.0163
vt 0.1000 0.5
v -0.0505 0.0538 0.0172
vt 0.1000 0.5
v -0.0445 0.0463 -0.0114
vt 0.1000 0.5
v -0.0445 0.0462 -0.0123
vt 0.1000 0.5
v -0.0445 0.0463 -0.0132
vt 0.1000 0.5
v -0.0445 0.0465 -0.0106
vt 0.1000 0.5
v -0.0445 0.0465 -0.0140
vt 0.1000 0.5
v -0.0445 0.0469 -0.0098
vt 0.1000 0.5
v -0.0445 0.0469 -0.0148
vt 0.1000 0.5
v -0.0445 0.0475 -0.0091
vt 0.1000 0.5
v -0.0445 0.0475 -0.0155
vt 0.1000 0.5
v -0.0445 0.0482 -0.0085
vt 0.1000 0.5
v -0.0445 0.0482 -0.0161
vt 0.1000 0.5
v -0.0445 0.0490 -0.0081
vt 0.1000 0.5
v -0.0445 0.0490 -0.0165
vt 0.1000 0.5
v -0.0445 0.0498 -0.0078
vt 0.1000 0.5
v -0.0445 0.0498 -0.0168
vt 0.1000 0.5
v -0.0445 0.0507 -0.0078
vt 0.1000 0.5
v -0.0445 0.0507 -0.0169
vt 0.1000 0.5
v -0.0445 0.0516 -0.0078
vt 0.1000 0.5
v -0.0445 0.0516 -0.0168
vt 0.1000 0.5
v -0.0445 0.0525 -0.0165
vt 0.1000 0.5
v -0.0445 0.0525 -0.0081
vt 0.1000 0.5
v -0.0445 0.0532 -0.0161
vt 0.1000 0.5
v -0.0445 0.0532 -0.0085
vt 0.1000 0.5
v -0.0445 0.0539 -0.0155
vt 0.1000 0.5
v -0.0445 0.0539 -0.0091
vt 0.1000 0.5
v -0.0445 0.0545 -0.0098
vt 0.1000 0.5
v -0.0445 0.0545 -0.0148
vt 0.1000 0.5
v -0.0445 0.0549 -0.0106
vt 0.1000 0.5
v -0.0445 0.0549 -0.0140
vt 0.1000 0.5
v -0.0445 0.0552 -0.0132
vt 0.1000 0.5
v -0.0445 0.0552 -0.0114
vt 0.1000 0.5
v -0.0445 0.0553 -0.0123
vt 0.1000 0.5
v -0.0505 0.0539 -0.0155
vt 0.1000 0.5
v -0.0505 0.0532 -0.0161
vt 0.1000 0.5
v -0.0505 0.0538 -0.0170
vt 0.1000 0.5
v -0.0505 0.0547 -0.0163
vt 0.1000 0.5
v -0.0505 0.0463 -0.0132
vt 0.1000 0.5
v -0.0505 0.0452 -0.0134
vt 0.1000 0.5
v -0.0505 0.0455 -0.0145
vt 0.1000 0.5
v -0.0505 0.0465 -0.0140
vt 0.1000 0.5
v -0.0505 0.0507 -0.0067
vt 0.1000 0.5
v -0.0505 0.0496 -0.0068
vt 0.1000 0.5
v -0.0505 0.0498 -0.0078
vt 0.1000 0.5
v -0.0505 0.0507 -0.0078
vt 0.1000 0.5
v -0.0505 0.0553 -0.0123
vt 0.1000 0.5
v -0.0505 0.0552 -0.0132
vt 0.1000 0.5
v -0.0505 0.0562 -0.0134
vt 0.1000 0.5
v -0.0505 0.0563 -0.0123
vt 0.1000 0.5
v -0.0505 0.0482 -0.0161
vt 0.1000 0.5
v -0.0505 0.0476 -0.0170
vt 0.1000 0.5
v -0.0505 0.0486 -0.0175
vt 0.1000 0.5
v -0.0505 0.0490 -0.0165
vt 0.1000 0.5
v -0.0505 0.0467 -0.0083
vt 0.1000 0.5
v -0.0505 0.0460 -0.0092
vt 0.1000 0.5
v -0.0505 0.0469 -0.0098
vt 0.1000 0.5
v -0.0505 0.0475 -0.0091
vt 0.1000 0.5
v -0.0505 0.0547 -0.0083
vt 0.1000 0.5
v -0.0505 0.0539 -0.0091
vt 0.1000 0.5
v -0.0505 0.0545 -0.0098
vt 0.1000 0.5
v -0.0505 0.0554 -0.0092
vt 0.1000 0.5
v -0.0505 0.0525 -0.0165
vt 0.1000 0.5
v -0.0505 0.0529 -0.0175
vt 0.1000 0.5
v -0.0505 0.0462 -0.0123
vt 0.1000 0.5
v -0.0505 0.0451 -0.0123
vt 0.1000 0.5
v -0.0505 0.0518 -0.0068
vt 0.1000 0.5
v -0.0505 0.0516 -0.0078
vt 0.1000 0.5
v -0.0505 0.0549 -0.0140
vt 0.1000 0.5
v -0.0505 0.0559 -0.0145
vt 0.1000 0.5
v -0.0505 0.0475 -0.0155
vt 0.1000 0.5
v -0.0505 0.0467 -0.0163
vt 0.1000 0.5
v -0.0505 0.0476 -0.0076
vt 0.1000 0.5
v -0.0505 0.0482 -0.0085
vt 0.1000 0.5
v -0.0505 0.0549 -0.0106
vt 0.1000 0.5
v -0.0505 0.0559 -0.0102
vt 0.1000 0.5
v -0.0505 0.0516 -0.0168
vt 0.1000 0.5
v -0.0505 0.0518 -0.0178
vt 0.1000 0.5
v -0.0505 0.0452 -0.0112
vt 0.1000 0.5
v -0.0505 0.0463 -0.0114
vt 0.1000 0.5
v -0.0505 0.0525 -0.0081
vt 0.1000 0.5
v -0.0505 0.0529 -0.0071
vt 0.1000 0.5
v -0.0505 0.0545 -0.0148
vt 0.1000 0.5
v -0.0505 0.0554 -0.0154
vt 0.1000 0.5
v -0.0505 0.0469 -0.0148
vt 0.1000 0.5
v -0.0505 0.0460 -0.0154
vt 0.1000 0.5
v -0.0505 0.0486 -0.0071
vt 0.1000 0.5
v -0.0505 0.0490 -0.0081
vt 0.1000 0.5
v -0.0505 0.0552 -0.0114
vt 0.1000 0.5
v -0.0505 0.0562 -0.0112
vt 0.1000 0.5
v -0.0505 0.0498 -0.0168
vt 0.1000 0.5
v -0.0505 0.0496 -0.0178
vt 0.1000 0.5
v -0.0505 0.0507 -0.0179
vt 0.1000 0.5
v -0.0505 0.0507 -0.0169
vt 0.1000 0.5
v -0.0505 0.0507 -0.0169
vt 0.1000 0.5
v -0.0505 0.0507 -0.0179
vt 0.1000 0.5
v -0.0505 0.0455 -0.0102
vt 0.1000 0.5
v -0.0505 0.0465 -0.0106
vt 0.1000 0.5
v -0.0505 0.0532 -0.0085
vt 0.1000 0.5
v -0.0505 0.0538 -0.0076
vt 0.1000 0.5
v 0.0554 0.2111 -0.0720
vt 0.1000 0.5
v 0.0554 0.2142 -0.0711
vt 0.1000 0.5
v 0.0554 0.2169 -0.0698
vt 0.1000 0.5
v 0.0554 0.2190 -0.0680
vt 0.1000 0.5
v 0.0554 0.2203 -0.0659
vt 0.1000 0.5
v 0.0554 0.2208 -0.0637
vt 0.1000 0.5
v 0.0554 0.0004 -0.0659
vt 0.1000 0.5
v 0.0554 0.0017 -0.0680
vt 0.1000 0.5
v 0.0554 0.0038 -0.0698
vt 0.1000 0.5
v 0.0554 0.0065 -0.0711
vt 0.1000 0.5
v 0.0554 0.0096 -0.0720
vt 0.1000 0.5
v 0.0554 0.0130 -0.0723
vt 0.1000 0.5
v 0.0554 0.0096 0.0720
vt 0.1000 0.5
v 0.0554 0.0065 0.0711
vt 0.1000 0.5
v 0.0554 0.0038 0.0698
vt 0.1000 0.5
v 0.0554 0.0017 0.0680
vt 0.1000 0.5
v 0.0554 0.0004 0.0659
vt 0.1000 0.5
v 0.0554 -0.0001 0.0637
vt 0.1000 0.5
v 0.0554 0.2203 0.0659
vt 0.1000 0.5
v 0.0554 0.2190 0.0680
vt 0.1000 0.5
v 0.0554 0.2169 0.0698
vt 0.1000 0.5
v 0.0554 0.2142 0.0711
vt 0.1000 0.5
v 0.0554 0.2111 0.0720
vt 0.1000 0.5
v 0.0554 0.2077 0.0723
vt 0.1000 0.5
v -0.0554 0.0096 -0.0720
vt 0.1000 0.5
v -0.0554 0.0065 -0.0711
vt 0.1000 0.5
v -0.0554 0.0038 -0.0698
vt 0.1000 0.5
v -0.0554 0.0017 -0.0680
vt 0.1000 0.5
v -0.0554 0.0004 -0.0659
vt 0.1000 0.5
v -0.0554 -0.0001 -0.0637
vt 0.1000 0.5
v -0.0554 -0.0001 0.0637
vt 0.1000 0.5
v -0.0554 0.0004 0.0659
vt 0.1000 0.5
v -0.0554 0.0092 0.0662
vt 0.1000 0.5
v -0.0554 0.0017 0.0680
vt 0.1000 0.5
v -0.0554 0.0038 0.0698
vt 0.1000 0.5
v -0.0554 0.0065 0.0711
vt 0.1000 0.5
v -0.0554 0.0096 0.0720
vt 0.1000 0.5
v -0.0554 0.0130 0.0723
vt 0.1000 0.5
v -0.0554 0.2111 0.0720
vt 0.1000 0.5
v -0.0554 0.2142 0.0711
vt 0.1000 0.5
v -0.0554 0.2169 0.0698
vt 0.1000 0.5
v -0.0554 0.2190 0.0680
vt 0.1000 0.5
v -0.0554 0.2203 0.0659
vt 0.1000 0.5
v -0.0554 0.2208 0.0637
vt 0.1000 0.5
v -0.0554 0.2208 -0.0637
vt 0.1000 0.5
v -0.0554 0.2203 -0.0659
vt 0.1000 0.5
v -0.0554 0.2190 -0.0680
vt 0.1000 0.5
v -0.0554 0.2169 -0.0698
vt 0.1000 0.5
v -0.0554 0.2142 -0.0711
vt 0.1000 0.5
v -0.0554 0.2111 -0.0720
vt 0.1000 0.5
v -0.0554 0.2077 -0.0723
vt 0.1000 0.5
v 0.0554 0.0004 -0.0659
vt 0.1000 0.5
v 0.0554 -0.0001 -0.0637
vt 0.1000 0.5
v -0.0554 -0.0001 -0.0637
vt 0.1000 0.5
v -0.0554 0.0004 -0.0659
vt 0.1000 0.5
v 0.0554 0.0017 -0.0680
vt 0.1000 0.5
v 0.0554 0.0004 -0.0659
vt 0.1000 0.5
v -0.0554 0.0004 -0.0659
vt 0.1000 0.5
v -0.0554 0.0017 -0.0680
vt 0.1000 0.5
v 0.0554 0.0038 -0.0698
vt 0.1000 0.5
v 0.0554 0.0017 -0.0680
vt 0.1000 0.5
v -0.0554 0.0017 -0.0680
vt 0.1000 0.5
v -0.0554 0.0038 -0.0698
vt 0.1000 0.5
v 0.0554 0.0065 -0.0711
vt 0.1000 0.5
v 0.0554 0.0038 -0.0698
vt 0.1000 0.5
v -0.0554 0.0038 -0.0698
vt 0.1000 0.5
v -0.0554 0.0065 -0.0711
vt 0.1000 0.5
v 0.0554 0.0096 -0.0720
vt 0.1000 0.5
v 0.0554 0.0065 -0.0711
vt 0.1000 0.5
v -0.0554 0.0065 -0.0711
vt 0.1000 0.5
v -0.0554 0.0096 -0.0720
vt 0.1000 0.5
v 0.0554 0.0130 -0.0723
vt 0.1000 0.5
v 0.0554 0.0096 -0.0720
vt 0.1000 0.5
v -0.0554 0.0096 -0.0720
vt 0.1000 0.5
v -0.0554 0.0130 -0.0723
vt 0.1000 0.5
v 0.0554 0.2208 -0.0637
vt 0.1000 0.5
v 0.0554 0.2203 -0.0659
vt 0.1000 0.5
v -0.0554 0.2203 -0.0659
vt 0.1000 0.5
v -0.0554 0.2208 -0.0637
vt 0.1000 0.5
v 0.0554 0.2203 -0.0659
vt 0.1000 0.5
v 0.0554 0.2190 -0.0680
vt 0.1000 0.5
v -0.0554 0.2190 -0.0680
vt 0.1000 0.5
v -0.0554 0.2203 -0.0659
vt 0.1000 0.5
v 0.0554 0.2190 -0.0680
vt 0.1000 0.5
v 0.0554 0.2169 -0.0698
vt 0.1000 0.5
v -0.0554 0.2169 -0.0698
vt 0.1000 0.5
v -0.0554 0.2190 -0.0680
vt 0.1000 0.5
v 0.0554 0.2169 -0.0698
vt 0.1000 0.5
v 0.0554 0.2142 -0.0711
vt 0.1000 0.5
v -0.0554 0.2142 -0.0711
vt 0.1000 0.5
v -0.0554 0.2169 -0.0698
vt 0.1000 0.5
v 0.0554 0.2142 -0.0711
vt 0.1000 0.5
v 0.0554 0.2111 -0.0720
vt 0.1000 0.5
v -0.0554 0.2111 -0.0720
vt 0.1000 0.5
v -0.0554 0.2142 -0.0711
vt 0.1000 0.5
v 0.0554 0.2111 -0.0720
vt 0.1000 0.5
v 0.0554 0.2077 -0.0723
vt 0.1000 0.5
v -0.0554 0.2077 -0.0723
vt 0.1000 0.5
v -0.0554 0.2111 -0.0720
vt 0.1000 0.5
v -0.0554 0.0004 0.0659
vt 0.1000 0.5
v -0.0554 -0.0001 0.0637
vt 0.1000 0.5
v 0.0554 -0.0001 0.0637
vt 0.1000 0.5
v 0.0554 0.0004 0.0659
vt 0.1000 0.5
v -0.0554 0.0017 0.0680
vt 0.1000 0.5
v -0.0554 0.0004 0.0659
vt 0.1000 0.5
v 0.0554 0.0004 0.0659
vt 0.1000 0.5
v 0.0554 0.0017 0.0680
vt 0.1000 0.5
v -0.0554 0.0038 0.0698
vt 0.1000 0.5
v -0.0554 0.0017 0.0680
vt 0.1000 0.5
v 0.0554 0.0017 0.0680
vt 0.1000 0.5
v 0.0554 0.0038 0.0698
vt 0.1000 0.5
v -0.0554 0.0065 0.0711
vt 0.1000 0.5
v -0.0554 0.0038 0.0698
vt 0.1000 0.5
v 0.0554 0.0038 0.0698
vt 0.1000 0.5
v 0.0554 0.0065 0.0711
vt 0.1000 0.5
v -0.0554 0.0096 0.0720
vt 0.1000 0.5
v -0.0554 0.0065 0.0711
vt 0.1000 0.5
v 0.0554 0.0065 0.0711
vt 0.1000 0.5
v 0.0554 0.0096 0.0720
vt 0.1000 0.5
v -0.0554 0.0130 0.0723
vt 0.1000 0.5
v -0.0554 0.0096 0.0720
vt 0.1000 0.5
v 0.0554 0.0096 0.0720
vt 0.1000 0.5
v 0.0554 0.0130 0.0723
vt 0.1000 0.5
v -0.0554 0.2208 0.0637
vt 0.1000 0.5
v -0.0554 0.2203 0.0659
vt 0.1000 0.5
v 0.0554 0.2203 0.0659
vt 0.1000 0.5
v 0.0554 0.2208 0.0637
vt 0.1000 0.5
v -0.0554 0.2203 0.0659
vt 0.1000 0.5
v -0.0554 0.2190 0.0680
vt 0.1000 0.5
v 0.0554 0.2190 0.0680
vt 0.1000 0.5
v 0.0554 0.2203 0.0659
vt 0.1000 0.5
v -0.0554 0.2190 0.0680
vt 0.1000 0.5
v -0.0554 0.2169 0.0698
vt 0.1000 0.5
v 0.0554 0.2169 0.0698
vt 0.1000 0.5
v 0.0554 0.2190 0.0680
vt 0.1000 0.5
v -0.0554 0.2169 0.0698
vt 0.1000 0.5
v -0.0554 0.2142 0.0711
vt 0.1000 0.5
v 0.0554 0.2142 0.0711
vt 0.1000 0.5
v 0.0554 0.2169 0.0698
vt 0.1000 0.5
v -0.0554 0.2142 0.0711
vt 0.1000 0.5
v -0.0554 0.2111 0.0720
vt 0.1000 0.5
v 0.0554 0.2111 0.0720
vt 0.1000 0.5
v 0.0554 0.2142 0.0711
vt 0.1000 0.5
v -0.0554 0.2111 0.0720
vt 0.1000 0.5
v -0.0554 0.2077 0.0723
vt 0.1000 0.5
v 0.0554 0.2077 0.0723
vt 0.1000 0.5
v 0.0554 0.2111 0.0720
vt 0.1000 0.5
v 0.0554 0.2208 0.0637
vt 0.1000 0.5
v 0.0554 0.2208 -0.0637
vt 0.1000 0.5
v -0.0554 0.2208 -0.0637
vt 0.1000 0.5
v -0.0554 0.2208 0.0637
vt 0.1000 0.5
v 0.0554 0.1103 -0.0723
vt 0.1000 0.5
v 0.0554 0.0617 -0.0723
vt 0.1000 0.5
v -0.0554 0.0617 -0.0723
vt 0.1000 0.5
v -0.0554 0.1103 -0.0723
vt 0.1000 0.5
v -0.0554 0.1103 0.0723
vt 0.1000 0.5
v -0.0554 0.0617 0.0723
vt 0.1000 0.5
v 0.0554 0.0617 0.0723
vt 0.1000 0.5
v 0.0554 0.1103 0.0723
vt 0.1000 0.5
v -0.0554 0.0130 0.0723
vt 0.1000 0.5
v 0.0554 0.0130 0.0723
vt 0.1000 0.5
v 0.0554 0.0130 -0.0723
vt 0.1000 0.5
v -0.0554 0.0130 -0.0723
vt 0.1000 0.5
f 1/1 2/2 3/3
f 1/1 3/3 4/4
f 5/5 6/6 7/7
f 5/5 7/7 8/8
f 9/9 5/5 8/8
f 9/9 8/8 10/10
f 11/11 12/12 13/13
f 11/11 13/13 14/14
f 15/15 16/16 17/17
f 15/15 17/17 18/18
f 19/19 15/15 18/18
f 19/19 18/18 20/20
f 21/21 22/22 23/23
f 21/21 23/23 24/24
f 25/25 21/21 24/24
f 25/25 24/24 26/26
f 27/27 28/28 29/29
f 27/27 29/29 30/30
f 31/31 32/32 33/33
f 31/31 33/33 34/34
f 35/35 36/36 25/25
f 37/37 35/35 25/25
f 38/38 37/37 25/25
f 38/38 25/25 6/6
f 39/39 38/38 6/6
f 39/39 6/6 40/40
f 41/41 39/39 40/40
f 26/26 24/24 42/42
f 26/26 42/42 43/43
f 26/26 43/43 44/44
f 7/7 26/26 44/44
f 7/7 44/44 45/45
f 46/46 7/7 45/45
f 46/46 45/45 47/47
f 48/48 49/49 50/50
f 48/48 50/50 51/51
f 52/52 53/53 54/54
f 52/52 54/54 55/55
f 56/56 57/57 58/58
f 56/56 58/58 59/59
f 60/60 61/61 62/62
f 60/60 62/62 63/63
f 64/64 65/65 66/66
f 64/64 66/66 67/67
f 68/68 64/64 67/67
f 68/68 67/67 69/69
f 70/70 71/71 72/72
f 73/73 70/70 72/72
f 73/73 72/72 74/74
f 73/73 74/74 75/75
f 76/76 77/77 78/78
f 76/76 78/78 79/79
f 80/80 81/81 82/82
f 80/80 82/82 83/83
f 84/84 85/85 86/86
f 84/84 86/86 87/87
f 88/88 89/89 90/90
f 88/88 90/90 91/91
f 92/92 93/93 94/94
f 92/92 94/94 95/95
f 96/96 97/97 98/98
f 96/96 98/98 99/99
f 100/100 101/101 102/102
f 100/100 102/102 103/103
f 104/104 105/105 106/106
f 107/107 104/104 106/106
f 107/107 106/106 108/108
f 109/109 107/107 108/108
f 110/110 109/109 108/108
f 111/111 110/110 108/108
f 111/111 108/108 112/112
f 113/113 114/114 115/115
f 113/113 115/115 116/116
f 117/117 113/113 116/116
f 117/117 116/116 118/118
f 119/119 120/120 121/121
f 119/119 121/121 122/122
f 123/123 119/119 122/122
f 123/123 122/122 124/124
f 123/123 124/124 125/125
f 123/123 125/125 126/126
f 127/127 123/123 126/126
f 128/128 129/129 130/130
f 128/128 130/130 131/131
f 132/132 133/133 134/134
f 132/132 134/134 135/135
f 136/136 137/137 138/138
f 136/136 138/138 139/139
f 140/140 141/141 142/142
f 143/143 140/140 142/142
f 143/143 142/142 144/144
f 145/145 143/143 144/144
f 145/145 144/144 146/146
f 147/147 145/145 146/146
f 147/147 146/146 148/148
f 149/149 147/147 148/148
f 149/149 148/148 150/150
f 151/151 149/149 150/150
f 151/151 150/150 152/152
f 153/153 151/151 152/152
f 153/153 152/152 154/154
f 155/155 153/153 154/154
f 155/155 154/154 156/156
f 157/157 155/155 156/156
f 157/157 156/156 158/158
f 157/157 158/158 159/159
f 160/160 157/157 159/159
f 160/160 159/159 161/161
f 162/162 160/160 161/161
f 162/162 161/161 163/163
f 164/164 162/162 163/163
f 165/165 164/164 163/163
f 165/165 163/163 166/166
f 167/167 165/165 166/166
f 167/167 166/166 168/168
f 167/167 168/168 169/169
f 170/170 167/167 169/169
f 170/170 169/169 171/171
f 172/172 173/173 174/174
f 172/172 174/174 175/175
f 176/176 177/177 178/178
f 176/176 178/178 179/179
f 180/180 181/181 182/182
f 180/180 182/182 183/183
f 184/184 185/185 186/186
f 187/187 184/184 186/186
f 188/188 189/189 190/190
f 191/191 188/188 190/190
f 192/192 193/193 194/194
f 195/195 192/192 194/194
f 196/196 197/197 198/198
f 196/196 198/198 199/199
f 173/173 200/200 201/201
f 173/173 201/201 174/174
f 202/202 203/203 177/177
f 202/202 177/177 176/176
f 204/204 180/180 183/183
f 204/204 183/183 205/205
f 185/185 206/206 207/207
f 186/186 185/185 207/207
f 208/208 209/209 189/189
f 188/188 208/208 189/189
f 210/210 192/192 195/195
f 210/210 195/195 211/211
f 199/199 198/198 212/212
f 199/199 212/212 213/213
f 200/200 214/214 215/215
f 200/200 215/215 201/201
f 216/216 203/203 202/202
f 217/217 216/216 202/202
f 204/204 205/205 218/218
f 219/219 204/204 218/218
f 206/206 220/220 221/221
f 207/207 206/206 221/221
f 222/222 223/223 209/209
f 222/222 209/209 208/208
f 224/224 210/210 211/211
f 224/224 211/211 225/225
f 213/213 212/212 226/226
f 213/213 226/226 227/227
f 228/228 229/229 230/230
f 231/231 228/228 230/230
f 214/214 232/232 233/233
f 214/214 233/233 215/215
f 234/234 216/216 217/217
f 235/235 234/234 217/217
f 219/219 218/218 236/236
f 237/237 219/219 236/236
f 220/220 172/172 175/175
f 221/221 220/220 175/175
f 179/179 178/178 223/223
f 179/179 223/223 222/222
f 227/227 226/226 184/184
f 227/227 184/184 187/187
f 191/191 190/190 229/229
f 228/228 191/191 229/229
f 193/193 234/234 235/235
f 194/194 193/193 235/235
f 237/237 236/236 197/197
f 196/196 237/237 197/197
f 238/238 239/239 240/240
f 241/241 238/238 240/240
f 241/241 240/240 242/242
f 243/243 241/241 242/242
f 243/243 242/242 244/244
f 245/245 243/243 244/244
f 245/245 244/244 246/246
f 247/247 245/245 246/246
f 247/247 246/246 248/248
f 249/249 247/247 248/248
f 249/249 248/248 250/250
f 251/251 249/249 250/250
f 251/251 250/250 252/252
f 253/253 251/251 252/252
f 253/253 252/252 254/254
f 255/255 253/253 254/254
f 255/255 254/254 256/256
f 255/255 256/256 257/257
f 258/258 255/255 257/257
f 258/258 257/257 259/259
f 260/260 258/258 259/259
f 260/260 259/259 261/261
f 262/262 260/260 261/261
f 263/263 262/262 261/261
f 263/263 261/261 264/264
f 265/265 263/263 264/264
f 265/265 264/264 266/266
f 265/265 266/266 267/267
f 268/268 265/265 267/267
f 268/268 267/267 269/269
f 270/270 271/271 272/272
f 270/270 272/272 273/273
f 274/274 275/275 276/276
f 274/274 276/276 277/277
f 278/278 279/279 280/280
f 278/278 280/280 281/281
f 282/282 283/283 284/284
f 285/285 282/282 284/284
f 286/286 287/287 288/288
f 289/289 286/286 288/288
f 290/290 291/291 292/292
f 293/293 290/290 292/292
f 294/294 295/295 296/296
f 294/294 296/296 297/297
f 271/271 298/298 299/299
f 271/271 299/299 272/272
f 300/300 301/301 275/275
f 300/300 275/275 274/274
f 302/302 278/278 281/281
f 302/302 281/281 303/303
f 283/283 304/304 305/305
f 284/284 283/283 305/305
f 306/306 307/307 287/287
f 286/286 306/306 287/287
f 308/308 290/290 293/293
f 308/308 293/293 309/309
f 297/297 296/296 310/310
f 297/297 310/310 311/311
f 298/298 312/312 313/313
f 298/298 313/313 299/299
f 314/314 301/301 300/300
f 315/315 314/314 300/300
f 302/302 303/303 316/316
f 317/317 302/302 316/316
f 304/304 318/318 319/319
f 305/305 304/304 319/319
f 320/320 321/321 307/307
f 320/320 307/307 306/306
f 322/322 308/308 309/309
f 322/322 309/309 323/323
f 311/311 310/310 324/324
f 311/311 324/324 325/325
f 326/326 327/327 328/328
f 329/329 326/326 328/328
f 312/312 330/330 331/331
f 312/312 331/331 313/313
f 332/332 314/314 315/315
f 333/333 332/332 315/315
f 317/317 316/316 334/334
f 335/335 317/317 334/334
f 318/318 270/270 273/273
f 319/319 318/318 273/273
f 277/277 276/276 321/321
f 277/277 321/321 320/320
f 279/279 322/322 323/323
f 279/279 323/323 280/280
f 325/325 324/324 282/282
f 325/325 282/282 285/285
f 289/289 288/288 327/327
f 326/326 289/289 327/327
f 291/291 332/332 333/333
f 292/292 291/291 333/333
f 335/335 334/334 295/295
f 294/294 335/335 295/295
f 47/47 336/336 46/46
f 336/336 337/337 46/46
f 337/337 338/338 46/46
f 338/338 339/339 46/46
f 339/339 340/340 46/46
f 340/340 341/341 46/46
f 23/23 342/342 24/24
f 342/342 343/343 24/24
f 343/343 344/344 24/24
f 344/344 345/345 24/24
f 345/345 346/346 24/24
f 346/346 347/347 24/24
f 35/35 348/348 36/36
f 348/348 349/349 36/36
f 349/349 350/350 36/36
f 350/350 351/351 36/36
f 351/351 352/352 36/36
f 352/352 353/353 36/36
f 9/9 354/354 5/5
f 354/354 355/355 5/5
f 355/355 356/356 5/5
f 356/356 357/357 5/5
f 357/357 358/358 5/5
f 358/358 359/359 5/5
f 104/104 360/360 105/105
f 360/360 361/361 105/105
f 361/361 362/362 105/105
f 362/362 363/363 105/105
f 363/363 364/364 105/105
f 364/364 365/365 105/105
f 366/366 367/367 368/368
f 367/367 369/369 368/368
f 369/369 370/370 368/368
f 370/370 371/371 368/368
f 371/371 372/372 368/368
f 372/372 373/373 368/368
f 126/126 374/374 127/127
f 374/374 375/375 127/127
f 375/375 376/376 127/127
f 376/376 377/377 127/127
f 377/377 378/378 127/127
f 378/378 379/379 127/127
f 380/380 381/381 112/112
f 381/381 382/382 112/112
f 382/382 383/383 112/112
f 383/383 384/384 112/112
f 384/384 385/385 112/112
f 385/385 386/386 112/112
f 387/387 388/388 389/389
f 387/387 389/389 390/390
f 391/391 392/392 393/393
f 391/391 393/393 394/394
f 395/395 396/396 397/397
f 395/395 397/397 398/398
f 399/399 400/400 401/401
f 399/399 401/401 402/402
f 403/403 404/404 405/405
f 403/403 405/405 406/406
f 407/407 408/408 409/409
f 407/407 409/409 410/410
f 411/411 412/412 413/413
f 411/411 413/413 414/414
f 415/415 416/416 417/417
f 415/415 417/417 418/418
f 419/419 420/420 421/421
f 419/419 421/421 422/422
f 423/423 424/424 425/425
f 423/423 425/425 426/426
f 427/427 428/428 429/429
f 427/427 429/429 430/430
f 431/431 432/432 433/433
f 431/431 433/433 434/434
f 435/435 436/436 437/437
f 435/435 437/437 438/438
f 439/439 440/440 441/441
f 439/439 441/441 442/442
f 443/443 444/444 445/445
f 443/443 445/445 446/446
f 447/447 448/448 449/449
f 447/447 449/449 450/450
f 451/451 452/452 453/453
f 451/451 453/453 454/454
f 455/455 456/456 457/457
f 455/455 457/457 458/458
f 459/459 460/460 461/461
f 459/459 461/461 462/462
f 463/463 464/464 465/465
f 463/463 465/465 466/466
f 467/467 468/468 469/469
f 467/467 469/469 470/470
f 471/471 472/472 473/473
f 471/471 473/473 474/474
f 475/475 476/476 477/477
f 475/475 477/477 478/478
f 479/479 480/480 481/481
f 479/479 481/481 482/482
f 483/483 484/484 485/485
f 483/483 485/485 486/486
f 487/487 488/488 489/489
f 487/487 489/489 490/490
f 491/491 492/492 493/493
f 491/491 493/493 494/494
f 492/492 495/495 496/496
f 492/492 496/496 493/493
f 49/49 491/491 494/494
f 49/49 494/494 50/50
f 28/28 487/487 490/490
f 28/28 490/490 29/29
f 488/488 497/497 498/498
f 488/488 498/498 489/489
v 0.0616 0.0163 -0.0720
vt 0.3000 0.5
v 0.0616 0.0059 -0.0720
vt 0.3000 0.5
v 0.0590 0.0059 -0.0720
vt 0.3000 0.5
v 0.0590 0.2148 -0.0720
vt 0.3000 0.5
v 0.0616 0.2148 -0.0720
vt 0.3000 0.5
v 0.0590 0.0004 0.0684
vt 0.3000 0.5
v 0.0590 0.0004 -0.0684
vt 0.3000 0.5
v 0.0616 0.0004 -0.0684
vt 0.3000 0.5
v 0.0616 0.0004 0.0684
vt 0.3000 0.5
v 0.0616 0.2203 0.0684
vt 0.3000 0.5
v 0.0616 0.2203 -0.0684
vt 0.3000 0.5
v 0.0590 0.2203 -0.0684
vt 0.3000 0.5
v 0.0590 0.2203 0.0684
vt 0.3000 0.5
v 0.0616 0.0163 -0.0720
vt 0.3000 0.5
v 0.0616 0.0162 0.0720
vt 0.3000 0.5
v 0.0620 0.0162 0.0720
vt 0.3000 0.5
v 0.0620 0.0163 -0.0720
vt 0.3000 0.5
v 0.0590 0.2148 0.0720
vt 0.3000 0.5
v 0.0590 0.0059 0.0720
vt 0.3000 0.5
v 0.0616 0.0059 0.0720
vt 0.3000 0.5
v 0.0616 0.0162 0.0720
vt 0.3000 0.5
v 0.0616 0.2148 0.0720
vt 0.3000 0.5
v 0.0571 0.1017 0.0057
vt 0.3000 0.5
v 0.0589 0.0043 0.0694
vt 0.3000 0.5
v 0.0590 0.0059 0.0720
vt 0.3000 0.5
v 0.0590 0.2148 0.0720
vt 0.3000 0.5
v 0.0571 0.1190 0.0057
vt 0.3000 0.5
v 0.0589 0.2164 0.0694
vt 0.3000 0.5
v 0.0589 0.2164 -0.0694
vt 0.3000 0.5
v 0.0571 0.1190 -0.0057
vt 0.3000 0.5
v 0.0571 0.1190 0.0057
vt 0.3000 0.5
v 0.0589 0.2164 0.0694
vt 0.3000 0.5
v 0.0590 0.2203 -0.0684
vt 0.3000 0.5
v 0.0590 0.2203 0.0684
vt 0.3000 0.5
v 0.0590 0.2203 -0.0684
vt 0.3000 0.5
v 0.0590 0.2196 -0.0702
vt 0.3000 0.5
v 0.0589 0.2164 -0.0694
vt 0.3000 0.5
v 0.0590 0.2196 -0.0702
vt 0.3000 0.5
v 0.0590 0.2175 -0.0715
vt 0.3000 0.5
v 0.0589 0.2164 -0.0694
vt 0.3000 0.5
v 0.0590 0.2175 -0.0715
vt 0.3000 0.5
v 0.0590 0.2148 -0.0720
vt 0.3000 0.5
v 0.0589 0.2164 -0.0694
vt 0.3000 0.5
v 0.0590 0.0059 -0.0720
vt 0.3000 0.5
v 0.0590 0.0031 -0.0715
vt 0.3000 0.5
v 0.0589 0.0043 -0.0694
vt 0.3000 0.5
v 0.0590 0.0031 -0.0715
vt 0.3000 0.5
v 0.0590 0.0011 -0.0702
vt 0.3000 0.5
v 0.0589 0.0043 -0.0694
vt 0.3000 0.5
v 0.0590 0.0011 -0.0702
vt 0.3000 0.5
v 0.0590 0.0004 -0.0684
vt 0.3000 0.5
v 0.0589 0.0043 -0.0694
vt 0.3000 0.5
v 0.0590 0.0004 0.0684
vt 0.3000 0.5
v 0.0590 0.0011 0.0702
vt 0.3000 0.5
v 0.0589 0.0043 0.0694
vt 0.3000 0.5
v 0.0590 0.0011 0.0702
vt 0.3000 0.5
v 0.0590 0.0031 0.0715
vt 0.3000 0.5
v 0.0589 0.0043 0.0694
vt 0.3000 0.5
v 0.0590 0.0031 0.0715
vt 0.3000 0.5
v 0.0590 0.0059 0.0720
vt 0.3000 0.5
v 0.0589 0.0043 0.0694
vt 0.3000 0.5
v 0.0590 0.2148 0.0720
vt 0.3000 0.5
v 0.0590 0.2175 0.0715
vt 0.3000 0.5
v 0.0589 0.2164 0.0694
vt 0.3000 0.5
v 0.0590 0.2175 0.0715
vt 0.3000 0.5
v 0.0590 0.2196 0.0702
vt 0.3000 0.5
v 0.0589 0.2164 0.0694
vt 0.3000 0.5
v 0.0590 0.2196 0.0702
vt 0.3000 0.5
v 0.0590 0.2203 0.0684
vt 0.3000 0.5
v 0.0589 0.2164 0.0694
vt 0.3000 0.5
v 0.0616 0.2203 -0.0684
vt 0.3000 0.5
v 0.0616 0.2196 -0.0702
vt 0.3000 0.5
v 0.0590 0.2196 -0.0702
vt 0.3000 0.5
v 0.0590 0.2203 -0.0684
vt 0.3000 0.5
v 0.0616 0.2196 -0.0702
vt 0.3000 0.5
v 0.0616 0.2175 -0.0715
vt 0.3000 0.5
v 0.0590 0.2175 -0.0715
vt 0.3000 0.5
v 0.0590 0.2196 -0.0702
vt 0.3000 0.5
v 0.0616 0.2175 -0.0715
vt 0.3000 0.5
v 0.0616 0.2148 -0.0720
vt 0.3000 0.5
v 0.0590 0.2148 -0.0720
vt 0.3000 0.5
v 0.0590 0.2175 -0.0715
vt 0.3000 0.5
v 0.0616 0.0011 -0.0702
vt 0.3000 0.5
v 0.0616 0.0004 -0.0684
vt 0.3000 0.5
v 0.0590 0.0004 -0.0684
vt 0.3000 0.5
v 0.0590 0.0011 -0.0702
vt 0.3000 0.5
v 0.0616 0.0031 -0.0715
vt 0.3000 0.5
v 0.0616 0.0011 -0.0702
vt 0.3000 0.5
v 0.0590 0.0011 -0.0702
vt 0.3000 0.5
v 0.0590 0.0031 -0.0715
vt 0.3000 0.5
v 0.0616 0.0059 -0.0720
vt 0.3000 0.5
v 0.0616 0.0031 -0.0715
vt 0.3000 0.5
v 0.0590 0.0031 -0.0715
vt 0.3000 0.5
v 0.0590 0.0059 -0.0720
vt 0.3000 0.5
v 0.0590 0.0011 0.0702
vt 0.3000 0.5
v 0.0590 0.0004 0.0684
vt 0.3000 0.5
v 0.0616 0.0004 0.0684
vt 0.3000 0.5
v 0.0616 0.0011 0.0702
vt 0.3000 0.5
v 0.0590 0.0031 0.0715
vt 0.3000 0.5
v 0.0590 0.0011 0.0702
vt 0.3000 0.5
v 0.0616 0.0011 0.0702
vt 0.3000 0.5
v 0.0616 0.0031 0.0715
vt 0.3000 0.5
v 0.0590 0.0059 0.0720
vt 0.3000 0.5
v 0.0590 0.0031 0.0715
vt 0.3000 0.5
v 0.0616 0.0031 0.0715
vt 0.3000 0.5
v 0.0616 0.0059 0.0720
vt 0.3000 0.5
v 0.0590 0.2203 0.0684
vt 0.3000 0.5
v 0.0590 0.2196 0.0702
vt 0.3000 0.5
v 0.0616 0.2196 0.0702
vt 0.3000 0.5
v 0.0616 0.2203 0.0684
vt 0.3000 0.5
v 0.0590 0.2196 0.0702
vt 0.3000 0.5
v 0.0590 0.2175 0.0715
vt 0.3000 0.5
v 0.0616 0.2175 0.0715
vt 0.3000 0.5
v 0.0616 0.2196 0.0702
vt 0.3000 0.5
v 0.0590 0.2175 0.0715
vt 0.3000 0.5
v 0.0590 0.2148 0.0720
vt 0.3000 0.5
v 0.0616 0.2148 0.0720
vt 0.3000 0.5
v 0.0616 0.2175 0.0715
vt 0.3000 0.5
v 0.0616 0.2148 0.0720
vt 0.3000 0.5
v 0.0616 0.0162 0.0720
vt 0.3000 0.5
v 0.0616 0.0163 -0.0720
vt 0.3000 0.5
v 0.0616 0.2148 -0.0720
vt 0.3000 0.5
v 0.0616 0.2175 0.0715
vt 0.3000 0.5
v 0.0616 0.2175 -0.0715
vt 0.3000 0.5
v 0.0616 0.2196 0.0702
vt 0.3000 0.5
v 0.0616 0.2196 -0.0702
vt 0.3000 0.5
v 0.0616 0.2203 0.0684
vt 0.3000 0.5
v 0.0616 0.2203 -0.0684
vt 0.3000 0.5
v 0.0620 0.0163 -0.0720
vt 0.3000 0.5
v 0.0620 0.0059 -0.0720
vt 0.3000 0.5
v 0.0616 0.0162 0.0720
vt 0.3000 0.5
v 0.0616 0.0059 0.0720
vt 0.3000 0.5
v 0.0620 0.0059 0.0720
vt 0.3000 0.5
v 0.0620 0.0162 0.0720
vt 0.3000 0.5
v -0.0499 0.0891 -0.0497
vt 0.3000 0.5
v -0.0499 0.0268 -0.0497
vt 0.3000 0.5
v -0.0450 0.0268 -0.0497
vt 0.3000 0.5
v -0.0450 0.0891 -0.0497
vt 0.3000 0.5
v -0.0499 0.0268 -0.0497
vt 0.3000 0.5
v -0.0499 0.0142 -0.0629
vt 0.3000 0.5
v -0.0499 0.0142 0.0629
vt 0.3000 0.5
v -0.0499 0.0268 0.0497
vt 0.3000 0.5
v -0.0499 0.0268 0.0497
vt 0.3000 0.5
v -0.0499 0.0142 0.0629
vt 0.3000 0.5
v -0.0499 0.2065 0.0629
vt 0.3000 0.5
v -0.0499 0.0891 0.0497
vt 0.3000 0.5
v -0.0499 0.2065 -0.0629
vt 0.3000 0.5
v -0.0499 0.0891 -0.0497
vt 0.3000 0.5
v -0.0499 0.0142 -0.0629
vt 0.3000 0.5
v -0.0499 0.0268 -0.0497
vt 0.3000 0.5
v -0.0450 0.0891 -0.0497
vt 0.3000 0.5
v -0.0450 0.0268 -0.0497
vt 0.3000 0.5
v -0.0450 0.0268 0.0497
vt 0.3000 0.5
v -0.0450 0.0891 0.0497
vt 0.3000 0.5
v -0.0450 0.0891 0.0497
vt 0.3000 0.5
v -0.0450 0.0268 0.0497
vt 0.3000 0.5
v -0.0499 0.0268 0.0497
vt 0.3000 0.5
v -0.0499 0.0891 0.0497
vt 0.3000 0.5
v -0.0499 0.0891 0.0497
vt 0.3000 0.5
v -0.0499 0.0891 -0.0497
vt 0.3000 0.5
v -0.0450 0.0891 -0.0497
vt 0.3000 0.5
v -0.0450 0.0891 0.0497
vt 0.3000 0.5
v -0.0450 0.0268 0.0497
vt 0.3000 0.5
v -0.0450 0.0268 -0.0497
vt 0.3000 0.5
v -0.0499 0.0268 -0.0497
vt 0.3000 0.5
v -0.0499 0.0268 0.0497
vt 0.3000 0.5
v -0.0445 0.0507 -0.0169
vt 0.3000 0.5
v -0.0445 0.0498 -0.0168
vt 0.3000 0.5
v -0.0505 0.0498 -0.0168
vt 0.3000 0.5
v -0.0505 0.0507 -0.0169
vt 0.3000 0.5
v -0.0445 0.0498 -0.0168
vt 0.3000 0.5
v -0.0445 0.0490 -0.0165
vt 0.3000 0.5
v -0.0505 0.0490 -0.0165
vt 0.3000 0.5
v -0.0505 0.0498 -0.0168
vt 0.3000 0.5
v -0.0445 0.0490 -0.0165
vt 0.3000 0.5
v -0.0445 0.0482 -0.0161
vt 0.3000 0.5
v -0.0505 0.0482 -0.0161
vt 0.3000 0.5
v -0.0505 0.0490 -0.0165
vt 0.3000 0.5
v -0.0445 0.0482 -0.0161
vt 0.3000 0.5
v -0.0445 0.0475 -0.0155
vt 0.3000 0.5
v -0.0505 0.0475 -0.0155
vt 0.3000 0.5
v -0.0505 0.0482 -0.0161
vt 0.3000 0.5
v -0.0445 0.0475 -0.0155
vt 0.3000 0.5
v -0.0445 0.0469 -0.0148
vt 0.3000 0.5
v -0.0505 0.0469 -0.0148
vt 0.3000 0.5
v -0.0505 0.0475 -0.0155
vt 0.3000 0.5
v -0.0445 0.0469 -0.0148
vt 0.3000 0.5
v -0.0445 0.0465 -0.0140
vt 0.3000 0.5
v -0.0505 0.0465 -0.0140
vt 0.3000 0.5
v -0.0505 0.0469 -0.0148
vt 0.3000 0.5
v -0.0445 0.0465 -0.0140
vt 0.3000 0.5
v -0.0445 0.0463 -0.0132
vt 0.3000 0.5
v -0.0505 0.0463 -0.0132
vt 0.3000 0.5
v -0.0505 0.0465 -0.0140
vt 0.3000 0.5
v -0.0445 0.0463 -0.0132
vt 0.3000 0.5
v -0.0445 0.0462 -0.0123
vt 0.3000 0.5
v -0.0505 0.0462 -0.0123
vt 0.3000 0.5
v -0.0505 0.0463 -0.0132
vt 0.3000 0.5
v -0.0505 0.0463 -0.0114
vt 0.3000 0.5
v -0.0505 0.0462 -0.0123
vt 0.3000 0.5
v -0.0445 0.0462 -0.0123
vt 0.3000 0.5
v -0.0445 0.0463 -0.0114
vt 0.3000 0.5
v -0.0505 0.0465 -0.0106
vt 0.3000 0.5
v -0.0505 0.0463 -0.0114
vt 0.3000 0.5
v -0.0445 0.0463 -0.0114
vt 0.3000 0.5
v -0.0445 0.0465 -0.0106
vt 0.3000 0.5
v -0.0505 0.0469 -0.0098
vt 0.3000 0.5
v -0.0505 0.0465 -0.0106
vt 0.3000 0.5
v -0.0445 0.0465 -0.0106
vt 0.3000 0.5
v -0.0445 0.0469 -0.0098
vt 0.3000 0.5
v -0.0505 0.0475 -0.0091
vt 0.3000 0.5
v -0.0505 0.0469 -0.0098
vt 0.3000 0.5
v -0.0445 0.0469 -0.0098
vt 0.3000 0.5
v -0.0445 0.0475 -0.0091
vt 0.3000 0.5
v -0.0505 0.0482 -0.0085
vt 0.3000 0.5
v -0.0505 0.0475 -0.0091
vt 0.3000 0.5
v -0.0445 0.0475 -0.0091
vt 0.3000 0.5
v -0.0445 0.0482 -0.0085
vt 0.3000 0.5
v -0.0505 0.0490 -0.0081
vt 0.3000 0.5
v -0.0505 0.0482 -0.0085
vt 0.3000 0.5
v -0.0445 0.0482 -0.0085
vt 0.3000 0.5
v -0.0445 0.0490 -0.0081
vt 0.3000 0.5
v -0.0505 0.0498 -0.0078
vt 0.3000 0.5
v -0.0505 0.0490 -0.0081
vt 0.3000 0.5
v -0.0445 0.0490 -0.0081
vt 0.3000 0.5
v -0.0445 0.0498 -0.0078
vt 0.3000 0.5
v -0.0505 0.0507 -0.0078
vt 0.3000 0.5
v -0.0505 0.0498 -0.0078
vt 0.3000 0.5
v -0.0445 0.0498 -0.0078
vt 0.3000 0.5
v -0.0445 0.0507 -0.0078
vt 0.3000 0.5
v -0.0505 0.0516 -0.0078
vt 0.3000 0.5
v -0.0505 0.0507 -0.0078
vt 0.3000 0.5
v -0.0445 0.0507 -0.0078
vt 0.3000 0.5
v -0.0445 0.0516 -0.0078
vt 0.3000 0.5
v -0.0505 0.0516 -0.0078
vt 0.3000 0.5
v -0.0445 0.0516 -0.0078
vt 0.3000 0.5
v -0.0445 0.0525 -0.0081
vt 0.3000 0.5
v -0.0505 0.0525 -0.0081
vt 0.3000 0.5
v -0.0505 0.0525 -0.0081
vt 0.3000 0.5
v -0.0445 0.0525 -0.0081
vt 0.3000 0.5
v -0.0445 0.0532 -0.0085
vt 0.3000 0.5
v -0.0505 0.0532 -0.0085
vt 0.3000 0.5
v -0.0505 0.0532 -0.0085
vt 0.3000 0.5
v -0.0445 0.0532 -0.0085
vt 0.3000 0.5
v -0.0445 0.0539 -0.0091
vt 0.3000 0.5
v -0.0505 0.0539 -0.0091
vt 0.3000 0.5
v -0.0505 0.0545 -0.0098
vt 0.3000 0.5
v -0.0505 0.0539 -0.0091
vt 0.3000 0.5
v -0.0445 0.0539 -0.0091
vt 0.3000 0.5
v -0.0445 0.0545 -0.0098
vt 0.3000 0.5
v -0.0505 0.0549 -0.0106
vt 0.3000 0.5
v -0.0505 0.0545 -0.0098
vt 0.3000 0.5
v -0.0445 0.0545 -0.0098
vt 0.3000 0.5
v -0.0445 0.0549 -0.0106
vt 0.3000 0.5
v -0.0505 0.0552 -0.0114
vt 0.3000 0.5
v -0.0505 0.0549 -0.0106
vt 0.3000 0.5
v -0.0445 0.0549 -0.0106
vt 0.3000 0.5
v -0.0445 0.0552 -0.0114
vt 0.3000 0.5
v -0.0505 0.0553 -0.0123
vt 0.3000 0.5
v -0.0505 0.0552 -0.0114
vt 0.3000 0.5
v -0.0445 0.0552 -0.0114
vt 0.3000 0.5
v -0.0445 0.0553 -0.0123
vt 0.3000 0.5
v -0.0445 0.0553 -0.0123
vt 0.3000 0.5
v -0.0445 0.0552 -0.0132
vt 0.3000 0.5
v -0.0505 0.0552 -0.0132
vt 0.3000 0.5
v -0.0505 0.0553 -0.0123
vt 0.3000 0.5
v -0.0445 0.0552 -0.0132
vt 0.3000 0.5
v -0.0445 0.0549 -0.0140
vt 0.3000 0.5
v -0.0505 0.0549 -0.0140
vt 0.3000 0.5
v -0.0505 0.0552 -0.0132
vt 0.3000 0.5
v -0.0445 0.0549 -0.0140
vt 0.3000 0.5
v -0.0445 0.0545 -0.0148
vt 0.3000 0.5
v -0.0505 0.0545 -0.0148
vt 0.3000 0.5
v -0.0505 0.0549 -0.0140
vt 0.3000 0.5
v -0.0445 0.0545 -0.0148
vt 0.3000 0.5
v -0.0445 0.0539 -0.0155
vt 0.3000 0.5
v -0.0505 0.0539 -0.0155
vt 0.3000 0.5
v -0.0505 0.0545 -0.0148
vt 0.3000 0.5
v -0.0445 0.0539 -0.0155
vt 0.3000 0.5
v -0.0445 0.0532 -0.0161
vt 0.3000 0.5
v -0.0505 0.0532 -0.0161
vt 0.3000 0.5
v -0.0505 0.0539 -0.0155
vt 0.3000 0.5
v -0.0445 0.0532 -0.0161
vt 0.3000 0.5
v -0.0445 0.0525 -0.0165
vt 0.3000 0.5
v -0.0505 0.0525 -0.0165
vt 0.3000 0.5
v -0.0505 0.0532 -0.0161
vt 0.3000 0.5
v -0.0445 0.0525 -0.0165
vt 0.3000 0.5
v -0.0445 0.0516 -0.0168
vt 0.3000 0.5
v -0.0505 0.0516 -0.0168
vt 0.3000 0.5
v -0.0505 0.0525 -0.0165
vt 0.3000 0.5
v -0.0445 0.0516 -0.0168
vt 0.3000 0.5
v -0.0445 0.0507 -0.0169
vt 0.3000 0.5
v -0.0505 0.0507 -0.0169
vt 0.3000 0.5
v -0.0505 0.0516 -0.0168
vt 0.3000 0.5
v -0.0590 0.0518 -0.0068
vt 0.3000 0.5
v -0.0590 0.0507 -0.0067
vt 0.3000 0.5
v -0.0505 0.0507 -0.0067
vt 0.3000 0.5
v -0.0505 0.0518 -0.0068
vt 0.3000 0.5
v -0.0505 0.0476 -0.0170
vt 0.3000 0.5
v -0.0505 0.0467 -0.0163
vt 0.3000 0.5
v -0.0590 0.0467 -0.0163
vt 0.3000 0.5
v -0.0590 0.0476 -0.0170
vt 0.3000 0.5
v -0.0505 0.0529 -0.0175
vt 0.3000 0.5
v -0.0505 0.0518 -0.0178
vt 0.3000 0.5
v -0.0590 0.0518 -0.0178
vt 0.3000 0.5
v -0.0590 0.0529 -0.0175
vt 0.3000 0.5
v -0.0590 0.0529 -0.0071
vt 0.3000 0.5
v -0.0590 0.0518 -0.0068
vt 0.3000 0.5
v -0.0505 0.0518 -0.0068
vt 0.3000 0.5
v -0.0505 0.0529 -0.0071
vt 0.3000 0.5
v -0.0505 0.0460 -0.0154
vt 0.3000 0.5
v -0.0590 0.0460 -0.0154
vt 0.3000 0.5
v -0.0590 0.0467 -0.0163
vt 0.3000 0.5
v -0.0505 0.0467 -0.0163
vt 0.3000 0.5
v -0.0505 0.0518 -0.0178
vt 0.3000 0.5
v -0.0505 0.0507 -0.0179
vt 0.3000 0.5
v -0.0590 0.0507 -0.0179
vt 0.3000 0.5
v -0.0590 0.0518 -0.0178
vt 0.3000 0.5
v -0.0590 0.0529 -0.0071
vt 0.3000 0.5
v -0.0505 0.0529 -0.0071
vt 0.3000 0.5
v -0.0505 0.0538 -0.0076
vt 0.3000 0.5
v -0.0590 0.0538 -0.0076
vt 0.3000 0.5
v -0.0505 0.0455 -0.0145
vt 0.3000 0.5
v -0.0590 0.0455 -0.0145
vt 0.3000 0.5
v -0.0590 0.0460 -0.0154
vt 0.3000 0.5
v -0.0505 0.0460 -0.0154
vt 0.3000 0.5
v -0.0590 0.0538 -0.0076
vt 0.3000 0.5
v -0.0505 0.0538 -0.0076
vt 0.3000 0.5
v -0.0505 0.0547 -0.0083
vt 0.3000 0.5
v -0.0590 0.0547 -0.0083
vt 0.3000 0.5
v -0.0505 0.0452 -0.0134
vt 0.3000 0.5
v -0.0590 0.0452 -0.0134
vt 0.3000 0.5
v -0.0590 0.0455 -0.0145
vt 0.3000 0.5
v -0.0505 0.0455 -0.0145
vt 0.3000 0.5
v -0.0590 0.0554 -0.0092
vt 0.3000 0.5
v -0.0590 0.0547 -0.0083
vt 0.3000 0.5
v -0.0505 0.0547 -0.0083
vt 0.3000 0.5
v -0.0505 0.0554 -0.0092
vt 0.3000 0.5
v -0.0505 0.0451 -0.0123
vt 0.3000 0.5
v -0.0590 0.0451 -0.0123
vt 0.3000 0.5
v -0.0590 0.0452 -0.0134
vt 0.3000 0.5
v -0.0505 0.0452 -0.0134
vt 0.3000 0.5
v -0.0590 0.0559 -0.0102
vt 0.3000 0.5
v -0.0590 0.0554 -0.0092
vt 0.3000 0.5
v -0.0505 0.0554 -0.0092
vt 0.3000 0.5
v -0.0505 0.0559 -0.0102
vt 0.3000 0.5
v -0.0590 0.0451 -0.0123
vt 0.3000 0.5
v -0.0505 0.0451 -0.0123
vt 0.3000 0.5
v -0.0505 0.0452 -0.0112
vt 0.3000 0.5
v -0.0590 0.0452 -0.0112
vt 0.3000 0.5
v -0.0590 0.0559 -0.0102
vt 0.3000 0.5
v -0.0505 0.0559 -0.0102
vt 0.3000 0.5
v -0.0505 0.0562 -0.0112
vt 0.3000 0.5
v -0.0590 0.0562 -0.0112
vt 0.3000 0.5
v -0.0590 0.0455 -0.0102
vt 0.3000 0.5
v -0.0590 0.0452 -0.0112
vt 0.3000 0.5
v -0.0505 0.0452 -0.0112
vt 0.3000 0.5
v -0.0505 0.0455 -0.0102
vt 0.3000 0.5
v -0.0590 0.0563 -0.0123
vt 0.3000 0.5
v -0.0590 0.0562 -0.0112
vt 0.3000 0.5
v -0.0505 0.0562 -0.0112
vt 0.3000 0.5
v -0.0505 0.0563 -0.0123
vt 0.3000 0.5
v -0.0590 0.0460 -0.0092
vt 0.3000 0.5
v -0.0590 0.0455 -0.0102
vt 0.3000 0.5
v -0.0505 0.0455 -0.0102
vt 0.3000 0.5
v -0.0505 0.0460 -0.0092
vt 0.3000 0.5
v -0.0505 0.0563 -0.0123
vt 0.3000 0.5
v -0.0505 0.0562 -0.0134
vt 0.3000 0.5
v -0.0590 0.0562 -0.0134
vt 0.3000 0.5
v -0.0590 0.0563 -0.0123
vt 0.3000 0.5
v -0.0590 0.0460 -0.0092
vt 0.3000 0.5
v -0.0505 0.0460 -0.0092
vt 0.3000 0.5
v -0.0505 0.0467 -0.0083
vt 0.3000 0.5
v -0.0590 0.0467 -0.0083
vt 0.3000 0.5
v -0.0505 0.0559 -0.0145
vt 0.3000 0.5
v -0.0590 0.0559 -0.0145
vt 0.3000 0.5
v -0.0590 0.0562 -0.0134
vt 0.3000 0.5
v -0.0505 0.0562 -0.0134
vt 0.3000 0.5
v -0.0590 0.0476 -0.0076
vt 0.3000 0.5
v -0.0590 0.0467 -0.0083
vt 0.3000 0.5
v -0.0505 0.0467 -0.0083
vt 0.3000 0.5
v -0.0505 0.0476 -0.0076
vt 0.3000 0.5
v -0.0505 0.0559 -0.0145
vt 0.3000 0.5
v -0.0505 0.0554 -0.0154
vt 0.3000 0.5
v -0.0590 0.0554 -0.0154
vt 0.3000 0.5
v -0.0590 0.0559 -0.0145
vt 0.3000 0.5
v -0.0590 0.0486 -0.0071
vt 0.3000 0.5
v -0.0590 0.0476 -0.0076
vt 0.3000 0.5
v -0.0505 0.0476 -0.0076
vt 0.3000 0.5
v -0.0505 0.0486 -0.0071
vt 0.3000 0.5
v -0.0505 0.0507 -0.0179
vt 0.3000 0.5
v -0.0505 0.0496 -0.0178
vt 0.3000 0.5
v -0.0590 0.0496 -0.0178
vt 0.3000 0.5
v -0.0590 0.0507 -0.0179
vt 0.3000 0.5
v -0.0505 0.0554 -0.0154
vt 0.3000 0.5
v -0.0505 0.0547 -0.0163
vt 0.3000 0.5
v -0.0590 0.0547 -0.0163
vt 0.3000 0.5
v -0.0590 0.0554 -0.0154
vt 0.3000 0.5
v -0.0590 0.0496 -0.0068
vt 0.3000 0.5
v -0.0590 0.0486 -0.0071
vt 0.3000 0.5
v -0.0505 0.0486 -0.0071
vt 0.3000 0.5
v -0.0505 0.0496 -0.0068
vt 0.3000 0.5
v -0.0505 0.0496 -0.0178
vt 0.3000 0.5
v -0.0505 0.0486 -0.0175
vt 0.3000 0.5
v -0.0590 0.0486 -0.0175
vt 0.3000 0.5
v -0.0590 0.0496 -0.0178
vt 0.3000 0.5
v -0.0505 0.0547 -0.0163
vt 0.3000 0.5
v -0.0505 0.0538 -0.0170
vt 0.3000 0.5
v -0.0590 0.0538 -0.0170
vt 0.3000 0.5
v -0.0590 0.0547 -0.0163
vt 0.3000 0.5
v -0.0590 0.0507 -0.0067
vt 0.3000 0.5
v -0.0590 0.0496 -0.0068
vt 0.3000 0.5
v -0.0505 0.0496 -0.0068
vt 0.3000 0.5
v -0.0505 0.0507 -0.0067
vt 0.3000 0.5
v -0.0505 0.0476 -0.0170
vt 0.3000 0.5
v -0.0590 0.0476 -0.0170
vt 0.3000 0.5
v -0.0590 0.0486 -0.0175
vt 0.3000 0.5
v -0.0505 0.0486 -0.0175
vt 0.3000 0.5
v -0.0505 0.0538 -0.0170
vt 0.3000 0.5
v -0.0505 0.0529 -0.0175
vt 0.3000 0.5
v -0.0590 0.0529 -0.0175
vt 0.3000 0.5
v -0.0590 0.0538 -0.0170
vt 0.3000 0.5
v -0.0590 0.0507 -0.0179
vt 0.3000 0.5
v -0.0590 0.0496 -0.0178
vt 0.3000 0.5
v -0.0590 0.0502 -0.0166
vt 0.3000 0.5
v -0.0590 0.0507 -0.0167
vt 0.3000 0.5
v -0.0590 0.0486 -0.0175
vt 0.3000 0.5
v -0.0590 0.0496 -0.0165
vt 0.3000 0.5
v -0.0590 0.0476 -0.0170
vt 0.3000 0.5
v -0.0590 0.0489 -0.0161
vt 0.3000 0.5
v -0.0590 0.0476 -0.0170
vt 0.3000 0.5
v -0.0590 0.0467 -0.0163
vt 0.3000 0.5
v -0.0590 0.0483 -0.0156
vt 0.3000 0.5
v -0.0590 0.0489 -0.0161
vt 0.3000 0.5
v -0.0590 0.0467 -0.0163
vt 0.3000 0.5
v -0.0590 0.0460 -0.0154
vt 0.3000 0.5
v -0.0590 0.0478 -0.0149
vt 0.3000 0.5
v -0.0590 0.0483 -0.0156
vt 0.3000 0.5
v -0.0590 0.0460 -0.0154
vt 0.3000 0.5
v -0.0590 0.0455 -0.0145
vt 0.3000 0.5
v -0.0590 0.0473 -0.0141
vt 0.3000 0.5
v -0.0590 0.0478 -0.0149
vt 0.3000 0.5
v -0.0590 0.0455 -0.0145
vt 0.3000 0.5
v -0.0590 0.0452 -0.0134
vt 0.3000 0.5
v -0.0590 0.0471 -0.0132
vt 0.3000 0.5
v -0.0590 0.0473 -0.0141
vt 0.3000 0.5
v -0.0590 0.0452 -0.0134
vt 0.3000 0.5
v -0.0590 0.0451 -0.0123
vt 0.3000 0.5
v -0.0590 0.0470 -0.0123
vt 0.3000 0.5
v -0.0590 0.0471 -0.0132
vt 0.3000 0.5
v -0.0590 0.0452 -0.0112
vt 0.3000 0.5
v -0.0590 0.0471 -0.0114
vt 0.3000 0.5
v -0.0590 0.0471 -0.0114
vt 0.3000 0.5
v -0.0590 0.0452 -0.0112
vt 0.3000 0.5
v -0.0590 0.0455 -0.0102
vt 0.3000 0.5
v -0.0590 0.0473 -0.0105
vt 0.3000 0.5
v -0.0590 0.0473 -0.0105
vt 0.3000 0.5
v -0.0590 0.0455 -0.0102
vt 0.3000 0.5
v -0.0590 0.0460 -0.0092
vt 0.3000 0.5
v -0.0590 0.0478 -0.0097
vt 0.3000 0.5
v -0.0590 0.0478 -0.0097
vt 0.3000 0.5
v -0.0590 0.0460 -0.0092
vt 0.3000 0.5
v -0.0590 0.0467 -0.0083
vt 0.3000 0.5
v -0.0590 0.0483 -0.0090
vt 0.3000 0.5
v -0.0590 0.0476 -0.0076
vt 0.3000 0.5
v -0.0590 0.0489 -0.0085
vt 0.3000 0.5
v -0.0590 0.0486 -0.0071
vt 0.3000 0.5
v -0.0590 0.0496 -0.0082
vt 0.3000 0.5
v -0.0590 0.0496 -0.0068
vt 0.3000 0.5
v -0.0590 0.0502 -0.0080
vt 0.3000 0.5
v -0.0590 0.0507 -0.0067
vt 0.3000 0.5
v -0.0590 0.0507 -0.0079
vt 0.3000 0.5
v -0.0590 0.0513 -0.0080
vt 0.3000 0.5
v -0.0590 0.0518 -0.0068
vt 0.3000 0.5
v -0.0590 0.0519 -0.0082
vt 0.3000 0.5
v -0.0590 0.0529 -0.0071
vt 0.3000 0.5
v -0.0590 0.0525 -0.0085
vt 0.3000 0.5
v -0.0590 0.0538 -0.0076
vt 0.3000 0.5
v -0.0590 0.0531 -0.0090
vt 0.3000 0.5
v -0.0590 0.0525 -0.0085
vt 0.3000 0.5
v -0.0590 0.0538 -0.0076
vt 0.3000 0.5
v -0.0590 0.0547 -0.0083
vt 0.3000 0.5
v -0.0590 0.0537 -0.0097
vt 0.3000 0.5
v -0.0590 0.0531 -0.0090
vt 0.3000 0.5
v -0.0590 0.0547 -0.0083
vt 0.3000 0.5
v -0.0590 0.0554 -0.0092
vt 0.3000 0.5
v -0.0590 0.0541 -0.0105
vt 0.3000 0.5
v -0.0590 0.0559 -0.0102
vt 0.3000 0.5
v -0.0590 0.0544 -0.0114
vt 0.3000 0.5
v -0.0590 0.0541 -0.0105
vt 0.3000 0.5
v -0.0590 0.0559 -0.0102
vt 0.3000 0.5
v -0.0590 0.0562 -0.0112
vt 0.3000 0.5
v -0.0590 0.0545 -0.0123
vt 0.3000 0.5
v -0.0590 0.0544 -0.0114
vt 0.3000 0.5
v -0.0590 0.0562 -0.0112
vt 0.3000 0.5
v -0.0590 0.0563 -0.0123
vt 0.3000 0.5
v -0.0590 0.0562 -0.0134
vt 0.3000 0.5
v -0.0590 0.0544 -0.0132
vt 0.3000 0.5
v -0.0590 0.0559 -0.0145
vt 0.3000 0.5
v -0.0590 0.0541 -0.0141
vt 0.3000 0.5
v -0.0590 0.0554 -0.0154
vt 0.3000 0.5
v -0.0590 0.0537 -0.0149
vt 0.3000 0.5
v -0.0590 0.0547 -0.0163
vt 0.3000 0.5
v -0.0590 0.0531 -0.0156
vt 0.3000 0.5
v -0.0590 0.0538 -0.0170
vt 0.3000 0.5
v -0.0590 0.0525 -0.0161
vt 0.3000 0.5
v -0.0590 0.0529 -0.0175
vt 0.3000 0.5
v -0.0590 0.0519 -0.0165
vt 0.3000 0.5
v -0.0590 0.0518 -0.0178
vt 0.3000 0.5
v -0.0590 0.0513 -0.0166
vt 0.3000 0.5
v -0.0590 0.0519 -0.0165
vt 0.3000 0.5
v -0.0590 0.0529 -0.0175
vt 0.3000 0.5
v -0.0590 0.0518 -0.0178
vt 0.3000 0.5
v -0.0590 0.0513 -0.0166
vt 0.3000 0.5
f 499/499 500/500 501/501
f 499/499 501/501 502/502
f 503/503 499/499 502/502
f 504/504 505/505 506/506
f 504/504 506/506 507/507
f 508/508 509/509 510/510
f 508/508 510/510 511/511
f 512/512 513/513 514/514
f 512/512 514/514 515/515
f 516/516 517/517 518/518
f 516/516 518/518 519/519
f 516/516 519/519 520/520
f 521/521 522/522 523/523
f 521/521 523/523 524/524
f 525/525 521/521 524/524
f 526/526 525/525 524/524
f 527/527 528/528 529/529
f 527/527 529/529 530/530
f 531/531 527/527 530/530
f 531/531 530/530 532/532
f 533/533 534/534 535/535
f 536/536 537/537 538/538
f 539/539 540/540 541/541
f 542/542 543/543 544/544
f 545/545 546/546 547/547
f 548/548 549/549 550/550
f 551/551 552/552 553/553
f 554/554 555/555 556/556
f 557/557 558/558 559/559
f 560/560 561/561 562/562
f 563/563 564/564 565/565
f 566/566 567/567 568/568
f 569/569 570/570 571/571
f 569/569 571/571 572/572
f 573/573 574/574 575/575
f 573/573 575/575 576/576
f 577/577 578/578 579/579
f 577/577 579/579 580/580
f 581/581 582/582 583/583
f 581/581 583/583 584/584
f 585/585 586/586 587/587
f 585/585 587/587 588/588
f 589/589 590/590 591/591
f 589/589 591/591 592/592
f 593/593 594/594 595/595
f 593/593 595/595 596/596
f 597/597 598/598 599/599
f 597/597 599/599 600/600
f 601/601 602/602 603/603
f 601/601 603/603 604/604
f 605/605 606/606 607/607
f 605/605 607/607 608/608
f 609/609 610/610 611/611
f 609/609 611/611 612/612
f 613/613 614/614 615/615
f 613/613 615/615 616/616
f 617/617 618/618 619/619
f 617/617 619/619 620/620
f 621/621 617/617 620/620
f 621/621 620/620 622/622
f 623/623 621/621 622/622
f 623/623 622/622 624/624
f 625/625 623/623 624/624
f 625/625 624/624 626/626
f 627/627 628/628 500/500
f 627/627 500/500 499/499
f 629/629 630/630 631/631
f 629/629 631/631 632/632
f 633/633 634/634 635/635
f 633/633 635/635 636/636
f 637/637 638/638 639/639
f 637/637 639/639 640/640
f 641/641 642/642 643/643
f 644/644 641/641 643/643
f 645/645 646/646 644/644
f 645/645 644/644 643/643
f 645/645 647/647 648/648
f 645/645 648/648 646/646
f 649/649 650/650 651/651
f 649/649 651/651 652/652
f 653/653 654/654 655/655
f 653/653 655/655 656/656
f 657/657 658/658 659/659
f 657/657 659/659 660/660
f 661/661 662/662 663/663
f 661/661 663/663 664/664
f 665/665 666/666 667/667
f 665/665 667/667 668/668
f 669/669 670/670 671/671
f 669/669 671/671 672/672
f 673/673 674/674 675/675
f 673/673 675/675 676/676
f 677/677 678/678 679/679
f 677/677 679/679 680/680
f 681/681 682/682 683/683
f 681/681 683/683 684/684
f 685/685 686/686 687/687
f 685/685 687/687 688/688
f 689/689 690/690 691/691
f 689/689 691/691 692/692
f 693/693 694/694 695/695
f 693/693 695/695 696/696
f 697/697 698/698 699/699
f 697/697 699/699 700/700
f 701/701 702/702 703/703
f 701/701 703/703 704/704
f 705/705 706/706 707/707
f 705/705 707/707 708/708
f 709/709 710/710 711/711
f 709/709 711/711 712/712
f 713/713 714/714 715/715
f 713/713 715/715 716/716
f 717/717 718/718 719/719
f 717/717 719/719 720/720
f 721/721 722/722 723/723
f 721/721 723/723 724/724
f 725/725 726/726 727/727
f 725/725 727/727 728/728
f 729/729 730/730 731/731
f 729/729 731/731 732/732
f 733/733 734/734 735/735
f 736/736 733/733 735/735
f 737/737 738/738 739/739
f 740/740 737/737 739/739
f 741/741 742/742 743/743
f 744/744 741/741 743/743
f 745/745 746/746 747/747
f 745/745 747/747 748/748
f 749/749 750/750 751/751
f 749/749 751/751 752/752
f 753/753 754/754 755/755
f 753/753 755/755 756/756
f 757/757 758/758 759/759
f 757/757 759/759 760/760
f 761/761 762/762 763/763
f 761/761 763/763 764/764
f 765/765 766/766 767/767
f 765/765 767/767 768/768
f 769/769 770/770 771/771
f 769/769 771/771 772/772
f 773/773 774/774 775/775
f 773/773 775/775 776/776
f 777/777 778/778 779/779
f 777/777 779/779 780/780
f 781/781 782/782 783/783
f 781/781 783/783 784/784
f 785/785 786/786 787/787
f 785/785 787/787 788/788
f 789/789 790/790 791/791
f 789/789 791/791 792/792
f 793/793 794/794 795/795
f 793/793 795/795 796/796
f 797/797 798/798 799/799
f 797/797 799/799 800/800
f 801/801 802/802 803/803
f 801/801 803/803 804/804
f 805/805 806/806 807/807
f 805/805 807/807 808/808
f 809/809 810/810 811/811
f 812/812 809/809 811/811
f 813/813 814/814 815/815
f 813/813 815/815 816/816
f 817/817 818/818 819/819
f 820/820 817/817 819/819
f 821/821 822/822 823/823
f 824/824 821/821 823/823
f 825/825 826/826 827/827
f 828/828 825/825 827/827
f 829/829 830/830 831/831
f 832/832 829/829 831/831
f 833/833 834/834 835/835
f 833/833 835/835 836/836
f 837/837 838/838 839/839
f 840/840 837/837 839/839
f 841/841 842/842 843/843
f 841/841 843/843 844/844
f 845/845 846/846 847/847
f 848/848 845/845 847/847
f 849/849 850/850 851/851
f 852/852 849/849 851/851
f 853/853 854/854 855/855
f 853/853 855/855 856/856
f 857/857 858/858 859/859
f 857/857 859/859 860/860
f 861/861 862/862 863/863
f 861/861 863/863 864/864
f 865/865 866/866 867/867
f 865/865 867/867 868/868
f 869/869 870/870 871/871
f 872/872 869/869 871/871
f 873/873 874/874 875/875
f 876/876 873/873 875/875
f 877/877 878/878 879/879
f 877/877 879/879 880/880
f 881/881 882/882 883/883
f 881/881 883/883 884/884
f 885/885 886/886 887/887
f 885/885 887/887 888/888
f 889/889 890/890 891/891
f 889/889 891/891 892/892
f 893/893 894/894 895/895
f 893/893 895/895 896/896
f 897/897 898/898 899/899
f 897/897 899/899 900/900
f 901/901 902/902 903/903
f 901/901 903/903 904/904
f 905/905 906/906 907/907
f 905/905 907/907 908/908
f 909/909 910/910 911/911
f 909/909 911/911 912/912
f 913/913 914/914 915/915
f 916/916 913/913 915/915
f 917/917 918/918 919/919
f 917/917 919/919 920/920
f 921/921 922/922 923/923
f 921/921 923/923 924/924
f 922/922 925/925 926/926
f 922/922 926/926 923/923
f 925/925 927/927 928/928
f 926/926 925/925 928/928
f 929/929 930/930 931/931
f 932/932 929/929 931/931
f 933/933 934/934 935/935
f 936/936 933/933 935/935
f 937/937 938/938 939/939
f 940/940 937/937 939/939
f 941/941 942/942 943/943
f 944/944 941/941 943/943
f 945/945 946/946 947/947
f 948/948 945/945 947/947
f 947/947 946/946 949/949
f 947/947 949/949 950/950
f 951/951 952/952 953/953
f 951/951 953/953 954/954
f 955/955 956/956 957/957
f 955/955 957/957 958/958
f 959/959 960/960 961/961
f 959/959 961/961 962/962
f 962/962 961/961 963/963
f 962/962 963/963 964/964
f 964/964 963/963 965/965
f 964/964 965/965 966/966
f 966/966 965/965 967/967
f 968/968 966/966 967/967
f 968/968 967/967 969/969
f 970/970 968/968 969/969
f 971/971 970/970 969/969
f 971/971 969/969 972/972
f 973/973 971/971 972/972
f 973/973 972/972 974/974
f 975/975 973/973 974/974
f 976/976 975/975 974/974
f 977/977 978/978 979/979
f 980/980 977/977 979/979
f 981/981 982/982 983/983
f 984/984 981/981 983/983
f 985/985 981/981 984/984
f 986/986 985/985 984/984
f 987/987 988/988 989/989
f 990/990 987/987 989/989
f 991/991 992/992 993/993
f 994/994 991/991 993/993
f 995/995 996/996 991/991
f 995/995 991/991 994/994
f 997/997 998/998 996/996
f 997/997 996/996 995/995
f 999/999 1000/1000 998/998
f 999/999 998/998 997/997
f 1001/1001 1002/1002 1000/1000
f 1001/1001 1000/1000 999/999
f 1003/1003 1004/1004 1002/1002
f 1003/1003 1002/1002 1001/1001
f 1005/1005 1006/1006 1004/1004
f 1005/1005 1004/1004 1003/1003
f 1007/1007 1008/1008 1009/1009
f 1010/1010 1007/1007 1009/1009
f 1011/1011 921/921 924/924
f 1011/1011 924/924 1012/1012
v 0.0620 0.0011 0.0702
vt 0.5000 0.5
v 0.0620 0.0004 0.0684
vt 0.5000 0.5
v 0.0620 0.0004 -0.0684
vt 0.5000 0.5
v 0.0620 0.0011 -0.0702
vt 0.5000 0.5
v 0.0620 0.0031 0.0715
vt 0.5000 0.5
v 0.0620 0.0031 -0.0715
vt 0.5000 0.5
v 0.0620 0.0059 0.0720
vt 0.5000 0.5
v 0.0620 0.0059 -0.0720
vt 0.5000 0.5
v 0.0620 0.0162 0.0720
vt 0.5000 0.5
v 0.0620 0.0163 -0.0720
vt 0.5000 0.5
f 1013/1013 1014/1014 1015/1015
f 1013/1013 1015/1015 1016/1016
f 1017/1017 1013/1013 1016/1016
f 1017/1017 1016/1016 1018/1018
f 1019/1019 1017/1017 1018/1018
f 1019/1019 1018/1018 1020/1020
f 1021/1021 1019/1019 1020/1020
f 1021/1021 1020/1020 1022/1022
v -0.0505 0.0496 0.0180
vt 0.7000 0.5
v -0.0505 0.0486 0.0177
vt 0.7000 0.5
v -0.0505 0.0490 0.0167
vt 0.7000 0.5
v -0.0505 0.0498 0.0170
vt 0.7000 0.5
v -0.0530 0.0541 0.0144
vt 0.7000 0.5
v -0.0590 0.0541 0.0144
vt 0.7000 0.5
v -0.0590 0.0544 0.0135
vt 0.7000 0.5
v -0.0530 0.0544 0.0135
vt 0.7000 0.5
v -0.0530 0.0471 0.0116
vt 0.7000 0.5
v -0.0530 0.0470 0.0125
vt 0.7000 0.5
v -0.0530 0.0471 0.0135
vt 0.7000 0.5
v -0.0530 0.0473 0.0107
vt 0.7000 0.5
v -0.0530 0.0473 0.0144
vt 0.7000 0.5
v -0.0530 0.0478 0.0099
vt 0.7000 0.5
v -0.0530 0.0478 0.0152
vt 0.7000 0.5
v -0.0530 0.0483 0.0092
vt 0.7000 0.5
v -0.0530 0.0483 0.0158
vt 0.7000 0.5
v -0.0530 0.0489 0.0087
vt 0.7000 0.5
v -0.0530 0.0489 0.0163
vt 0.7000 0.5
v -0.0530 0.0496 0.0084
vt 0.7000 0.5
v -0.0530 0.0496 0.0167
vt 0.7000 0.5
v -0.0530 0.0502 0.0082
vt 0.7000 0.5
v -0.0530 0.0502 0.0169
vt 0.7000 0.5
v -0.0530 0.0507 0.0081
vt 0.7000 0.5
v -0.0530 0.0507 0.0169
vt 0.7000 0.5
v -0.0530 0.0513 0.0082
vt 0.7000 0.5
v -0.0530 0.0513 0.0169
vt 0.7000 0.5
v -0.0530 0.0519 0.0084
vt 0.7000 0.5
v -0.0530 0.0519 0.0167
vt 0.7000 0.5
v -0.0530 0.0525 0.0087
vt 0.7000 0.5
v -0.0530 0.0525 0.0163
vt 0.7000 0.5
v -0.0530 0.0531 0.0092
vt 0.7000 0.5
v -0.0530 0.0531 0.0158
vt 0.7000 0.5
v -0.0530 0.0537 0.0099
vt 0.7000 0.5
v -0.0530 0.0537 0.0152
vt 0.7000 0.5
v -0.0530 0.0541 0.0107
vt 0.7000 0.5
v -0.0530 0.0541 0.0144
vt 0.7000 0.5
v -0.0530 0.0544 0.0116
vt 0.7000 0.5
v -0.0530 0.0544 0.0135
vt 0.7000 0.5
v -0.0530 0.0545 0.0125
vt 0.7000 0.5
v -0.0530 0.0471 0.0135
vt 0.7000 0.5
v -0.0590 0.0471 0.0135
vt 0.7000 0.5
v -0.0590 0.0473 0.0144
vt 0.7000 0.5
v -0.0530 0.0473 0.0144
vt 0.7000 0.5
v -0.0530 0.0545 0.0125
vt 0.7000 0.5
v -0.0530 0.0544 0.0135
vt 0.7000 0.5
v -0.0590 0.0544 0.0135
vt 0.7000 0.5
v -0.0590 0.0545 0.0125
vt 0.7000 0.5
v -0.0530 0.0478 0.0152
vt 0.7000 0.5
v -0.0530 0.0473 0.0144
vt 0.7000 0.5
v -0.0590 0.0473 0.0144
vt 0.7000 0.5
v -0.0590 0.0478 0.0152
vt 0.7000 0.5
v -0.0590 0.0545 0.0125
vt 0.7000 0.5
v -0.0590 0.0544 0.0116
vt 0.7000 0.5
v -0.0530 0.0544 0.0116
vt 0.7000 0.5
v -0.0530 0.0545 0.0125
vt 0.7000 0.5
v -0.0530 0.0478 0.0152
vt 0.7000 0.5
v -0.0590 0.0478 0.0152
vt 0.7000 0.5
v -0.0590 0.0483 0.0158
vt 0.7000 0.5
v -0.0530 0.0483 0.0158
vt 0.7000 0.5
v -0.0590 0.0541 0.0107
vt 0.7000 0.5
v -0.0530 0.0541 0.0107
vt 0.7000 0.5
v -0.0530 0.0544 0.0116
vt 0.7000 0.5
v -0.0590 0.0544 0.0116
vt 0.7000 0.5
v -0.0530 0.0483 0.0158
vt 0.7000 0.5
v -0.0590 0.0483 0.0158
vt 0.7000 0.5
v -0.0590 0.0489 0.0163
vt 0.7000 0.5
v -0.0530 0.0489 0.0163
vt 0.7000 0.5
v -0.0590 0.0541 0.0107
vt 0.7000 0.5
v -0.0590 0.0537 0.0099
vt 0.7000 0.5
v -0.0530 0.0537 0.0099
vt 0.7000 0.5
v -0.0530 0.0541 0.0107
vt 0.7000 0.5
v -0.0530 0.0496 0.0167
vt 0.7000 0.5
v -0.0530 0.0489 0.0163
vt 0.7000 0.5
v -0.0590 0.0489 0.0163
vt 0.7000 0.5
v -0.0590 0.0496 0.0167
vt 0.7000 0.5
v -0.0590 0.0507 0.0081
vt 0.7000 0.5
v -0.0590 0.0502 0.0082
vt 0.7000 0.5
v -0.0530 0.0502 0.0082
vt 0.7000 0.5
v -0.0530 0.0507 0.0081
vt 0.7000 0.5
v -0.0590 0.0537 0.0099
vt 0.7000 0.5
v -0.0590 0.0531 0.0092
vt 0.7000 0.5
v -0.0530 0.0531 0.0092
vt 0.7000 0.5
v -0.0530 0.0537 0.0099
vt 0.7000 0.5
v -0.0530 0.0496 0.0167
vt 0.7000 0.5
v -0.0590 0.0496 0.0167
vt 0.7000 0.5
v -0.0590 0.0502 0.0169
vt 0.7000 0.5
v -0.0530 0.0502 0.0169
vt 0.7000 0.5
v -0.0590 0.0502 0.0082
vt 0.7000 0.5
v -0.0590 0.0496 0.0084
vt 0.7000 0.5
v -0.0530 0.0496 0.0084
vt 0.7000 0.5
v -0.0530 0.0502 0.0082
vt 0.7000 0.5
v -0.0590 0.0525 0.0087
vt 0.7000 0.5
v -0.0530 0.0525 0.0087
vt 0.7000 0.5
v -0.0530 0.0531 0.0092
vt 0.7000 0.5
v -0.0590 0.0531 0.0092
vt 0.7000 0.5
v -0.0530 0.0507 0.0169
vt 0.7000 0.5
v -0.0530 0.0502 0.0169
vt 0.7000 0.5
v -0.0590 0.0502 0.0169
vt 0.7000 0.5
v -0.0590 0.0507 0.0169
vt 0.7000 0.5
v -0.0590 0.0496 0.0084
vt 0.7000 0.5
v -0.0590 0.0489 0.0087
vt 0.7000 0.5
v -0.0530 0.0489 0.0087
vt 0.7000 0.5
v -0.0530 0.0496 0.0084
vt 0.7000 0.5
v -0.0590 0.0525 0.0087
vt 0.7000 0.5
v -0.0590 0.0519 0.0084
vt 0.7000 0.5
v -0.0530 0.0519 0.0084
vt 0.7000 0.5
v -0.0530 0.0525 0.0087
vt 0.7000 0.5
v -0.0530 0.0513 0.0169
vt 0.7000 0.5
v -0.0530 0.0507 0.0169
vt 0.7000 0.5
v -0.0590 0.0507 0.0169
vt 0.7000 0.5
v -0.0590 0.0513 0.0169
vt 0.7000 0.5
v -0.0590 0.0483 0.0092
vt 0.7000 0.5
v -0.0530 0.0483 0.0092
vt 0.7000 0.5
v -0.0530 0.0489 0.0087
vt 0.7000 0.5
v -0.0590 0.0489 0.0087
vt 0.7000 0.5
v -0.0590 0.0519 0.0084
vt 0.7000 0.5
v -0.0590 0.0513 0.0082
vt 0.7000 0.5
v -0.0530 0.0513 0.0082
vt 0.7000 0.5
v -0.0530 0.0519 0.0084
vt 0.7000 0.5
v -0.0530 0.0519 0.0167
vt 0.7000 0.5
v -0.0530 0.0513 0.0169
vt 0.7000 0.5
v -0.0590 0.0513 0.0169
vt 0.7000 0.5
v -0.0590 0.0519 0.0167
vt 0.7000 0.5
v -0.0590 0.0478 0.0099
vt 0.7000 0.5
v -0.0530 0.0478 0.0099
vt 0.7000 0.5
v -0.0530 0.0483 0.0092
vt 0.7000 0.5
v -0.0590 0.0483 0.0092
vt 0.7000 0.5
v -0.0590 0.0513 0.0082
vt 0.7000 0.5
v -0.0590 0.0507 0.0081
vt 0.7000 0.5
v -0.0530 0.0507 0.0081
vt 0.7000 0.5
v -0.0530 0.0513 0.0082
vt 0.7000 0.5
v -0.0530 0.0525 0.0163
vt 0.7000 0.5
v -0.0530 0.0519 0.0167
vt 0.7000 0.5
v -0.0590 0.0519 0.0167
vt 0.7000 0.5
v -0.0590 0.0525 0.0163
vt 0.7000 0.5
v -0.0590 0.0478 0.0099
vt 0.7000 0.5
v -0.0590 0.0473 0.0107
vt 0.7000 0.5
v -0.0530 0.0473 0.0107
vt 0.7000 0.5
v -0.0530 0.0478 0.0099
vt 0.7000 0.5
v -0.0530 0.0531 0.0158
vt 0.7000 0.5
v -0.0530 0.0525 0.0163
vt 0.7000 0.5
v -0.0590 0.0525 0.0163
vt 0.7000 0.5
v -0.0590 0.0531 0.0158
vt 0.7000 0.5
v -0.0590 0.0471 0.0116
vt 0.7000 0.5
v -0.0530 0.0471 0.0116
vt 0.7000 0.5
v -0.0530 0.0473 0.0107
vt 0.7000 0.5
v -0.0590 0.0473 0.0107
vt 0.7000 0.5
v -0.0530 0.0537 0.0152
vt 0.7000 0.5
v -0.0530 0.0531 0.0158
vt 0.7000 0.5
v -0.0590 0.0531 0.0158
vt 0.7000 0.5
v -0.0590 0.0537 0.0152
vt 0.7000 0.5
v -0.0590 0.0470 0.0125
vt 0.7000 0.5
v -0.0530 0.0470 0.0125
vt 0.7000 0.5
v -0.0530 0.0471 0.0116
vt 0.7000 0.5
v -0.0590 0.0471 0.0116
vt 0.7000 0.5
v -0.0530 0.0541 0.0144
vt 0.7000 0.5
v -0.0530 0.0537 0.0152
vt 0.7000 0.5
v -0.0590 0.0537 0.0152
vt 0.7000 0.5
v -0.0590 0.0541 0.0144
vt 0.7000 0.5
v -0.0530 0.0470 0.0125
vt 0.7000 0.5
v -0.0590 0.0470 0.0125
vt 0.7000 0.5
v -0.0590 0.0471 0.0135
vt 0.7000 0.5
v -0.0530 0.0471 0.0135
vt 0.7000 0.5
v -0.0530 0.0541 -0.0105
vt 0.7000 0.5
v -0.0590 0.0541 -0.0105
vt 0.7000 0.5
v -0.0590 0.0544 -0.0114
vt 0.7000 0.5
v -0.0530 0.0544 -0.0114
vt 0.7000 0.5
v -0.0530 0.0471 -0.0132
vt 0.7000 0.5
v -0.0530 0.0470 -0.0123
vt 0.7000 0.5
v -0.0530 0.0471 -0.0114
vt 0.7000 0.5
v -0.0530 0.0473 -0.0141
vt 0.7000 0.5
v -0.0530 0.0473 -0.0105
vt 0.7000 0.5
v -0.0530 0.0478 -0.0149
vt 0.7000 0.5
v -0.0530 0.0478 -0.0097
vt 0.7000 0.5
v -0.0530 0.0483 -0.0156
vt 0.7000 0.5
v -0.0530 0.0483 -0.0090
vt 0.7000 0.5
v -0.0530 0.0489 -0.0161
vt 0.7000 0.5
v -0.0530 0.0489 -0.0085
vt 0.7000 0.5
v -0.0530 0.0496 -0.0165
vt 0.7000 0.5
v -0.0530 0.0496 -0.0082
vt 0.7000 0.5
v -0.0530 0.0502 -0.0166
vt 0.7000 0.5
v -0.0530 0.0502 -0.0080
vt 0.7000 0.5
v -0.0530 0.0507 -0.0167
vt 0.7000 0.5
v -0.0530 0.0507 -0.0079
vt 0.7000 0.5
v -0.0530 0.0513 -0.0166
vt 0.7000 0.5
v -0.0530 0.0513 -0.0080
vt 0.7000 0.5
v -0.0530 0.0519 -0.0165
vt 0.7000 0.5
v -0.0530 0.0519 -0.0082
vt 0.7000 0.5
v -0.0530 0.0525 -0.0161
vt 0.7000 0.5
v -0.0530 0.0525 -0.0085
vt 0.7000 0.5
v -0.0530 0.0531 -0.0156
vt 0.7000 0.5
v -0.0530 0.0531 -0.0090
vt 0.7000 0.5
v -0.0530 0.0537 -0.0149
vt 0.7000 0.5
v -0.0530 0.0537 -0.0097
vt 0.7000 0.5
v -0.0530 0.0541 -0.0141
vt 0.7000 0.5
v -0.0530 0.0541 -0.0105
vt 0.7000 0.5
v -0.0530 0.0544 -0.0132
vt 0.7000 0.5
v -0.0530 0.0544 -0.0114
vt 0.7000 0.5
v -0.0530 0.0545 -0.0123
vt 0.7000 0.5
v -0.0530 0.0471 -0.0114
vt 0.7000 0.5
v -0.0590 0.0471 -0.0114
vt 0.7000 0.5
v -0.0590 0.0473 -0.0105
vt 0.7000 0.5
v -0.0530 0.0473 -0.0105
vt 0.7000 0.5
v -0.0530 0.0545 -0.0123
vt 0.7000 0.5
v -0.0530 0.0544 -0.0114
vt 0.7000 0.5
v -0.0590 0.0544 -0.0114
vt 0.7000 0.5
v -0.0590 0.0545 -0.0123
vt 0.7000 0.5
v -0.0530 0.0478 -0.0097
vt 0.7000 0.5
v -0.0530 0.0473 -0.0105
vt 0.7000 0.5
v -0.0590 0.0473 -0.0105
vt 0.7000 0.5
v -0.0590 0.0478 -0.0097
vt 0.7000 0.5
v -0.0590 0.0545 -0.0123
vt 0.7000 0.5
v -0.0590 0.0544 -0.0132
vt 0.7000 0.5
v -0.0530 0.0544 -0.0132
vt 0.7000 0.5
v -0.0530 0.0545 -0.0123
vt 0.7000 0.5
v -0.0530 0.0478 -0.0097
vt 0.7000 0.5
v -0.0590 0.0478 -0.0097
vt 0.7000 0.5
v -0.0590 0.0483 -0.0090
vt 0.7000 0.5
v -0.0530 0.0483 -0.0090
vt 0.7000 0.5
v -0.0590 0.0541 -0.0141
vt 0.7000 0.5
v -0.0530 0.0541 -0.0141
vt 0.7000 0.5
v -0.0530 0.0544 -0.0132
vt 0.7000 0.5
v -0.0590 0.0544 -0.0132
vt 0.7000 0.5
v -0.0530 0.0483 -0.0090
vt 0.7000 0.5
v -0.0590 0.0483 -0.0090
vt 0.7000 0.5
v -0.0590 0.0489 -0.0085
vt 0.7000 0.5
v -0.0530 0.0489 -0.0085
vt 0.7000 0.5
v -0.0590 0.0541 -0.0141
vt 0.7000 0.5
v -0.0590 0.0537 -0.0149
vt 0.7000 0.5
v -0.0530 0.0537 -0.0149
vt 0.7000 0.5
v -0.0530 0.0541 -0.0141
vt 0.7000 0.5
v -0.0530 0.0496 -0.0082
vt 0.7000 0.5
v -0.0530 0.0489 -0.0085
vt 0.7000 0.5
v -0.0590 0.0489 -0.0085
vt 0.7000 0.5
v -0.0590 0.0496 -0.0082
vt 0.7000 0.5
v -0.0590 0.0507 -0.0167
vt 0.7000 0.5
v -0.0590 0.0502 -0.0166
vt 0.7000 0.5
v -0.0530 0.0502 -0.0166
vt 0.7000 0.5
v -0.0530 0.0507 -0.0167
vt 0.7000 0.5
v -0.0590 0.0537 -0.0149
vt 0.7000 0.5
v -0.0590 0.0531 -0.0156
vt 0.7000 0.5
v -0.0530 0.0531 -0.0156
vt 0.7000 0.5
v -0.0530 0.0537 -0.0149
vt 0.7000 0.5
v -0.0530 0.0496 -0.0082
vt 0.7000 0.5
v -0.0590 0.0496 -0.0082
vt 0.7000 0.5
v -0.0590 0.0502 -0.0080
vt 0.7000 0.5
v -0.0530 0.0502 -0.0080
vt 0.7000 0.5
v -0.0590 0.0502 -0.0166
vt 0.7000 0.5
v -0.0590 0.0496 -0.0165
vt 0.7000 0.5
v -0.0530 0.0496 -0.0165
vt 0.7000 0.5
v -0.0530 0.0502 -0.0166
vt 0.7000 0.5
v -0.0590 0.0531 -0.0156
vt 0.7000 0.5
v -0.0590 0.0525 -0.0161
vt 0.7000 0.5
v -0.0530 0.0525 -0.0161
vt 0.7000 0.5
v -0.0530 0.0531 -0.0156
vt 0.7000 0.5
v -0.0530 0.0507 -0.0079
vt 0.7000 0.5
v -0.0530 0.0502 -0.0080
vt 0.7000 0.5
v -0.0590 0.0502 -0.0080
vt 0.7000 0.5
v -0.0590 0.0507 -0.0079
vt 0.7000 0.5
v -0.0590 0.0496 -0.0165
vt 0.7000 0.5
v -0.0590 0.0489 -0.0161
vt 0.7000 0.5
v -0.0530 0.0489 -0.0161
vt 0.7000 0.5
v -0.0530 0.0496 -0.0165
vt 0.7000 0.5
v -0.0590 0.0525 -0.0161
vt 0.7000 0.5
v -0.0590 0.0519 -0.0165
vt 0.7000 0.5
v -0.0530 0.0519 -0.0165
vt 0.7000 0.5
v -0.0530 0.0525 -0.0161
vt 0.7000 0.5
v -0.0530 0.0513 -0.0080
vt 0.7000 0.5
v -0.0530 0.0507 -0.0079
vt 0.7000 0.5
v -0.0590 0.0507 -0.0079
vt 0.7000 0.5
v -0.0590 0.0513 -0.0080
vt 0.7000 0.5
v -0.0590 0.0483 -0.0156
vt 0.7000 0.5
v -0.0530 0.0483 -0.0156
vt 0.7000 0.5
v -0.0530 0.0489 -0.0161
vt 0.7000 0.5
v -0.0590 0.0489 -0.0161
vt 0.7000 0.5
v -0.0590 0.0519 -0.0165
vt 0.7000 0.5
v -0.0590 0.0513 -0.0166
vt 0.7000 0.5
v -0.0530 0.0513 -0.0166
vt 0.7000 0.5
v -0.0530 0.0519 -0.0165
vt 0.7000 0.5
v -0.0530 0.0519 -0.0082
vt 0.7000 0.5
v -0.0530 0.0513 -0.0080
vt 0.7000 0.5
v -0.0590 0.0513 -0.0080
vt 0.7000 0.5
v -0.0590 0.0519 -0.0082
vt 0.7000 0.5
v -0.0590 0.0478 -0.0149
vt 0.7000 0.5
v -0.0530 0.0478 -0.0149
vt 0.7000 0.5
v -0.0530 0.0483 -0.0156
vt 0.7000 0.5
v -0.0590 0.0483 -0.0156
vt 0.7000 0.5
v -0.0590 0.0513 -0.0166
vt 0.7000 0.5
v -0.0590 0.0507 -0.0167
vt 0.7000 0.5
v -0.0530 0.0507 -0.0167
vt 0.7000 0.5
v -0.0530 0.0513 -0.0166
vt 0.7000 0.5
v -0.0530 0.0525 -0.0085
vt 0.7000 0.5
v -0.0530 0.0519 -0.0082
vt 0.7000 0.5
v -0.0590 0.0519 -0.0082
vt 0.7000 0.5
v -0.0590 0.0525 -0.0085
vt 0.7000 0.5
v -0.0590 0.0478 -0.0149
vt 0.7000 0.5
v -0.0590 0.0473 -0.0141
vt 0.7000 0.5
v -0.0530 0.0473 -0.0141
vt 0.7000 0.5
v -0.0530 0.0478 -0.0149
vt 0.7000 0.5
v -0.0530 0.0525 -0.0085
vt 0.7000 0.5
v -0.0590 0.0525 -0.0085
vt 0.7000 0.5
v -0.0590 0.0531 -0.0090
vt 0.7000 0.5
v -0.0530 0.0531 -0.0090
vt 0.7000 0.5
v -0.0590 0.0471 -0.0132
vt 0.7000 0.5
v -0.0530 0.0471 -0.0132
vt 0.7000 0.5
v -0.0530 0.0473 -0.0141
vt 0.7000 0.5
v -0.0590 0.0473 -0.0141
vt 0.7000 0.5
v -0.0530 0.0537 -0.0097
vt 0.7000 0.5
v -0.0530 0.0531 -0.0090
vt 0.7000 0.5
v -0.0590 0.0531 -0.0090
vt 0.7000 0.5
v -0.0590 0.0537 -0.0097
vt 0.7000 0.5
v -0.0590 0.0470 -0.0123
vt 0.7000 0.5
v -0.0530 0.0470 -0.0123
vt 0.7000 0.5
v -0.0530 0.0471 -0.0132
vt 0.7000 0.5
v -0.0590 0.0471 -0.0132
vt 0.7000 0.5
v -0.0530 0.0541 -0.0105
vt 0.7000 0.5
v -0.0530 0.0537 -0.0097
vt 0.7000 0.5
v -0.0590 0.0537 -0.0097
vt 0.7000 0.5
v -0.0590 0.0541 -0.0105
vt 0.7000 0.5
v -0.0530 0.0470 -0.0123
vt 0.7000 0.5
v -0.0590 0.0470 -0.0123
vt 0.7000 0.5
v -0.0590 0.0471 -0.0114
vt 0.7000 0.5
v -0.0530 0.0471 -0.0114
vt 0.7000 0.5
f 1023/1023 1024/1024 1025/1025
f 1023/1023 1025/1025 1026/1026
f 1027/1027 1028/1028 1029/1029
f 1030/1030 1027/1027 1029/1029
f 1031/1031 1032/1032 1033/1033
f 1034/1034 1031/1031 1033/1033
f 1034/1034 1033/1033 1035/1035
f 1036/1036 1034/1034 1035/1035
f 1036/1036 1035/1035 1037/1037
f 1038/1038 1036/1036 1037/1037
f 1038/1038 1037/1037 1039/1039
f 1040/1040 1038/1038 1039/1039
f 1040/1040 1039/1039 1041/1041
f 1042/1042 1040/1040 1041/1041
f 1042/1042 1041/1041 1043/1043
f 1044/1044 1042/1042 1043/1043
f 1044/1044 1043/1043 1045/1045
f 1046/1046 1044/1044 1045/1045
f 1046/1046 1045/1045 1047/1047
f 1048/1048 1046/1046 1047/1047
f 1048/1048 1047/1047 1049/1049
f 1050/1050 1048/1048 1049/1049
f 1050/1050 1049/1049 1051/1051
f 1052/1052 1050/1050 1051/1051
f 1052/1052 1051/1051 1053/1053
f 1054/1054 1052/1052 1053/1053
f 1054/1054 1053/1053 1055/1055
f 1056/1056 1054/1054 1055/1055
f 1056/1056 1055/1055 1057/1057
f 1058/1058 1056/1056 1057/1057
f 1058/1058 1057/1057 1059/1059
f 1060/1060 1058/1058 1059/1059
f 1060/1060 1059/1059 1061/1061
f 1062/1062 1060/1060 1061/1061
f 1063/1063 1064/1064 1065/1065
f 1066/1066 1063/1063 1065/1065
f 1067/1067 1068/1068 1069/1069
f 1067/1067 1069/1069 1070/1070
f 1071/1071 1072/1072 1073/1073
f 1071/1071 1073/1073 1074/1074
f 1075/1075 1076/1076 1077/1077
f 1075/1075 1077/1077 1078/1078
f 1079/1079 1080/1080 1081/1081
f 1082/1082 1079/1079 1081/1081
f 1083/1083 1084/1084 1085/1085
f 1086/1086 1083/1083 1085/1085
f 1087/1087 1088/1088 1089/1089
f 1090/1090 1087/1087 1089/1089
f 1091/1091 1092/1092 1093/1093
f 1091/1091 1093/1093 1094/1094
f 1095/1095 1096/1096 1097/1097
f 1095/1095 1097/1097 1098/1098
f 1099/1099 1100/1100 1101/1101
f 1099/1099 1101/1101 1102/1102
f 1103/1103 1104/1104 1105/1105
f 1103/1103 1105/1105 1106/1106
f 1107/1107 1108/1108 1109/1109
f 1110/1110 1107/1107 1109/1109
f 1111/1111 1112/1112 1113/1113
f 1111/1111 1113/1113 1114/1114
f 1115/1115 1116/1116 1117/1117
f 1118/1118 1115/1115 1117/1117
f 1119/1119 1120/1120 1121/1121
f 1119/1119 1121/1121 1122/1122
f 1123/1123 1124/1124 1125/1125
f 1123/1123 1125/1125 1126/1126
f 1127/1127 1128/1128 1129/1129
f 1127/1127 1129/1129 1130/1130
f 1131/1131 1132/1132 1133/1133
f 1131/1131 1133/1133 1134/1134
f 1135/1135 1136/1136 1137/1137
f 1138/1138 1135/1135 1137/1137
f 1139/1139 1140/1140 1141/1141
f 1139/1139 1141/1141 1142/1142
f 1143/1143 1144/1144 1145/1145
f 1143/1143 1145/1145 1146/1146
f 1147/1147 1148/1148 1149/1149
f 1150/1150 1147/1147 1149/1149
f 1151/1151 1152/1152 1153/1153
f 1151/1151 1153/1153 1154/1154
f 1155/1155 1156/1156 1157/1157
f 1155/1155 1157/1157 1158/1158
f 1159/1159 1160/1160 1161/1161
f 1159/1159 1161/1161 1162/1162
f 1163/1163 1164/1164 1165/1165
f 1163/1163 1165/1165 1166/1166
f 1167/1167 1168/1168 1169/1169
f 1170/1170 1167/1167 1169/1169
f 1171/1171 1172/1172 1173/1173
f 1171/1171 1173/1173 1174/1174
f 1175/1175 1176/1176 1177/1177
f 1178/1178 1175/1175 1177/1177
f 1179/1179 1180/1180 1181/1181
f 1179/1179 1181/1181 1182/1182
f 1183/1183 1184/1184 1185/1185
f 1186/1186 1183/1183 1185/1185
f 1187/1187 1188/1188 1189/1189
f 1190/1190 1187/1187 1189/1189
f 1191/1191 1192/1192 1193/1193
f 1194/1194 1191/1191 1193/1193
f 1194/1194 1193/1193 1195/1195
f 1196/1196 1194/1194 1195/1195
f 1196/1196 1195/1195 1197/1197
f 1198/1198 1196/1196 1197/1197
f 1198/1198 1197/1197 1199/1199
f 1200/1200 1198/1198 1199/1199
f 1200/1200 1199/1199 1201/1201
f 1202/1202 1200/1200 1201/1201
f 1202/1202 1201/1201 1203/1203
f 1204/1204 1202/1202 1203/1203
f 1204/1204 1203/1203 1205/1205
f 1206/1206 1204/1204 1205/1205
f 1206/1206 1205/1205 1207/1207
f 1208/1208 1206/1206 1207/1207
f 1208/1208 1207/1207 1209/1209
f 1210/1210 1208/1208 1209/1209
f 1210/1210 1209/1209 1211/1211
f 1212/1212 1210/1210 1211/1211
f 1212/1212 1211/1211 1213/1213
f 1214/1214 1212/1212 1213/1213
f 1214/1214 1213/1213 1215/1215
f 1216/1216 1214/1214 1215/1215
f 1216/1216 1215/1215 1217/1217
f 1218/1218 1216/1216 1217/1217
f 1218/1218 1217/1217 1219/1219
f 1220/1220 1218/1218 1219/1219
f 1220/1220 1219/1219 1221/1221
f 1222/1222 1220/1220 1221/1221
f 1223/1223 1224/1224 1225/1225
f 1226/1226 1223/1223 1225/1225
f 1227/1227 1228/1228 1229/1229
f 1227/1227 1229/1229 1230/1230
f 1231/1231 1232/1232 1233/1233
f 1231/1231 1233/1233 1234/1234
f 1235/1235 1236/1236 1237/1237
f 1235/1235 1237/1237 1238/1238
f 1239/1239 1240/1240 1241/1241
f 1242/1242 1239/1239 1241/1241
f 1243/1243 1244/1244 1245/1245
f 1246/1246 1243/1243 1245/1245
f 1247/1247 1248/1248 1249/1249
f 1250/1250 1247/1247 1249/1249
f 1251/1251 1252/1252 1253/1253
f 1251/1251 1253/1253 1254/1254
f 1255/1255 1256/1256 1257/1257
f 1255/1255 1257/1257 1258/1258
f 1259/1259 1260/1260 1261/1261
f 1259/1259 1261/1261 1262/1262
f 1263/1263 1264/1264 1265/1265
f 1263/1263 1265/1265 1266/1266
f 1267/1267 1268/1268 1269/1269
f 1270/1270 1267/1267 1269/1269
f 1271/1271 1272/1272 1273/1273
f 1271/1271 1273/1273 1274/1274
f 1275/1275 1276/1276 1277/1277
f 1275/1275 1277/1277 1278/1278
f 1279/1279 1280/1280 1281/1281
f 1279/1279 1281/1281 1282/1282
f 1283/1283 1284/1284 1285/1285
f 1283/1283 1285/1285 1286/1286
f 1287/1287 1288/1288 1289/1289
f 1287/1287 1289/1289 1290/1290
f 1291/1291 1292/1292 1293/1293
f 1291/1291 1293/1293 1294/1294
f 1295/1295 1296/1296 1297/1297
f 1298/1298 1295/1295 1297/1297
f 1299/1299 1300/1300 1301/1301
f 1299/1299 1301/1301 1302/1302
f 1303/1303 1304/1304 1305/1305
f 1303/1303 1305/1305 1306/1306
f 1307/1307 1308/1308 1309/1309
f 1310/1310 1307/1307 1309/1309
f 1311/1311 1312/1312 1313/1313
f 1311/1311 1313/1313 1314/1314
f 1315/1315 1316/1316 1317/1317
f 1315/1315 1317/1317 1318/1318
f 1319/1319 1320/1320 1321/1321
f 1319/1319 1321/1321 1322/1322
f 1323/1323 1324/1324 1325/1325
f 1326/1326 1323/1323 1325/1325
f 1327/1327 1328/1328 1329/1329
f 1330/1330 1327/1327 1329/1329
f 1331/1331 1332/1332 1333/1333
f 1331/1331 1333/1333 1334/1334
f 1335/1335 1336/1336 1337/1337
f 1338/1338 1335/1335 1337/1337
f 1339/1339 1340/1340 1341/1341
f 1339/1339 1341/1341 1342/1342
f 1343/1343 1344/1344 1345/1345
f 1346/1346 1343/1343 1345/1345
v -0.0445 0.0507 0.0080
vt 0.9000 0.5
v -0.0445 0.0498 0.0081
vt 0.9000 0.5
v -0.0505 0.0498 0.0081
vt 0.9000 0.5
v -0.0505 0.0507 0.0080
vt 0.9000 0.5
v -0.0445 0.0498 0.0081
vt 0.9000 0.5
v -0.0445 0.0490 0.0083
vt 0.9000 0.5
v -0.0505 0.0490 0.0083
vt 0.9000 0.5
v -0.0505 0.0498 0.0081
vt 0.9000 0.5
v -0.0445 0.0490 0.0083
vt 0.9000 0.5
v -0.0445 0.0482 0.0087
vt 0.9000 0.5
v -0.0505 0.0482 0.0087
vt 0.9000 0.5
v -0.0505 0.0490 0.0083
vt 0.9000 0.5
v -0.0445 0.0482 0.0087
vt 0.9000 0.5
v -0.0445 0.0475 0.0093
vt 0.9000 0.5
v -0.0505 0.0475 0.0093
vt 0.9000 0.5
v -0.0505 0.0482 0.0087
vt 0.9000 0.5
v -0.0445 0.0475 0.0093
vt 0.9000 0.5
v -0.0445 0.0469 0.0100
vt 0.9000 0.5
v -0.0505 0.0469 0.0100
vt 0.9000 0.5
v -0.0505 0.0475 0.0093
vt 0.9000 0.5
v -0.0445 0.0469 0.0100
vt 0.9000 0.5
v -0.0445 0.0465 0.0108
vt 0.9000 0.5
v -0.0505 0.0465 0.0108
vt 0.9000 0.5
v -0.0505 0.0469 0.0100
vt 0.9000 0.5
v -0.0445 0.0465 0.0108
vt 0.9000 0.5
v -0.0445 0.0463 0.0116
vt 0.9000 0.5
v -0.0505 0.0463 0.0116
vt 0.9000 0.5
v -0.0505 0.0465 0.0108
vt 0.9000 0.5
v -0.0445 0.0463 0.0116
vt 0.9000 0.5
v -0.0445 0.0462 0.0125
vt 0.9000 0.5
v -0.0505 0.0462 0.0125
vt 0.9000 0.5
v -0.0505 0.0463 0.0116
vt 0.9000 0.5
v -0.0505 0.0463 0.0134
vt 0.9000 0.5
v -0.0505 0.0462 0.0125
vt 0.9000 0.5
v -0.0445 0.0462 0.0125
vt 0.9000 0.5
v -0.0445 0.0463 0.0134
vt 0.9000 0.5
v -0.0505 0.0465 0.0143
vt 0.9000 0.5
v -0.0505 0.0463 0.0134
vt 0.9000 0.5
v -0.0445 0.0463 0.0134
vt 0.9000 0.5
v -0.0445 0.0465 0.0143
vt 0.9000 0.5
v -0.0505 0.0469 0.0151
vt 0.9000 0.5
v -0.0505 0.0465 0.0143
vt 0.9000 0.5
v -0.0445 0.0465 0.0143
vt 0.9000 0.5
v -0.0445 0.0469 0.0151
vt 0.9000 0.5
v -0.0505 0.0475 0.0157
vt 0.9000 0.5
v -0.0505 0.0469 0.0151
vt 0.9000 0.5
v -0.0445 0.0469 0.0151
vt 0.9000 0.5
v -0.0445 0.0475 0.0157
vt 0.9000 0.5
v -0.0505 0.0482 0.0163
vt 0.9000 0.5
v -0.0505 0.0475 0.0157
vt 0.9000 0.5
v -0.0445 0.0475 0.0157
vt 0.9000 0.5
v -0.0445 0.0482 0.0163
vt 0.9000 0.5
v -0.0505 0.0490 0.0167
vt 0.9000 0.5
v -0.0505 0.0482 0.0163
vt 0.9000 0.5
v -0.0445 0.0482 0.0163
vt 0.9000 0.5
v -0.0445 0.0490 0.0167
vt 0.9000 0.5
v -0.0505 0.0498 0.0170
vt 0.9000 0.5
v -0.0505 0.0490 0.0167
vt 0.9000 0.5
v -0.0445 0.0490 0.0167
vt 0.9000 0.5
v -0.0445 0.0498 0.0170
vt 0.9000 0.5
v -0.0505 0.0507 0.0171
vt 0.9000 0.5
v -0.0505 0.0498 0.0170
vt 0.9000 0.5
v -0.0445 0.0498 0.0170
vt 0.9000 0.5
v -0.0445 0.0507 0.0171
vt 0.9000 0.5
v -0.0505 0.0516 0.0170
vt 0.9000 0.5
v -0.0505 0.0507 0.0171
vt 0.9000 0.5
v -0.0445 0.0507 0.0171
vt 0.9000 0.5
v -0.0445 0.0516 0.0170
vt 0.9000 0.5
v -0.0505 0.0516 0.0170
vt 0.9000 0.5
v -0.0445 0.0516 0.0170
vt 0.9000 0.5
v -0.0445 0.0525 0.0167
vt 0.9000 0.5
v -0.0505 0.0525 0.0167
vt 0.9000 0.5
v -0.0505 0.0525 0.0167
vt 0.9000 0.5
v -0.0445 0.0525 0.0167
vt 0.9000 0.5
v -0.0445 0.0532 0.0163
vt 0.9000 0.5
v -0.0505 0.0532 0.0163
vt 0.9000 0.5
v -0.0505 0.0532 0.0163
vt 0.9000 0.5
v -0.0445 0.0532 0.0163
vt 0.9000 0.5
v -0.0445 0.0539 0.0157
vt 0.9000 0.5
v -0.0505 0.0539 0.0157
vt 0.9000 0.5
v -0.0505 0.0545 0.0151
vt 0.9000 0.5
v -0.0505 0.0539 0.0157
vt 0.9000 0.5
v -0.0445 0.0539 0.0157
vt 0.9000 0.5
v -0.0445 0.0545 0.0151
vt 0.9000 0.5
v -0.0505 0.0549 0.0143
vt 0.9000 0.5
v -0.0505 0.0545 0.0151
vt 0.9000 0.5
v -0.0445 0.0545 0.0151
vt 0.9000 0.5
v -0.0445 0.0549 0.0143
vt 0.9000 0.5
v -0.0505 0.0552 0.0134
vt 0.9000 0.5
v -0.0505 0.0549 0.0143
vt 0.9000 0.5
v -0.0445 0.0549 0.0143
vt 0.9000 0.5
v -0.0445 0.0552 0.0134
vt 0.9000 0.5
v -0.0505 0.0553 0.0125
vt 0.9000 0.5
v -0.0505 0.0552 0.0134
vt 0.9000 0.5
v -0.0445 0.0552 0.0134
vt 0.9000 0.5
v -0.0445 0.0553 0.0125
vt 0.9000 0.5
v -0.0445 0.0553 0.0125
vt 0.9000 0.5
v -0.0445 0.0552 0.0116
vt 0.9000 0.5
v -0.0505 0.0552 0.0116
vt 0.9000 0.5
v -0.0505 0.0553 0.0125
vt 0.9000 0.5
v -0.0445 0.0552 0.0116
vt 0.9000 0.5
v -0.0445 0.0549 0.0108
vt 0.9000 0.5
v -0.0505 0.0549 0.0108
vt 0.9000 0.5
v -0.0505 0.0552 0.0116
vt 0.9000 0.5
v -0.0445 0.0549 0.0108
vt 0.9000 0.5
v -0.0445 0.0545 0.0100
vt 0.9000 0.5
v -0.0505 0.0545 0.0100
vt 0.9000 0.5
v -0.0505 0.0549 0.0108
vt 0.9000 0.5
v -0.0445 0.0545 0.0100
vt 0.9000 0.5
v -0.0445 0.0539 0.0093
vt 0.9000 0.5
v -0.0505 0.0539 0.0093
vt 0.9000 0.5
v -0.0505 0.0545 0.0100
vt 0.9000 0.5
v -0.0445 0.0539 0.0093
vt 0.9000 0.5
v -0.0445 0.0532 0.0087
vt 0.9000 0.5
v -0.0505 0.0532 0.0087
vt 0.9000 0.5
v -0.0505 0.0539 0.0093
vt 0.9000 0.5
v -0.0445 0.0532 0.0087
vt 0.9000 0.5
v -0.0445 0.0525 0.0083
vt 0.9000 0.5
v -0.0505 0.0525 0.0083
vt 0.9000 0.5
v -0.0505 0.0532 0.0087
vt 0.9000 0.5
v -0.0445 0.0525 0.0083
vt 0.9000 0.5
v -0.0445 0.0516 0.0081
vt 0.9000 0.5
v -0.0505 0.0516 0.0081
vt 0.9000 0.5
v -0.0505 0.0525 0.0083
vt 0.9000 0.5
v -0.0445 0.0516 0.0081
vt 0.9000 0.5
v -0.0445 0.0507 0.0080
vt 0.9000 0.5
v -0.0505 0.0507 0.0080
vt 0.9000 0.5
v -0.0505 0.0516 0.0081
vt 0.9000 0.5
v -0.0590 0.0518 0.0180
vt 0.9000 0.5
v -0.0590 0.0507 0.0182
vt 0.9000 0.5
v -0.0505 0.0507 0.0182
vt 0.9000 0.5
v -0.0505 0.0518 0.0180
vt 0.9000 0.5
v -0.0505 0.0476 0.0079
vt 0.9000 0.5
v -0.0505 0.0467 0.0086
vt 0.9000 0.5
v -0.0590 0.0467 0.0086
vt 0.9000 0.5
v -0.0590 0.0476 0.0079
vt 0.9000 0.5
v -0.0505 0.0529 0.0073
vt 0.9000 0.5
v -0.0505 0.0518 0.0070
vt 0.9000 0.5
v -0.0590 0.0518 0.0070
vt 0.9000 0.5
v -0.0590 0.0529 0.0073
vt 0.9000 0.5
v -0.0590 0.0529 0.0177
vt 0.9000 0.5
v -0.0590 0.0518 0.0180
vt 0.9000 0.5
v -0.0505 0.0518 0.0180
vt 0.9000 0.5
v -0.0505 0.0529 0.0177
vt 0.9000 0.5
v -0.0505 0.0467 0.0086
vt 0.9000 0.5
v -0.0505 0.0460 0.0094
vt 0.9000 0.5
v -0.0590 0.0460 0.0094
vt 0.9000 0.5
v -0.0590 0.0467 0.0086
vt 0.9000 0.5
v -0.0505 0.0518 0.0070
vt 0.9000 0.5
v -0.0505 0.0507 0.0069
vt 0.9000 0.5
v -0.0590 0.0507 0.0069
vt 0.9000 0.5
v -0.0590 0.0518 0.0070
vt 0.9000 0.5
v -0.0590 0.0529 0.0177
vt 0.9000 0.5
v -0.0505 0.0529 0.0177
vt 0.9000 0.5
v -0.0505 0.0538 0.0172
vt 0.9000 0.5
v -0.0590 0.0538 0.0172
vt 0.9000 0.5
v -0.0505 0.0455 0.0104
vt 0.9000 0.5
v -0.0590 0.0455 0.0104
vt 0.9000 0.5
v -0.0590 0.0460 0.0094
vt 0.9000 0.5
v -0.0505 0.0460 0.0094
vt 0.9000 0.5
v -0.0590 0.0547 0.0165
vt 0.9000 0.5
v -0.0590 0.0538 0.0172
vt 0.9000 0.5
v -0.0505 0.0538 0.0172
vt 0.9000 0.5
v -0.0505 0.0547 0.0165
vt 0.9000 0.5
v -0.0505 0.0452 0.0114
vt 0.9000 0.5
v -0.0590 0.0452 0.0114
vt 0.9000 0.5
v -0.0590 0.0455 0.0104
vt 0.9000 0.5
v -0.0505 0.0455 0.0104
vt 0.9000 0.5
v -0.0590 0.0554 0.0157
vt 0.9000 0.5
v -0.0590 0.0547 0.0165
vt 0.9000 0.5
v -0.0505 0.0547 0.0165
vt 0.9000 0.5
v -0.0505 0.0554 0.0157
vt 0.9000 0.5
v -0.0505 0.0451 0.0125
vt 0.9000 0.5
v -0.0590 0.0451 0.0125
vt 0.9000 0.5
v -0.0590 0.0452 0.0114
vt 0.9000 0.5
v -0.0505 0.0452 0.0114
vt 0.9000 0.5
v -0.0590 0.0559 0.0147
vt 0.9000 0.5
v -0.0590 0.0554 0.0157
vt 0.9000 0.5
v -0.0505 0.0554 0.0157
vt 0.9000 0.5
v -0.0505 0.0559 0.0147
vt 0.9000 0.5
v -0.0590 0.0451 0.0125
vt 0.9000 0.5
v -0.0505 0.0451 0.0125
vt 0.9000 0.5
v -0.0505 0.0452 0.0136
vt 0.9000 0.5
v -0.0590 0.0452 0.0136
vt 0.9000 0.5
v -0.0590 0.0559 0.0147
vt 0.9000 0.5
v -0.0505 0.0559 0.0147
vt 0.9000 0.5
v -0.0505 0.0562 0.0136
vt 0.9000 0.5
v -0.0590 0.0562 0.0136
vt 0.9000 0.5
v -0.0590 0.0452 0.0136
vt 0.9000 0.5
v -0.0505 0.0452 0.0136
vt 0.9000 0.5
v -0.0505 0.0455 0.0147
vt 0.9000 0.5
v -0.0590 0.0455 0.0147
vt 0.9000 0.5
v -0.0590 0.0563 0.0125
vt 0.9000 0.5
v -0.0590 0.0562 0.0136
vt 0.9000 0.5
v -0.0505 0.0562 0.0136
vt 0.9000 0.5
v -0.0505 0.0563 0.0125
vt 0.9000 0.5
v -0.0590 0.0455 0.0147
vt 0.9000 0.5
v -0.0505 0.0455 0.0147
vt 0.9000 0.5
v -0.0505 0.0460 0.0157
vt 0.9000 0.5
v -0.0590 0.0460 0.0157
vt 0.9000 0.5
v -0.0505 0.0563 0.0125
vt 0.9000 0.5
v -0.0505 0.0562 0.0114
vt 0.9000 0.5
v -0.0590 0.0562 0.0114
vt 0.9000 0.5
v -0.0590 0.0563 0.0125
vt 0.9000 0.5
v -0.0590 0.0460 0.0157
vt 0.9000 0.5
v -0.0505 0.0460 0.0157
vt 0.9000 0.5
v -0.0505 0.0467 0.0165
vt 0.9000 0.5
v -0.0590 0.0467 0.0165
vt 0.9000 0.5
v -0.0505 0.0559 0.0104
vt 0.9000 0.5
v -0.0590 0.0559 0.0104
vt 0.9000 0.5
v -0.0590 0.0562 0.0114
vt 0.9000 0.5
v -0.0505 0.0562 0.0114
vt 0.9000 0.5
v -0.0590 0.0476 0.0172
vt 0.9000 0.5
v -0.0590 0.0467 0.0165
vt 0.9000 0.5
v -0.0505 0.0467 0.0165
vt 0.9000 0.5
v -0.0505 0.0476 0.0172
vt 0.9000 0.5
v -0.0505 0.0559 0.0104
vt 0.9000 0.5
v -0.0505 0.0554 0.0094
vt 0.9000 0.5
v -0.0590 0.0554 0.0094
vt 0.9000 0.5
v -0.0590 0.0559 0.0104
vt 0.9000 0.5
v -0.0590 0.0486 0.0177
vt 0.9000 0.5
v -0.0590 0.0476 0.0172
vt 0.9000 0.5
v -0.0505 0.0476 0.0172
vt 0.9000 0.5
v -0.0505 0.0486 0.0177
vt 0.9000 0.5
v -0.0505 0.0507 0.0069
vt 0.9000 0.5
v -0.0505 0.0496 0.0070
vt 0.9000 0.5
v -0.0590 0.0496 0.0070
vt 0.9000 0.5
v -0.0590 0.0507 0.0069
vt 0.9000 0.5
v -0.0505 0.0554 0.0094
vt 0.9000 0.5
v -0.0505 0.0547 0.0086
vt 0.9000 0.5
v -0.0590 0.0547 0.0086
vt 0.9000 0.5
v -0.0590 0.0554 0.0094
vt 0.9000 0.5
v -0.0590 0.0496 0.0180
vt 0.9000 0.5
v -0.0590 0.0486 0.0177
vt 0.9000 0.5
v -0.0505 0.0486 0.0177
vt 0.9000 0.5
v -0.0505 0.0496 0.0180
vt 0.9000 0.5
v -0.0505 0.0496 0.0070
vt 0.9000 0.5
v -0.0505 0.0486 0.0073
vt 0.9000 0.5
v -0.0590 0.0486 0.0073
vt 0.9000 0.5
v -0.0590 0.0496 0.0070
vt 0.9000 0.5
v -0.0505 0.0538 0.0079
vt 0.9000 0.5
v -0.0590 0.0538 0.0079
vt 0.9000 0.5
v -0.0590 0.0547 0.0086
vt 0.9000 0.5
v -0.0505 0.0547 0.0086
vt 0.9000 0.5
v -0.0590 0.0507 0.0182
vt 0.9000 0.5
v -0.0590 0.0496 0.0180
vt 0.9000 0.5
v -0.0505 0.0496 0.0180
vt 0.9000 0.5
v -0.0505 0.0507 0.0182
vt 0.9000 0.5
v -0.0505 0.0486 0.0073
vt 0.9000 0.5
v -0.0505 0.0476 0.0079
vt 0.9000 0.5
v -0.0590 0.0476 0.0079
vt 0.9000 0.5
v -0.0590 0.0486 0.0073
vt 0.9000 0.5
v -0.0505 0.0529 0.0073
vt 0.9000 0.5
v -0.0590 0.0529 0.0073
vt 0.9000 0.5
v -0.0590 0.0538 0.0079
vt 0.9000 0.5
v -0.0505 0.0538 0.0079
vt 0.9000 0.5
v -0.0590 0.0507 0.0069
vt 0.9000 0.5
v -0.0590 0.0496 0.0070
vt 0.9000 0.5
v -0.0590 0.0502 0.0082
vt 0.9000 0.5
v -0.0590 0.0507 0.0081
vt 0.9000 0.5
v -0.0590 0.0486 0.0073
vt 0.9000 0.5
v -0.0590 0.0496 0.0084
vt 0.9000 0.5
v -0.0590 0.0476 0.0079
vt 0.9000 0.5
v -0.0590 0.0489 0.0087
vt 0.9000 0.5
v -0.0590 0.0476 0.0079
vt 0.9000 0.5
v -0.0590 0.0467 0.0086
vt 0.9000 0.5
v -0.0590 0.0483 0.0092
vt 0.9000 0.5
v -0.0590 0.0489 0.0087
vt 0.9000 0.5
v -0.0590 0.0467 0.0086
vt 0.9000 0.5
v -0.0590 0.0460 0.0094
vt 0.9000 0.5
v -0.0590 0.0478 0.0099
vt 0.9000 0.5
v -0.0590 0.0483 0.0092
vt 0.9000 0.5
v -0.0590 0.0460 0.0094
vt 0.9000 0.5
v -0.0590 0.0455 0.0104
vt 0.9000 0.5
v -0.0590 0.0473 0.0107
vt 0.9000 0.5
v -0.0590 0.0478 0.0099
vt 0.9000 0.5
v -0.0590 0.0455 0.0104
vt 0.9000 0.5
v -0.0590 0.0452 0.0114
vt 0.9000 0.5
v -0.0590 0.0471 0.0116
vt 0.9000 0.5
v -0.0590 0.0473 0.0107
vt 0.9000 0.5
v -0.0590 0.0452 0.0114
vt 0.9000 0.5
v -0.0590 0.0451 0.0125
vt 0.9000 0.5
v -0.0590 0.0470 0.0125
vt 0.9000 0.5
v -0.0590 0.0471 0.0116
vt 0.9000 0.5
v -0.0590 0.0452 0.0136
vt 0.9000 0.5
v -0.0590 0.0471 0.0135
vt 0.9000 0.5
v -0.0590 0.0471 0.0135
vt 0.9000 0.5
v -0.0590 0.0452 0.0136
vt 0.9000 0.5
v -0.0590 0.0455 0.0147
vt 0.9000 0.5
v -0.0590 0.0473 0.0144
vt 0.9000 0.5
v -0.0590 0.0473 0.0144
vt 0.9000 0.5
v -0.0590 0.0455 0.0147
vt 0.9000 0.5
v -0.0590 0.0460 0.0157
vt 0.9000 0.5
v -0.0590 0.0478 0.0152
vt 0.9000 0.5
v -0.0590 0.0478 0.0152
vt 0.9000 0.5
v -0.0590 0.0460 0.0157
vt 0.9000 0.5
v -0.0590 0.0467 0.0165
vt 0.9000 0.5
v -0.0590 0.0483 0.0158
vt 0.9000 0.5
v -0.0590 0.0476 0.0172
vt 0.9000 0.5
v -0.0590 0.0489 0.0163
vt 0.9000 0.5
v -0.0590 0.0486 0.0177
vt 0.9000 0.5
v -0.0590 0.0496 0.0167
vt 0.9000 0.5
v -0.0590 0.0496 0.0180
vt 0.9000 0.5
v -0.0590 0.0502 0.0169
vt 0.9000 0.5
v -0.0590 0.0507 0.0182
vt 0.9000 0.5
v -0.0590 0.0507 0.0169
vt 0.9000 0.5
v -0.0590 0.0513 0.0169
vt 0.9000 0.5
v -0.0590 0.0518 0.0180
vt 0.9000 0.5
v -0.0590 0.0519 0.0167
vt 0.9000 0.5
v -0.0590 0.0529 0.0177
vt 0.9000 0.5
v -0.0590 0.0525 0.0163
vt 0.9000 0.5
v -0.0590 0.0538 0.0172
vt 0.9000 0.5
v -0.0590 0.0531 0.0158
vt 0.9000 0.5
v -0.0590 0.0525 0.0163
vt 0.9000 0.5
v -0.0590 0.0538 0.0172
vt 0.9000 0.5
v -0.0590 0.0547 0.0165
vt 0.9000 0.5
v -0.0590 0.0537 0.0152
vt 0.9000 0.5
v -0.0590 0.0531 0.0158
vt 0.9000 0.5
v -0.0590 0.0547 0.0165
vt 0.9000 0.5
v -0.0590 0.0554 0.0157
vt 0.9000 0.5
v -0.0590 0.0541 0.0144
vt 0.9000 0.5
v -0.0590 0.0559 0.0147
vt 0.9000 0.5
v -0.0590 0.0544 0.0135
vt 0.9000 0.5
v -0.0590 0.0541 0.0144
vt 0.9000 0.5
v -0.0590 0.0559 0.0147
vt 0.9000 0.5
v -0.0590 0.0562 0.0136
vt 0.9000 0.5
v -0.0590 0.0545 0.0125
vt 0.9000 0.5
v -0.0590 0.0544 0.0135
vt 0.9000 0.5
v -0.0590 0.0562 0.0136
vt 0.9000 0.5
v -0.0590 0.0563 0.0125
vt 0.9000 0.5
v -0.0590 0.0562 0.0114
vt 0.9000 0.5
v -0.0590 0.0544 0.0116
vt 0.9000 0.5
v -0.0590 0.0559 0.0104
vt 0.9000 0.5
v -0.0590 0.0541 0.0107
vt 0.9000 0.5
v -0.0590 0.0554 0.0094
vt 0.9000 0.5
v -0.0590 0.0537 0.0099
vt 0.9000 0.5
v -0.0590 0.0547 0.0086
vt 0.9000 0.5
v -0.0590 0.0531 0.0092
vt 0.9000 0.5
v -0.0590 0.0538 0.0079
vt 0.9000 0.5
v -0.0590 0.0525 0.0087
vt 0.9000 0.5
v -0.0590 0.0529 0.0073
vt 0.9000 0.5
v -0.0590 0.0519 0.0084
vt 0.9000 0.5
v -0.0590 0.0518 0.0070
vt 0.9000 0.5
v -0.0590 0.0513 0.0082
vt 0.9000 0.5
v -0.0590 0.0519 0.0084
vt 0.9000 0.5
v -0.0590 0.0529 0.0073
vt 0.9000 0.5
v -0.0590 0.0518 0.0070
vt 0.9000 0.5
v -0.0590 0.0513 0.0082
vt 0.9000 0.5
f 1347/1347 1348/1348 1349/1349
f 1347/1347 1349/1349 1350/1350
f 1351/1351 1352/1352 1353/1353
f 1351/1351 1353/1353 1354/1354
f 1355/1355 1356/1356 1357/1357
f 1355/1355 1357/1357 1358/1358
f 1359/1359 1360/1360 1361/1361
f 1359/1359 1361/1361 1362/1362
f 1363/1363 1364/1364 1365/1365
f 1363/1363 1365/1365 1366/1366
f 1367/1367 1368/1368 1369/1369
f 1367/1367 1369/1369 1370/1370
f 1371/1371 1372/1372 1373/1373
f 1371/1371 1373/1373 1374/1374
f 1375/1375 1376/1376 1377/1377
f 1375/1375 1377/1377 1378/1378
f 1379/1379 1380/1380 1381/1381
f 1379/1379 1381/1381 1382/1382
f 1383/1383 1384/1384 1385/1385
f 1383/1383 1385/1385 1386/1386
f 1387/1387 1388/1388 1389/1389
f 1387/1387 1389/1389 1390/1390
f 1391/1391 1392/1392 1393/1393
f 1391/1391 1393/1393 1394/1394
f 1395/1395 1396/1396 1397/1397
f 1395/1395 1397/1397 1398/1398
f 1399/1399 1400/1400 1401/1401
f 1399/1399 1401/1401 1402/1402
f 1403/1403 1404/1404 1405/1405
f 1403/1403 1405/1405 1406/1406
f 1407/1407 1408/1408 1409/1409
f 1407/1407 1409/1409 1410/1410
f 1411/1411 1412/1412 1413/1413
f 1411/1411 1413/1413 1414/1414
f 1415/1415 1416/1416 1417/1417
f 1418/1418 1415/1415 1417/1417
f 1419/1419 1420/1420 1421/1421
f 1422/1422 1419/1419 1421/1421
f 1423/1423 1424/1424 1425/1425
f 1426/1426 1423/1423 1425/1425
f 1427/1427 1428/1428 1429/1429
f 1427/1427 1429/1429 1430/1430
f 1431/1431 1432/1432 1433/1433
f 1431/1431 1433/1433 1434/1434
f 1435/1435 1436/1436 1437/1437
f 1435/1435 1437/1437 1438/1438
f 1439/1439 1440/1440 1441/1441
f 1439/1439 1441/1441 1442/1442
f 1443/1443 1444/1444 1445/1445
f 1443/1443 1445/1445 1446/1446
f 1447/1447 1448/1448 1449/1449
f 1447/1447 1449/1449 1450/1450
f 1451/1451 1452/1452 1453/1453
f 1451/1451 1453/1453 1454/1454
f 1455/1455 1456/1456 1457/1457
f 1455/1455 1457/1457 1458/1458
f 1459/1459 1460/1460 1461/1461
f 1459/1459 1461/1461 1462/1462
f 1463/1463 1464/1464 1465/1465
f 1463/1463 1465/1465 1466/1466
f 1467/1467 1468/1468 1469/1469
f 1467/1467 1469/1469 1470/1470
f 1471/1471 1472/1472 1473/1473
f 1471/1471 1473/1473 1474/1474
f 1475/1475 1476/1476 1477/1477
f 1475/1475 1477/1477 1478/1478
f 1479/1479 1480/1480 1481/1481
f 1479/1479 1481/1481 1482/1482
f 1483/1483 1484/1484 1485/1485
f 1483/1483 1485/1485 1486/1486
f 1487/1487 1488/1488 1489/1489
f 1487/1487 1489/1489 1490/1490
f 1491/1491 1492/1492 1493/1493
f 1491/1491 1493/1493 1494/1494
f 1495/1495 1496/1496 1497/1497
f 1495/1495 1497/1497 1498/1498
f 1499/1499 1500/1500 1501/1501
f 1502/1502 1499/1499 1501/1501
f 1503/1503 1504/1504 1505/1505
f 1506/1506 1503/1503 1505/1505
f 1507/1507 1508/1508 1509/1509
f 1507/1507 1509/1509 1510/1510
f 1511/1511 1512/1512 1513/1513
f 1514/1514 1511/1511 1513/1513
f 1515/1515 1516/1516 1517/1517
f 1515/1515 1517/1517 1518/1518
f 1519/1519 1520/1520 1521/1521
f 1522/1522 1519/1519 1521/1521
f 1523/1523 1524/1524 1525/1525
f 1523/1523 1525/1525 1526/1526
f 1527/1527 1528/1528 1529/1529
f 1530/1530 1527/1527 1529/1529
f 1531/1531 1532/1532 1533/1533
f 1534/1534 1531/1531 1533/1533
f 1535/1535 1536/1536 1537/1537
f 1538/1538 1535/1535 1537/1537
f 1539/1539 1540/1540 1541/1541
f 1539/1539 1541/1541 1542/1542
f 1543/1543 1544/1544 1545/1545
f 1546/1546 1543/1543 1545/1545
f 1547/1547 1548/1548 1549/1549
f 1547/1547 1549/1549 1550/1550
f 1551/1551 1552/1552 1553/1553
f 1554/1554 1551/1551 1553/1553
f 1555/1555 1556/1556 1557/1557
f 1558/1558 1555/1555 1557/1557
f 1559/1559 1560/1560 1561/1561
f 1559/1559 1561/1561 1562/1562
f 1563/1563 1564/1564 1565/1565
f 1563/1563 1565/1565 1566/1566
f 1567/1567 1568/1568 1569/1569
f 1567/1567 1569/1569 1570/1570
f 1571/1571 1572/1572 1573/1573
f 1571/1571 1573/1573 1574/1574
f 1575/1575 1576/1576 1577/1577
f 1575/1575 1577/1577 1578/1578
f 1579/1579 1580/1580 1581/1581
f 1579/1579 1581/1581 1582/1582
f 1583/1583 1584/1584 1585/1585
f 1583/1583 1585/1585 1586/1586
f 1587/1587 1588/1588 1589/1589
f 1590/1590 1587/1587 1589/1589
f 1591/1591 1592/1592 1593/1593
f 1591/1591 1593/1593 1594/1594
f 1595/1595 1596/1596 1597/1597
f 1595/1595 1597/1597 1598/1598
f 1599/1599 1600/1600 1601/1601
f 1602/1602 1599/1599 1601/1601
f 1603/1603 1604/1604 1605/1605
f 1603/1603 1605/1605 1606/1606
f 1604/1604 1607/1607 1608/1608
f 1604/1604 1608/1608 1605/1605
f 1607/1607 1609/1609 1610/1610
f 1608/1608 1607/1607 1610/1610
f 1611/1611 1612/1612 1613/1613
f 1614/1614 1611/1611 1613/1613
f 1615/1615 1616/1616 1617/1617
f 1618/1618 1615/1615 1617/1617
f 1619/1619 1620/1620 1621/1621
f 1622/1622 1619/1619 1621/1621
f 1623/1623 1624/1624 1625/1625
f 1626/1626 1623/1623 1625/1625
f 1627/1627 1628/1628 1629/1629
f 1630/1630 1627/1627 1629/1629
f 1629/1629 1628/1628 1631/1631
f 1629/1629 1631/1631 1632/1632
f 1633/1633 1634/1634 1635/1635
f 1633/1633 1635/1635 1636/1636
f 1637/1637 1638/1638 1639/1639
f 1637/1637 1639/1639 1640/1640
f 1641/1641 1642/1642 1643/1643
f 1641/1641 1643/1643 1644/1644
f 1644/1644 1643/1643 1645/1645
f 1644/1644 1645/1645 1646/1646
f 1646/1646 1645/1645 1647/1647
f 1646/1646 1647/1647 1648/1648
f 1648/1648 1647/1647 1649/1649
f 1650/1650 1648/1648 1649/1649
f 1650/1650 1649/1649 1651/1651
f 1652/1652 1650/1650 1651/1651
f 1653/1653 1652/1652 1651/1651
f 1653/1653 1651/1651 1654/1654
f 1655/1655 1653/1653 1654/1654
f 1655/1655 1654/1654 1656/1656
f 1657/1657 1655/1655 1656/1656
f 1658/1658 1657/1657 1656/1656
f 1659/1659 1660/1660 1661/1661
f 1662/1662 1659/1659 1661/1661
f 1663/1663 1664/1664 1665/1665
f 1666/1666 1663/1663 1665/1665
f 1667/1667 1663/1663 1666/1666
f 1668/1668 1667/1667 1666/1666
f 1669/1669 1670/1670 1671/1671
f 1672/1672 1669/1669 1671/1671
f 1673/1673 1674/1674 1675/1675
f 1676/1676 1673/1673 1675/1675
f 1677/1677 1678/1678 1673/1673
f 1677/1677 1673/1673 1676/1676
f 1679/1679 1680/1680 1678/1678
f 1679/1679 1678/1678 1677/1677
f 1681/1681 1682/1682 1680/1680
f 1681/1681 1680/1680 1679/1679
f 1683/1683 1684/1684 1682/1682
f 1683/1683 1682/1682 1681/1681
f 1685/1685 1686/1686 1684/1684
f 1685/1685 1684/1684 1683/1683
f 1687/1687 1688/1688 1686/1686
f 1687/1687 1686/1686 1685/1685
f 1689/1689 1690/1690 1691/1691
f 1692/1692 1689/1689 1691/1691
f 1693/1693 1603/1603 1606/1606
f 1693/1693 1606/1606 1694/1694
