v 0.6221 0.1240 0.6414
vt 0.5562 0.2786
v 0.6221 0.1240 0.6414
vt 0.5544 0.0021
v 0.6221 0.1240 0.6414
vt 0.5601 0.0146
v 0.6221 0.1240 0.6414
vt 0.5543 0.2786
v 0.6221 2.1240 0.6414
vt 0.9977 0.0009
v 0.6221 2.1240 0.6414
vt 0.5544 0.9998
v 0.6221 2.1240 0.6414
vt 0.5601 0.9996
v 0.6268 0.1240 -0.6368
vt 0.9988 0.0020
v 0.6268 0.1240 -0.6368
vt 0.5543 0.2786
v 0.6268 0.1240 -0.6368
vt 0.5539 0.2786
v 0.6268 0.1240 -0.6368
vt 0.9983 0.0021
v 0.6268 2.1240 -0.6368
vt 0.9977 0.2888
v 0.6268 2.1240 -0.6368
vt 0.9988 0.9988
v 0.6268 2.1240 -0.6368
vt 0.9983 0.9998
v 0.0024 0.1240 -0.6391
vt 0.5000 0.8009
v 0.0024 0.1240 -0.6391
vt 0.7775 0.0020
v 0.0024 2.1240 -0.6391
vt 0.7618 0.2888
v 0.0024 2.1240 -0.6391
vt 0.7775 0.9988
v -0.0024 0.1240 0.6391
vt 0.5000 0.1991
v -0.0024 0.1240 0.6391
vt 0.2830 0.0146
v -0.0024 2.1240 0.6391
vt 0.7618 0.0009
v -0.0024 2.1240 0.6391
vt 0.2830 0.9996
v 0.5553 2.1240 -0.6371
vt 0.9815 0.2888
v 0.5553 2.1240 -0.6371
vt 0.9605 0.9988
v 0.5506 0.1240 0.6412
vt 0.7604 0.1991
v 0.5506 0.1240 0.6412
vt 0.5284 0.0146
v 0.5506 0.1240 0.6412
vt 0.5562 0.2786
v 0.5506 0.1240 0.6412
vt 0.5562 0.2786
v 0.5553 0.1240 -0.6371
vt 0.7604 0.8009
v 0.5553 0.1240 -0.6371
vt 0.9605 0.0020
v 0.5553 0.1240 -0.6371
vt 0.5562 0.2786
v 0.5553 0.1240 -0.6371
vt 0.5539 0.2786
v 0.5506 2.1240 0.6412
vt 0.9815 0.0009
v 0.5506 2.1240 0.6412
vt 0.5284 0.9996
v 0.6224 0.1240 0.5678
vt 0.7940 0.2338
v 0.6224 0.1240 0.5678
vt 0.5543 0.2786
v 0.6224 0.1240 0.5678
vt 0.5542 0.2786
v 0.6224 0.1240 0.5678
vt 0.5797 0.0021
v 0.6266 0.1240 -0.5632
vt 0.7940 0.7662
v 0.6266 0.1240 -0.5632
vt 0.5559 0.2786
v 0.6266 0.1240 -0.5632
vt 0.9729 0.0021
v 0.6266 0.1240 -0.5632
vt 0.5543 0.2786
v 0.6224 2.1240 0.5678
vt 0.9977 0.0176
v 0.6224 2.1240 0.5678
vt 0.5797 0.9998
v 0.6266 2.1240 -0.5632
vt 0.9977 0.2741
v 0.6266 2.1240 -0.5632
vt 0.9977 0.2731
v 0.6266 2.1240 -0.5632
vt 0.9729 0.9998
v -0.0021 2.1240 0.5655
vt 0.7618 0.0176
v 0.0021 2.1240 -0.5655
vt 0.7618 0.2741
v 0.0021 2.1240 -0.5655
vt 0.7618 0.2731
v 0.0021 0.1240 -0.5655
vt 0.5000 0.7662
v -0.0021 0.1240 0.5655
vt 0.5000 0.2338
v 0.5551 2.1240 -0.5635
vt 0.9815 0.2741
v 0.5551 2.1240 -0.5635
vt 0.9815 0.2731
v 0.5509 2.1240 0.5675
vt 0.9815 0.0176
v 0.5551 0.1240 -0.5635
vt 0.7604 0.7662
v 0.5551 0.1240 -0.5635
vt 0.5562 0.2786
v 0.5551 0.1240 -0.5635
vt 0.5559 0.2786
v 0.5509 0.1240 0.5675
vt 0.7604 0.2338
v 0.5509 0.1240 0.5675
vt 0.5562 0.2786
v 0.5509 0.1240 0.5675
vt 0.5542 0.2786
v 0.5614 0.0000 0.6301
vt 0.7654 0.2043
v 0.5614 0.0000 0.6301
vt 0.5559 0.2819
v 0.5614 0.0000 0.6301
vt 0.5559 0.2819
v 0.6114 0.0000 0.6303
vt 0.7890 0.2043
v 0.6114 0.0000 0.6303
vt 0.5559 0.2819
v 0.6114 0.0000 0.6303
vt 0.5546 0.2819
v 0.6160 0.0000 -0.6258
vt 0.7890 0.7957
v 0.6160 0.0000 -0.6258
vt 0.5546 0.2819
v 0.6160 0.0000 -0.6258
vt 0.5542 0.2819
v 0.5661 0.0000 -0.6260
vt 0.7654 0.7957
v 0.5661 0.0000 -0.6260
vt 0.5559 0.2819
v 0.5661 0.0000 -0.6260
vt 0.5542 0.2819
v 0.6116 0.0000 0.5788
vt 0.7890 0.2285
v 0.6116 0.0000 0.5788
vt 0.5546 0.2819
v 0.6116 0.0000 0.5788
vt 0.5545 0.2819
v 0.5616 0.0000 0.5787
vt 0.7654 0.2285
v 0.5616 0.0000 0.5787
vt 0.5559 0.2819
v 0.5616 0.0000 0.5787
vt 0.5545 0.2819
v 0.5659 0.0000 -0.5745
vt 0.7654 0.7715
v 0.5659 0.0000 -0.5745
vt 0.5559 0.2819
v 0.5659 0.0000 -0.5745
vt 0.5556 0.2819
v 0.6158 0.0000 -0.5743
vt 0.7890 0.7715
v 0.6158 0.0000 -0.5743
vt 0.5556 0.2819
v 0.6158 0.0000 -0.5743
vt 0.5546 0.2819
v -0.6268 0.1240 0.6368
vt 0.0009 0.0146
v -0.6268 0.1240 0.6368
vt 0.5558 0.2786
v -0.6268 0.1240 0.6368
vt 0.5562 0.2786
v -0.6268 0.1240 0.6368
vt 0.5575 0.0005
v -0.6268 2.1240 0.6368
vt 0.5506 0.0009
v -0.6268 2.1240 0.6368
vt 0.0009 0.9996
v -0.6268 2.1240 0.6368
vt 0.5575 0.9998
v -0.6221 0.1240 -0.6414
vt 0.5572 0.0020
v -0.6221 0.1240 -0.6414
vt 0.5558 0.2786
v -0.6221 0.1240 -0.6414
vt 0.5539 0.2786
v -0.6221 0.1240 -0.6414
vt 1.0006 0.0005
v -0.6221 2.1240 -0.6414
vt 0.5506 0.2888
v -0.6221 2.1240 -0.6414
vt 0.5572 0.9988
v -0.6221 2.1240 -0.6414
vt 1.0006 0.9998
v -0.5506 2.1240 -0.6412
vt 0.5668 0.2888
v -0.5506 2.1240 -0.6412
vt 0.5808 0.9988
v -0.5553 0.1240 0.6371
vt 0.2396 0.1991
v -0.5553 0.1240 0.6371
vt 0.5562 0.2786
v -0.5553 0.1240 0.6371
vt 0.0326 0.0146
v -0.5553 0.1240 0.6371
vt 0.5539 0.2786
v -0.5506 0.1240 -0.6412
vt 0.2396 0.8009
v -0.5506 0.1240 -0.6412
vt 0.5808 0.0020
v -0.5506 0.1240 -0.6412
vt 0.5539 0.2786
v -0.5506 0.1240 -0.6412
vt 0.5539 0.2786
v -0.5553 2.1240 0.6371
vt 0.5668 0.0009
v -0.5553 2.1240 0.6371
vt 0.0326 0.9996
v -0.6266 0.1240 0.5632
vt 0.2060 0.2338
v -0.6266 0.1240 0.5632
vt 0.5558 0.2786
v -0.6266 0.1240 0.5632
vt 0.5542 0.2786
v -0.6266 0.1240 0.5632
vt 0.5830 0.0005
v -0.6224 0.1240 -0.5678
vt 0.2060 0.7662
v -0.6224 0.1240 -0.5678
vt 0.5558 0.2786
v -0.6224 0.1240 -0.5678
vt 0.5559 0.2786
v -0.6224 0.1240 -0.5678
vt 0.9750 0.0005
v -0.6266 2.1240 0.5632
vt 0.5506 0.0176
v -0.6266 2.1240 0.5632
vt 0.5830 0.9998
v -0.6224 2.1240 -0.5678
vt 0.5506 0.2741
v -0.6224 2.1240 -0.5678
vt 0.5506 0.2731
v -0.6224 2.1240 -0.5678
vt 0.9750 0.9998
v -0.5509 2.1240 -0.5675
vt 0.5668 0.2741
v -0.5509 2.1240 -0.5675
vt 0.5668 0.2731
v -0.5551 2.1240 0.5635
vt 0.5668 0.0176
v -0.5509 0.1240 -0.5675
vt 0.2396 0.7662
v -0.5509 0.1240 -0.5675
vt 0.5559 0.2786
v -0.5509 0.1240 -0.5675
vt 0.5539 0.2786
v -0.5551 0.1240 0.5635
vt 0.2396 0.2338
v -0.5551 0.1240 0.5635
vt 0.5539 0.2786
v -0.5551 0.1240 0.5635
vt 0.5542 0.2786
v -0.5661 0.0000 0.6260
vt 0.2346 0.2043
v -0.5661 0.0000 0.6260
vt 0.5559 0.2819
v -0.5661 0.0000 0.6260
vt 0.5542 0.2819
v -0.6160 0.0000 0.6258
vt 0.2110 0.2043
v -0.6160 0.0000 0.6258
vt 0.5555 0.2819
v -0.6160 0.0000 0.6258
vt 0.5559 0.2819
v -0.6114 0.0000 -0.6303
vt 0.2110 0.7957
v -0.6114 0.0000 -0.6303
vt 0.5555 0.2819
v -0.6114 0.0000 -0.6303
vt 0.5542 0.2819
v -0.5614 0.0000 -0.6301
vt 0.2346 0.7957
v -0.5614 0.0000 -0.6301
vt 0.5542 0.2819
v -0.5614 0.0000 -0.6301
vt 0.5542 0.2819
v -0.6158 0.0000 0.5743
vt 0.2110 0.2285
v -0.6158 0.0000 0.5743
vt 0.5555 0.2819
v -0.6158 0.0000 0.5743
vt 0.5545 0.2819
v -0.5659 0.0000 0.5745
vt 0.2346 0.2285
v -0.5659 0.0000 0.5745
vt 0.5542 0.2819
v -0.5659 0.0000 0.5745
vt 0.5545 0.2819
v -0.5616 0.0000 -0.5787
vt 0.2346 0.7715
v -0.5616 0.0000 -0.5787
vt 0.5556 0.2819
v -0.5616 0.0000 -0.5787
vt 0.5542 0.2819
v -0.6116 0.0000 -0.5788
vt 0.2110 0.7715
v -0.6116 0.0000 -0.5788
vt 0.5555 0.2819
v -0.6116 0.0000 -0.5788
vt 0.5556 0.2819
v 0.6268 2.0064 -0.6368
vt 0.9988 0.9387
v 0.6268 2.0064 -0.6368
vt 0.9983 0.9442
v 0.6221 2.0064 0.6414
vt 0.5544 0.9442
v 0.6221 2.0064 0.6414
vt 0.5601 0.9456
v 0.6221 2.0064 0.6414
vt 0.5617 0.9417
v 0.3082 2.0137 0.6403
vt 0.4236 0.9417
v 0.3082 2.0137 0.6403
vt 0.4208 0.9492
v 0.3082 2.0137 0.6403
vt 0.4227 0.9427
v 0.3082 2.0137 0.6403
vt 0.4236 0.9492
v 0.3082 2.0137 0.6403
vt 0.4254 0.9461
v 0.0024 2.0064 -0.6391
vt 0.7775 0.9387
v 0.6029 2.0125 0.6414
vt 0.5516 0.9486
v 0.6029 2.0125 0.6414
vt 0.5516 0.9486
v 0.6029 2.0125 0.6414
vt 0.5559 0.9447
v 0.6029 2.0125 0.6414
vt 0.5556 0.2402
v 0.6029 2.0125 0.6414
vt 0.5579 0.4787
v 0.5553 2.0064 -0.6371
vt 0.9605 0.9387
v 0.6224 2.0064 0.5678
vt 0.5797 0.9442
v 0.6266 2.0064 -0.5632
vt 0.9729 0.9442
v -0.6221 2.0064 -0.6414
vt 0.5572 0.9387
v -0.6221 2.0064 -0.6414
vt 1.0006 0.9432
v -0.6268 2.0147 0.6368
vt 0.0009 0.9458
v -0.6268 2.0147 0.6368
vt 0.0009 0.9497
v -0.6268 2.0147 0.6368
vt 0.5575 0.9472
v -0.4721 2.0139 0.6374
vt 0.0696 0.9454
v -0.4721 2.0139 0.6374
vt 0.0703 0.9417
v -0.4721 2.0139 0.6374
vt 0.0696 0.9454
v -0.4721 2.0139 0.6374
vt 0.0696 0.9493
v -0.4721 2.0139 0.6374
vt 0.0703 0.9493
v -0.5506 2.0064 -0.6412
vt 0.5808 0.9387
v -0.6266 2.0064 0.5632
vt 0.5830 0.9432
v -0.6224 2.0064 -0.5678
vt 0.9750 0.9432
v 0.6268 0.6789 -0.6368
vt 0.9988 0.2865
v 0.6268 0.6789 -0.6368
vt 0.9983 0.2908
v 0.6221 0.6789 0.6414
vt 0.5544 0.2908
v 0.6221 0.6789 0.6414
vt 0.5601 0.2879
v 0.3082 0.6789 0.6403
vt 0.4236 0.2879
v 0.3082 0.6789 0.6403
vt 0.4208 0.2879
v 0.3082 0.6789 0.6403
vt 0.4236 0.2879
v 0.3082 0.6789 0.6403
vt 0.4208 0.2879
v 0.0024 0.6789 -0.6391
vt 0.7775 0.2865
v 0.6029 0.6789 0.6414
vt 0.5516 0.2879
v 0.6029 0.6789 0.6414
vt 0.5516 0.2879
v 0.5553 0.6789 -0.6371
vt 0.9605 0.2865
v 0.6224 0.6789 0.5678
vt 0.5797 0.2908
v -0.6221 0.6789 -0.6414
vt 0.5572 0.2865
v -0.6221 0.6789 -0.6414
vt 1.0006 0.2897
v -0.6268 0.6789 0.6368
vt 0.0009 0.2879
v -0.6268 0.6789 0.6368
vt 0.5575 0.2897
v -0.4721 0.6789 0.6374
vt 0.0703 0.2879
v -0.4721 0.6789 0.6374
vt 0.0696 0.2879
v -0.4721 0.6789 0.6374
vt 0.0696 0.2879
v -0.4721 0.6789 0.6374
vt 0.0696 0.2879
v -0.4721 0.6789 0.6374
vt 0.0703 0.2879
v -0.5506 0.6789 -0.6412
vt 0.5808 0.2865
v -0.6266 0.6789 0.5632
vt 0.5830 0.2897
v 0.6266 0.6789 -0.5632
vt 0.9729 0.2908
v -0.6224 0.6789 -0.5678
vt 0.9750 0.2897
v 0.6266 1.2560 -0.5632
vt 0.9729 0.5657
v -0.6224 1.2560 -0.5678
vt 0.9750 0.5821
v 0.6268 1.2560 -0.6368
vt 0.9988 0.5749
v 0.6268 1.2560 -0.6368
vt 0.9983 0.5657
v 0.6221 1.2560 0.6414
vt 0.5544 0.5657
v 0.6221 1.2560 0.6414
vt 0.5601 0.5721
v 0.6221 1.2560 0.6414
vt 0.5617 0.5721
v 0.3082 1.2560 0.6403
vt 0.4222 0.5721
v 0.3082 1.2560 0.6403
vt 0.4222 0.5721
v 0.3082 1.2560 0.6403
vt 0.4222 0.5721
v 0.3082 1.2560 0.6403
vt 0.4237 0.5747
v 0.3082 1.2560 0.6403
vt 0.4222 0.5721
v 0.3082 1.2560 0.6403
vt 0.4268 0.5729
v 0.0024 1.2560 -0.6391
vt 0.7775 0.5749
v 0.6029 1.2560 0.6414
vt 0.5556 0.2402
v 0.6029 1.2560 0.6414
vt 0.5516 0.5721
v 0.6029 1.2560 0.6414
vt 0.5559 0.5721
v 0.6029 1.2560 0.6414
vt 0.5589 0.2695
v 0.5553 1.2560 -0.6371
vt 0.9605 0.5749
v 0.6224 1.2560 0.5678
vt 0.5797 0.5657
v -0.6221 1.2560 -0.6414
vt 0.5572 0.5749
v -0.6221 1.2560 -0.6414
vt 1.0006 0.5821
v -0.6268 1.2560 0.6368
vt 0.0009 0.5721
v -0.6268 1.2560 0.6368
vt 0.5575 0.5821
v -0.4721 1.2560 0.6374
vt 0.0699 0.5721
v -0.4721 1.2560 0.6374
vt 0.0699 0.5721
v -0.4721 1.2560 0.6374
vt 0.0699 0.5721
v -0.4721 1.2560 0.6374
vt 0.0699 0.5721
v -0.5506 1.2560 -0.6412
vt 0.5808 0.5749
v -0.6266 1.2560 0.5632
vt 0.5830 0.5821
v 0.3083 2.0064 0.6214
vt 0.4236 0.9417
v 0.3083 2.0064 0.6214
vt 0.4236 0.9417
v 0.3083 2.0064 0.6214
vt 0.4255 0.9425
v -0.4721 2.0064 0.6185
vt 0.0696 0.9417
v -0.4721 2.0064 0.6185
vt 0.0703 0.9417
v -0.4721 2.0064 0.6185
vt 0.0703 0.9417
v 0.3083 1.2650 0.6214
vt 0.4222 0.5721
v 0.3083 1.2650 0.6214
vt 0.4222 0.5765
v 0.3083 1.2650 0.6214
vt 0.4268 0.5773
v -0.4721 1.2650 0.6185
vt 0.0699 0.5765
v -0.4721 1.2650 0.6185
vt 0.0699 0.5721
v -0.4721 1.2650 0.6185
vt 0.0699 0.5765
v 0.3083 1.2474 0.6297
vt 0.4222 0.5721
v 0.3083 1.2474 0.6297
vt 0.4222 0.5679
v 0.3083 1.2474 0.6297
vt 0.4222 0.5679
v 0.3083 0.6789 0.6297
vt 0.4236 0.2879
v 0.3083 0.6789 0.6297
vt 0.4236 0.2879
v 0.3083 0.6789 0.6297
vt 0.4208 0.2879
v -0.4721 1.2474 0.6268
vt 0.0699 0.5679
v -0.4721 1.2474 0.6268
vt 0.0699 0.5721
v -0.4721 1.2474 0.6268
vt 0.0699 0.5679
v -0.4721 0.6789 0.6268
vt 0.0703 0.2879
v -0.4721 0.6789 0.6268
vt 0.0696 0.2879
v -0.4721 0.6789 0.6268
vt 0.0703 0.2879
v 0.2832 0.1240 -0.6381
vt 0.6322 0.8009
v 0.2832 0.1240 -0.6381
vt 0.6322 0.8009
v 0.2832 0.1240 -0.6381
vt 0.8704 0.0020
v 0.2832 0.1240 -0.6381
vt 0.8704 0.0020
v 0.2785 2.1240 0.6402
vt 0.8253 0.0009
v 0.2785 2.1240 0.6402
vt 0.8253 0.0009
v 0.2785 2.1240 0.6402
vt 0.4076 0.9996
v 0.2785 2.1240 0.6402
vt 0.4076 0.9996
v 0.2832 2.1240 -0.6381
vt 0.8253 0.2888
v 0.2832 2.1240 -0.6381
vt 0.8253 0.2888
v 0.2832 2.1240 -0.6381
vt 0.8704 0.9988
v 0.2832 2.1240 -0.6381
vt 0.8704 0.9988
v 0.2785 0.1240 0.6402
vt 0.6322 0.1991
v 0.2785 0.1240 0.6402
vt 0.6322 0.1991
v 0.2785 0.1240 0.6402
vt 0.4076 0.0146
v 0.2785 0.1240 0.6402
vt 0.4076 0.0146
v 0.2788 0.1240 0.5665
vt 0.6322 0.2338
v 0.2788 0.1240 0.5665
vt 0.6322 0.2338
v 0.2788 0.1240 0.5665
vt 0.6322 0.2338
v 0.2829 0.1240 -0.5645
vt 0.6322 0.7662
v 0.2829 0.1240 -0.5645
vt 0.6322 0.7662
v 0.2788 2.1240 0.5665
vt 0.8253 0.0176
v 0.2788 2.1240 0.5665
vt 0.8253 0.0176
v 0.2788 2.1240 0.5665
vt 0.8253 0.0176
v 0.2829 2.1240 -0.5645
vt 0.8253 0.2731
v 0.2829 2.1240 -0.5645
vt 0.8253 0.2741
v 0.2829 2.1240 -0.5645
vt 0.8253 0.2731
v 0.2829 2.1240 -0.5645
vt 0.8253 0.2741
v 0.2832 2.0064 -0.6381
vt 0.8704 0.9387
v 0.2832 2.0064 -0.6381
vt 0.8704 0.9387
v 0.2832 2.0064 -0.6381
vt 0.8704 0.9387
v 0.3308 2.0135 0.6404
vt 0.5559 0.4889
v 0.3308 2.0135 0.6404
vt 0.4293 0.9426
v 0.3308 2.0135 0.6404
vt 0.4308 0.9491
v 0.3308 2.0135 0.6404
vt 0.4308 0.9491
v 0.3308 2.0135 0.6404
vt 0.5542 0.4397
v 0.3308 0.6789 0.6404
vt 0.4308 0.2879
v 0.3308 0.6789 0.6404
vt 0.4308 0.2879
v 0.3308 0.6789 0.6404
vt 0.4312 0.2879
v 0.2832 0.6789 -0.6381
vt 0.8704 0.2865
v 0.2832 0.6789 -0.6381
vt 0.8704 0.2865
v 0.2832 0.6789 -0.6381
vt 0.8704 0.2865
v 0.3308 1.2560 0.6404
vt 0.5570 0.2571
v 0.3308 1.2560 0.6404
vt 0.5546 0.4397
v 0.3308 1.2560 0.6404
vt 0.4302 0.5747
v 0.3308 1.2560 0.6404
vt 0.4318 0.5721
v 0.3308 1.2560 0.6404
vt 0.4321 0.5721
v 0.2832 1.2560 -0.6381
vt 0.8704 0.5749
v 0.2832 1.2560 -0.6381
vt 0.8704 0.5749
v 0.2832 1.2560 -0.6381
vt 0.8704 0.5749
v 0.5996 2.0032 0.6314
vt 0.5501 0.9401
v 0.5996 2.0032 0.6314
vt 0.5629 0.2427
v 0.5996 2.0032 0.6314
vt 0.5607 0.4761
v 0.5996 1.2653 0.6314
vt 0.5629 0.2427
v 0.5996 1.2653 0.6314
vt 0.5501 0.5767
v 0.5996 1.2653 0.6314
vt 0.5616 0.2721
v 0.3342 2.0032 0.6304
vt 0.5589 0.4858
v 0.3342 2.0032 0.6304
vt 0.4326 0.9401
v 0.3342 2.0032 0.6304
vt 0.5619 0.4372
v 0.3342 1.2653 0.6304
vt 0.5600 0.2600
v 0.3342 1.2653 0.6304
vt 0.5619 0.4372
v 0.3342 1.2653 0.6304
vt 0.4333 0.5767
f 174/174 24/24 13/13
f 174/174 13/13 158/158
f 31/31 9/9 69/69
f 31/31 69/69 72/72
f 175/175 44/44 6/6
f 175/175 6/6 160/160
f 304/304 276/276 22/22
f 304/304 22/22 164/164
f 279/279 17/17 49/49
f 279/279 49/49 295/295
f 288/288 59/59 25/25
f 288/288 25/25 283/283
f 43/43 55/55 33/33
f 43/43 33/33 5/5
f 28/28 61/61 79/79
f 28/28 79/79 64/64
f 293/293 48/48 21/21
f 293/293 21/21 274/274
f 12/12 23/23 53/53
f 12/12 53/53 45/45
f 161/161 7/7 34/34
f 161/161 34/34 169/169
f 271/271 29/29 56/56
f 271/271 56/56 290/290
f 299/299 280/280 24/24
f 299/299 24/24 174/174
f 55/55 43/43 46/46
f 55/55 46/46 54/54
f 287/287 52/52 51/51
f 287/287 51/51 289/289
f 202/202 38/38 41/41
f 202/202 41/41 214/214
f 291/291 55/55 54/54
f 291/291 54/54 294/294
f 35/35 59/59 56/56
f 35/35 56/56 39/39
f 159/159 14/14 47/47
f 159/159 47/47 176/176
f 71/71 68/68 83/83
f 71/71 83/83 80/80
f 77/77 74/74 65/65
f 77/77 65/65 62/62
f 10/10 40/40 84/84
f 10/10 84/84 70/70
f 60/60 36/36 75/75
f 60/60 75/75 78/78
f 58/58 32/32 73/73
f 58/58 73/73 82/82
f 37/37 1/1 66/66
f 37/37 66/66 76/76
f 42/42 57/57 81/81
f 42/42 81/81 85/85
f 4/4 27/27 63/63
f 4/4 63/63 67/67
f 187/187 177/177 98/98
f 187/187 98/98 101/101
f 108/108 144/144 141/141
f 108/108 141/141 94/94
f 188/188 181/181 92/92
f 188/188 92/92 121/121
f 186/186 166/166 22/22
f 186/186 22/22 111/111
f 100/100 125/125 49/49
f 100/100 49/49 17/17
f 52/52 19/19 102/102
f 52/52 102/102 131/131
f 120/120 90/90 110/110
f 120/120 110/110 127/127
f 103/103 135/135 151/151
f 103/103 151/151 133/133
f 127/127 110/110 21/21
f 127/127 21/21 48/48
f 97/97 122/122 125/125
f 97/97 125/125 100/100
f 180/180 185/185 111/111
f 180/180 111/111 91/91
f 15/15 51/51 128/128
f 15/15 128/128 106/106
f 168/168 187/187 101/101
f 168/168 101/101 18/18
f 127/127 126/126 123/123
f 127/127 123/123 120/120
f 131/131 128/128 51/51
f 131/131 51/51 52/52
f 213/213 215/215 119/119
f 213/213 119/119 115/115
f 48/48 50/50 126/126
f 48/48 126/126 127/127
f 112/112 116/116 128/128
f 112/112 128/128 131/131
f 178/178 189/189 124/124
f 178/178 124/124 99/99
f 143/143 152/152 155/155
f 143/143 155/155 140/140
f 149/149 134/134 137/137
f 149/149 137/137 146/146
f 95/95 142/142 157/157
f 95/95 157/157 118/118
f 132/132 150/150 147/147
f 132/132 147/147 113/113
f 129/129 153/153 145/145
f 129/129 145/145 109/109
f 114/114 148/148 139/139
f 114/114 139/139 88/88
f 117/117 156/156 154/154
f 117/117 154/154 130/130
f 87/87 138/138 136/136
f 87/87 136/136 105/105
f 237/237 217/217 189/189
f 237/237 189/189 178/178
f 121/121 124/124 189/189
f 121/121 189/189 188/188
f 229/229 244/244 187/187
f 229/229 187/187 168/168
f 238/238 243/243 184/184
f 238/238 184/184 179/179
f 163/163 183/183 250/250
f 163/163 250/250 246/246
f 245/245 239/239 181/181
f 245/245 181/181 188/188
f 244/244 236/236 177/177
f 244/244 177/177 187/187
f 219/219 159/159 176/176
f 219/219 176/176 216/216
f 44/44 175/175 176/176
f 44/44 176/176 47/47
f 317/317 300/300 174/174
f 317/317 174/174 234/234
f 222/222 162/162 171/171
f 222/222 171/171 232/232
f 314/314 302/302 165/165
f 314/314 165/165 226/226
f 235/235 175/175 160/160
f 235/235 160/160 220/220
f 234/234 174/174 158/158
f 234/234 158/158 218/218
f 30/30 201/201 190/190
f 30/30 190/190 8/8
f 38/38 202/202 192/192
f 38/38 192/192 2/2
f 284/284 306/306 195/195
f 284/284 195/195 20/20
f 3/3 193/193 200/200
f 3/3 200/200 26/26
f 272/272 309/309 201/201
f 272/272 201/201 30/30
f 11/11 191/191 214/214
f 11/11 214/214 41/41
f 107/107 93/93 203/203
f 107/107 203/203 212/212
f 115/115 89/89 206/206
f 115/115 206/206 213/213
f 104/104 20/20 196/196
f 104/104 196/196 211/211
f 86/86 104/104 210/210
f 86/86 210/210 205/205
f 16/16 107/107 212/212
f 16/16 212/212 198/198
f 96/96 119/119 215/215
f 96/96 215/215 204/204
f 245/245 217/217 215/215
f 245/245 215/215 213/213
f 235/235 202/202 214/214
f 235/235 214/214 216/216
f 175/175 235/235 216/216
f 175/175 216/216 176/176
f 188/188 189/189 217/217
f 188/188 217/217 245/245
f 201/201 234/234 218/218
f 201/201 218/218 190/190
f 202/202 235/235 220/220
f 202/202 220/220 192/192
f 306/306 316/316 225/225
f 306/306 225/225 195/195
f 193/193 221/221 231/231
f 193/193 231/231 200/200
f 311/311 319/319 234/234
f 311/311 234/234 201/201
f 191/191 219/219 216/216
f 191/191 216/216 214/214
f 212/212 203/203 236/236
f 212/212 236/236 244/244
f 213/213 206/206 239/239
f 213/213 239/239 245/245
f 197/197 227/227 260/260
f 197/197 260/260 263/263
f 205/205 209/209 243/243
f 205/205 243/243 238/238
f 198/198 212/212 244/244
f 198/198 244/244 229/229
f 204/204 215/215 217/217
f 204/204 217/217 237/237
f 257/257 253/253 247/247
f 257/257 247/247 251/251
f 228/228 167/167 248/248
f 228/228 248/248 254/254
f 241/241 223/223 252/252
f 241/241 252/252 256/256
f 182/182 240/240 255/255
f 182/182 255/255 249/249
f 269/269 262/262 259/259
f 269/269 259/259 266/266
f 207/207 194/194 261/261
f 207/207 261/261 267/267
f 240/240 208/208 268/268
f 240/240 268/268 264/264
f 224/224 242/242 265/265
f 224/224 265/265 258/258
f 198/198 229/229 318/318
f 198/198 318/318 310/310
f 199/199 231/231 315/315
f 199/199 315/315 308/308
f 16/16 198/198 310/310
f 16/16 310/310 273/273
f 26/26 199/199 307/307
f 26/26 307/307 285/285
f 313/313 230/230 323/323
f 313/313 323/323 330/330
f 229/229 168/168 298/298
f 229/229 298/298 318/318
f 48/48 293/293 296/296
f 48/48 296/296 50/50
f 59/59 286/286 289/289
f 59/59 289/289 56/56
f 168/168 18/18 281/281
f 168/168 281/281 298/298
f 15/15 270/270 289/289
f 15/15 289/289 51/51
f 55/55 292/292 275/275
f 55/55 275/275 33/33
f 52/52 287/287 282/282
f 52/52 282/282 19/19
f 23/23 278/278 297/297
f 23/23 297/297 53/53
f 170/170 34/34 277/277
f 170/170 277/277 303/303
f 324/324 320/320 327/327
f 324/324 327/327 331/331
f 233/233 173/173 322/322
f 233/233 322/322 325/325
f 172/172 305/305 328/328
f 172/172 328/328 321/321
f 301/301 312/312 329/329
f 301/301 329/329 326/326
