v 0.3250 0.6537 -0.3085
vt 0.7716 0.2254
v 0.3250 0.6537 -0.3085
vt 0.1748 0.2254
v 0.3250 0.6537 -0.3085
vt 0.7386 0.2289
v 0.3250 0.6537 -0.3085
vt 0.1316 0.2289
v 0.3250 0.7722 -0.1752
vt 0.0621 0.2254
v 0.3250 0.7722 -0.1752
vt 0.6691 0.2254
v 0.3250 0.7722 -0.1752
vt 0.6702 0.1560
v 0.3250 0.7722 -0.1752
vt 0.2326 0.1162
v 0.3250 0.0701 -0.2762
vt 0.1495 0.2254
v 0.3250 0.0701 -0.2762
vt 0.1495 0.2254
v 0.3250 0.0701 -0.2762
vt 0.1165 0.1972
v 0.3250 0.0701 -0.2762
vt 0.1165 0.1972
v 0.3250 0.0137 -0.2193
vt 0.1101 0.2254
v 0.3250 0.0137 -0.2193
vt 0.7105 0.2254
v 0.3250 0.0137 -0.2193
vt 0.0770 0.1577
v 0.3250 0.0137 -0.2193
vt 0.1955 0.1736
v 0.3250 0.7722 0.2958
vt 0.2405 0.2254
v 0.3250 0.7722 0.2958
vt 0.2405 0.2254
v 0.3250 0.7722 0.2958
vt 0.2416 0.1560
v 0.3250 0.0114 0.2982
vt 0.2260 0.2254
v 0.3250 0.0114 0.2982
vt 0.2260 0.2254
v 0.3250 0.0114 0.2982
vt 0.6800 0.1736
v 0.3748 0.6537 -0.3085
vt 0.7716 0.1802
v 0.3748 0.6537 -0.3085
vt 0.1748 0.1802
v 0.3748 0.6537 -0.3085
vt 0.7386 0.2289
v 0.3748 0.6537 -0.3085
vt 0.1316 0.2289
v 0.3748 0.7722 -0.1752
vt 0.0621 0.1802
v 0.3748 0.7722 -0.1752
vt 0.6691 0.1802
v 0.3748 0.7722 -0.1752
vt 0.6702 0.1560
v 0.3748 0.7722 -0.1752
vt 0.2326 0.1162
v 0.3748 0.0701 -0.2762
vt 0.1495 0.1802
v 0.3748 0.0701 -0.2762
vt 0.1495 0.1802
v 0.3748 0.0701 -0.2762
vt 0.1165 0.1972
v 0.3748 0.0701 -0.2762
vt 0.1165 0.1972
v 0.3748 0.0137 -0.2193
vt 0.1101 0.1802
v 0.3748 0.0137 -0.2193
vt 0.7105 0.1802
v 0.3748 0.0137 -0.2193
vt 0.0770 0.1577
v 0.3748 0.0137 -0.2193
vt 0.1955 0.1736
v 0.3748 0.7722 0.2958
vt 0.2416 0.1560
v 0.3748 0.7722 0.2958
vt 0.2405 0.1802
v 0.3748 0.7722 0.2958
vt 0.2416 0.1560
v 0.3748 0.0114 0.2982
vt 0.6800 0.1736
v 0.3748 0.0114 0.2982
vt 0.2260 0.1802
v 0.3748 0.0114 0.2982
vt 0.6800 0.1736
v 0.3268 0.7884 -0.1842
vt 0.0703 0.2238
v 0.3268 0.7884 -0.1842
vt 0.6772 0.2238
v 0.3268 0.7884 -0.1842
vt 0.6784 0.1412
v 0.3268 0.7884 -0.1842
vt 0.2474 0.1244
v 0.3268 0.6686 -0.3222
vt 0.1958 0.2238
v 0.3268 0.6686 -0.3222
vt 0.7784 0.2238
v 0.3268 0.6686 -0.3222
vt 0.7453 0.2499
v 0.3268 0.6686 -0.3222
vt 0.1384 0.2499
v 0.3268 0.0684 -0.2904
vt 0.1547 0.2238
v 0.3268 0.0684 -0.2904
vt 0.7711 0.2238
v 0.3268 0.0684 -0.2904
vt 0.1217 0.2182
v 0.3268 0.0684 -0.2904
vt 0.1217 0.2182
v 0.3268 0.0000 -0.2220
vt 0.7088 0.2238
v 0.3268 0.0000 -0.2220
vt 0.7088 0.2238
v 0.3268 0.0000 -0.2220
vt 0.0594 0.1559
v 0.3268 0.0000 -0.2220
vt 0.1973 0.1560
v 0.3268 0.7884 0.3093
vt 0.2515 0.2238
v 0.3268 0.7884 0.3093
vt 0.2527 0.1412
v 0.3268 0.7884 0.3093
vt 0.2527 0.1412
v 0.3268 0.0000 0.3011
vt 0.6702 0.1560
v 0.3268 0.0000 0.3011
vt 0.2358 0.2238
v 0.3268 0.0000 0.3011
vt 0.6702 0.1560
v 0.3730 0.7884 -0.1842
vt 0.0703 0.1818
v 0.3730 0.7884 -0.1842
vt 0.6772 0.1818
v 0.3730 0.7884 -0.1842
vt 0.6784 0.1412
v 0.3730 0.7884 -0.1842
vt 0.2474 0.1244
v 0.3730 0.6686 -0.3222
vt 0.1958 0.1818
v 0.3730 0.6686 -0.3222
vt 0.7784 0.1818
v 0.3730 0.6686 -0.3222
vt 0.7453 0.2499
v 0.3730 0.6686 -0.3222
vt 0.1384 0.2499
v 0.3730 0.0684 -0.2904
vt 0.1547 0.1818
v 0.3730 0.0684 -0.2904
vt 0.7711 0.1818
v 0.3730 0.0684 -0.2904
vt 0.1217 0.2182
v 0.3730 0.0684 -0.2904
vt 0.1217 0.2182
v 0.3730 0.0000 -0.2220
vt 0.7088 0.1818
v 0.3730 0.0000 -0.2220
vt 0.7088 0.1818
v 0.3730 0.0000 -0.2220
vt 0.0594 0.1559
v 0.3730 0.0000 -0.2220
vt 0.1973 0.1560
v 0.3730 0.7884 0.3093
vt 0.2515 0.1818
v 0.3730 0.7884 0.3093
vt 0.2527 0.1412
v 0.3730 0.7884 0.3093
vt 0.2527 0.1412
v 0.3730 0.0000 0.3011
vt 0.6702 0.1560
v 0.3730 0.0000 0.3011
vt 0.2358 0.1818
v 0.3730 0.0000 0.3011
vt 0.6702 0.1560
v -0.0000 0.4089 0.2848
vt 0.2619 0.5361
v -0.0000 0.4089 0.2848
vt 0.2619 0.2734
v 0.3475 0.4089 0.2848
vt 0.4964 0.5361
v 0.3475 0.4089 0.2848
vt 0.4964 0.2734
v 0.3475 0.4089 0.2848
vt -0.0217 0.5361
v -0.0000 0.4089 -0.3509
vt 0.2619 0.5361
v -0.0000 0.4089 -0.3509
vt 0.2619 0.7025
v 0.3475 0.4089 -0.3509
vt 0.4964 0.5361
v 0.3475 0.4089 -0.3509
vt 0.4964 0.7025
v 0.3475 0.4089 -0.3509
vt 0.4074 0.5361
v 0.0000 0.4568 -0.3509
vt 0.2619 0.5684
v 0.0000 0.4568 -0.3509
vt 0.2619 0.7025
v 0.0000 0.4740 0.2848
vt 0.2619 0.5800
v 0.0000 0.4740 0.2848
vt 0.2619 0.2734
v 0.3475 0.4740 0.2848
vt 0.4964 0.5800
v 0.3475 0.4740 0.2848
vt 0.4964 0.2734
v 0.3475 0.4740 0.2848
vt -0.0217 0.5800
v 0.3475 0.4568 -0.3509
vt 0.4964 0.5684
v 0.3475 0.4568 -0.3509
vt 0.4964 0.7025
v 0.3475 0.4568 -0.3509
vt 0.4074 0.5684
v -0.0000 0.4273 0.2077
vt 0.2536 0.6109
v -0.0000 0.4273 0.2077
vt 0.2536 0.8783
v 0.3475 0.4273 0.2077
vt 0.4945 0.6109
v 0.3475 0.4273 0.2077
vt 0.4945 0.8783
v 0.3475 0.4273 0.2077
vt 0.3094 0.6109
v 0.0000 1.0096 0.3036
vt 0.2536 0.9822
v 0.0000 1.0096 0.3036
vt 0.2536 0.8171
v 0.3475 1.0096 0.3036
vt 0.4945 0.9822
v 0.3475 1.0096 0.3036
vt 0.4945 0.8171
v 0.3475 1.0096 0.3036
vt 0.2429 0.9822
v 0.0000 1.0138 0.3509
vt 0.2536 0.7870
v 0.0000 1.0138 0.3509
vt 0.2536 0.9848
v -0.0000 0.4314 0.2838
vt 0.2536 0.6136
v -0.0000 0.4314 0.2838
vt 0.2536 0.8298
v 0.3475 0.4314 0.2838
vt 0.4945 0.6136
v 0.3475 0.4314 0.2838
vt 0.4945 0.8298
v 0.3475 0.4314 0.2838
vt 0.2567 0.6136
v 0.3475 1.0138 0.3509
vt 0.4945 0.7870
v 0.3475 1.0138 0.3509
vt 0.4945 0.9848
v 0.3475 1.0138 0.3509
vt 0.2101 0.9848
v -0.0000 0.0031 0.1340
vt 0.5298 0.2259
v -0.0000 0.0031 0.1340
vt 0.5118 0.1602
v -0.0000 0.0031 0.1637
vt 0.5298 0.2259
v -0.0000 0.0031 0.1637
vt 0.5118 0.1873
v 0.3475 0.0031 0.1637
vt 0.2136 0.2259
v 0.3475 0.0031 0.1637
vt 0.1956 0.1873
v 0.3475 0.0031 0.1637
vt 0.1078 0.2259
v 0.3475 0.0031 0.1340
vt 0.2136 0.2259
v 0.3475 0.0031 0.1340
vt 0.1956 0.1602
v 0.3475 0.0031 0.1340
vt 0.1349 0.2259
v -0.0000 0.0095 0.1637
vt 0.5298 0.2200
v -0.0000 0.0095 0.1637
vt 0.5118 0.1873
v -0.0000 0.0095 0.1340
vt 0.5298 0.2200
v -0.0000 0.0095 0.1340
vt 0.5118 0.1602
v 0.3475 0.0095 0.1637
vt 0.2136 0.2200
v 0.3475 0.0095 0.1637
vt 0.1956 0.1873
v 0.3475 0.0095 0.1637
vt 0.1078 0.2200
v 0.3475 0.0095 0.1340
vt 0.2136 0.2200
v 0.3475 0.0095 0.1340
vt 0.1956 0.1602
v 0.3475 0.0095 0.1340
vt 0.1349 0.2200
v 0.0000 0.9620 0.2647
vt 0.2536 0.9518
v 0.0000 0.9620 0.2647
vt 0.2536 0.9518
v 0.3475 0.9620 0.2647
vt 0.4945 0.9518
v 0.3475 0.9620 0.2647
vt 0.4945 0.9518
v 0.3475 0.9620 0.2647
vt 0.2699 0.9518
v 0.0000 0.7226 0.3173
vt 0.2536 0.7992
v 0.3475 0.7226 0.3173
vt 0.4945 0.7992
v 0.3475 0.7226 0.3173
vt 0.2334 0.7992
v -0.0000 0.4089 -0.3059
vt 0.2619 0.6721
v 0.3475 0.4089 -0.3059
vt 0.4964 0.6721
v 0.3475 0.4089 -0.3059
vt 0.3770 0.5361
v 0.0000 0.4802 -0.3059
vt 0.2619 0.6721
v 0.0000 0.4802 -0.3059
vt 0.2619 0.6721
v 0.3475 0.4802 -0.3059
vt 0.4964 0.6721
v 0.3475 0.4802 -0.3059
vt 0.4964 0.6721
v 0.3475 0.4802 -0.3059
vt 0.3770 0.5842
v 0.3273 0.7872 -0.1828
vt 0.9072 0.6816
v 0.3273 0.7872 -0.1828
vt 0.9072 0.6816
v 0.3273 0.7872 -0.1828
vt 0.0933 0.6452
v 0.3273 0.7872 0.2156
vt 0.2949 0.6452
v 0.3273 0.7872 0.2156
vt 0.0911 0.6816
v 0.3273 0.7872 0.2156
vt 0.9094 0.6452
v 0.3721 0.7872 -0.1828
vt 0.9072 0.6053
v 0.3721 0.7872 -0.1828
vt 0.9072 0.6053
v 0.3721 0.7872 -0.1828
vt 0.1117 0.6089
v 0.3721 0.7872 0.2156
vt 0.3712 0.6452
v 0.3721 0.7872 0.2156
vt 0.0911 0.6053
v 0.3721 0.7872 0.2156
vt 0.9277 0.6089
v 0.3273 0.7938 0.2156
vt 0.2949 0.6565
v 0.3273 0.7938 0.2156
vt 0.0911 0.6816
v 0.3273 0.7938 0.2156
vt 0.9094 0.6565
v 0.3273 0.7938 -0.1828
vt 0.9072 0.6816
v 0.3273 0.7938 -0.1828
vt 0.9072 0.6816
v 0.3273 0.7938 -0.1828
vt 0.0933 0.6565
v 0.3721 0.7938 0.2156
vt 0.3712 0.6565
v 0.3721 0.7938 0.2156
vt 0.0911 0.6053
v 0.3721 0.7938 0.2156
vt 0.9277 0.6202
v 0.3721 0.7938 -0.1828
vt 0.9072 0.6053
v 0.3721 0.7938 -0.1828
vt 0.9072 0.6053
v 0.3721 0.7938 -0.1828
vt 0.1117 0.6202
v 0.3721 0.7800 -0.1906
vt 0.6536 0.6053
v 0.3721 0.7800 -0.1906
vt 0.9205 0.6053
v 0.3721 0.7800 -0.1906
vt 0.0984 0.5966
v 0.3273 0.7800 -0.1906
vt 0.6536 0.6816
v 0.3273 0.7800 -0.1906
vt 0.9205 0.6816
v 0.3273 0.7800 -0.1906
vt 0.0801 0.6328
v 0.3721 0.7851 -0.1949
vt 0.9277 0.6053
v 0.3721 0.7851 -0.1949
vt 0.6622 0.6053
v 0.3721 0.7851 -0.1949
vt 0.0911 0.6053
v 0.3273 0.7851 -0.1949
vt 0.9277 0.6816
v 0.3273 0.7851 -0.1949
vt 0.6622 0.6816
v 0.3273 0.7851 -0.1949
vt 0.0728 0.6415
v -0.3250 0.6537 -0.3085
vt 0.7716 0.2254
v -0.3250 0.6537 -0.3085
vt 0.1748 0.2254
v -0.3250 0.6537 -0.3085
vt 0.7386 0.2289
v -0.3250 0.6537 -0.3085
vt 0.1316 0.2289
v -0.3250 0.7722 -0.1752
vt 0.0621 0.2254
v -0.3250 0.7722 -0.1752
vt 0.6691 0.2254
v -0.3250 0.7722 -0.1752
vt 0.6702 0.1560
v -0.3250 0.7722 -0.1752
vt 0.2326 0.1162
v -0.3250 0.0701 -0.2762
vt 0.1495 0.2254
v -0.3250 0.0701 -0.2762
vt 0.1495 0.2254
v -0.3250 0.0701 -0.2762
vt 0.1165 0.1972
v -0.3250 0.0701 -0.2762
vt 0.1165 0.1972
v -0.3250 0.0137 -0.2193
vt 0.1101 0.2254
v -0.3250 0.0137 -0.2193
vt 0.7105 0.2254
v -0.3250 0.0137 -0.2193
vt 0.0770 0.1577
v -0.3250 0.0137 -0.2193
vt 0.1955 0.1736
v -0.3250 0.7722 0.2958
vt 0.2405 0.2254
v -0.3250 0.7722 0.2958
vt 0.2405 0.2254
v -0.3250 0.7722 0.2958
vt 0.2416 0.1560
v -0.3250 0.0114 0.2982
vt 0.2260 0.2254
v -0.3250 0.0114 0.2982
vt 0.2260 0.2254
v -0.3250 0.0114 0.2982
vt 0.6800 0.1736
v -0.3748 0.6537 -0.3085
vt 0.7716 0.1802
v -0.3748 0.6537 -0.3085
vt 0.1748 0.1802
v -0.3748 0.6537 -0.3085
vt 0.7386 0.2289
v -0.3748 0.6537 -0.3085
vt 0.1316 0.2289
v -0.3748 0.7722 -0.1752
vt 0.0621 0.1802
v -0.3748 0.7722 -0.1752
vt 0.6691 0.1802
v -0.3748 0.7722 -0.1752
vt 0.6702 0.1560
v -0.3748 0.7722 -0.1752
vt 0.2326 0.1162
v -0.3748 0.0701 -0.2762
vt 0.1495 0.1802
v -0.3748 0.0701 -0.2762
vt 0.1495 0.1802
v -0.3748 0.0701 -0.2762
vt 0.1165 0.1972
v -0.3748 0.0701 -0.2762
vt 0.1165 0.1972
v -0.3748 0.0137 -0.2193
vt 0.1101 0.1802
v -0.3748 0.0137 -0.2193
vt 0.7105 0.1802
v -0.3748 0.0137 -0.2193
vt 0.0770 0.1577
v -0.3748 0.0137 -0.2193
vt 0.1955 0.1736
v -0.3748 0.7722 0.2958
vt 0.2416 0.1560
v -0.3748 0.7722 0.2958
vt 0.2405 0.1802
v -0.3748 0.7722 0.2958
vt 0.2416 0.1560
v -0.3748 0.0114 0.2982
vt 0.6800 0.1736
v -0.3748 0.0114 0.2982
vt 0.2260 0.1802
v -0.3748 0.0114 0.2982
vt 0.6800 0.1736
v -0.3268 0.7884 -0.1842
vt 0.0703 0.2238
v -0.3268 0.7884 -0.1842
vt 0.6772 0.2238
v -0.3268 0.7884 -0.1842
vt 0.6784 0.1412
v -0.3268 0.7884 -0.1842
vt 0.2474 0.1244
v -0.3268 0.6686 -0.3222
vt 0.1958 0.2238
v -0.3268 0.6686 -0.3222
vt 0.7784 0.2238
v -0.3268 0.6686 -0.3222
vt 0.7453 0.2499
v -0.3268 0.6686 -0.3222
vt 0.1384 0.2499
v -0.3268 0.0684 -0.2904
vt 0.1547 0.2238
v -0.3268 0.0684 -0.2904
vt 0.7711 0.2238
v -0.3268 0.0684 -0.2904
vt 0.1217 0.2182
v -0.3268 0.0684 -0.2904
vt 0.1217 0.2182
v -0.3268 0.0000 -0.2220
vt 0.7088 0.2238
v -0.3268 0.0000 -0.2220
vt 0.7088 0.2238
v -0.3268 0.0000 -0.2220
vt 0.0594 0.1559
v -0.3268 0.0000 -0.2220
vt 0.1973 0.1560
v -0.3268 0.7884 0.3093
vt 0.2515 0.2238
v -0.3268 0.7884 0.3093
vt 0.2527 0.1412
v -0.3268 0.7884 0.3093
vt 0.2527 0.1412
v -0.3268 0.0000 0.3011
vt 0.6702 0.1560
v -0.3268 0.0000 0.3011
vt 0.2358 0.2238
v -0.3268 0.0000 0.3011
vt 0.6702 0.1560
v -0.3730 0.7884 -0.1842
vt 0.0703 0.1818
v -0.3730 0.7884 -0.1842
vt 0.6772 0.1818
v -0.3730 0.7884 -0.1842
vt 0.6784 0.1412
v -0.3730 0.7884 -0.1842
vt 0.2474 0.1244
v -0.3730 0.6686 -0.3222
vt 0.1958 0.1818
v -0.3730 0.6686 -0.3222
vt 0.7784 0.1818
v -0.3730 0.6686 -0.3222
vt 0.7453 0.2499
v -0.3730 0.6686 -0.3222
vt 0.1384 0.2499
v -0.3730 0.0684 -0.2904
vt 0.1547 0.1818
v -0.3730 0.0684 -0.2904
vt 0.7711 0.1818
v -0.3730 0.0684 -0.2904
vt 0.1217 0.2182
v -0.3730 0.0684 -0.2904
vt 0.1217 0.2182
v -0.3730 0.0000 -0.2220
vt 0.7088 0.1818
v -0.3730 0.0000 -0.2220
vt 0.7088 0.1818
v -0.3730 0.0000 -0.2220
vt 0.0594 0.1559
v -0.3730 0.0000 -0.2220
vt 0.1973 0.1560
v -0.3730 0.7884 0.3093
vt 0.2515 0.1818
v -0.3730 0.7884 0.3093
vt 0.2527 0.1412
v -0.3730 0.7884 0.3093
vt 0.2527 0.1412
v -0.3730 0.0000 0.3011
vt 0.6702 0.1560
v -0.3730 0.0000 0.3011
vt 0.2358 0.1818
v -0.3730 0.0000 0.3011
vt 0.6702 0.1560
v -0.3475 0.4089 0.2848
vt 0.0274 0.5361
v -0.3475 0.4089 0.2848
vt 0.0274 0.2734
v -0.3475 0.4089 0.2848
vt -0.0217 0.5361
v -0.3475 0.4089 -0.3509
vt 0.0274 0.5361
v -0.3475 0.4089 -0.3509
vt 0.0274 0.7025
v -0.3475 0.4089 -0.3509
vt 0.4074 0.5361
v -0.3475 0.4740 0.2848
vt 0.0274 0.5800
v -0.3475 0.4740 0.2848
vt 0.0274 0.2734
v -0.3475 0.4740 0.2848
vt -0.0217 0.5800
v -0.3475 0.4568 -0.3509
vt 0.0274 0.5684
v -0.3475 0.4568 -0.3509
vt 0.0274 0.7025
v -0.3475 0.4568 -0.3509
vt 0.4074 0.5684
v -0.3475 0.4273 0.2077
vt 0.0127 0.6109
v -0.3475 0.4273 0.2077
vt 0.0127 0.8783
v -0.3475 0.4273 0.2077
vt 0.3094 0.6109
v -0.3475 1.0096 0.3036
vt 0.0127 0.9822
v -0.3475 1.0096 0.3036
vt 0.0127 0.8171
v -0.3475 1.0096 0.3036
vt 0.2429 0.9822
v -0.3475 0.4314 0.2838
vt 0.0127 0.6136
v -0.3475 0.4314 0.2838
vt 0.0127 0.8298
v -0.3475 0.4314 0.2838
vt 0.2567 0.6136
v -0.3475 1.0138 0.3509
vt 0.0127 0.7870
v -0.3475 1.0138 0.3509
vt 0.0127 0.9848
v -0.3475 1.0138 0.3509
vt 0.2101 0.9848
v -0.3475 0.0031 0.1637
vt 0.2136 0.2259
v -0.3475 0.0031 0.1637
vt 0.1956 0.1873
v -0.3475 0.0031 0.1637
vt 0.1078 0.2259
v -0.3475 0.0031 0.1340
vt 0.2136 0.2259
v -0.3475 0.0031 0.1340
vt 0.1956 0.1602
v -0.3475 0.0031 0.1340
vt 0.1349 0.2259
v -0.3475 0.0095 0.1637
vt 0.2136 0.2200
v -0.3475 0.0095 0.1637
vt 0.1956 0.1873
v -0.3475 0.0095 0.1637
vt 0.1078 0.2200
v -0.3475 0.0095 0.1340
vt 0.2136 0.2200
v -0.3475 0.0095 0.1340
vt 0.1956 0.1602
v -0.3475 0.0095 0.1340
vt 0.1349 0.2200
v -0.3475 0.9620 0.2647
vt 0.0127 0.9518
v -0.3475 0.9620 0.2647
vt 0.0127 0.9518
v -0.3475 0.9620 0.2647
vt 0.2699 0.9518
v -0.3475 0.7226 0.3173
vt 0.0127 0.7992
v -0.3475 0.7226 0.3173
vt 0.2334 0.7992
v -0.3475 0.4089 -0.3059
vt 0.0274 0.6721
v -0.3475 0.4089 -0.3059
vt 0.3770 0.5361
v -0.3475 0.4802 -0.3059
vt 0.0274 0.6721
v -0.3475 0.4802 -0.3059
vt 0.0274 0.6721
v -0.3475 0.4802 -0.3059
vt 0.3770 0.5842
v -0.3273 0.7872 -0.1828
vt 0.9072 0.6816
v -0.3273 0.7872 -0.1828
vt 0.9072 0.6816
v -0.3273 0.7872 -0.1828
vt 0.0933 0.6452
v -0.3273 0.7872 0.2156
vt 0.2949 0.6452
v -0.3273 0.7872 0.2156
vt 0.0911 0.6816
v -0.3273 0.7872 0.2156
vt 0.9094 0.6452
v -0.3721 0.7872 -0.1828
vt 0.9072 0.6053
v -0.3721 0.7872 -0.1828
vt 0.9072 0.6053
v -0.3721 0.7872 -0.1828
vt 0.1117 0.6089
v -0.3721 0.7872 0.2156
vt 0.3712 0.6452
v -0.3721 0.7872 0.2156
vt 0.0911 0.6053
v -0.3721 0.7872 0.2156
vt 0.9277 0.6089
v -0.3273 0.7938 0.2156
vt 0.2949 0.6565
v -0.3273 0.7938 0.2156
vt 0.0911 0.6816
v -0.3273 0.7938 0.2156
vt 0.9094 0.6565
v -0.3273 0.7938 -0.1828
vt 0.9072 0.6816
v -0.3273 0.7938 -0.1828
vt 0.9072 0.6816
v -0.3273 0.7938 -0.1828
vt 0.0933 0.6565
v -0.3721 0.7938 0.2156
vt 0.3712 0.6565
v -0.3721 0.7938 0.2156
vt 0.0911 0.6053
v -0.3721 0.7938 0.2156
vt 0.9277 0.6202
v -0.3721 0.7938 -0.1828
vt 0.9072 0.6053
v -0.3721 0.7938 -0.1828
vt 0.9072 0.6053
v -0.3721 0.7938 -0.1828
vt 0.1117 0.6202
v -0.3721 0.7800 -0.1906
vt 0.6536 0.6053
v -0.3721 0.7800 -0.1906
vt 0.9205 0.6053
v -0.3721 0.7800 -0.1906
vt 0.0984 0.5966
v -0.3273 0.7800 -0.1906
vt 0.6536 0.6816
v -0.3273 0.7800 -0.1906
vt 0.9205 0.6816
v -0.3273 0.7800 -0.1906
vt 0.0801 0.6328
v -0.3721 0.7851 -0.1949
vt 0.9277 0.6053
v -0.3721 0.7851 -0.1949
vt 0.6622 0.6053
v -0.3721 0.7851 -0.1949
vt 0.0911 0.6053
v -0.3273 0.7851 -0.1949
vt 0.9277 0.6816
v -0.3273 0.7851 -0.1949
vt 0.6622 0.6816
v -0.3273 0.7851 -0.1949
vt 0.0728 0.6415
f 14/14 21/21 43/43
f 14/14 43/43 36/36
f 10/10 13/13 35/35
f 10/10 35/35 32/32
f 54/54 76/76 79/79
f 54/54 79/79 57/57
f 45/45 67/67 71/71
f 45/45 71/71 49/49
f 58/58 80/80 87/87
f 58/58 87/87 65/65
f 50/50 72/72 75/75
f 50/50 75/75 53/53
f 61/61 83/83 68/68
f 61/61 68/68 46/46
f 8/8 48/48 52/52
f 8/8 52/52 4/4
f 3/3 51/51 56/56
f 3/3 56/56 12/12
f 11/11 55/55 59/59
f 11/11 59/59 15/15
f 19/19 63/63 47/47
f 19/19 47/47 7/7
f 16/16 60/60 66/66
f 16/16 66/66 22/22
f 26/26 74/74 70/70
f 26/26 70/70 30/30
f 34/34 78/78 73/73
f 34/34 73/73 25/25
f 37/37 81/81 77/77
f 37/37 77/77 33/33
f 29/29 69/69 85/85
f 29/29 85/85 41/41
f 44/44 88/88 82/82
f 44/44 82/82 38/38
f 18/18 6/6 28/28
f 18/18 28/28 40/40
f 5/5 2/2 24/24
f 5/5 24/24 27/27
f 1/1 9/9 31/31
f 1/1 31/31 23/23
f 157/157 95/95 97/97
f 157/157 97/97 158/158
f 160/160 162/162 107/107
f 160/160 107/107 100/100
f 159/159 98/98 108/108
f 159/159 108/108 164/164
f 96/96 94/94 99/99
f 96/96 99/99 106/106
f 89/89 91/91 103/103
f 89/89 103/103 101/101
f 150/150 114/114 116/116
f 150/150 116/116 152/152
f 154/154 155/155 127/127
f 154/154 127/127 120/120
f 153/153 118/118 128/128
f 153/153 128/128 156/156
f 117/117 115/115 119/119
f 117/117 119/119 126/126
f 110/110 112/112 124/124
f 110/110 124/124 122/122
f 132/132 130/130 137/137
f 132/132 137/137 134/134
f 140/140 144/144 147/147
f 140/140 147/147 142/142
f 135/135 138/138 148/148
f 135/135 148/148 145/145
f 136/136 129/129 141/141
f 136/136 141/141 146/146
f 131/131 133/133 143/143
f 131/131 143/143 139/139
f 113/113 153/153 156/156
f 113/113 156/156 125/125
f 121/121 123/123 155/155
f 121/121 155/155 154/154
f 109/109 149/149 151/151
f 109/109 151/151 111/111
f 93/93 159/159 164/164
f 93/93 164/164 105/105
f 102/102 104/104 163/163
f 102/102 163/163 161/161
f 90/90 157/157 158/158
f 90/90 158/158 92/92
f 84/84 62/62 17/17
f 84/84 17/17 39/39
f 86/86 42/42 20/20
f 86/86 20/20 64/64
f 169/169 166/166 172/172
f 169/169 172/172 175/175
f 178/178 184/184 187/187
f 178/178 187/187 181/181
f 186/186 195/195 198/198
f 186/186 198/198 180/180
f 170/170 179/179 182/182
f 170/170 182/182 167/167
f 174/174 183/183 177/177
f 174/174 177/177 168/168
f 173/173 188/188 185/185
f 173/173 185/185 176/176
f 192/192 199/199 196/196
f 192/192 196/196 189/189
f 165/165 193/193 190/190
f 165/165 190/190 171/171
f 182/182 200/200 194/194
f 182/182 194/194 167/167
f 173/173 191/191 197/197
f 173/173 197/197 188/188
f 214/214 236/236 243/243
f 214/214 243/243 221/221
f 210/210 232/232 235/235
f 210/210 235/235 213/213
f 254/254 257/257 279/279
f 254/254 279/279 276/276
f 245/245 249/249 271/271
f 245/245 271/271 267/267
f 258/258 265/265 287/287
f 258/258 287/287 280/280
f 250/250 253/253 275/275
f 250/250 275/275 272/272
f 261/261 246/246 268/268
f 261/261 268/268 283/283
f 208/208 204/204 252/252
f 208/208 252/252 248/248
f 203/203 212/212 256/256
f 203/203 256/256 251/251
f 211/211 215/215 259/259
f 211/211 259/259 255/255
f 219/219 207/207 247/247
f 219/219 247/247 263/263
f 216/216 222/222 266/266
f 216/216 266/266 260/260
f 226/226 230/230 270/270
f 226/226 270/270 274/274
f 234/234 225/225 273/273
f 234/234 273/273 278/278
f 237/237 233/233 277/277
f 237/237 277/277 281/281
f 229/229 241/241 285/285
f 229/229 285/285 269/269
f 244/244 238/238 282/282
f 244/244 282/282 288/288
f 218/218 240/240 228/228
f 218/218 228/228 206/206
f 205/205 227/227 224/224
f 205/205 224/224 202/202
f 201/201 223/223 231/231
f 201/201 231/231 209/209
f 157/157 330/330 293/293
f 157/157 293/293 95/95
f 160/160 100/100 299/299
f 160/160 299/299 332/332
f 331/331 334/334 300/300
f 331/331 300/300 294/294
f 292/292 298/298 99/99
f 292/292 99/99 94/94
f 89/89 101/101 295/295
f 89/89 295/295 289/289
f 150/150 326/326 304/304
f 150/150 304/304 114/114
f 154/154 120/120 311/311
f 154/154 311/311 328/328
f 327/327 329/329 312/312
f 327/327 312/312 306/306
f 305/305 310/310 119/119
f 305/305 119/119 115/115
f 110/110 122/122 308/308
f 110/110 308/308 302/302
f 132/132 314/314 317/317
f 132/132 317/317 130/130
f 140/140 142/142 323/323
f 140/140 323/323 320/320
f 315/315 321/321 324/324
f 315/315 324/324 318/318
f 316/316 322/322 141/141
f 316/316 141/141 129/129
f 131/131 139/139 319/319
f 131/131 319/319 313/313
f 303/303 309/309 329/329
f 303/303 329/329 327/327
f 121/121 154/154 328/328
f 121/121 328/328 307/307
f 109/109 301/301 325/325
f 109/109 325/325 149/149
f 291/291 297/297 334/334
f 291/291 334/334 331/331
f 102/102 161/161 333/333
f 102/102 333/333 296/296
f 90/90 290/290 330/330
f 90/90 330/330 157/157
f 284/284 239/239 217/217
f 284/284 217/217 262/262
f 286/286 264/264 220/220
f 286/286 220/220 242/242
f 339/339 345/345 342/342
f 339/339 342/342 336/336
f 348/348 351/351 357/357
f 348/348 357/357 354/354
f 356/356 350/350 368/368
f 356/356 368/368 365/365
f 340/340 337/337 352/352
f 340/340 352/352 349/349
f 344/344 338/338 347/347
f 344/344 347/347 353/353
f 343/343 346/346 355/355
f 343/343 355/355 358/358
f 362/362 359/359 366/366
f 362/362 366/366 369/369
f 335/335 341/341 360/360
f 335/335 360/360 363/363
f 352/352 337/337 364/364
f 352/352 364/364 370/370
f 343/343 358/358 367/367
f 343/343 367/367 361/361
