v -0.1664 0.0000 0.1664
vt 0.4742 0.7775
v -0.1664 0.0000 0.1664
vt 0.0000 0.0000
v -0.1664 0.0000 0.1664
vt 0.0792 0.7168
v -0.1664 0.0000 -0.1664
vt 0.0338 0.7228
v -0.1664 0.0000 -0.1664
vt 0.0000 1.0000
v -0.1664 0.0000 -0.1664
vt 0.4716 0.7168
v 0.1664 0.0000 -0.1664
vt 0.4690 0.7228
v 0.1664 0.0000 -0.1664
vt 1.0000 1.0000
v 0.1664 0.0000 -0.1664
vt 0.4542 0.6978
v -0.0295 0.0000 0.1664
vt 0.2713 0.7775
v -0.0295 0.0000 0.1664
vt 0.4114 0.0000
v -0.0295 0.0000 -0.1664
vt 0.2129 0.7228
v -0.0295 0.0000 -0.1664
vt 0.4114 1.0000
v -0.1664 0.0539 -0.1664
vt 0.0338 0.7795
v -0.1664 0.0539 -0.1664
vt 0.5850 0.7944
v -0.1664 0.0539 -0.1664
vt 0.5850 0.7944
v -0.1664 0.0539 -0.1664
vt 0.4716 0.7679
v -0.1664 0.0323 0.1664
vt 0.4742 0.7390
v -0.1664 0.0323 0.1664
vt 0.5850 0.0598
v -0.1664 0.0323 0.1664
vt 0.5850 0.0598
v -0.1664 0.0323 0.1664
vt 0.0792 0.7474
v -0.0295 0.0323 0.1664
vt 0.2713 0.7390
v -0.0295 0.0323 0.1664
vt 0.8884 0.0598
v -0.0295 0.0323 0.1664
vt 0.0051 0.0068
v -0.0295 0.0323 0.1664
vt 0.8884 0.0598
v 0.1664 0.0539 -0.1664
vt 0.4690 0.7795
v 0.1664 0.0539 -0.1664
vt 0.4906 0.8286
v 0.1664 0.0539 -0.1664
vt 0.4542 0.7586
v -0.0295 0.0539 -0.1664
vt 0.2129 0.7795
v -0.0295 0.0539 -0.1664
vt 0.8884 0.7944
v -0.0295 0.0539 -0.1664
vt 0.0051 0.8286
v -0.0295 0.0539 -0.1664
vt 0.8884 0.7944
v 0.1664 0.0000 0.1418
vt 1.0000 0.0741
v 0.1664 0.0000 0.1418
vt 0.3746 0.1265
v 0.1664 0.0000 0.1418
vt 0.0225 0.6978
v 0.1418 0.0000 0.1664
vt 0.0176 0.7775
v 0.1418 0.0000 0.1664
vt 0.9259 0.0000
v 0.1418 0.0000 0.1664
vt 0.4117 0.1564
v 0.1418 0.0323 0.1664
vt 0.0176 0.7390
v 0.1418 0.0323 0.1664
vt 0.4295 0.0068
v 0.1418 0.0323 0.1664
vt 0.4605 0.1172
v 0.1664 0.0339 0.1418
vt 0.4906 0.0676
v 0.1664 0.0339 0.1418
vt 0.4257 0.0853
v 0.1664 0.0339 0.1418
vt 0.0225 0.7360
v -0.1561 0.0214 0.1534
vt 0.6078 0.0801
v -0.1561 0.0214 0.1534
vt 0.5870 0.1163
v -0.1561 0.0214 0.1534
vt 0.6054 0.0869
v -0.1561 0.0214 0.1534
vt 0.5846 0.1231
v -0.0397 0.0214 0.1534
vt 0.8656 0.0801
v -0.0397 0.0214 0.1534
vt 0.8449 0.1163
v -0.0397 0.0214 0.1534
vt 0.8473 0.1231
v -0.0397 0.0214 0.1534
vt 0.8681 0.0869
v -0.0397 0.0413 -0.1534
vt 0.8656 0.7700
v -0.0397 0.0413 -0.1534
vt 0.8449 0.8062
v -0.0397 0.0413 -0.1534
vt 0.8473 0.8002
v -0.0397 0.0413 -0.1534
vt 0.8681 0.7640
v -0.1561 0.0413 -0.1534
vt 0.6078 0.7700
v -0.1561 0.0413 -0.1534
vt 0.5870 0.8062
v -0.1561 0.0413 -0.1534
vt 0.6054 0.7640
v -0.1561 0.0413 -0.1534
vt 0.5846 0.8002
v -0.1664 0.0000 0.0000
vt 0.0000 0.5000
v -0.1664 0.0000 0.0000
vt 0.2754 0.7168
v -0.0295 0.0000 0.0000
vt 0.4114 0.5000
v -0.1664 0.0431 0.0000
vt 0.5850 0.4271
v -0.1664 0.0431 0.0000
vt 0.2754 0.7577
v -0.0295 0.0431 0.0000
vt 0.0051 0.4177
v -0.0295 0.0431 0.0000
vt 0.8884 0.4271
v -0.1561 0.0314 0.0000
vt 0.6054 0.4254
v -0.1561 0.0314 0.0000
vt 0.5846 0.4616
v -0.0397 0.0314 0.0000
vt 0.8473 0.4616
v -0.0397 0.0314 0.0000
vt 0.8681 0.4254
v -0.1439 0.0316 0.1217
vt 0.6141 0.1096
v -0.1439 0.0316 0.1217
vt 0.5971 0.1278
v -0.1439 0.0316 0.1217
vt 0.5767 0.1940
v -0.0519 0.0316 0.1217
vt 0.8179 0.1096
v -0.0519 0.0316 0.1217
vt 0.8348 0.1278
v -0.0519 0.0316 0.1217
vt 0.8552 0.1940
v -0.1439 0.0394 0.0005
vt 0.5971 0.4400
v -0.1439 0.0394 0.0005
vt 0.5767 0.4616
v -0.1439 0.0394 0.0005
vt 0.5767 0.4616
v -0.0519 0.0394 0.0005
vt 0.8348 0.4400
v -0.0519 0.0394 0.0005
vt 0.8552 0.4616
v -0.0519 0.0394 0.0005
vt 0.8552 0.4616
v -0.0519 0.0473 -0.1207
vt 0.8179 0.8132
v -0.0519 0.0473 -0.1207
vt 0.8348 0.7521
v -0.0519 0.0473 -0.1207
vt 0.8552 0.7292
v -0.1439 0.0473 -0.1207
vt 0.6141 0.8132
v -0.1439 0.0473 -0.1207
vt 0.5971 0.7521
v -0.1439 0.0473 -0.1207
vt 0.5767 0.7292
v -0.1512 0.0564 0.1458
vt 0.5597 0.7212
v -0.1512 0.0564 0.1458
vt 0.5597 0.0127
v -0.1512 0.0564 0.1458
vt 0.7965 0.8038
v -0.0431 0.0564 0.1458
vt 0.8962 0.7212
v -0.0431 0.0564 0.1458
vt 0.8962 0.0127
v -0.0431 0.0564 0.1458
vt 0.8381 0.8087
v -0.1452 0.0885 -0.0025
vt 0.5783 0.4042
v -0.1452 0.0885 -0.0025
vt 0.5783 0.4042
v -0.1452 0.0885 -0.0025
vt 0.8159 0.4036
v -0.1452 0.0885 -0.0025
vt 0.8159 0.4036
v -0.0490 0.0885 -0.0025
vt 0.8776 0.4042
v -0.0490 0.0885 -0.0025
vt 0.8776 0.4042
v -0.0490 0.0885 -0.0025
vt 0.8574 0.4084
v -0.0490 0.0885 -0.0025
vt 0.8574 0.4084
v -0.0431 0.0736 -0.1493
vt 0.8962 0.7666
v -0.0431 0.0736 -0.1493
vt 0.8962 0.7917
v -0.0431 0.0736 -0.1493
vt 0.7255 0.0336
v -0.1512 0.0736 -0.1493
vt 0.5597 0.7666
v -0.1512 0.0736 -0.1493
vt 0.5597 0.7917
v -0.1512 0.0736 -0.1493
vt 0.6840 0.0287
v -0.1527 0.0338 0.1487
vt 0.5550 0.6616
v -0.1527 0.0338 0.1487
vt 0.5550 0.6616
v -0.1527 0.0338 0.1487
vt 0.5426 0.6616
v -0.1527 0.0338 0.1487
vt 0.7252 0.8216
v -0.0416 0.0338 0.1487
vt 0.9008 0.6616
v -0.0416 0.0338 0.1487
vt 0.9008 0.6616
v -0.0416 0.0338 0.1487
vt 0.7667 0.8265
v -0.0416 0.0338 0.1487
vt 0.7667 0.8265
v -0.1527 0.0628 -0.0037
vt 0.5550 0.4074
v -0.1527 0.0628 -0.0037
vt 0.5550 0.4074
v -0.1527 0.0628 -0.0037
vt 0.7321 0.4122
v -0.1527 0.0628 -0.0037
vt 0.7321 0.4122
v -0.0416 0.0628 -0.0037
vt 0.9008 0.4074
v -0.0416 0.0628 -0.0037
vt 0.9008 0.4074
v -0.0416 0.0628 -0.0037
vt 0.7736 0.4170
v -0.0416 0.0628 -0.0037
vt 0.7736 0.4170
v -0.0416 0.0493 -0.1561
vt 0.9008 0.7026
v -0.0416 0.0493 -0.1561
vt 0.6432 0.0270
v -0.0416 0.0493 -0.1561
vt 0.9008 0.8097
v -0.1527 0.0493 -0.1561
vt 0.5550 0.7026
v -0.1527 0.0493 -0.1561
vt 0.5550 0.8097
v -0.1527 0.0493 -0.1561
vt 0.6017 0.0221
v -0.1478 0.0724 0.0819
vt 0.5701 0.1813
v -0.1478 0.0724 0.0819
vt 0.5701 0.1813
v -0.1478 0.0724 0.0819
vt 0.8121 0.6304
v -0.1478 0.0724 0.0819
vt 0.8121 0.6304
v -0.0464 0.0724 0.0819
vt 0.8858 0.1813
v -0.0464 0.0724 0.0819
vt 0.8858 0.1813
v -0.0464 0.0724 0.0819
vt 0.8536 0.6353
v -0.0464 0.0724 0.0819
vt 0.8536 0.6353
v -0.1527 0.0483 0.0725
vt 0.5550 0.6999
v -0.1527 0.0483 0.0725
vt 0.5550 0.2063
v -0.1527 0.0483 0.0725
vt 0.7926 0.6999
v -0.1527 0.0483 0.0725
vt 0.7286 0.6169
v -0.1527 0.0483 0.0725
vt 0.7286 0.6169
v -0.0416 0.0483 0.0725
vt 0.9008 0.6999
v -0.0416 0.0483 0.0725
vt 0.9008 0.2063
v -0.0416 0.0483 0.0725
vt 0.7702 0.6218
v -0.0416 0.0483 0.0725
vt 0.7702 0.6218
v -0.0416 0.0483 0.0725
vt 0.7702 0.6218
v -0.0464 0.0810 -0.0869
vt 0.8858 0.6271
v -0.0464 0.0810 -0.0869
vt 0.8858 0.6271
v -0.0464 0.0810 -0.0869
vt 0.7851 0.1924
v -0.0464 0.0810 -0.0869
vt 0.7851 0.1924
v -0.1478 0.0810 -0.0869
vt 0.5701 0.6271
v -0.1478 0.0810 -0.0869
vt 0.5701 0.6271
v -0.1478 0.0810 -0.0869
vt 0.7436 0.1875
v -0.1478 0.0810 -0.0869
vt 0.7436 0.1875
v -0.0416 0.0560 -0.0799
vt 0.9008 0.7204
v -0.0416 0.0560 -0.0799
vt 0.9008 0.6086
v -0.0416 0.0560 -0.0799
vt 0.7084 0.2220
v -0.0416 0.0560 -0.0799
vt 0.7084 0.2220
v -0.0416 0.0560 -0.0799
vt 0.9008 0.6086
v -0.1527 0.0560 -0.0799
vt 0.5550 0.7204
v -0.1527 0.0560 -0.0799
vt 0.5550 0.6086
v -0.1527 0.0560 -0.0799
vt 0.5550 0.6086
v -0.1527 0.0560 -0.0799
vt 0.6669 0.2172
v -0.1527 0.0560 -0.0799
vt 0.6669 0.2172
v -0.1407 0.0215 0.1379
vt 0.5922 0.6290
v -0.1407 0.0215 0.1379
vt 0.5922 0.0337
v -0.1407 0.0215 0.1379
vt 0.5781 0.6290
v -0.0535 0.0215 0.1379
vt 0.8637 0.6290
v -0.0535 0.0215 0.1379
vt 0.8637 0.0337
v -0.0535 0.0215 0.1379
vt 0.7207 0.8040
v -0.1407 0.0328 0.0780
vt 0.5922 0.6591
v -0.1407 0.0328 0.0780
vt 0.5922 0.1916
v -0.1407 0.0328 0.0780
vt 0.7744 0.6591
v -0.0535 0.0412 -0.0868
vt 0.8637 0.6813
v -0.0535 0.0412 -0.0868
vt 0.8637 0.6269
v -0.0535 0.0412 -0.0868
vt 0.8637 0.6269
v -0.0535 0.0359 -0.1468
vt 0.8637 0.7848
v -0.0535 0.0359 -0.1468
vt 0.8637 0.7848
v -0.1407 0.0359 -0.1467
vt 0.5922 0.7848
v -0.1407 0.0359 -0.1467
vt 0.5922 0.7848
v -0.0535 0.0328 0.0780
vt 0.8637 0.6591
v -0.0535 0.0328 0.0780
vt 0.8637 0.1916
v -0.0535 0.0328 0.0780
vt 0.7234 0.6432
v -0.1407 0.0412 -0.0868
vt 0.5922 0.6813
v -0.1407 0.0412 -0.0868
vt 0.5922 0.6269
v -0.1407 0.0412 -0.0868
vt 0.5922 0.6269
f 35/35 9/9 28/28
f 35/35 28/28 44/44
f 61/61 5/5 13/13
f 61/61 13/13 63/63
f 60/60 69/69 79/79
f 60/60 79/79 89/89
f 7/7 12/12 29/29
f 7/7 29/29 26/26
f 12/12 4/4 14/14
f 12/12 14/14 29/29
f 37/37 11/11 63/63
f 63/63 13/13 8/8
f 8/8 33/33 37/37
f 63/63 8/8 37/37
f 1/1 10/10 22/22
f 1/1 22/22 18/18
f 66/66 24/24 40/40
f 40/40 42/42 27/27
f 27/27 31/31 66/66
f 40/40 27/27 66/66
f 62/62 3/3 21/21
f 62/62 21/21 65/65
f 34/34 43/43 41/41
f 34/34 41/41 38/38
f 10/10 36/36 39/39
f 10/10 39/39 22/22
f 19/19 23/23 49/49
f 19/19 49/49 45/45
f 67/67 32/32 56/56
f 67/67 56/56 71/71
f 64/64 20/20 47/47
f 64/64 47/47 68/68
f 16/16 64/64 68/68
f 16/16 68/68 59/59
f 25/25 67/67 71/71
f 25/25 71/71 52/52
f 6/6 62/62 65/65
f 6/6 65/65 17/17
f 183/183 189/189 165/165
f 128/128 162/162 179/179
f 128/128 179/179 181/181
f 183/183 165/165 130/130
f 128/128 181/181 183/183
f 183/183 130/130 128/128
f 2/2 61/61 63/63
f 2/2 63/63 11/11
f 78/78 81/81 85/85
f 78/78 85/85 88/88
f 73/73 76/76 81/81
f 73/73 81/81 78/78
f 69/69 48/48 74/74
f 69/69 74/74 80/80
f 51/51 70/70 82/82
f 51/51 82/82 77/77
f 70/70 55/55 86/86
f 70/70 86/86 83/83
f 46/46 50/50 75/75
f 46/46 75/75 72/72
f 154/154 150/150 105/105
f 154/154 105/105 108/108
f 133/133 137/137 100/100
f 133/133 100/100 96/96
f 141/141 118/118 122/122
f 141/141 122/122 146/146
f 156/156 166/166 121/121
f 156/156 121/121 99/99
f 153/153 161/161 127/127
f 153/153 127/127 106/106
f 90/90 110/110 114/114
f 90/90 114/114 93/93
f 138/138 148/148 124/124
f 138/138 124/124 102/102
f 104/104 126/126 129/129
f 104/104 129/129 107/107
f 135/135 144/144 113/113
f 135/135 113/113 92/92
f 98/98 120/120 143/143
f 98/98 143/143 134/134
f 95/95 117/117 149/149
f 95/95 149/149 139/139
f 91/91 94/94 136/136
f 91/91 136/136 132/132
f 103/103 125/125 160/160
f 103/103 160/160 152/152
f 109/109 131/131 167/167
f 109/109 167/167 157/157
f 119/119 164/164 159/159
f 119/119 159/159 123/123
f 97/97 101/101 151/151
f 97/97 151/151 155/155
f 188/188 182/182 180/180
f 188/188 180/180 178/178
f 169/169 175/175 185/185
f 169/169 185/185 172/172
f 111/111 168/168 171/171
f 111/111 171/171 115/115
f 163/163 187/187 177/177
f 163/163 177/177 158/158
f 116/116 173/173 186/186
f 116/116 186/186 147/147
f 54/54 58/58 87/87
f 54/54 87/87 84/84
f 142/142 176/176 170/170
f 142/142 170/170 112/112
f 145/145 184/184 174/174
f 145/145 174/174 140/140
f 30/30 15/15 57/57
f 30/30 57/57 53/53
