v 1.1026 0.8470 0.5380
vt 0.3183 0.4431
v 1.1026 0.8470 0.5380
vt 0.7812 0.4576
v 1.1026 0.8470 0.5380
vt 0.2582 0.4576
v 1.1026 0.8470 0.5380
vt 0.2718 0.4431
v 1.0974 0.8470 -0.5485
vt 0.3202 0.4431
v 1.0974 0.8470 -0.5485
vt 0.9945 0.4576
v 1.0974 0.8470 -0.5485
vt 0.3183 0.4431
v 1.0974 0.8470 -0.5485
vt 0.7812 0.4576
v 1.1026 0.8911 0.5380
vt 0.9931 0.4549
v 1.1026 0.8911 0.5380
vt 0.7812 0.4875
v 1.1026 0.8911 0.5380
vt 0.2582 0.4875
v 1.0974 0.8911 -0.5485
vt 0.9931 0.9942
v 1.0974 0.8911 -0.5485
vt 0.9945 0.4875
v 1.0974 0.8911 -0.5485
vt 0.7812 0.4875
v 0.0000 0.8470 0.5433
vt 0.4648 0.4852
v 0.0000 0.8470 0.5433
vt 0.0359 0.4576
v 0.0000 0.8470 0.5433
vt 0.0359 0.4576
v 0.0026 0.8470 -0.5433
vt 0.4648 0.9835
v 0.0026 0.8470 -0.5433
vt 0.0359 0.4576
v 0.0026 0.8470 -0.5433
vt 0.0359 0.4576
v 0.0000 0.8911 0.5433
vt 0.4575 0.4549
v 0.0000 0.8911 0.5433
vt 0.0359 0.4875
v 0.0000 0.8911 0.5433
vt 0.0359 0.4875
v 0.0026 0.8911 -0.5433
vt 0.4575 0.9942
v 0.0026 0.8911 -0.5433
vt 0.4601 0.9942
v 0.0026 0.8911 -0.5433
vt 0.0359 0.4875
v 0.0026 0.8911 -0.5433
vt 0.0394 0.4875
v 1.0344 0.8911 -0.5482
vt 0.9624 0.9942
v 1.0344 0.8911 -0.5482
vt 0.7385 0.4875
v 1.0344 0.8911 -0.5482
vt 0.7385 0.4875
v 1.0344 0.8470 -0.5482
vt 0.9404 0.9835
v 1.0344 0.8470 -0.5482
vt 0.7385 0.4576
v 1.0344 0.8470 -0.5482
vt 0.2738 0.4431
v 1.0344 0.8470 -0.5482
vt 0.7385 0.4576
v 1.0344 0.8470 -0.5482
vt 0.3202 0.4431
v 1.0396 0.8911 0.5383
vt 0.9624 0.4549
v 1.0396 0.8911 0.5383
vt 0.7385 0.4875
v 1.0396 0.8470 0.5383
vt 0.9404 0.4852
v 1.0396 0.8470 0.5383
vt 0.2738 0.4431
v 1.0396 0.8470 0.5383
vt 0.7385 0.4576
v 1.0396 0.8470 0.5383
vt 0.2718 0.4431
v 1.1023 0.8470 0.4721
vt 0.7078 0.0660
v 1.1023 0.8470 0.4721
vt 0.7078 0.0660
v 1.1023 0.8470 0.4721
vt 0.9963 0.4455
v 1.1023 0.8470 0.4721
vt 0.3028 0.4576
v 1.1023 0.8470 0.4721
vt 0.3183 0.4431
v 1.1023 0.8470 0.4721
vt 0.9856 0.3664
v 1.1023 0.8470 0.4721
vt 0.3183 0.4431
v 1.0977 0.8470 -0.4827
vt 0.7078 0.9340
v 1.0977 0.8470 -0.4827
vt 0.7078 0.9340
v 1.0977 0.8470 -0.4827
vt 0.3183 0.4431
v 1.0977 0.8470 -0.4827
vt 0.2738 0.4431
v 1.0977 0.8470 -0.4827
vt 0.9499 0.4576
v 1.0977 0.8470 -0.4827
vt 0.9856 0.0263
v 1.0977 0.8470 -0.4827
vt 0.9518 0.3799
v 1.0977 0.8911 -0.4827
vt 0.9931 0.9616
v 1.0977 0.8911 -0.4827
vt 0.9499 0.4875
v 1.1023 0.8911 0.4721
vt 0.9931 0.4876
v 1.1023 0.8911 0.4721
vt 0.3028 0.4875
v 0.0000 0.8911 0.4774
vt 0.4575 0.4876
v 0.0023 0.8911 -0.4774
vt 0.4575 0.9616
v 0.0023 0.8470 -0.4774
vt 0.4648 0.9534
v 0.0000 0.8470 0.4774
vt 0.4648 0.5154
v 1.0347 0.8911 -0.4824
vt 0.9624 0.9616
v 1.0393 0.8911 0.4724
vt 0.9624 0.4876
v 1.0347 0.8470 -0.4824
vt 0.6505 0.9340
v 1.0347 0.8470 -0.4824
vt 0.9404 0.9534
v 1.0347 0.8470 -0.4824
vt 0.2738 0.4431
v 1.0347 0.8470 -0.4824
vt 0.2738 0.4431
v 1.0393 0.8470 0.4724
vt 0.6505 0.0660
v 1.0393 0.8470 0.4724
vt 0.9404 0.5154
v 1.0393 0.8470 0.4724
vt 0.2738 0.4431
v 1.0393 0.8470 0.4724
vt 0.3183 0.4431
v 1.0396 -0.0000 0.5383
vt 0.6505 0.0061
v 1.0396 -0.0000 0.5383
vt 0.2738 0.0039
v 1.0396 -0.0000 0.5383
vt 0.2718 0.0039
v 1.1026 -0.0000 0.5380
vt 0.7078 0.0061
v 1.1026 -0.0000 0.5380
vt 0.3183 0.0039
v 1.1026 -0.0000 0.5380
vt 0.2718 0.0039
v 1.0344 -0.0000 -0.5482
vt 0.6505 0.9939
v 1.0344 -0.0000 -0.5482
vt 0.2738 0.0039
v 1.0344 -0.0000 -0.5482
vt 0.3202 0.0039
v 1.0347 -0.0000 -0.4824
vt 0.6505 0.9340
v 1.0347 -0.0000 -0.4824
vt 0.2738 0.0039
v 1.0347 -0.0000 -0.4824
vt 0.2738 0.0039
v 1.0974 -0.0000 -0.5485
vt 0.7078 0.9939
v 1.0974 -0.0000 -0.5485
vt 0.3202 0.0039
v 1.0974 -0.0000 -0.5485
vt 0.3183 0.0039
v 1.1023 -0.0000 0.4721
vt 0.7078 0.0660
v 1.1023 -0.0000 0.4721
vt 0.3183 0.0039
v 1.1023 -0.0000 0.4721
vt 0.3183 0.0039
v 1.0393 -0.0000 0.4724
vt 0.6505 0.0660
v 1.0393 -0.0000 0.4724
vt 0.2738 0.0039
v 1.0393 -0.0000 0.4724
vt 0.3183 0.0039
v 1.0977 -0.0000 -0.4827
vt 0.7078 0.9340
v 1.0977 -0.0000 -0.4827
vt 0.3183 0.0039
v 1.0977 -0.0000 -0.4827
vt 0.2738 0.0039
v 0.4954 0.8470 -0.4798
vt 0.1603 0.9340
v 0.4954 0.8470 -0.4798
vt 0.6920 0.9534
v 0.4954 0.8470 -0.4798
vt 0.6584 0.3799
v 0.4954 0.8470 -0.4798
vt 0.9988 0.3325
v 0.5000 0.8470 0.4750
vt 0.1603 0.0660
v 0.5000 0.8470 0.4750
vt 0.6273 0.4455
v 0.5000 0.8470 0.4750
vt 0.6190 0.3325
v 0.4954 0.1314 -0.4798
vt 0.1603 0.9340
v 0.4954 0.1314 -0.4798
vt 0.6584 0.0313
v 0.4954 0.1314 -0.4798
vt 0.9988 0.0479
v 1.0977 0.1314 -0.4827
vt 0.7078 0.9340
v 1.0977 0.1314 -0.4827
vt 0.6284 0.0263
v 1.0977 0.1314 -0.4827
vt 0.9518 0.0313
v 1.1023 0.1314 0.4721
vt 0.7078 0.0660
v 1.1023 0.1314 0.4721
vt 0.9963 0.3081
v 1.1023 0.1314 0.4721
vt 0.6284 0.3664
v 0.5000 0.1314 0.4750
vt 0.1603 0.0660
v 0.5000 0.1314 0.4750
vt 0.6273 0.3081
v 0.5000 0.1314 0.4750
vt 0.6190 0.0479
v 0.4954 0.6085 -0.4798
vt 0.6584 0.2637
v 0.4954 0.6085 -0.4798
vt 0.9988 0.2376
v 0.4954 0.3699 -0.4798
vt 0.6584 0.1475
v 0.4954 0.3699 -0.4798
vt 0.9988 0.1427
v 0.5000 0.3699 0.4750
vt 0.6273 0.4455
v 0.5000 0.3699 0.4750
vt 0.6273 0.3081
v 0.5000 0.3699 0.4750
vt 0.6190 0.1427
v 0.5000 0.6085 0.4750
vt 0.6273 0.4455
v 0.5000 0.6085 0.4750
vt 0.6273 0.3081
v 0.5000 0.6085 0.4750
vt 0.6190 0.2376
v 1.0977 0.6085 -0.4827
vt 0.8665 0.0263
v 1.0977 0.6085 -0.4827
vt 0.9518 0.2637
v 1.0977 0.3699 -0.4827
vt 0.7474 0.0263
v 1.0977 0.3699 -0.4827
vt 0.9518 0.1475
v 1.1023 0.3699 0.4721
vt 0.9963 0.4455
v 1.1023 0.3699 0.4721
vt 0.9963 0.3081
v 1.1023 0.3699 0.4721
vt 0.7474 0.3664
v 1.1023 0.6085 0.4721
vt 0.9963 0.4455
v 1.1023 0.6085 0.4721
vt 0.9963 0.3081
v 1.1023 0.6085 0.4721
vt 0.8665 0.3664
v 0.8529 0.7668 0.4741
vt 0.8409 0.4139
v 0.8529 0.7668 0.4741
vt 0.8434 0.3971
v 0.8529 0.7967 0.4741
vt 0.8355 0.4143
v 0.8529 0.7967 0.4741
vt 0.8434 0.4143
v 0.7247 0.7967 0.4747
vt 0.7749 0.4143
v 0.7247 0.7967 0.4747
vt 0.7678 0.4143
v 0.7247 0.7668 0.4747
vt 0.7663 0.4139
v 0.7247 0.7668 0.4747
vt 0.7678 0.3971
v 0.7248 0.7668 0.4984
vt 0.7663 0.3996
v 0.7248 0.7668 0.4984
vt 0.7749 0.3996
v 0.7248 0.7668 0.4984
vt 0.7678 0.3971
v 0.8530 0.7668 0.4978
vt 0.8409 0.3996
v 0.8530 0.7668 0.4978
vt 0.8355 0.3996
v 0.8530 0.7668 0.4978
vt 0.8434 0.3971
v 0.8529 0.5245 0.4741
vt 0.8409 0.4139
v 0.8529 0.5245 0.4741
vt 0.8434 0.3971
v 0.8529 0.5544 0.4741
vt 0.8355 0.4143
v 0.8529 0.5544 0.4741
vt 0.8434 0.4143
v 0.7247 0.5544 0.4747
vt 0.7749 0.4143
v 0.7247 0.5544 0.4747
vt 0.7678 0.4143
v 0.7247 0.5245 0.4747
vt 0.7663 0.4139
v 0.7247 0.5245 0.4747
vt 0.7678 0.3971
v 0.7248 0.5245 0.4984
vt 0.7663 0.3996
v 0.7248 0.5245 0.4984
vt 0.7749 0.3996
v 0.7248 0.5245 0.4984
vt 0.7678 0.3971
v 0.8530 0.5245 0.4978
vt 0.8409 0.3996
v 0.8530 0.5245 0.4978
vt 0.8355 0.3996
v 0.8530 0.5245 0.4978
vt 0.8434 0.3971
v 0.8529 0.2822 0.4741
vt 0.8409 0.4139
v 0.8529 0.2822 0.4741
vt 0.8434 0.3971
v 0.8529 0.3121 0.4741
vt 0.8355 0.4143
v 0.8529 0.3121 0.4741
vt 0.8434 0.4143
v 0.7247 0.3121 0.4747
vt 0.7749 0.4143
v 0.7247 0.3121 0.4747
vt 0.7678 0.4143
v 0.7247 0.2822 0.4747
vt 0.7663 0.4139
v 0.7247 0.2822 0.4747
vt 0.7678 0.3971
v 0.7248 0.2822 0.4984
vt 0.7663 0.3996
v 0.7248 0.2822 0.4984
vt 0.7749 0.3996
v 0.7248 0.2822 0.4984
vt 0.7678 0.3971
v 0.8530 0.2822 0.4978
vt 0.8409 0.3996
v 0.8530 0.2822 0.4978
vt 0.8355 0.3996
v 0.8530 0.2822 0.4978
vt 0.8434 0.3971
v -1.1026 0.8470 0.5380
vt 0.3183 0.4431
v -1.1026 0.8470 0.5380
vt 0.7812 0.4576
v -1.1026 0.8470 0.5380
vt 0.2582 0.4576
v -1.1026 0.8470 0.5380
vt 0.2718 0.4431
v -1.0974 0.8470 -0.5485
vt 0.3183 0.4431
v -1.0974 0.8470 -0.5485
vt 0.7812 0.4576
v -1.0974 0.8470 -0.5485
vt 0.3202 0.4431
v -1.0974 0.8470 -0.5485
vt 0.9945 0.4576
v -1.1026 0.8911 0.5380
vt 0.9931 0.4549
v -1.1026 0.8911 0.5380
vt 0.7812 0.4875
v -1.1026 0.8911 0.5380
vt 0.2582 0.4875
v -1.0974 0.8911 -0.5485
vt 0.9931 0.9942
v -1.0974 0.8911 -0.5485
vt 0.7812 0.4875
v -1.0974 0.8911 -0.5485
vt 0.9945 0.4875
v -1.0344 0.8911 -0.5482
vt 0.9624 0.9942
v -1.0344 0.8911 -0.5482
vt 0.7385 0.4875
v -1.0344 0.8911 -0.5482
vt 0.7385 0.4875
v -1.0344 0.8470 -0.5482
vt 0.9404 0.9835
v -1.0344 0.8470 -0.5482
vt 0.7385 0.4576
v -1.0344 0.8470 -0.5482
vt 0.2738 0.4431
v -1.0344 0.8470 -0.5482
vt 0.7385 0.4576
v -1.0344 0.8470 -0.5482
vt 0.3202 0.4431
v -1.0396 0.8911 0.5383
vt 0.9624 0.4549
v -1.0396 0.8911 0.5383
vt 0.7385 0.4875
v -1.0396 0.8470 0.5383
vt 0.9404 0.4852
v -1.0396 0.8470 0.5383
vt 0.2718 0.4431
v -1.0396 0.8470 0.5383
vt 0.2738 0.4431
v -1.0396 0.8470 0.5383
vt 0.7385 0.4576
v -1.1023 0.8470 0.4721
vt 0.7078 0.0660
v -1.1023 0.8470 0.4721
vt 0.7078 0.0660
v -1.1023 0.8470 0.4721
vt 0.3183 0.4431
v -1.1023 0.8470 0.4721
vt 0.9963 0.4455
v -1.1023 0.8470 0.4721
vt 0.3028 0.4576
v -1.1023 0.8470 0.4721
vt 0.3183 0.4431
v -1.1023 0.8470 0.4721
vt 0.9856 0.3664
v -1.0977 0.8470 -0.4827
vt 0.7078 0.9340
v -1.0977 0.8470 -0.4827
vt 0.7078 0.9340
v -1.0977 0.8470 -0.4827
vt 0.9518 0.3799
v -1.0977 0.8470 -0.4827
vt 0.3183 0.4431
v -1.0977 0.8470 -0.4827
vt 0.2738 0.4431
v -1.0977 0.8470 -0.4827
vt 0.9499 0.4576
v -1.0977 0.8470 -0.4827
vt 0.9856 0.0263
v -1.0977 0.8911 -0.4827
vt 0.9931 0.9616
v -1.0977 0.8911 -0.4827
vt 0.9499 0.4875
v -1.1023 0.8911 0.4721
vt 0.9931 0.4876
v -1.1023 0.8911 0.4721
vt 0.3028 0.4875
v 1.0301 0.8470 -0.4824
vt 0.6463 0.9340
v 1.0301 0.8470 -0.4824
vt 0.9383 0.9534
v 1.0301 0.8470 -0.4824
vt 0.9189 0.3799
v -1.0347 0.8911 -0.4824
vt 0.9624 0.9616
v -1.0393 0.8911 0.4724
vt 0.9624 0.4876
v -1.0347 0.8470 -0.4824
vt 0.6505 0.9340
v -1.0347 0.8470 -0.4824
vt 0.9404 0.9534
v -1.0347 0.8470 -0.4824
vt 0.2738 0.4431
v -1.0347 0.8470 -0.4824
vt 0.2738 0.4431
v -1.0393 0.8470 0.4724
vt 0.6505 0.0660
v -1.0393 0.8470 0.4724
vt 0.9404 0.5154
v -1.0393 0.8470 0.4724
vt 0.2738 0.4431
v -1.0393 0.8470 0.4724
vt 0.3183 0.4431
v -1.0396 -0.0000 0.5383
vt 0.6505 0.0061
v -1.0396 -0.0000 0.5383
vt 0.2718 0.0039
v -1.0396 -0.0000 0.5383
vt 0.2738 0.0039
v -1.1026 -0.0000 0.5380
vt 0.7078 0.0061
v -1.1026 -0.0000 0.5380
vt 0.3183 0.0039
v -1.1026 -0.0000 0.5380
vt 0.2718 0.0039
v -1.0344 -0.0000 -0.5482
vt 0.6505 0.9939
v -1.0344 -0.0000 -0.5482
vt 0.2738 0.0039
v -1.0344 -0.0000 -0.5482
vt 0.3202 0.0039
v -1.0347 -0.0000 -0.4824
vt 0.6505 0.9340
v -1.0347 -0.0000 -0.4824
vt 0.2738 0.0039
v -1.0347 -0.0000 -0.4824
vt 0.2738 0.0039
v -1.0974 -0.0000 -0.5485
vt 0.7078 0.9939
v -1.0974 -0.0000 -0.5485
vt 0.3183 0.0039
v -1.0974 -0.0000 -0.5485
vt 0.3202 0.0039
v -1.1023 -0.0000 0.4721
vt 0.7078 0.0660
v -1.1023 -0.0000 0.4721
vt 0.3183 0.0039
v -1.1023 -0.0000 0.4721
vt 0.3183 0.0039
v -1.0393 -0.0000 0.4724
vt 0.6505 0.0660
v -1.0393 -0.0000 0.4724
vt 0.2738 0.0039
v -1.0393 -0.0000 0.4724
vt 0.3183 0.0039
v -1.0977 -0.0000 -0.4827
vt 0.7078 0.9340
v -1.0977 -0.0000 -0.4827
vt 0.3183 0.0039
v -1.0977 -0.0000 -0.4827
vt 0.2738 0.0039
v -0.4954 0.8470 -0.4798
vt 0.1603 0.9340
v -0.4954 0.8470 -0.4798
vt 0.6584 0.3799
v -0.4954 0.8470 -0.4798
vt 0.9988 0.3325
v -0.5000 0.8470 0.4750
vt 0.1603 0.0660
v -0.5000 0.8470 0.4750
vt 0.6190 0.3325
v -0.5000 0.8470 0.4750
vt 0.6273 0.4455
v -0.4954 0.1314 -0.4798
vt 0.1603 0.9340
v -0.4954 0.1314 -0.4798
vt 0.6584 0.0313
v -0.4954 0.1314 -0.4798
vt 0.9988 0.0479
v -1.0977 0.1314 -0.4827
vt 0.7078 0.9340
v -1.0977 0.1314 -0.4827
vt 0.9518 0.0313
v -1.0977 0.1314 -0.4827
vt 0.6284 0.0263
v -1.1023 0.1314 0.4721
vt 0.7078 0.0660
v -1.1023 0.1314 0.4721
vt 0.9963 0.3081
v -1.1023 0.1314 0.4721
vt 0.6284 0.3664
v -0.5000 0.1314 0.4750
vt 0.1603 0.0660
v -0.5000 0.1314 0.4750
vt 0.6190 0.0479
v -0.5000 0.1314 0.4750
vt 0.6273 0.3081
v -0.4954 0.6085 -0.4798
vt 0.6584 0.2637
v -0.4954 0.6085 -0.4798
vt 0.9988 0.2376
v -0.4954 0.3699 -0.4798
vt 0.6584 0.1475
v -0.4954 0.3699 -0.4798
vt 0.9988 0.1427
v -0.5000 0.3699 0.4750
vt 0.6190 0.1427
v -0.5000 0.3699 0.4750
vt 0.6273 0.4455
v -0.5000 0.3699 0.4750
vt 0.6273 0.3081
v -0.5000 0.6085 0.4750
vt 0.6190 0.2376
v -0.5000 0.6085 0.4750
vt 0.6273 0.4455
v -0.5000 0.6085 0.4750
vt 0.6273 0.3081
v -1.0977 0.6085 -0.4827
vt 0.9518 0.2637
v -1.0977 0.6085 -0.4827
vt 0.8665 0.0263
v -1.0977 0.3699 -0.4827
vt 0.9518 0.1475
v -1.0977 0.3699 -0.4827
vt 0.7474 0.0263
v -1.1023 0.3699 0.4721
vt 0.9963 0.4455
v -1.1023 0.3699 0.4721
vt 0.9963 0.3081
v -1.1023 0.3699 0.4721
vt 0.7474 0.3664
v -1.1023 0.6085 0.4721
vt 0.9963 0.4455
v -1.1023 0.6085 0.4721
vt 0.9963 0.3081
v -1.1023 0.6085 0.4721
vt 0.8665 0.3664
v -0.8529 0.7668 0.4741
vt 0.8409 0.4139
v -0.8529 0.7668 0.4741
vt 0.8434 0.3971
v -0.8529 0.7967 0.4741
vt 0.8355 0.4143
v -0.8529 0.7967 0.4741
vt 0.8434 0.4143
v -0.7247 0.7967 0.4747
vt 0.7678 0.4143
v -0.7247 0.7967 0.4747
vt 0.7749 0.4143
v -0.7247 0.7668 0.4747
vt 0.7663 0.4139
v -0.7247 0.7668 0.4747
vt 0.7678 0.3971
v -0.7248 0.7668 0.4984
vt 0.7663 0.3996
v -0.7248 0.7668 0.4984
vt 0.7678 0.3971
v -0.7248 0.7668 0.4984
vt 0.7749 0.3996
v -0.8530 0.7668 0.4978
vt 0.8409 0.3996
v -0.8530 0.7668 0.4978
vt 0.8355 0.3996
v -0.8530 0.7668 0.4978
vt 0.8434 0.3971
v -0.8529 0.5245 0.4741
vt 0.8409 0.4139
v -0.8529 0.5245 0.4741
vt 0.8434 0.3971
v -0.8529 0.5544 0.4741
vt 0.8355 0.4143
v -0.8529 0.5544 0.4741
vt 0.8434 0.4143
v -0.7247 0.5544 0.4747
vt 0.7678 0.4143
v -0.7247 0.5544 0.4747
vt 0.7749 0.4143
v -0.7247 0.5245 0.4747
vt 0.7663 0.4139
v -0.7247 0.5245 0.4747
vt 0.7678 0.3971
v -0.7248 0.5245 0.4984
vt 0.7663 0.3996
v -0.7248 0.5245 0.4984
vt 0.7678 0.3971
v -0.7248 0.5245 0.4984
vt 0.7749 0.3996
v -0.8530 0.5245 0.4978
vt 0.8409 0.3996
v -0.8530 0.5245 0.4978
vt 0.8355 0.3996
v -0.8530 0.5245 0.4978
vt 0.8434 0.3971
v -0.8529 0.2822 0.4741
vt 0.8409 0.4139
v -0.8529 0.2822 0.4741
vt 0.8434 0.3971
v -0.8529 0.3121 0.4741
vt 0.8355 0.4143
v -0.8529 0.3121 0.4741
vt 0.8434 0.4143
v -0.7247 0.3121 0.4747
vt 0.7678 0.4143
v -0.7247 0.3121 0.4747
vt 0.7749 0.4143
v -0.7247 0.2822 0.4747
vt 0.7663 0.4139
v -0.7247 0.2822 0.4747
vt 0.7678 0.3971
v -0.7248 0.2822 0.4984
vt 0.7663 0.3996
v -0.7248 0.2822 0.4984
vt 0.7678 0.3971
v -0.7248 0.2822 0.4984
vt 0.7749 0.3996
v -0.8530 0.2822 0.4978
vt 0.8409 0.3996
v -0.8530 0.2822 0.4978
vt 0.8355 0.3996
v -0.8530 0.2822 0.4978
vt 0.8434 0.3971
f 64/64 56/56 12/12
f 64/64 12/12 28/28
f 36/36 9/9 58/58
f 36/36 58/58 65/65
f 40/40 2/2 10/10
f 40/40 10/10 37/37
f 5/5 52/52 97/97
f 5/5 97/97 87/87
f 32/32 20/20 27/27
f 32/32 27/27 29/29
f 1/1 39/39 75/75
f 1/1 75/75 78/78
f 63/63 62/62 99/99
f 226/226 67/67 71/71
f 63/63 99/99 226/226
f 226/226 71/71 63/63
f 3/3 45/45 59/59
f 3/3 59/59 11/11
f 53/53 57/57 59/59
f 53/53 59/59 45/45
f 64/64 61/61 60/60
f 64/64 60/60 65/65
f 66/66 50/50 43/43
f 66/66 43/43 70/70
f 53/53 6/6 13/13
f 53/53 13/13 57/57
f 56/56 64/64 65/65
f 56/56 65/65 58/58
f 99/99 62/62 18/18
f 18/18 31/31 67/67
f 67/67 226/226 99/99
f 18/18 67/67 99/99
f 8/8 34/34 30/30
f 8/8 30/30 14/14
f 15/15 63/63 71/71
f 15/15 71/71 38/38
f 16/16 40/40 37/37
f 16/16 37/37 22/22
f 21/21 36/36 65/65
f 21/21 65/65 60/60
f 61/61 64/64 28/28
f 61/61 28/28 25/25
f 74/74 92/92 89/89
f 74/74 89/89 77/77
f 83/83 80/80 86/86
f 83/83 86/86 95/95
f 72/72 48/48 91/91
f 72/72 91/91 93/93
f 41/41 73/73 94/94
f 41/41 94/94 76/76
f 51/51 68/68 84/84
f 51/51 84/84 96/96
f 33/33 7/7 88/88
f 33/33 88/88 81/81
f 69/69 35/35 82/82
f 69/69 82/82 85/85
f 46/46 4/4 79/79
f 46/46 79/79 90/90
f 225/225 98/98 102/102
f 102/102 42/42 49/49
f 102/102 49/49 225/225
f 105/105 108/108 111/111
f 105/105 111/111 114/114
f 123/123 120/120 107/107
f 123/123 107/107 116/116
f 119/119 130/130 110/110
f 119/119 110/110 106/106
f 131/131 121/121 115/115
f 131/131 115/115 112/112
f 129/129 133/133 113/113
f 129/129 113/113 109/109
f 54/54 47/47 136/136
f 54/54 136/136 127/127
f 127/127 136/136 133/133
f 127/127 133/133 129/129
f 44/44 103/103 125/125
f 44/44 125/125 135/135
f 134/134 124/124 122/122
f 134/134 122/122 132/132
f 117/117 100/100 227/227
f 227/227 55/55 128/128
f 227/227 128/128 117/117
f 117/117 128/128 130/130
f 117/117 130/130 119/119
f 104/104 101/101 118/118
f 104/104 118/118 126/126
f 126/126 118/118 120/120
f 126/126 120/120 123/123
f 146/146 149/149 139/139
f 146/146 139/139 141/141
f 142/142 144/144 147/147
f 143/143 137/137 148/148
f 143/143 148/148 145/145
f 138/138 140/140 150/150
f 160/160 163/163 153/153
f 160/160 153/153 155/155
f 156/156 158/158 161/161
f 157/157 151/151 162/162
f 157/157 162/162 159/159
f 152/152 154/154 164/164
f 174/174 177/177 167/167
f 174/174 167/167 169/169
f 170/170 172/172 175/175
f 171/171 165/165 176/176
f 171/171 176/176 173/173
f 166/166 168/168 178/178
f 228/228 193/193 190/190
f 228/228 190/190 221/221
f 201/201 229/229 223/223
f 201/201 223/223 187/187
f 206/206 202/202 188/188
f 206/206 188/188 180/180
f 185/185 252/252 261/261
f 185/185 261/261 218/218
f 197/197 194/194 26/26
f 197/197 26/26 19/19
f 179/179 242/242 240/240
f 179/179 240/240 205/205
f 62/62 63/63 235/235
f 62/62 235/235 231/231
f 181/181 189/189 224/224
f 181/181 224/224 211/211
f 219/219 211/211 224/224
f 219/219 224/224 222/222
f 228/228 229/229 60/60
f 228/228 60/60 61/61
f 230/230 234/234 208/208
f 230/230 208/208 215/215
f 219/219 222/222 192/192
f 219/219 192/192 186/186
f 221/221 223/223 229/229
f 221/221 229/229 228/228
f 62/62 231/231 196/196
f 62/62 196/196 18/18
f 184/184 191/191 195/195
f 184/184 195/195 199/199
f 15/15 203/203 235/235
f 15/15 235/235 63/63
f 17/17 23/23 202/202
f 17/17 202/202 206/206
f 21/21 60/60 229/229
f 21/21 229/229 201/201
f 61/61 24/24 193/193
f 61/61 193/193 228/228
f 238/238 241/241 253/253
f 238/238 253/253 256/256
f 247/247 259/259 250/250
f 247/247 250/250 244/244
f 236/236 257/257 254/254
f 236/236 254/254 209/209
f 204/204 239/239 258/258
f 204/204 258/258 237/237
f 217/217 260/260 249/249
f 217/217 249/249 233/233
f 198/198 245/245 251/251
f 198/198 251/251 183/183
f 232/232 248/248 246/246
f 232/232 246/246 200/200
f 212/212 255/255 243/243
f 212/212 243/243 182/182
f 262/262 214/214 207/207
f 262/262 207/207 265/265
f 268/268 277/277 274/274
f 268/268 274/274 271/271
f 284/284 278/278 270/270
f 284/284 270/270 283/283
f 282/282 269/269 272/272
f 282/282 272/272 292/292
f 294/294 275/275 279/279
f 294/294 279/279 285/285
f 293/293 273/273 276/276
f 293/293 276/276 296/296
f 220/220 291/291 299/299
f 220/220 299/299 213/213
f 291/291 293/293 296/296
f 291/291 296/296 299/299
f 210/210 298/298 289/289
f 210/210 289/289 267/267
f 297/297 295/295 286/286
f 297/297 286/286 288/288
f 263/263 280/280 290/290
f 263/263 290/290 216/216
f 280/280 282/282 292/292
f 280/280 292/292 290/290
f 266/266 287/287 281/281
f 266/266 281/281 264/264
f 287/287 284/284 283/283
f 287/287 283/283 281/281
f 310/310 305/305 302/302
f 310/310 302/302 312/312
f 304/304 309/309 307/307
f 306/306 308/308 311/311
f 306/306 311/311 300/300
f 301/301 313/313 303/303
f 324/324 319/319 316/316
f 324/324 316/316 326/326
f 318/318 323/323 321/321
f 320/320 322/322 325/325
f 320/320 325/325 314/314
f 315/315 327/327 317/317
f 338/338 333/333 330/330
f 338/338 330/330 340/340
f 332/332 337/337 335/335
f 334/334 336/336 339/339
f 334/334 339/339 328/328
f 329/329 341/341 331/331
