v -0.2324 0.3443 0.2620
vt 0.3309 0.9968
v -0.2324 0.3443 0.2620
vt 0.5740 0.4996
v -0.2324 0.3443 0.2620
vt 0.5740 0.4996
v 1.1969 0.3443 0.2620
vt 0.7519 0.9968
v 1.1969 0.3443 0.2620
vt 1.4024 0.4996
v 1.1969 0.3443 0.2620
vt 0.5400 0.9968
v 1.1969 -0.0000 0.2620
vt 0.7519 0.8118
v 1.1969 -0.0000 0.2620
vt 1.4023 0.2488
v 1.1969 -0.0000 0.2620
vt 0.8433 0.2488
v -0.2324 -0.0000 0.2620
vt 0.3309 0.8118
v -0.2324 -0.0000 0.2620
vt 0.5740 0.2488
v -0.2324 -0.0000 0.2620
vt 0.5740 0.2488
v 1.1969 -0.0000 0.2527
vt 0.0200 0.2418
v 1.1969 -0.0000 0.2527
vt 1.4023 0.2488
v 1.1969 -0.0000 0.2527
vt 0.1632 0.7673
v 1.1969 -0.0000 0.2527
vt 0.8433 0.2488
v 1.1969 0.3443 0.2527
vt 0.8315 0.5193
v 1.1969 0.3443 0.2527
vt 1.4024 0.4996
v 1.1969 0.3443 0.2527
vt 0.5428 0.9968
v -0.2324 0.3443 0.2527
vt 0.0031 0.5193
v -0.2324 0.3443 0.2527
vt 0.5740 0.4996
v -0.2324 0.3443 0.2527
vt 0.5740 0.4996
v -0.2324 -0.0000 0.2527
vt 0.0200 0.9579
v -0.2324 -0.0000 0.2527
vt 0.5740 0.2488
v -0.2324 -0.0000 0.2527
vt 0.1632 0.7673
v -0.2324 -0.0000 0.2527
vt 0.5740 0.2488
v 1.1969 0.0194 0.2620
vt 0.7519 0.8218
v 1.1969 0.0194 0.2620
vt 0.5400 0.8218
v 1.1969 0.0194 0.2620
vt 0.8433 0.2629
v -0.2324 0.0194 0.2620
vt 0.3309 0.8218
v -0.2324 0.0194 0.2620
vt 0.5740 0.2629
v 1.1969 0.0194 0.2527
vt 0.8315 0.2826
v 1.1969 0.0194 0.2527
vt 0.0200 0.2418
v 1.1969 0.0194 0.2527
vt 0.1718 0.7673
v 1.1969 0.0194 0.2527
vt 0.5428 0.8218
v 1.1969 0.0194 0.2527
vt 0.8433 0.2629
v -0.2324 0.0194 0.2527
vt 0.0031 0.2826
v -0.2324 0.0194 0.2527
vt 0.0200 0.9579
v -0.2324 0.0194 0.2527
vt 0.1718 0.7673
v -0.2324 0.0194 0.2527
vt 0.5740 0.2629
v -0.2199 0.3443 0.2620
vt 0.3346 0.9968
v -0.2199 0.3443 0.2620
vt 0.5812 0.4996
v -0.2199 0.3443 0.2620
vt 0.5812 0.4996
v 1.1845 0.3443 0.2620
vt 0.7482 0.9968
v 1.1845 0.3443 0.2620
vt 1.3951 0.4996
v 1.1845 0.3443 0.2620
vt 1.3951 0.4996
v 1.1845 -0.0000 0.2620
vt 0.7482 0.8118
v 1.1845 -0.0000 0.2620
vt 0.7482 0.9054
v 1.1845 -0.0000 0.2620
vt 1.3951 0.2488
v -0.2199 -0.0000 0.2620
vt 0.3346 0.8118
v -0.2199 -0.0000 0.2620
vt 0.3346 0.9054
v -0.2199 -0.0000 0.2620
vt 0.5812 0.2488
v -0.2199 0.3443 0.2527
vt 0.0103 0.5193
v -0.2199 0.3443 0.2527
vt 0.0103 0.5193
v -0.2199 0.3443 0.2527
vt 0.5812 0.4996
v -0.2199 0.3443 0.2527
vt 0.5812 0.4996
v 1.1845 0.3443 0.2527
vt 0.8242 0.5193
v 1.1845 0.3443 0.2527
vt 0.8242 0.5193
v 1.1845 0.3443 0.2527
vt 1.3951 0.4996
v 1.1845 0.3443 0.2527
vt 1.3951 0.4996
v 1.1845 -0.0000 0.2527
vt 0.0200 0.2480
v 1.1845 -0.0000 0.2527
vt 0.7482 0.9102
v 1.1845 -0.0000 0.2527
vt 1.3951 0.2488
v -0.2199 -0.0000 0.2527
vt 0.0200 0.9516
v -0.2199 -0.0000 0.2527
vt 0.3346 0.9102
v -0.2199 -0.0000 0.2527
vt 0.5812 0.2488
v 1.1845 0.0194 0.2527
vt 0.8242 0.2826
v 1.1845 0.0194 0.2527
vt 0.8242 0.2826
v 1.1845 0.0194 0.2527
vt 0.0200 0.2480
v -0.2199 0.0194 0.2527
vt 0.0103 0.2826
v -0.2199 0.0194 0.2527
vt 0.0103 0.2826
v -0.2199 0.0194 0.2527
vt 0.0200 0.9516
v -0.2199 0.0194 0.2620
vt 0.3346 0.8218
v 1.1845 0.0194 0.2620
vt 0.7482 0.8218
v -0.2324 0.0194 -0.4268
vt 0.0031 0.2826
v -0.2324 0.0194 -0.4268
vt 0.3631 0.5199
v -0.2324 -0.0000 -0.4268
vt 0.0031 0.2685
v -0.2324 -0.0000 -0.4268
vt 0.0183 0.7371
v -0.2324 -0.0000 -0.4268
vt 0.3631 0.5097
v -0.2199 -0.0000 -0.4268
vt 0.0103 0.2685
v -0.2199 -0.0000 -0.4268
vt 0.0103 0.2685
v -0.2199 -0.0000 -0.4268
vt 0.0249 0.7371
v -0.2199 -0.0000 -0.4268
vt 0.0249 0.7371
v 1.1969 -0.0000 -0.4268
vt 0.8314 0.2685
v 1.1969 -0.0000 -0.4268
vt 0.7711 0.7371
v 1.1969 -0.0000 -0.4268
vt 0.3631 0.5097
v 1.1969 0.0194 -0.4268
vt 0.8314 0.2826
v 1.1969 0.0194 -0.4268
vt 0.3631 0.5199
v -0.2199 0.0194 -0.4268
vt 0.0103 0.2826
v -0.2199 0.0194 -0.4268
vt 0.0103 0.2826
v -0.2199 0.0194 -0.4268
vt 0.0249 0.7371
v 1.1845 -0.0000 -0.4268
vt 0.8242 0.2685
v 1.1845 -0.0000 -0.4268
vt 0.8242 0.2685
v 1.1845 -0.0000 -0.4268
vt 0.7646 0.7371
v 1.1845 -0.0000 -0.4268
vt 0.7646 0.7371
v 1.1845 0.0194 -0.4268
vt 0.8242 0.2826
v 1.1845 0.0194 -0.4268
vt 0.8242 0.2826
v 1.1845 0.0194 -0.4268
vt 0.7646 0.7371
v 1.1845 0.0194 -0.4158
vt 0.3150 0.2480
v 1.1845 0.0194 -0.4158
vt 0.7646 0.7313
v -0.2199 0.0194 -0.4158
vt 0.0249 0.7313
v -0.2199 0.0194 -0.4158
vt 0.3150 0.9516
v -0.2199 -0.0000 -0.4158
vt 0.0249 0.7313
v -0.2199 -0.0000 -0.4158
vt 0.0249 0.7313
v -0.2199 -0.0000 -0.4158
vt 0.3150 0.9516
v -0.2324 -0.0000 -0.4158
vt 0.0183 0.7313
v -0.2324 -0.0000 -0.4158
vt 0.3150 0.9579
v -0.2324 -0.0000 -0.4158
vt 0.1632 0.4324
v -0.2324 -0.0000 -0.4158
vt 0.3573 0.5097
v -0.2324 0.0194 -0.4158
vt 0.3150 0.9579
v -0.2324 0.0194 -0.4158
vt 0.1718 0.4324
v -0.2324 0.0194 -0.4158
vt 0.3573 0.5199
v 1.1845 -0.0000 -0.4158
vt 0.3150 0.2480
v 1.1845 -0.0000 -0.4158
vt 0.7646 0.7313
v 1.1845 -0.0000 -0.4158
vt 0.7646 0.7313
v 1.1969 0.0194 -0.4158
vt 0.3150 0.2418
v 1.1969 0.0194 -0.4158
vt 0.1718 0.4324
v 1.1969 0.0194 -0.4158
vt 0.3573 0.5199
v 1.1969 -0.0000 -0.4158
vt 0.3150 0.2418
v 1.1969 -0.0000 -0.4158
vt 0.7711 0.7313
v 1.1969 -0.0000 -0.4158
vt 0.1632 0.4324
v 1.1969 -0.0000 -0.4158
vt 0.3573 0.5097
f 74/74 27/27 4/4
f 74/74 4/4 44/44
f 31/31 40/40 26/26
f 31/31 26/26 12/12
f 49/49 63/63 14/14
f 49/49 14/14 8/8
f 43/43 55/55 21/21
f 43/43 21/21 2/2
f 9/9 16/16 36/36
f 9/9 36/36 29/29
f 47/47 7/7 27/27
f 47/47 27/27 74/74
f 10/10 50/50 73/73
f 10/10 73/73 30/30
f 50/50 47/47 74/74
f 50/50 74/74 73/73
f 106/106 78/78 82/82
f 106/106 82/82 103/103
f 100/100 98/98 91/91
f 100/100 91/91 101/101
f 5/5 18/18 60/60
f 5/5 60/60 46/46
f 45/45 59/59 56/56
f 45/45 56/56 42/42
f 11/11 24/24 66/66
f 11/11 66/66 52/52
f 51/51 65/65 62/62
f 51/51 62/62 48/48
f 40/40 31/31 3/3
f 40/40 3/3 22/22
f 93/93 97/97 87/87
f 93/93 87/87 84/84
f 77/77 75/75 90/90
f 77/77 90/90 81/81
f 80/80 89/89 96/96
f 80/80 96/96 92/92
f 104/104 83/83 95/95
f 104/104 95/95 115/115
f 122/122 86/86 88/88
f 122/122 88/88 118/118
f 112/112 76/76 79/79
f 112/112 79/79 109/109
f 114/114 94/94 85/85
f 114/114 85/85 120/120
f 30/30 73/73 41/41
f 30/30 41/41 1/1
f 28/28 35/35 19/19
f 28/28 19/19 6/6
f 73/73 74/74 44/44
f 73/73 44/44 41/41
f 70/70 37/37 20/20
f 70/70 20/20 54/54
f 32/32 68/68 58/58
f 32/32 58/58 17/17
f 61/61 113/113 119/119
f 61/61 119/119 13/13
f 39/39 111/111 108/108
f 39/39 108/108 25/25
f 33/33 116/116 99/99
f 33/33 99/99 69/69
f 15/15 121/121 117/117
f 15/15 117/117 34/34
f 64/64 105/105 113/113
f 64/64 113/113 61/61
f 69/69 99/99 102/102
f 69/69 102/102 72/72
f 23/23 107/107 105/105
f 23/23 105/105 64/64
f 72/72 102/102 110/110
f 72/72 110/110 38/38
f 67/67 71/71 53/53
f 67/67 53/53 57/57
