v -0.0372 0.0093 0.1402
vt 0.0130 0.5774
v -0.0372 0.0093 0.1402
vt 0.1155 0.6927
v -0.0372 0.0093 0.1402
vt 0.1155 0.6927
v -0.0389 0.4133 0.1424
vt 0.1155 0.6927
v -0.0389 0.4133 0.1424
vt 0.1155 0.6927
v -0.0389 0.4133 0.1424
vt 0.0046 0.5667
v -0.0063 0.0109 -0.1498
vt 0.2143 0.5531
v -0.0063 0.0109 -0.1498
vt 0.0133 0.5710
v -0.0063 0.0109 -0.1498
vt 0.1382 0.6320
v -0.0063 0.0109 -0.1498
vt 0.1382 0.9365
v -0.0081 0.4150 -0.1477
vt 0.2214 0.5710
v -0.0081 0.4150 -0.1477
vt 0.1382 0.9711
v -0.0081 0.4150 -0.1477
vt 0.1382 0.9365
v -0.0081 0.4150 -0.1477
vt 0.2129 0.5474
v 0.0391 0.0096 0.1412
vt 0.0130 0.5087
v 0.0391 0.0096 0.1412
vt 0.1796 0.6927
v 0.0391 0.0096 0.1412
vt 0.1796 0.6927
v 0.0373 0.4136 0.1434
vt 0.1796 0.6927
v 0.0373 0.4136 0.1434
vt 0.0046 0.5120
v 0.0373 0.4136 0.1434
vt 0.1796 0.6927
v 0.0228 0.0019 -0.1498
vt 0.2213 0.5968
v 0.0228 0.0019 -0.1498
vt 0.1626 0.6242
v 0.0228 0.0019 -0.1498
vt 0.1626 0.9367
v 0.0210 0.4243 -0.1475
vt 0.2213 0.9989
v 0.0210 0.4243 -0.1475
vt 0.1626 0.9788
v 0.0210 0.4243 -0.1475
vt 0.1626 0.9367
v -0.0130 0.0017 -0.1503
vt 0.1325 0.6242
v -0.0130 0.0017 -0.1503
vt 0.1325 0.9367
v -0.0130 0.0017 -0.1503
vt 0.2150 0.6509
v -0.0446 0.0000 0.1468
vt 0.1093 0.6870
v -0.0446 0.0000 0.1468
vt 0.1093 0.6870
v -0.0446 0.0000 0.1468
vt 0.2375 0.5286
v -0.0446 0.0000 0.1468
vt 0.0573 0.6509
v -0.0465 0.4224 0.1491
vt 0.1093 0.6870
v -0.0465 0.4224 0.1491
vt 0.1093 0.6870
v -0.0465 0.4224 0.1491
vt 0.2375 0.9982
v -0.0465 0.4224 0.1491
vt 0.0573 0.9669
v -0.0149 0.4242 -0.1480
vt 0.1325 0.9788
v -0.0149 0.4242 -0.1480
vt 0.1325 0.9367
v -0.0149 0.4242 -0.1480
vt 0.2150 0.9669
v 0.0142 0.4151 -0.1474
vt 0.2214 0.5136
v 0.0142 0.4151 -0.1474
vt 0.2129 0.5314
v 0.0142 0.4151 -0.1474
vt 0.1570 0.9711
v 0.0142 0.4151 -0.1474
vt 0.1570 0.9365
v 0.0160 0.0110 -0.1495
vt 0.2143 0.5330
v 0.0160 0.0110 -0.1495
vt 0.0133 0.5136
v 0.0160 0.0110 -0.1495
vt 0.1570 0.6320
v 0.0160 0.0110 -0.1495
vt 0.1570 0.9365
v 0.0465 0.0004 0.1480
vt 0.1858 0.6870
v 0.0465 0.0004 0.1480
vt 0.0042 0.5968
v 0.0465 0.0004 0.1480
vt 0.3284 0.5286
v 0.0465 0.0004 0.1480
vt 0.1858 0.6870
v 0.0446 0.4228 0.1503
vt 0.1858 0.6870
v 0.0446 0.4228 0.1503
vt 0.0042 0.9989
v 0.0446 0.4228 0.1503
vt 0.3284 0.9982
v 0.0446 0.4228 0.1503
vt 0.1858 0.6870
f 33/33 37/37 40/40
f 33/33 40/40 29/29
f 8/8 11/11 41/41
f 8/8 41/41 46/46
f 21/21 24/24 54/54
f 21/21 54/54 50/50
f 51/51 55/55 36/36
f 51/51 36/36 32/32
f 7/7 45/45 15/15
f 7/7 15/15 1/1
f 42/42 14/14 6/6
f 42/42 6/6 19/19
f 10/10 3/3 31/31
f 10/10 31/31 28/28
f 5/5 13/13 39/39
f 5/5 39/39 35/35
f 12/12 9/9 27/27
f 12/12 27/27 38/38
f 47/47 43/43 25/25
f 47/47 25/25 22/22
f 17/17 48/48 23/23
f 17/17 23/23 52/52
f 44/44 20/20 56/56
f 44/44 56/56 26/26
f 2/2 16/16 49/49
f 2/2 49/49 30/30
f 18/18 4/4 34/34
f 18/18 34/34 53/53
