v -0.2424 0.0000 0.2623
vt 0.5740 -0.0020
v -0.2424 0.0000 0.2623
vt 0.0185 0.3918
v -0.2424 0.0000 0.2623
vt 0.0088 0.0722
v 0.2424 0.0000 0.2623
vt 0.8479 -0.0020
v 0.2424 0.0000 0.2623
vt 0.2551 0.3918
v 0.2424 0.0000 0.2623
vt 0.0088 0.0722
v -0.2424 0.0000 -0.2623
vt 0.8674 0.0256
v -0.2424 0.0000 -0.2623
vt 0.0185 0.6478
v -0.2424 0.0000 -0.2623
vt 0.2874 0.0722
v 0.2424 0.0000 -0.2623
vt 0.8674 0.0256
v 0.2424 0.0000 -0.2623
vt 0.2551 0.6478
v 0.2424 0.0000 -0.2623
vt 0.2874 0.0722
v -0.2424 1.4086 -0.2623
vt 0.8674 0.9861
v -0.2424 1.4086 -0.2623
vt 0.0194 0.8843
v -0.2424 1.4086 -0.2623
vt 0.2874 0.9396
v -0.2424 1.4086 0.2623
vt 0.5740 0.9980
v -0.2424 1.4086 0.2623
vt 0.0194 0.5612
v -0.2424 1.4086 0.2623
vt 0.0088 0.9396
v 0.2424 1.4086 0.2623
vt 0.8479 0.9980
v 0.2424 1.4086 0.2623
vt 0.2768 0.5612
v 0.2424 1.4086 0.2623
vt 0.0088 0.9396
v 0.2424 1.4086 -0.2623
vt 0.8674 0.9861
v 0.2424 1.4086 -0.2623
vt 0.2768 0.8843
v 0.2424 1.4086 -0.2623
vt 0.2874 0.9396
v -0.0000 0.0000 0.2623
vt 0.7109 -0.0020
v -0.0000 0.0000 0.2623
vt 0.1368 0.3918
v 0.0000 0.0000 -0.2623
vt 0.9988 0.0256
v 0.0000 0.0000 -0.2623
vt 0.9988 0.0256
v 0.0000 0.0000 -0.2623
vt 0.1368 0.6478
v -0.0000 1.4086 0.2623
vt 0.7109 0.9980
v -0.0000 1.4086 0.2623
vt 0.1481 0.5612
v 0.0000 1.4086 -0.2623
vt 0.9988 0.9861
v 0.0000 1.4086 -0.2623
vt 0.9988 0.9861
v 0.0000 1.4086 -0.2623
vt 0.1481 0.8843
f 26/26 29/29 11/11
f 26/26 11/11 5/5
f 31/31 20/20 23/23
f 31/31 23/23 34/34
f 28/28 7/7 13/13
f 28/28 13/13 33/33
f 25/25 4/4 19/19
f 25/25 19/19 30/30
f 6/6 12/12 24/24
f 6/6 24/24 21/21
f 9/9 3/3 18/18
f 9/9 18/18 15/15
f 1/1 25/25 30/30
f 1/1 30/30 16/16
f 10/10 27/27 32/32
f 10/10 32/32 22/22
f 17/17 31/31 34/34
f 17/17 34/34 14/14
f 2/2 8/8 29/29
f 2/2 29/29 26/26
