v -0.0532 0.0000 -0.0469
vt 0.1173 0.8372
v -0.0532 0.0000 -0.0469
vt 0.1127 0.6291
v -0.0532 0.0000 -0.0469
vt 0.3024 0.6291
v -0.0610 0.0000 0.0361
vt 0.0611 0.2402
v -0.0610 0.0000 0.0361
vt 0.0978 0.6291
v -0.0610 0.0000 0.0361
vt 0.1450 0.6291
v 0.0155 0.0000 0.0692
vt 0.6114 0.0023
v 0.0155 0.0000 0.0692
vt 0.0823 0.6291
v 0.0155 0.0000 0.0692
vt 0.2429 0.6291
v 0.0706 0.0000 0.0066
vt 1.0078 0.4522
v 0.0706 0.0000 0.0066
vt 0.2009 0.6291
v 0.0706 0.0000 0.0066
vt 0.2009 0.6291
v 0.0281 0.0000 -0.0651
vt 0.7024 0.9682
v 0.0281 0.0000 -0.0651
vt 0.3369 0.6291
v 0.0281 0.0000 -0.0651
vt 0.2668 0.6291
v -0.0610 0.1230 0.0361
vt 0.2418 0.6173
v -0.0610 0.1230 0.0361
vt 0.0978 0.8624
v -0.0610 0.1230 0.0361
vt 0.1450 0.8624
v -0.0532 0.1230 -0.0469
vt 0.2478 0.6809
v -0.0532 0.1230 -0.0469
vt 0.1127 0.8624
v -0.0532 0.1230 -0.0469
vt 0.3024 0.8624
v 0.0155 0.1230 0.0692
vt 0.3004 0.5920
v 0.0155 0.1230 0.0692
vt 0.0823 0.8624
v 0.0155 0.1230 0.0692
vt 0.2429 0.8624
v 0.0706 0.1230 0.0066
vt 0.3427 0.6399
v 0.0706 0.1230 0.0066
vt 0.2009 0.8624
v 0.0706 0.1230 0.0066
vt 0.2009 0.8624
v 0.0281 0.1230 -0.0651
vt 0.3101 0.6949
v 0.0281 0.1230 -0.0651
vt 0.3369 0.8624
v 0.0281 0.1230 -0.0651
vt 0.2668 0.8624
v -0.0397 0.0133 -0.0350
vt 0.3033 0.6241
v -0.0397 0.0133 -0.0350
vt 0.1108 0.6026
v -0.0397 0.0133 -0.0350
vt 0.3041 0.6026
v -0.0455 0.0133 0.0269
vt 0.3004 0.5937
v -0.0455 0.0133 0.0269
vt 0.0957 0.6026
v -0.0455 0.0133 0.0269
vt 0.1438 0.6026
v 0.0116 0.0133 0.0516
vt 0.3284 0.5816
v 0.0116 0.0133 0.0516
vt 0.2435 0.6026
v 0.0116 0.0133 0.0516
vt 0.0800 0.6026
v 0.0527 0.0133 0.0050
vt 0.3486 0.6045
v 0.0527 0.0133 0.0050
vt 0.2007 0.6026
v 0.0527 0.0133 0.0050
vt 0.2007 0.6026
v 0.0210 0.0133 -0.0486
vt 0.3331 0.6307
v 0.0210 0.0133 -0.0486
vt 0.2679 0.6026
v 0.0210 0.0133 -0.0486
vt 0.3393 0.6026
v -0.0459 0.1230 0.0272
vt 0.2534 0.6242
v -0.0459 0.1230 0.0272
vt 0.0947 0.8864
v -0.0459 0.1230 0.0272
vt 0.1432 0.8864
v -0.0400 0.1230 -0.0353
vt 0.2579 0.6720
v -0.0400 0.1230 -0.0353
vt 0.1100 0.8864
v -0.0400 0.1230 -0.0353
vt 0.3049 0.8864
v 0.0117 0.1230 0.0521
vt 0.2975 0.6051
v 0.0117 0.1230 0.0521
vt 0.2437 0.8864
v 0.0117 0.1230 0.0521
vt 0.0788 0.8864
v 0.0531 0.1230 0.0050
vt 0.3293 0.6412
v 0.0531 0.1230 0.0050
vt 0.2006 0.8864
v 0.0531 0.1230 0.0050
vt 0.2006 0.8864
v 0.0212 0.1230 -0.0490
vt 0.3048 0.6825
v 0.0212 0.1230 -0.0490
vt 0.2684 0.8864
v 0.0212 0.1230 -0.0490
vt 0.3403 0.8864
v 0.0289 0.0076 0.0462
vt 0.3110 0.6828
v 0.0289 0.0076 0.0462
vt 0.3117 0.6519
v 0.0481 0.0076 0.0244
vt 0.3243 0.6979
v 0.0481 0.0076 0.0244
vt 0.3119 0.6519
v 0.0291 0.0239 0.0463
vt 0.3112 0.6827
v 0.0291 0.0239 0.0463
vt 0.3118 0.6633
v 0.0483 0.0239 0.0245
vt 0.3245 0.6978
v 0.0483 0.0239 0.0245
vt 0.3120 0.6633
v 0.0385 0.0042 0.0353
vt 0.3177 0.6904
v 0.0385 0.0042 0.0353
vt 0.3177 0.6904
v 0.0389 0.0273 0.0357
vt 0.3180 0.6901
v 0.0389 0.0273 0.0357
vt 0.3180 0.6901
v 0.0249 0.0157 0.0507
vt 0.3089 0.6576
v 0.0249 0.0157 0.0507
vt 0.3089 0.6576
v 0.0521 0.0157 0.0199
vt 0.3088 0.6576
v 0.0521 0.0157 0.0199
vt 0.3088 0.6576
v 0.0450 0.0074 0.0410
vt 0.3222 0.6864
v 0.0450 0.0074 0.0410
vt 0.3222 0.6864
v 0.0450 0.0074 0.0410
vt 0.3222 0.6864
v 0.0450 0.0074 0.0410
vt 0.3222 0.6864
v 0.0380 0.0098 0.0488
vt 0.3174 0.6810
v 0.0380 0.0098 0.0488
vt 0.3180 0.6535
v 0.0380 0.0098 0.0488
vt 0.3174 0.6810
v 0.0380 0.0098 0.0488
vt 0.3180 0.6535
v 0.0463 0.0241 0.0422
vt 0.3231 0.6856
v 0.0463 0.0241 0.0422
vt 0.3231 0.6856
v 0.0463 0.0241 0.0422
vt 0.3231 0.6856
v 0.0463 0.0241 0.0422
vt 0.3231 0.6856
v 0.0390 0.0216 0.0497
vt 0.3180 0.6804
v 0.0390 0.0216 0.0497
vt 0.3187 0.6617
v 0.0390 0.0216 0.0497
vt 0.3180 0.6804
v 0.0390 0.0216 0.0497
vt 0.3187 0.6617
v 0.0354 0.0157 0.0523
vt 0.3162 0.6576
v 0.0354 0.0157 0.0523
vt 0.3162 0.6576
v 0.0354 0.0157 0.0523
vt 0.3162 0.6576
v 0.0354 0.0157 0.0523
vt 0.3162 0.6576
v 0.0550 0.0157 0.0301
vt 0.3298 0.6576
v 0.0550 0.0157 0.0301
vt 0.3298 0.6576
v 0.0550 0.0157 0.0301
vt 0.3159 0.6576
v 0.0550 0.0157 0.0301
vt 0.3159 0.6576
v 0.0528 0.0216 0.0340
vt 0.3276 0.6913
v 0.0528 0.0216 0.0340
vt 0.3276 0.6913
v 0.0528 0.0216 0.0340
vt 0.3283 0.6617
v 0.0528 0.0216 0.0340
vt 0.3186 0.6617
v 0.0519 0.0098 0.0331
vt 0.3270 0.6919
v 0.0519 0.0098 0.0331
vt 0.3270 0.6919
v 0.0519 0.0098 0.0331
vt 0.3276 0.6535
v 0.0519 0.0098 0.0331
vt 0.3180 0.6535
v 0.0479 0.0983 0.0242
vt 0.3242 0.6980
v 0.0479 0.0983 0.0242
vt 0.3118 0.7148
v 0.0477 0.1146 0.0241
vt 0.3241 0.6981
v 0.0477 0.1146 0.0241
vt 0.3117 0.7262
v 0.0287 0.0983 0.0460
vt 0.3109 0.6829
v 0.0287 0.0983 0.0460
vt 0.3115 0.7148
v 0.0285 0.1146 0.0459
vt 0.3108 0.6830
v 0.0285 0.1146 0.0459
vt 0.3114 0.7261
v 0.0517 0.1064 0.0196
vt 0.3086 0.7205
v 0.0517 0.1064 0.0196
vt 0.3086 0.7205
v 0.0246 0.1064 0.0504
vt 0.3087 0.7205
v 0.0246 0.1064 0.0504
vt 0.3087 0.7205
v 0.0385 0.0949 0.0353
vt 0.3177 0.6903
v 0.0385 0.0949 0.0353
vt 0.3177 0.6903
v 0.0381 0.1180 0.0350
vt 0.3175 0.6906
v 0.0381 0.1180 0.0350
vt 0.3175 0.6906
v 0.0550 0.1064 0.0301
vt 0.3298 0.7205
v 0.0550 0.1064 0.0301
vt 0.3298 0.7205
v 0.0550 0.1064 0.0301
vt 0.3159 0.7205
v 0.0550 0.1064 0.0301
vt 0.3159 0.7205
v 0.0528 0.1005 0.0339
vt 0.3276 0.6913
v 0.0528 0.1005 0.0339
vt 0.3276 0.6913
v 0.0528 0.1005 0.0339
vt 0.3282 0.7164
v 0.0528 0.1005 0.0339
vt 0.3185 0.7164
v 0.0354 0.1064 0.0523
vt 0.3162 0.7205
v 0.0354 0.1064 0.0523
vt 0.3162 0.7205
v 0.0354 0.1064 0.0523
vt 0.3162 0.7205
v 0.0354 0.1064 0.0523
vt 0.3162 0.7205
v 0.0390 0.1005 0.0497
vt 0.3180 0.6804
v 0.0390 0.1005 0.0497
vt 0.3186 0.7164
v 0.0390 0.1005 0.0497
vt 0.3180 0.6804
v 0.0390 0.1005 0.0497
vt 0.3186 0.7164
v 0.0463 0.0981 0.0422
vt 0.3231 0.6856
v 0.0463 0.0981 0.0422
vt 0.3231 0.6856
v 0.0463 0.0981 0.0422
vt 0.3231 0.6856
v 0.0463 0.0981 0.0422
vt 0.3231 0.6856
v 0.0450 0.1148 0.0410
vt 0.3222 0.6864
v 0.0450 0.1148 0.0410
vt 0.3222 0.6864
v 0.0450 0.1148 0.0410
vt 0.3222 0.6864
v 0.0450 0.1148 0.0410
vt 0.3222 0.6864
v 0.0380 0.1123 0.0488
vt 0.3174 0.6810
v 0.0380 0.1123 0.0488
vt 0.3180 0.7246
v 0.0380 0.1123 0.0488
vt 0.3174 0.6810
v 0.0380 0.1123 0.0488
vt 0.3180 0.7246
v 0.0519 0.1123 0.0331
vt 0.3270 0.6919
v 0.0519 0.1123 0.0331
vt 0.3270 0.6919
v 0.0519 0.1123 0.0331
vt 0.3276 0.7246
v 0.0519 0.1123 0.0331
vt 0.3180 0.7246
v 0.0570 0.0074 0.0516
vt 0.3305 0.6791
v 0.0570 0.0074 0.0516
vt 0.3305 0.6791
v 0.0570 0.0074 0.0516
vt 0.3305 0.6791
v 0.0570 0.0074 0.0516
vt 0.3305 0.6791
v 0.0503 0.0098 0.0596
vt 0.3259 0.6735
v 0.0503 0.0098 0.0596
vt 0.3259 0.6735
v 0.0503 0.0098 0.0596
vt 0.3265 0.6535
v 0.0503 0.0098 0.0596
vt 0.3265 0.6535
v 0.0604 0.0253 0.0546
vt 0.3329 0.6769
v 0.0604 0.0253 0.0546
vt 0.3329 0.6769
v 0.0604 0.0253 0.0546
vt 0.3329 0.6769
v 0.0604 0.0253 0.0546
vt 0.3335 0.6643
v 0.0604 0.0253 0.0546
vt 0.3329 0.6769
v 0.0604 0.0253 0.0546
vt 0.3329 0.6643
v 0.0523 0.0216 0.0614
vt 0.3273 0.6722
v 0.0523 0.0216 0.0614
vt 0.3279 0.6617
v 0.0523 0.0216 0.0614
vt 0.3376 0.6617
v 0.0523 0.0216 0.0614
vt 0.3273 0.6722
v 0.0483 0.0157 0.0636
vt 0.3251 0.6576
v 0.0483 0.0157 0.0636
vt 0.3251 0.6576
v 0.0483 0.0157 0.0636
vt 0.3251 0.6576
v 0.0483 0.0157 0.0636
vt 0.3391 0.6576
v 0.0678 0.0157 0.0414
vt 0.3387 0.6576
v 0.0678 0.0157 0.0414
vt 0.3387 0.6576
v 0.0678 0.0157 0.0414
vt 0.3387 0.6576
v 0.0678 0.0157 0.0414
vt 0.3237 0.6576
v 0.0661 0.0216 0.0457
vt 0.3369 0.6832
v 0.0661 0.0216 0.0457
vt 0.3375 0.6617
v 0.0661 0.0216 0.0457
vt 0.3375 0.6617
v 0.0661 0.0216 0.0457
vt 0.3369 0.6832
v 0.0641 0.0098 0.0439
vt 0.3355 0.6844
v 0.0641 0.0098 0.0439
vt 0.3355 0.6844
v 0.0641 0.0098 0.0439
vt 0.3361 0.6535
v 0.0641 0.0098 0.0439
vt 0.3255 0.6535
v 0.0678 0.1064 0.0414
vt 0.3387 0.7205
v 0.0678 0.1064 0.0414
vt 0.3387 0.7205
v 0.0678 0.1064 0.0414
vt 0.3387 0.7205
v 0.0678 0.1064 0.0414
vt 0.3237 0.7205
v 0.0661 0.1005 0.0456
vt 0.3368 0.6832
v 0.0661 0.1005 0.0456
vt 0.3375 0.7164
v 0.0661 0.1005 0.0456
vt 0.3375 0.7164
v 0.0661 0.1005 0.0456
vt 0.3368 0.6832
v 0.0482 0.1064 0.0636
vt 0.3251 0.7205
v 0.0482 0.1064 0.0636
vt 0.3251 0.7205
v 0.0482 0.1064 0.0636
vt 0.3251 0.7205
v 0.0482 0.1064 0.0636
vt 0.3391 0.7205
v 0.0523 0.1005 0.0614
vt 0.3272 0.6723
v 0.0523 0.1005 0.0614
vt 0.3279 0.7164
v 0.0523 0.1005 0.0614
vt 0.3376 0.7164
v 0.0523 0.1005 0.0614
vt 0.3272 0.6723
v 0.0603 0.0966 0.0549
vt 0.3329 0.6768
v 0.0603 0.0966 0.0549
vt 0.3329 0.6768
v 0.0603 0.0966 0.0549
vt 0.3329 0.6768
v 0.0603 0.0966 0.0549
vt 0.3335 0.7137
v 0.0603 0.0966 0.0549
vt 0.3329 0.6768
v 0.0603 0.0966 0.0549
vt 0.3331 0.7137
v 0.0570 0.1148 0.0516
vt 0.3305 0.6791
v 0.0570 0.1148 0.0516
vt 0.3305 0.6791
v 0.0570 0.1148 0.0516
vt 0.3305 0.6791
v 0.0570 0.1148 0.0516
vt 0.3305 0.6791
v 0.0503 0.1123 0.0596
vt 0.3259 0.6735
v 0.0503 0.1123 0.0596
vt 0.3259 0.6735
v 0.0503 0.1123 0.0596
vt 0.3265 0.7246
v 0.0503 0.1123 0.0596
vt 0.3265 0.7246
v 0.0641 0.1123 0.0439
vt 0.3355 0.6844
v 0.0641 0.1123 0.0439
vt 0.3355 0.6844
v 0.0641 0.1123 0.0439
vt 0.3361 0.7246
v 0.0641 0.1123 0.0439
vt 0.3255 0.7246
v 0.0752 0.0255 0.0498
vt 0.3438 0.6644
v 0.0752 0.0255 0.0498
vt 0.3438 0.6644
v 0.0752 0.0255 0.0498
vt 0.3295 0.6644
v 0.0752 0.0255 0.0498
vt 0.3295 0.6644
v 0.0684 0.0255 0.0492
vt 0.3391 0.6644
v 0.0684 0.0255 0.0492
vt 0.3391 0.6644
v 0.0684 0.0255 0.0492
vt 0.3385 0.6807
v 0.0684 0.0255 0.0492
vt 0.3391 0.6644
v 0.0571 0.0255 0.0704
vt 0.3312 0.6644
v 0.0571 0.0255 0.0704
vt 0.3312 0.6644
v 0.0571 0.0255 0.0704
vt 0.3438 0.6644
v 0.0571 0.0255 0.0704
vt 0.3438 0.6644
v 0.0556 0.0255 0.0638
vt 0.3296 0.6706
v 0.0556 0.0255 0.0638
vt 0.3392 0.6644
v 0.0556 0.0255 0.0638
vt 0.3392 0.6644
v 0.0556 0.0255 0.0638
vt 0.3392 0.6644
v 0.0719 0.0255 0.0652
vt 0.3415 0.6644
v 0.0719 0.0255 0.0652
vt 0.3415 0.6644
v 0.0719 0.0255 0.0652
vt 0.3402 0.6644
v 0.0719 0.0255 0.0652
vt 0.3402 0.6644
v 0.0638 0.0255 0.0710
vt 0.3359 0.6644
v 0.0638 0.0255 0.0710
vt 0.3359 0.6644
v 0.0638 0.0255 0.0710
vt 0.3359 0.6644
v 0.0638 0.0255 0.0710
vt 0.3359 0.6644
v 0.0767 0.0255 0.0564
vt 0.3341 0.6644
v 0.0767 0.0255 0.0564
vt 0.3341 0.6644
v 0.0767 0.0255 0.0564
vt 0.3341 0.6644
v 0.0767 0.0255 0.0564
vt 0.3341 0.6644
v 0.0753 0.0965 0.0497
vt 0.3438 0.7136
v 0.0753 0.0965 0.0497
vt 0.3438 0.7136
v 0.0753 0.0965 0.0497
vt 0.3295 0.7136
v 0.0753 0.0965 0.0497
vt 0.3295 0.7136
v 0.0685 0.0966 0.0491
vt 0.3391 0.7137
v 0.0685 0.0966 0.0491
vt 0.3391 0.7137
v 0.0685 0.0966 0.0491
vt 0.3385 0.6808
v 0.0685 0.0966 0.0491
vt 0.3391 0.7137
v 0.0570 0.0965 0.0704
vt 0.3312 0.7136
v 0.0570 0.0965 0.0704
vt 0.3312 0.7136
v 0.0570 0.0965 0.0704
vt 0.3438 0.7136
v 0.0570 0.0965 0.0704
vt 0.3438 0.7136
v 0.0556 0.0966 0.0637
vt 0.3296 0.6706
v 0.0556 0.0966 0.0637
vt 0.3392 0.7137
v 0.0556 0.0966 0.0637
vt 0.3392 0.7137
v 0.0556 0.0966 0.0637
vt 0.3392 0.7137
v 0.0719 0.0964 0.0652
vt 0.3415 0.7136
v 0.0719 0.0964 0.0652
vt 0.3415 0.7136
v 0.0719 0.0964 0.0652
vt 0.3402 0.7136
v 0.0719 0.0964 0.0652
vt 0.3402 0.7136
v 0.0638 0.0965 0.0710
vt 0.3359 0.7136
v 0.0638 0.0965 0.0710
vt 0.3359 0.7136
v 0.0638 0.0965 0.0710
vt 0.3359 0.7136
v 0.0638 0.0965 0.0710
vt 0.3359 0.7136
v 0.0767 0.0965 0.0564
vt 0.3341 0.7136
v 0.0767 0.0965 0.0564
vt 0.3341 0.7136
v 0.0767 0.0965 0.0564
vt 0.3341 0.7136
v 0.0767 0.0965 0.0564
vt 0.3341 0.7136
v 0.0678 0.1000 0.0473
vt 0.3386 0.7160
v 0.0678 0.1000 0.0473
vt 0.3386 0.7160
v 0.0678 0.1000 0.0473
vt 0.3380 0.6820
v 0.0733 0.1048 0.0464
vt 0.3425 0.7194
v 0.0733 0.1048 0.0464
vt 0.3425 0.7194
v 0.0733 0.1048 0.0464
vt 0.3272 0.7194
v 0.0733 0.1048 0.0464
vt 0.3272 0.7194
v 0.0732 0.1096 0.0522
vt 0.3418 0.6786
v 0.0732 0.1096 0.0522
vt 0.3312 0.7227
v 0.0732 0.1096 0.0522
vt 0.3312 0.7227
v 0.0732 0.1096 0.0522
vt 0.3312 0.7227
v 0.0675 0.1116 0.0611
vt 0.3378 0.6725
v 0.0675 0.1116 0.0611
vt 0.3378 0.6725
v 0.0675 0.1116 0.0611
vt 0.3384 0.7241
v 0.0675 0.1116 0.0611
vt 0.3374 0.7241
v 0.0594 0.1096 0.0679
vt 0.3322 0.6678
v 0.0594 0.1096 0.0679
vt 0.3328 0.7227
v 0.0594 0.1096 0.0679
vt 0.3328 0.7227
v 0.0594 0.1096 0.0679
vt 0.3328 0.7227
v 0.0537 0.1048 0.0687
vt 0.3289 0.7194
v 0.0537 0.1048 0.0687
vt 0.3289 0.7194
v 0.0537 0.1048 0.0687
vt 0.3426 0.7194
v 0.0537 0.1048 0.0687
vt 0.3426 0.7194
v 0.0539 0.1000 0.0630
vt 0.3387 0.7160
v 0.0539 0.1000 0.0630
vt 0.3284 0.6711
v 0.0539 0.1000 0.0630
vt 0.3387 0.7160
v 0.0677 0.0221 0.0473
vt 0.3386 0.6620
v 0.0677 0.0221 0.0473
vt 0.3386 0.6620
v 0.0677 0.0221 0.0473
vt 0.3380 0.6820
v 0.0733 0.0173 0.0464
vt 0.3424 0.6587
v 0.0733 0.0173 0.0464
vt 0.3424 0.6587
v 0.0733 0.0173 0.0464
vt 0.3272 0.6587
v 0.0733 0.0173 0.0464
vt 0.3272 0.6587
v 0.0732 0.0124 0.0521
vt 0.3418 0.6787
v 0.0732 0.0124 0.0521
vt 0.3312 0.6553
v 0.0732 0.0124 0.0521
vt 0.3312 0.6553
v 0.0732 0.0124 0.0521
vt 0.3312 0.6553
v 0.0675 0.0104 0.0611
vt 0.3378 0.6725
v 0.0675 0.0104 0.0611
vt 0.3378 0.6725
v 0.0675 0.0104 0.0611
vt 0.3384 0.6540
v 0.0675 0.0104 0.0611
vt 0.3374 0.6540
v 0.0594 0.0124 0.0679
vt 0.3322 0.6678
v 0.0594 0.0124 0.0679
vt 0.3328 0.6553
v 0.0594 0.0124 0.0679
vt 0.3328 0.6553
v 0.0594 0.0124 0.0679
vt 0.3328 0.6553
v 0.0537 0.0173 0.0687
vt 0.3289 0.6587
v 0.0537 0.0173 0.0687
vt 0.3289 0.6587
v 0.0537 0.0173 0.0687
vt 0.3426 0.6587
v 0.0537 0.0173 0.0687
vt 0.3426 0.6587
v 0.0539 0.0221 0.0631
vt 0.3387 0.6620
v 0.0539 0.0221 0.0631
vt 0.3284 0.6711
v 0.0539 0.0221 0.0631
vt 0.3387 0.6620
v 0.0617 0.0844 0.0560
vt 0.3344 0.7052
v 0.0617 0.0844 0.0560
vt 0.3344 0.7052
v 0.0617 0.0844 0.0560
vt 0.3339 0.7052
v 0.0617 0.0844 0.0560
vt 0.3339 0.7052
v 0.0617 0.0375 0.0558
vt 0.3344 0.6727
v 0.0617 0.0375 0.0558
vt 0.3344 0.6727
v 0.0617 0.0375 0.0558
vt 0.3337 0.6727
v 0.0617 0.0375 0.0558
vt 0.3337 0.6727
v 0.0583 0.0844 0.0715
vt 0.3321 0.7052
v 0.0583 0.0844 0.0715
vt 0.3321 0.7052
v 0.0583 0.0844 0.0715
vt 0.3446 0.7052
v 0.0583 0.0844 0.0715
vt 0.3446 0.7052
v 0.0583 0.0375 0.0715
vt 0.3321 0.6727
v 0.0583 0.0375 0.0715
vt 0.3321 0.6727
v 0.0583 0.0375 0.0715
vt 0.3446 0.6727
v 0.0583 0.0375 0.0715
vt 0.3446 0.6727
v 0.0651 0.0375 0.0721
vt 0.3368 0.6727
v 0.0651 0.0375 0.0721
vt 0.3368 0.6727
v 0.0651 0.0375 0.0721
vt 0.3368 0.6727
v 0.0651 0.0375 0.0721
vt 0.3368 0.6727
v 0.0651 0.0844 0.0721
vt 0.3368 0.7052
v 0.0651 0.0844 0.0721
vt 0.3368 0.7052
v 0.0651 0.0844 0.0721
vt 0.3368 0.7052
v 0.0651 0.0844 0.0721
vt 0.3368 0.7052
v 0.0732 0.0375 0.0663
vt 0.3424 0.6727
v 0.0732 0.0375 0.0663
vt 0.3424 0.6727
v 0.0732 0.0375 0.0663
vt 0.3410 0.6727
v 0.0732 0.0375 0.0663
vt 0.3410 0.6727
v 0.0732 0.0844 0.0663
vt 0.3424 0.7052
v 0.0732 0.0844 0.0663
vt 0.3424 0.7052
v 0.0732 0.0844 0.0663
vt 0.3410 0.7052
v 0.0732 0.0844 0.0663
vt 0.3410 0.7052
v 0.0569 0.0845 0.0649
vt 0.3400 0.7053
v 0.0569 0.0845 0.0649
vt 0.3400 0.7053
v 0.0569 0.0845 0.0649
vt 0.3400 0.7053
v 0.0569 0.0845 0.0649
vt 0.3400 0.7053
v 0.0569 0.0376 0.0649
vt 0.3400 0.6727
v 0.0569 0.0376 0.0649
vt 0.3400 0.6727
v 0.0569 0.0376 0.0649
vt 0.3400 0.6727
v 0.0569 0.0376 0.0649
vt 0.3400 0.6727
v 0.0780 0.0375 0.0576
vt 0.3349 0.6727
v 0.0780 0.0375 0.0576
vt 0.3349 0.6727
v 0.0780 0.0375 0.0576
vt 0.3349 0.6727
v 0.0780 0.0375 0.0576
vt 0.3349 0.6727
v 0.0780 0.0844 0.0576
vt 0.3349 0.7052
v 0.0780 0.0844 0.0576
vt 0.3349 0.7052
v 0.0780 0.0844 0.0576
vt 0.3349 0.7052
v 0.0780 0.0844 0.0576
vt 0.3349 0.7052
v 0.0765 0.0375 0.0509
vt 0.3447 0.6727
v 0.0765 0.0375 0.0509
vt 0.3447 0.6727
v 0.0765 0.0375 0.0509
vt 0.3303 0.6727
v 0.0765 0.0375 0.0509
vt 0.3303 0.6727
v 0.0766 0.0844 0.0509
vt 0.3447 0.7052
v 0.0766 0.0844 0.0509
vt 0.3447 0.7052
v 0.0766 0.0844 0.0509
vt 0.3303 0.7053
v 0.0766 0.0844 0.0509
vt 0.3303 0.7053
v 0.0698 0.0376 0.0503
vt 0.3400 0.6727
v 0.0698 0.0376 0.0503
vt 0.3400 0.6727
v 0.0698 0.0376 0.0503
vt 0.3400 0.6727
v 0.0698 0.0376 0.0503
vt 0.3400 0.6727
v 0.0698 0.0845 0.0503
vt 0.3400 0.7053
v 0.0698 0.0845 0.0503
vt 0.3400 0.7053
v 0.0698 0.0845 0.0503
vt 0.3400 0.7053
v 0.0698 0.0845 0.0503
vt 0.3400 0.7053
f 7/7 4/4 1/1
f 1/1 13/13 10/10
f 1/1 10/10 7/7
f 5/5 9/9 24/24
f 5/5 24/24 17/17
f 15/15 2/2 20/20
f 15/15 20/20 30/30
f 8/8 11/11 26/26
f 8/8 26/26 23/23
f 3/3 6/6 18/18
f 3/3 18/18 21/21
f 12/12 14/14 29/29
f 12/12 29/29 27/27
f 31/31 34/34 37/37
f 37/37 40/40 43/43
f 37/37 43/43 31/31
f 35/35 47/47 53/53
f 35/35 53/53 38/38
f 44/44 59/59 50/50
f 44/44 50/50 32/32
f 39/39 54/54 56/56
f 39/39 56/56 41/41
f 33/33 51/51 48/48
f 33/33 48/48 36/36
f 42/42 57/57 60/60
f 42/42 60/60 45/45
f 19/19 16/16 46/46
f 19/19 46/46 49/49
f 16/16 22/22 52/52
f 16/16 52/52 46/46
f 22/22 25/25 55/55
f 22/22 55/55 52/52
f 25/25 28/28 58/58
f 25/25 58/58 55/55
f 28/28 19/19 49/49
f 28/28 49/49 58/58
f 92/92 95/95 176/176
f 92/92 176/176 172/172
f 142/142 129/129 195/195
f 142/142 195/195 207/207
f 88/88 91/91 171/171
f 88/88 171/171 166/166
f 107/107 98/98 181/181
f 107/107 181/181 189/189
f 61/61 69/69 77/77
f 61/61 77/77 81/81
f 73/73 62/62 82/82
f 73/73 82/82 93/93
f 67/67 72/72 87/87
f 67/67 87/87 102/102
f 76/76 68/68 104/104
f 76/76 104/104 100/100
f 71/71 65/65 89/89
f 71/71 89/89 85/85
f 64/64 75/75 99/99
f 64/64 99/99 108/108
f 70/70 63/63 106/106
f 70/70 106/106 79/79
f 66/66 74/74 94/94
f 66/66 94/94 90/90
f 83/83 80/80 160/160
f 83/83 160/160 162/162
f 152/152 135/135 200/200
f 152/152 200/200 220/220
f 96/96 84/84 164/164
f 96/96 164/164 177/177
f 125/125 155/155 223/223
f 125/125 223/223 192/192
f 110/110 118/118 128/128
f 110/110 128/128 132/132
f 122/122 109/109 130/130
f 122/122 130/130 143/143
f 116/116 119/119 133/133
f 116/116 133/133 150/150
f 123/123 115/115 149/149
f 123/123 149/149 145/145
f 120/120 114/114 138/138
f 120/120 138/138 134/134
f 111/111 124/124 147/147
f 111/111 147/147 154/154
f 117/117 112/112 156/156
f 117/117 156/156 127/127
f 113/113 121/121 141/141
f 113/113 141/141 137/137
f 131/131 126/126 193/193
f 131/131 193/193 197/197
f 153/153 146/146 214/214
f 153/153 214/214 221/221
f 97/97 103/103 185/185
f 97/97 185/185 180/180
f 136/136 140/140 204/204
f 136/136 204/204 201/201
f 78/78 105/105 187/187
f 78/78 187/187 158/158
f 139/139 144/144 208/208
f 139/139 208/208 203/203
f 101/101 86/86 165/165
f 101/101 165/165 183/183
f 148/148 151/151 218/218
f 148/148 218/218 216/216
f 236/236 347/347 371/371
f 236/236 371/371 240/240
f 250/250 373/373 359/359
f 250/250 359/359 244/244
f 248/248 351/351 345/345
f 248/248 345/345 234/234
f 228/228 383/383 375/375
f 228/228 375/375 252/252
f 229/229 389/389 381/381
f 229/229 381/381 225/225
f 168/168 337/337 391/391
f 168/168 391/391 232/232
f 238/238 369/369 339/339
f 238/238 339/339 170/170
f 196/196 191/191 285/285
f 196/196 285/285 282/282
f 281/281 284/284 254/254
f 281/281 254/254 258/258
f 194/194 224/224 289/289
f 194/194 289/289 286/286
f 287/287 291/291 279/279
f 287/287 279/279 255/255
f 222/222 215/215 293/293
f 222/222 293/293 288/288
f 290/290 295/295 271/271
f 290/290 271/271 277/277
f 213/213 217/217 296/296
f 213/213 296/296 292/292
f 294/294 297/297 273/273
f 294/294 273/273 269/269
f 219/219 199/199 301/301
f 219/219 301/301 299/299
f 298/298 300/300 261/261
f 298/298 261/261 275/275
f 202/202 205/205 304/304
f 202/202 304/304 302/302
f 303/303 306/306 267/267
f 303/303 267/267 263/263
f 198/198 283/283 259/259
f 198/198 259/259 209/209
f 211/211 265/265 305/305
f 211/211 305/305 206/206
f 184/184 308/308 311/311
f 184/184 311/311 179/179
f 307/307 230/230 226/226
f 307/307 226/226 310/310
f 182/182 312/312 315/315
f 182/182 315/315 190/190
f 313/313 227/227 251/251
f 313/313 251/251 317/317
f 188/188 314/314 319/319
f 188/188 319/319 159/159
f 316/316 249/249 243/243
f 316/316 243/243 321/321
f 157/157 318/318 322/322
f 157/157 322/322 161/161
f 320/320 241/241 245/245
f 320/320 245/245 323/323
f 163/163 325/325 327/327
f 163/163 327/327 175/175
f 324/324 247/247 233/233
f 324/324 233/233 326/326
f 178/178 328/328 330/330
f 178/178 330/330 173/173
f 329/329 235/235 239/239
f 329/329 239/239 332/332
f 186/186 167/167 231/231
f 186/186 231/231 309/309
f 169/169 174/174 331/331
f 169/169 331/331 237/237
f 343/343 264/264 268/268
f 343/343 268/268 367/367
f 394/394 257/257 253/253
f 394/394 253/253 386/386
f 365/365 266/266 212/212
f 365/365 212/212 335/335
f 387/387 256/256 280/280
f 387/387 280/280 379/379
f 377/377 278/278 272/272
f 377/377 272/272 363/363
f 242/242 357/357 349/349
f 242/242 349/349 246/246
f 361/361 270/270 274/274
f 361/361 274/274 353/353
f 356/356 276/276 262/262
f 356/356 262/262 342/342
f 396/396 392/392 338/338
f 396/396 338/338 334/334
f 385/385 382/382 390/390
f 385/385 390/390 393/393
f 336/336 340/340 370/370
f 336/336 370/370 366/366
f 380/380 376/376 384/384
f 380/380 384/384 388/388
f 364/364 360/360 374/374
f 364/364 374/374 378/378
f 368/368 372/372 348/348
f 368/368 348/348 344/344
f 354/354 350/350 358/358
f 354/354 358/358 362/362
f 341/341 346/346 352/352
f 341/341 352/352 355/355
f 333/333 210/210 260/260
f 333/333 260/260 395/395
