v 0.0000 -0.0087 -0.0781
vt 0.2803 0.1529
v 0.0000 -0.0087 -0.0781
vt 0.5100 0.1697
v 0.0000 -0.0087 -0.0781
vt 0.4137 0.1643
v 0.0000 -0.0087 -0.0781
vt 0.5731 0.2285
v 0.0000 -0.0087 -0.0781
vt 0.5100 0.1697
v 0.0000 -0.0087 -0.0781
vt 0.5547 0.1785
v 0.0000 0.0437 -0.0703
vt 0.5677 0.2247
v 0.0000 0.0437 -0.0703
vt 0.1913 0.1485
v 0.0000 0.0437 -0.0703
vt 0.3902 0.2239
v 0.0000 0.0437 -0.0703
vt 0.2744 0.1570
v 0.0000 0.0437 -0.0703
vt 0.1913 0.1485
v 0.0000 0.0437 -0.0703
vt 0.5318 0.2383
v 0.0730 -0.0087 -0.0262
vt 0.2771 0.1872
v 0.0730 -0.0087 -0.0262
vt 0.5724 0.1697
v 0.0730 -0.0087 -0.0262
vt 0.4935 0.1650
v 0.0730 -0.0087 -0.0262
vt 0.5328 0.1697
v 0.0730 -0.0087 -0.0262
vt 0.5718 0.1551
v 0.0730 -0.0087 -0.0262
vt 0.2668 0.0936
v 0.0682 0.0437 -0.0217
vt 0.5666 0.1562
v 0.0682 0.0437 -0.0217
vt 0.2677 0.2103
v 0.0682 0.0437 -0.0217
vt 0.2636 0.2277
v 0.0682 0.0437 -0.0217
vt 0.2496 0.1485
v 0.0682 0.0437 -0.0217
vt 0.4746 0.2257
v 0.0682 0.0437 -0.0217
vt 0.2102 0.1485
v 0.0451 -0.0087 0.0579
vt 0.5486 0.1697
v 0.0451 -0.0087 0.0579
vt 0.7138 0.1439
v 0.0451 -0.0087 0.0579
vt 0.4595 0.1697
v 0.0451 -0.0087 0.0579
vt 0.7259 0.1515
v 0.0451 -0.0087 0.0579
vt 0.2611 0.0222
v 0.0451 -0.0087 0.0579
vt 0.2556 0.1821
v 0.0422 0.0437 0.0568
vt 0.2273 0.1485
v 0.0422 0.0437 0.0568
vt 0.7148 0.1465
v 0.0422 0.0437 0.0568
vt 0.2624 0.1436
v 0.0422 0.0437 0.0568
vt 0.1417 0.1485
v 0.0422 0.0437 0.0568
vt 0.7412 0.2099
v 0.0422 0.0437 0.0568
vt 0.2434 0.2229
v -0.0451 -0.0087 0.0579
vt 0.4715 0.1697
v -0.0451 -0.0087 0.0579
vt 0.7138 0.2218
v -0.0451 -0.0087 0.0579
vt 0.5013 0.1397
v -0.0451 -0.0087 0.0579
vt 0.5130 0.1809
v -0.0451 -0.0087 0.0579
vt 0.4595 0.1697
v -0.0451 -0.0087 0.0579
vt 0.7259 0.1515
v -0.0422 0.0437 0.0568
vt 0.1553 0.1485
v -0.0422 0.0437 0.0568
vt 0.7148 0.2192
v -0.0422 0.0437 0.0568
vt 0.5279 0.2242
v -0.0422 0.0437 0.0568
vt 0.5039 0.1398
v -0.0422 0.0437 0.0568
vt 0.1417 0.1485
v -0.0422 0.0437 0.0568
vt 0.7412 0.2099
v -0.0730 -0.0087 -0.0262
vt 0.2789 0.2343
v -0.0730 -0.0087 -0.0262
vt 0.4984 0.2167
v -0.0730 -0.0087 -0.0262
vt 0.4901 0.1874
v -0.0730 -0.0087 -0.0262
vt 0.4477 0.1697
v -0.0730 -0.0087 -0.0262
vt 0.3526 0.1502
v -0.0730 -0.0087 -0.0262
vt 0.5328 0.1697
v -0.0682 0.0437 -0.0217
vt 0.2731 0.2331
v -0.0682 0.0437 -0.0217
vt 0.5012 0.2118
v -0.0682 0.0437 -0.0217
vt 0.5065 0.2303
v -0.0682 0.0437 -0.0217
vt 0.1330 0.1485
v -0.0682 0.0437 -0.0217
vt 0.3331 0.2106
v -0.0682 0.0437 -0.0217
vt 0.2102 0.1485
v 0.2491 -0.0808 -0.3786
vt 0.6826 0.1683
v 0.2491 -0.0808 -0.3786
vt 0.8937 0.2056
v 0.2491 -0.0808 -0.3786
vt 0.9277 0.1716
v 0.2491 -0.0507 -0.3786
vt 0.8937 0.2056
v 0.2491 -0.0507 -0.3786
vt 0.6826 0.1946
v 0.2491 -0.0507 -0.3786
vt 0.9199 0.2071
v 0.2906 -0.0507 -0.3491
vt 0.8929 0.1640
v 0.2906 -0.0507 -0.3491
vt 0.7180 0.1946
v 0.2906 -0.0507 -0.3491
vt 0.8851 0.1995
v 0.2906 -0.0808 -0.3491
vt 0.7180 0.1683
v 0.2906 -0.0808 -0.3491
vt 0.8929 0.1640
v 0.2906 -0.0808 -0.3491
vt 0.8929 0.1640
v 0.4446 -0.0808 0.1151
vt 0.5778 0.1992
v 0.4446 -0.0808 0.1151
vt 0.3693 0.1683
v 0.4446 -0.0808 0.1151
vt 0.5805 0.0510
v 0.4446 -0.0507 0.1151
vt 0.5843 0.1722
v 0.4446 -0.0507 0.1151
vt 0.5721 0.2230
v 0.4446 -0.0507 0.1151
vt 0.3693 0.1946
v 0.4287 -0.0507 0.1629
vt 0.5811 0.1316
v 0.4287 -0.0507 0.1629
vt 0.3277 0.1946
v 0.4287 -0.0507 0.1629
vt 0.5599 0.2200
v 0.4287 -0.0808 0.1629
vt 0.3277 0.1683
v 0.4287 -0.0808 0.1629
vt 0.5773 0.0105
v 0.4287 -0.0808 0.1629
vt 0.5656 0.1963
v 0.0256 -0.0808 0.4498
vt 0.4916 0.1683
v 0.0256 -0.0808 0.4498
vt 0.3685 0.1608
v 0.0256 -0.0808 0.4498
vt 0.2681 0.1763
v 0.0256 -0.0507 0.4498
vt 0.4916 0.1946
v 0.0256 -0.0507 0.4498
vt 0.3685 0.1608
v 0.0256 -0.0507 0.4498
vt 0.2762 0.2100
v -0.0256 -0.0507 0.4498
vt 0.4478 0.1946
v -0.0256 -0.0507 0.4498
vt 0.3685 0.2050
v -0.0256 -0.0507 0.4498
vt 0.2762 0.2100
v -0.0256 -0.0808 0.4498
vt 0.4478 0.1683
v -0.0256 -0.0808 0.4498
vt 0.3685 0.2050
v -0.0256 -0.0808 0.4498
vt 0.2681 0.1763
v -0.4287 -0.0808 0.1629
vt 0.1609 0.1412
v -0.4287 -0.0808 0.1629
vt 0.1804 0.2101
v -0.4287 -0.0808 0.1629
vt 0.3277 0.1683
v -0.4287 -0.0507 0.1629
vt 0.1876 0.2353
v -0.4287 -0.0507 0.1629
vt 0.1609 0.1412
v -0.4287 -0.0507 0.1629
vt 0.3277 0.1946
v -0.4446 -0.0507 0.1151
vt 0.1592 0.1850
v -0.4446 -0.0507 0.1151
vt 0.1746 0.2390
v -0.4446 -0.0507 0.1151
vt 0.3693 0.1946
v -0.4446 -0.0808 0.1151
vt 0.1592 0.1850
v -0.4446 -0.0808 0.1151
vt 0.1674 0.2138
v -0.4446 -0.0808 0.1151
vt 0.3693 0.1683
v -0.2906 -0.0808 -0.3491
vt 0.6354 0.2245
v -0.2906 -0.0808 -0.3491
vt 0.2214 0.1683
v -0.2906 -0.0808 -0.3491
vt 0.7521 0.1536
v -0.2906 -0.0507 -0.3491
vt 0.6354 0.2245
v -0.2906 -0.0507 -0.3491
vt 0.2214 0.1946
v -0.2906 -0.0507 -0.3491
vt 0.7439 0.1890
v -0.2491 -0.0507 -0.3786
vt 0.7785 0.1970
v -0.2491 -0.0507 -0.3786
vt 0.6362 0.1783
v -0.2491 -0.0507 -0.3786
vt 0.2568 0.1946
v -0.2491 -0.0808 -0.3786
vt 0.6362 0.1783
v -0.2491 -0.0808 -0.3786
vt 0.7868 0.1616
v -0.2491 -0.0808 -0.3786
vt 0.2568 0.1683
v 0.0682 0.0881 -0.0217
vt 0.8956 0.1301
v 0.0682 0.0881 -0.0217
vt 0.2496 0.1872
v 0.0682 0.0881 -0.0217
vt 0.8563 0.1301
v 0.0682 0.0881 -0.0217
vt 0.2102 0.1872
v 0.0000 0.0881 -0.0703
vt 0.8373 0.1301
v 0.0000 0.0881 -0.0703
vt 0.1913 0.1872
v 0.0000 0.0881 -0.0703
vt 0.8373 0.1301
v 0.0000 0.0881 -0.0703
vt 0.1913 0.1872
v 0.0422 0.0881 0.0568
vt 0.2273 0.1872
v 0.0422 0.0881 0.0568
vt 0.8733 0.1301
v 0.0422 0.0881 0.0568
vt 0.7877 0.1301
v 0.0422 0.0881 0.0568
vt 0.1417 0.1872
v -0.0422 0.0881 0.0568
vt 0.1553 0.1872
v -0.0422 0.0881 0.0568
vt 0.8013 0.1301
v -0.0422 0.0881 0.0568
vt 0.7877 0.1301
v -0.0422 0.0881 0.0568
vt 0.1417 0.1872
v -0.0682 0.0881 -0.0217
vt 0.7790 0.1301
v -0.0682 0.0881 -0.0217
vt 0.1330 0.1872
v -0.0682 0.0881 -0.0217
vt 0.8563 0.1301
v -0.0682 0.0881 -0.0217
vt 0.2102 0.1872
v 0.0590 0.1242 -0.0188
vt 0.8878 0.1616
v 0.0590 0.1242 -0.0188
vt 0.4271 0.2271
v 0.0590 0.1242 -0.0188
vt 0.8537 0.1616
v 0.0590 0.1242 -0.0188
vt 0.4611 0.2271
v -0.0000 0.1242 -0.0608
vt 0.8373 0.1616
v -0.0000 0.1242 -0.0608
vt 0.4775 0.2271
v -0.0000 0.1242 -0.0608
vt 0.8373 0.1616
v -0.0000 0.1242 -0.0608
vt 0.4775 0.2271
v 0.0365 0.1242 0.0492
vt 0.4463 0.2271
v 0.0365 0.1242 0.0492
vt 0.8685 0.1616
v 0.0365 0.1242 0.0492
vt 0.7944 0.1616
v 0.0365 0.1242 0.0492
vt 0.5204 0.2271
v -0.0365 0.1242 0.0492
vt 0.5087 0.2271
v -0.0365 0.1242 0.0492
vt 0.8061 0.1616
v -0.0365 0.1242 0.0492
vt 0.7944 0.1616
v -0.0365 0.1242 0.0492
vt 0.5204 0.2271
v -0.0590 0.1242 -0.0188
vt 0.7869 0.1616
v -0.0590 0.1242 -0.0188
vt 0.5279 0.2271
v -0.0590 0.1242 -0.0188
vt 0.8537 0.1616
v -0.0590 0.1242 -0.0188
vt 0.4611 0.2271
v 0.0590 0.2286 -0.0188
vt 0.3581 0.2009
v 0.0590 0.2286 -0.0188
vt 0.4271 0.1360
v 0.0590 0.2286 -0.0188
vt 0.4611 0.1360
v -0.0000 0.2286 -0.0608
vt 0.3077 0.2375
v -0.0000 0.2286 -0.0608
vt 0.4775 0.1360
v -0.0000 0.2286 -0.0608
vt 0.4775 0.1360
v 0.0365 0.2286 0.0492
vt 0.4463 0.1360
v 0.0365 0.2286 0.0492
vt 0.3389 0.1416
v 0.0365 0.2286 0.0492
vt 0.5204 0.1360
v -0.0365 0.2286 0.0492
vt 0.5087 0.1360
v -0.0365 0.2286 0.0492
vt 0.2765 0.1416
v -0.0365 0.2286 0.0492
vt 0.5204 0.1360
v -0.0590 0.2286 -0.0188
vt 0.2573 0.2009
v -0.0590 0.2286 -0.0188
vt 0.5279 0.1360
v -0.0590 0.2286 -0.0188
vt 0.4611 0.1360
v 0.0324 0.2286 -0.0129
vt 0.3354 0.1958
v 0.0324 0.2286 -0.0129
vt 0.1648 0.1523
v 0.0324 0.2286 -0.0129
vt 0.1648 0.1687
v -0.0000 0.2286 -0.0360
vt 0.3077 0.2159
v -0.0000 0.2286 -0.0360
vt 0.1648 0.1800
v -0.0000 0.2286 -0.0360
vt 0.1648 0.1800
v 0.0200 0.2286 0.0244
vt 0.1648 0.1628
v 0.0200 0.2286 0.0244
vt 0.3248 0.1632
v 0.0200 0.2286 0.0244
vt 0.1648 0.2012
v -0.0200 0.2286 0.0244
vt 0.1648 0.1971
v -0.0200 0.2286 0.0244
vt 0.2906 0.1632
v -0.0200 0.2286 0.0244
vt 0.1648 0.2012
v -0.0324 0.2286 -0.0129
vt 0.2800 0.1958
v -0.0324 0.2286 -0.0129
vt 0.1648 0.2076
v -0.0324 0.2286 -0.0129
vt 0.1648 0.1687
v 0.0324 0.3995 -0.0129
vt 0.5277 0.5113
v 0.0324 0.3995 -0.0129
vt 0.3139 0.1523
v 0.0324 0.3995 -0.0129
vt 0.3139 0.1687
v 0.0000 0.3995 -0.0360
vt 0.5000 0.5314
v 0.0000 0.3995 -0.0360
vt 0.3139 0.1800
v 0.0000 0.3995 -0.0360
vt 0.3139 0.1800
v 0.0200 0.3995 0.0244
vt 0.3139 0.1628
v 0.0200 0.3995 0.0244
vt 0.5171 0.4787
v 0.0200 0.3995 0.0244
vt 0.3139 0.2012
v -0.0200 0.3995 0.0244
vt 0.3139 0.1971
v -0.0200 0.3995 0.0244
vt 0.4829 0.4787
v -0.0200 0.3995 0.0244
vt 0.3139 0.2012
v -0.0324 0.3995 -0.0129
vt 0.4723 0.5113
v -0.0324 0.3995 -0.0129
vt 0.3139 0.2076
v -0.0324 0.3995 -0.0129
vt 0.3139 0.1687
v 0.0000 -0.0421 -0.0675
vt 0.5100 0.2361
v 0.0000 -0.0421 -0.0675
vt 0.5100 0.1405
v 0.0000 -0.0421 -0.0675
vt 0.5100 0.1405
v 0.0616 -0.0421 -0.0237
vt 0.5627 0.1979
v 0.0616 -0.0421 -0.0237
vt 0.5627 0.1405
v 0.0616 -0.0421 -0.0237
vt 0.5307 0.1405
v 0.0381 -0.0421 0.0473
vt 0.5426 0.1405
v 0.0381 -0.0421 0.0473
vt 0.5426 0.1360
v 0.0381 -0.0421 0.0473
vt 0.4688 0.1405
v -0.0381 -0.0421 0.0473
vt 0.4775 0.1405
v -0.0381 -0.0421 0.0473
vt 0.4775 0.1360
v -0.0381 -0.0421 0.0473
vt 0.4688 0.1405
v -0.0616 -0.0421 -0.0237
vt 0.4574 0.1979
v -0.0616 -0.0421 -0.0237
vt 0.4574 0.1405
v -0.0616 -0.0421 -0.0237
vt 0.5307 0.1405
v -0.2356 0.3776 0.2505
vt 0.5323 0.9673
v -0.2356 0.3776 0.2505
vt 0.2987 0.2815
v -0.2356 0.3776 0.2505
vt 0.5323 0.9784
v 0.2350 0.3776 0.2505
vt 0.5323 0.7083
v 0.2350 0.3776 0.2505
vt 0.7008 0.2815
v 0.2350 0.3776 0.2505
vt 0.5323 0.9784
v -0.2356 0.3776 -0.2474
vt 0.5323 0.9673
v -0.2356 0.3776 -0.2474
vt 0.2987 0.7464
v -0.2356 0.3776 -0.2474
vt 0.5323 0.6790
v 0.2350 0.3776 -0.2474
vt 0.5323 0.7083
v 0.2350 0.3776 -0.2474
vt 0.7008 0.7464
v 0.2350 0.3776 -0.2474
vt 0.5323 0.6790
v -0.2146 0.4930 -0.2269
vt 0.3757 0.9439
v -0.2146 0.4930 -0.2269
vt 0.3872 0.5880
v -0.2146 0.4930 -0.2269
vt 0.4437 0.9395
v -0.2356 0.4725 -0.2474
vt 0.5857 0.9673
v -0.2356 0.4725 -0.2474
vt 0.3616 0.9580
v -0.2356 0.4725 -0.2474
vt 0.4578 0.9536
v -0.2356 0.4725 -0.2474
vt 0.5857 0.6790
v -0.2356 0.4725 0.2505
vt 0.5857 0.9673
v -0.2356 0.4725 0.2505
vt 0.3616 0.9580
v -0.2356 0.4725 0.2505
vt 0.0913 0.9536
v -0.2356 0.4725 0.2505
vt 0.5857 0.9784
v -0.2146 0.4930 0.2300
vt 0.3757 0.9439
v -0.2146 0.4930 0.2300
vt 0.0154 0.5880
v -0.2146 0.4930 0.2300
vt 0.1054 0.9395
v 0.2350 0.4725 0.2505
vt 0.5857 0.7083
v 0.2350 0.4725 0.2505
vt 0.3616 0.6410
v 0.2350 0.4725 0.2505
vt 0.3616 0.9716
v 0.2350 0.4725 0.2505
vt 0.5857 0.9784
v 0.2140 0.4930 0.2300
vt 0.3757 0.6551
v 0.2140 0.4930 0.2300
vt 0.0154 0.2706
v 0.2140 0.4930 0.2300
vt 0.3757 0.9575
v 0.2350 0.4725 -0.2474
vt 0.5857 0.7083
v 0.2350 0.4725 -0.2474
vt 0.3616 0.6410
v 0.2350 0.4725 -0.2474
vt 0.3616 0.6051
v 0.2350 0.4725 -0.2474
vt 0.5857 0.6790
v 0.2140 0.4930 -0.2269
vt 0.3757 0.6551
v 0.2140 0.4930 -0.2269
vt 0.3872 0.2706
v 0.2140 0.4930 -0.2269
vt 0.3757 0.6192
v -0.2356 0.9169 0.3184
vt 0.5896 0.7942
v -0.2356 0.9169 0.3184
vt 0.5312 0.8662
v -0.2356 0.9169 0.3184
vt 0.5123 0.9397
v 0.2350 0.9169 0.3184
vt 0.9918 0.7942
v 0.2350 0.9169 0.3184
vt 0.5312 0.8662
v 0.2350 0.9169 0.3184
vt 0.5123 0.9397
v -0.2356 0.6596 0.2980
vt 0.2963 0.3004
v -0.2356 0.6596 0.2980
vt 0.5312 0.6415
v -0.2356 0.6596 0.2980
vt 0.5013 0.6701
v 0.2350 0.6596 0.2980
vt 0.5312 0.6415
v 0.2350 0.6596 0.2980
vt 0.5013 0.6701
v 0.2350 0.6596 0.2980
vt 0.6984 0.3004
v -0.2146 0.6740 0.2226
vt 0.5487 0.6515
v -0.2146 0.6740 0.2226
vt 0.5596 0.6406
v -0.2146 0.6740 0.2226
vt 0.5519 0.6388
v -0.2356 0.6617 0.2354
vt 0.2963 0.3548
v -0.2356 0.6617 0.2354
vt 0.5280 0.6392
v -0.2356 0.6617 0.2354
vt 0.5314 0.6237
v -0.2356 0.6617 0.2354
vt 0.5558 0.6666
v -0.2356 0.9190 0.2558
vt 0.5503 0.9609
v -0.2356 0.9190 0.2558
vt 0.5896 0.8486
v -0.2356 0.9190 0.2558
vt 0.5314 0.9815
v -0.2356 0.9190 0.2558
vt 0.5668 0.9361
v -0.2146 0.9076 0.2416
vt 0.5599 0.9475
v -0.2146 0.9076 0.2416
vt 0.5596 0.9708
v -0.2146 0.9076 0.2416
vt 0.5519 0.9690
v 0.2350 0.9190 0.2558
vt 0.9918 0.8486
v 0.2350 0.9190 0.2558
vt 0.9918 0.9815
v 0.2350 0.9190 0.2558
vt 0.5668 0.9361
v 0.2350 0.9190 0.2558
vt 0.5503 0.6599
v 0.2140 0.9076 0.2416
vt 0.9713 0.9690
v 0.2140 0.9076 0.2416
vt 0.5599 0.6733
v 0.2140 0.9076 0.2416
vt 0.5596 0.9708
v 0.2350 0.6617 0.2354
vt 0.9918 0.6237
v 0.2350 0.6617 0.2354
vt 0.5558 0.6666
v 0.2350 0.6617 0.2354
vt 0.6984 0.3548
v 0.2350 0.6617 0.2354
vt 0.9936 0.6392
v 0.2140 0.6740 0.2226
vt 0.9713 0.6388
v 0.2140 0.6740 0.2226
vt 0.9728 0.6515
v 0.2140 0.6740 0.2226
vt 0.5596 0.6406
v -0.0003 0.9182 0.3467
vt 0.7907 0.7695
v -0.0003 0.9182 0.3467
vt 0.3628 0.8662
v -0.0003 0.9182 0.3467
vt 0.7907 0.7695
v -0.0003 0.9182 0.3467
vt 0.3628 0.8662
v -0.0003 0.6609 0.3263
vt 0.4974 0.2757
v -0.0003 0.6609 0.3263
vt 0.3628 0.6415
v -0.0003 0.6609 0.3263
vt 0.4974 0.2757
v -0.0003 0.6609 0.3263
vt 0.3628 0.6415
v -0.0003 0.9204 0.2842
vt 0.7907 0.8239
v -0.0003 0.9204 0.2842
vt 0.5317 0.8104
v -0.0003 0.9204 0.2842
vt 0.7907 0.8239
v -0.0003 0.9204 0.2842
vt 0.5317 0.8104
v -0.0003 0.9089 0.2699
vt 0.5414 0.8104
v -0.0003 0.9089 0.2699
vt 0.7693 0.9708
v -0.0003 0.9089 0.2699
vt 0.5414 0.8104
v -0.0003 0.9089 0.2699
vt 0.7693 0.9708
v -0.0003 0.6630 0.2638
vt 0.4974 0.3301
v -0.0003 0.6630 0.2638
vt 0.7608 0.6106
v -0.0003 0.6630 0.2638
vt 0.4974 0.3301
v -0.0003 0.6630 0.2638
vt 0.7608 0.6106
v -0.0003 0.6754 0.2509
vt 0.7608 0.6229
v -0.0003 0.6754 0.2509
vt 0.7693 0.6406
v -0.0003 0.6754 0.2509
vt 0.7608 0.6229
v -0.0003 0.6754 0.2509
vt 0.7693 0.6406
v -0.2316 0.9064 0.3233
vt 0.2871 0.1939
v -0.2316 0.9064 0.3233
vt 0.6666 0.2194
v -0.2316 0.9064 0.3233
vt 0.5339 0.1489
v -0.2316 0.9064 0.3233
vt 0.1969 0.2138
v 0.2310 0.9064 0.3233
vt 0.5355 0.1596
v 0.2310 0.9064 0.3233
vt 0.5922 0.2138
v 0.2310 0.9064 0.3233
vt 0.6823 0.1939
v 0.2310 0.9064 0.3233
vt 0.6666 0.2194
v -0.2277 0.3495 0.2744
vt 0.4344 0.2007
v -0.2277 0.3495 0.2744
vt 0.2937 0.1618
v -0.2277 0.3495 0.2744
vt 0.0042 0.1456
v -0.2316 0.9114 0.2620
vt 0.6423 0.1891
v -0.2316 0.9114 0.2620
vt 0.2871 0.2474
v -0.2316 0.9114 0.2620
vt 0.1909 0.1941
v -0.2316 0.9114 0.2620
vt 0.6663 0.1657
v 0.2310 0.9114 0.2620
vt 0.6603 0.1694
v 0.2310 0.9114 0.2620
vt 0.6823 0.2474
v 0.2310 0.9114 0.2620
vt 0.5862 0.1941
v 0.2310 0.9114 0.2620
vt 0.6663 0.1657
v 0.2271 0.3495 0.2744
vt 0.1381 0.1945
v 0.2271 0.3495 0.2744
vt 0.0058 0.1630
v 0.2271 0.3495 0.2744
vt 0.2246 0.1679
v -0.0003 0.9064 0.3512
vt 0.4847 0.1696
v -0.0003 0.9064 0.3512
vt 0.3946 0.2258
v -0.0003 0.9064 0.3512
vt 0.4847 0.1696
v -0.0003 0.9064 0.3512
vt 0.3946 0.2258
v -0.0003 0.9114 0.2899
vt 0.4847 0.2231
v -0.0003 0.9114 0.2899
vt 0.3886 0.1941
v -0.0003 0.9114 0.2899
vt 0.4847 0.2231
v -0.0003 0.9114 0.2899
vt 0.3886 0.1941
v -0.2433 0.9187 0.3243
vt 0.5446 0.1590
v -0.2433 0.9187 0.3243
vt 0.2059 0.1603
v -0.2433 0.9187 0.3243
vt 0.1869 0.2245
v -0.2433 0.9187 0.3243
vt 0.7678 0.2243
v -0.0003 0.9232 0.3526
vt 0.5146 0.1237
v -0.0003 0.9232 0.3526
vt 0.3946 0.2405
v -0.0003 0.9232 0.3526
vt 0.5146 0.1237
v -0.0003 0.9232 0.3526
vt 0.3946 0.2405
v 0.2427 0.9187 0.3243
vt 0.5462 0.1496
v 0.2427 0.9187 0.3243
vt 0.8232 0.1603
v 0.2427 0.9187 0.3243
vt 0.6022 0.2245
v 0.2427 0.9187 0.3243
vt 0.0346 0.1423
v -0.2488 0.3495 0.2744
vt 0.4344 0.2188
v -0.2488 0.3495 0.2744
vt 0.0042 0.1637
v -0.2488 0.3495 0.2744
vt 0.0500 0.1226
v -0.2443 0.9227 0.2629
vt 0.6522 0.2000
v -0.2443 0.9227 0.2629
vt 0.1800 0.2040
v -0.2443 0.9227 0.2629
vt 0.2046 0.2399
v -0.2443 0.9227 0.2629
vt 0.7660 0.1415
v -0.0003 0.9282 0.2913
vt 0.5146 0.2031
v -0.0003 0.9282 0.2913
vt 0.3886 0.2088
v -0.0003 0.9282 0.2913
vt 0.5146 0.2031
v -0.0003 0.9282 0.2913
vt 0.3886 0.2088
v 0.2437 0.9227 0.2629
vt 0.8246 0.2399
v 0.2437 0.9227 0.2629
vt 0.0364 0.2251
v 0.2437 0.9227 0.2629
vt 0.6702 0.1585
v 0.2437 0.9227 0.2629
vt 0.5971 0.2040
v 0.2482 0.3495 0.2744
vt 0.1397 0.1765
v 0.2482 0.3495 0.2744
vt 0.0058 0.1449
v 0.2482 0.3495 0.2744
vt 0.0500 0.1226
v -0.2277 0.4257 0.2817
vt 0.2020 0.2236
v -0.2277 0.4257 0.2817
vt 0.2873 0.2283
v -0.2277 0.4257 0.2817
vt 0.0706 0.1456
v -0.2277 0.4257 0.2817
vt 0.0706 0.1456
v -0.2277 0.4307 0.2204
vt 0.1791 0.1858
v -0.2277 0.4307 0.2204
vt 0.3381 0.1734
v -0.2277 0.4307 0.2204
vt 0.2017 0.1700
v -0.2277 0.4307 0.2204
vt 0.3408 0.2327
v -0.2480 0.4275 0.2819
vt 0.0722 0.1630
v -0.2480 0.4275 0.2819
vt 0.0722 0.1630
v -0.2480 0.4275 0.2819
vt 0.0364 0.2310
v -0.2480 0.4275 0.2819
vt 0.0399 0.2277
v -0.2481 0.4324 0.2206
vt 0.1805 0.2032
v -0.2481 0.4324 0.2206
vt 0.3380 0.1909
v -0.2481 0.4324 0.2206
vt 0.0357 0.1482
v -0.2481 0.4324 0.2206
vt 0.1225 0.2342
v 0.2271 0.4257 0.2817
vt 0.0722 0.1630
v 0.2271 0.4257 0.2817
vt 0.0722 0.1630
v 0.2271 0.4257 0.2817
vt 0.2020 0.2236
v 0.2271 0.4257 0.2817
vt 0.2182 0.2343
v 0.2271 0.4307 0.2204
vt 0.1971 0.1727
v 0.2271 0.4307 0.2204
vt 0.3383 0.1909
v 0.2271 0.4307 0.2204
vt 0.2017 0.1700
v 0.2271 0.4307 0.2204
vt 0.2717 0.2387
v 0.2474 0.4275 0.2819
vt 0.0738 0.1456
v 0.2474 0.4275 0.2819
vt 0.0738 0.1456
v 0.2474 0.4275 0.2819
vt 0.7660 0.1356
v 0.2474 0.4275 0.2819
vt 0.0399 0.2277
v 0.2475 0.4324 0.2206
vt 0.7667 0.2184
v 0.2475 0.4324 0.2206
vt 0.1225 0.2342
v 0.2475 0.4324 0.2206
vt 0.1986 0.1553
v 0.2475 0.4324 0.2206
vt 0.3381 0.1734
v 0.2271 0.4272 -0.2490
vt 0.6580 0.2357
v 0.2271 0.4272 -0.2490
vt 0.6610 0.1649
v 0.2271 0.4272 -0.2490
vt 0.7783 0.1909
v 0.2271 0.4272 -0.2490
vt 0.6610 0.1649
v 0.2271 0.4272 -0.2490
vt 0.7117 0.2357
v 0.2271 0.3511 -0.2490
vt 0.6580 0.1692
v 0.2271 0.3511 -0.2490
vt 0.6234 0.2370
v 0.2271 0.3511 -0.2490
vt 0.6610 0.1649
v 0.2271 0.3511 -0.2490
vt 0.7117 0.1692
v 0.2475 0.4289 -0.2490
vt 0.7461 0.2295
v 0.2475 0.4289 -0.2490
vt 0.8021 0.2295
v 0.2475 0.4289 -0.2490
vt 0.7783 0.1734
v 0.2475 0.4289 -0.2490
vt 0.6785 0.1649
v -0.2488 0.3511 -0.2490
vt 0.9216 0.2188
v -0.2488 0.3511 -0.2490
vt 0.2543 0.1649
v -0.2488 0.3511 -0.2490
vt 0.0913 0.1247
v -0.2488 0.3511 -0.2490
vt 0.8021 0.1247
v -0.2277 0.3511 -0.2490
vt 0.2694 0.1692
v -0.2277 0.3511 -0.2490
vt 0.9216 0.2007
v -0.2277 0.3511 -0.2490
vt 0.2724 0.1649
v -0.2277 0.3511 -0.2490
vt 0.7808 0.1632
v -0.2277 0.4272 -0.2490
vt 0.2694 0.2357
v -0.2277 0.4272 -0.2490
vt 0.2724 0.1649
v -0.2277 0.4272 -0.2490
vt 0.7782 0.1734
v -0.2277 0.4272 -0.2490
vt 0.2724 0.1649
v -0.2277 0.4272 -0.2490
vt 0.7808 0.2297
v -0.2481 0.4289 -0.2490
vt 0.7782 0.1909
v -0.2481 0.4289 -0.2490
vt 0.2549 0.1649
v -0.2481 0.4289 -0.2490
vt 0.0922 0.2295
v -0.2481 0.4289 -0.2490
vt 0.8021 0.2295
v 0.2271 0.4272 -0.2610
vt 0.7191 0.2273
v 0.2271 0.4272 -0.2610
vt 0.6610 0.1753
v 0.2271 0.4272 -0.2610
vt 0.7191 0.2273
v 0.2271 0.4272 -0.2610
vt 0.6610 0.1753
v 0.2271 0.3511 -0.2610
vt 0.7191 0.1247
v 0.2271 0.3511 -0.2610
vt 0.6610 0.1753
v 0.2271 0.3511 -0.2610
vt 0.7191 0.1247
v -0.2277 0.3511 -0.2610
vt 0.1192 0.1247
v -0.2277 0.3511 -0.2610
vt 0.2724 0.1753
v -0.2277 0.3511 -0.2610
vt 0.1192 0.1247
v -0.2277 0.4272 -0.2610
vt 0.1192 0.2273
v -0.2277 0.4272 -0.2610
vt 0.2724 0.1753
v -0.2277 0.4272 -0.2610
vt 0.2724 0.1753
v -0.2277 0.4272 -0.2610
vt 0.1192 0.2273
v 0.2482 0.3511 -0.2490
vt 0.6250 0.2190
v 0.2482 0.3511 -0.2490
vt 0.6790 0.1649
v 0.2482 0.3511 -0.2490
vt 0.7470 0.1247
v 0.2482 0.3511 -0.2490
vt 0.8021 0.1247
v -0.4252 -0.0755 0.1185
vt 0.3521 0.1289
v -0.4252 -0.0755 0.1185
vt 0.0873 0.0849
v -0.4252 -0.0755 0.1185
vt 0.2344 0.1367
v -0.4185 -0.0755 0.1418
vt 0.0830 0.0947
v -0.4185 -0.0755 0.1418
vt 0.3950 0.1289
v -0.4185 -0.0755 0.1418
vt 0.1915 0.1367
v -0.4573 -0.1163 0.1526
vt 0.0265 0.1033
v -0.4573 -0.1163 0.1526
vt 0.1915 0.2374
v -0.4573 -0.1163 0.1526
vt 0.1486 0.1367
v -0.4641 -0.1163 0.1294
vt 0.0746 0.0282
v -0.4641 -0.1163 0.1294
vt 0.2344 0.2374
v -0.4641 -0.1163 0.1294
vt 0.1915 0.1367
v -0.4312 -0.1666 0.1453
vt 0.8810 0.7328
v -0.4312 -0.1666 0.1453
vt -0.0011 0.0527
v -0.4312 -0.1666 0.1453
vt 0.1486 0.2374
v -0.4380 -0.1666 0.1220
vt 0.8038 0.7325
v -0.4380 -0.1666 0.1220
vt 0.0169 0.0226
v -0.4380 -0.1666 0.1220
vt 0.1915 0.2375
v -0.3762 -0.1569 0.1300
vt 0.8810 0.5515
v -0.3762 -0.1569 0.1300
vt 0.0382 0.0128
v -0.3762 -0.1569 0.1300
vt 0.1486 0.2375
v -0.3829 -0.1569 0.1067
vt 0.8038 0.5513
v -0.3829 -0.1569 0.1067
vt 0.1057 0.2375
v -0.3829 -0.1569 0.1067
vt -0.0062 0.0760
v -0.3683 -0.1005 0.1278
vt 0.0902 0.0387
v -0.3683 -0.1005 0.1278
vt 0.3950 0.2297
v -0.3683 -0.1005 0.1278
vt 0.1486 0.1367
v -0.3751 -0.1005 0.1045
vt 0.3521 0.2297
v -0.3751 -0.1005 0.1045
vt 0.1057 0.1367
v -0.3751 -0.1005 0.1045
vt 0.0373 0.1145
v 0.0072 -0.0973 0.4727
vt 0.2810 0.2268
v 0.0072 -0.0973 0.4727
vt 0.4068 0.1529
v 0.0072 -0.0973 0.4727
vt 0.0200 0.0977
v -0.0175 -0.0973 0.4728
vt 0.3124 0.2268
v -0.0175 -0.0973 0.4728
vt 0.4383 0.1529
v -0.0175 -0.0973 0.4728
vt 0.0898 0.0303
v 0.0071 -0.1536 0.4647
vt 0.3439 0.1529
v 0.0071 -0.1536 0.4647
vt 0.4068 0.2268
v 0.0071 -0.1536 0.4647
vt -0.0111 0.0425
v -0.0176 -0.1536 0.4648
vt 0.3753 0.1529
v -0.0176 -0.1536 0.4648
vt 0.4383 0.2268
v -0.0176 -0.1536 0.4648
vt 0.0343 -0.0005
v 0.0069 -0.1634 0.4086
vt 0.3439 0.2268
v 0.0069 -0.1634 0.4086
vt 0.0317 -0.0042
v 0.0069 -0.1634 0.4086
vt 0.4068 0.2268
v -0.0179 -0.1634 0.4087
vt 0.3753 0.2268
v -0.0179 -0.1634 0.4087
vt 0.3753 0.2268
v -0.0179 -0.1634 0.4087
vt -0.0121 0.0427
v 0.0067 -0.1131 0.3820
vt 0.0894 0.0221
v 0.0067 -0.1131 0.3820
vt 0.3439 0.2268
v 0.0067 -0.1131 0.3820
vt 0.4068 0.1529
v -0.0180 -0.1131 0.3821
vt 0.3124 0.2268
v -0.0180 -0.1131 0.3821
vt 0.3753 0.1529
v -0.0180 -0.1131 0.3821
vt 0.0147 0.1002
v 0.4407 -0.0810 0.1265
vt 0.0693 0.0708
v 0.4407 -0.0810 0.1265
vt 0.4737 0.2202
v 0.4407 -0.0810 0.1265
vt 0.3594 0.1683
v 0.4407 -0.0810 0.1265
vt 0.5797 0.0413
v -0.0178 -0.0723 0.4217
vt 0.3124 0.1529
v -0.0178 -0.0723 0.4217
vt 0.3124 0.1529
v -0.0178 -0.0723 0.4217
vt 0.0777 0.0925
v 0.0069 -0.0723 0.4216
vt 0.2810 0.1529
v 0.0069 -0.0723 0.4216
vt 0.0822 0.0851
v 0.0069 -0.0723 0.4216
vt 0.3439 0.1529
v 0.4759 -0.0985 0.1362
vt 0.0368 0.0759
v 0.4759 -0.0985 0.1362
vt 0.5797 0.2294
v 0.4759 -0.0985 0.1362
vt 0.5757 0.1803
v 0.4692 -0.0985 0.1595
vt 0.5839 0.1662
v 0.4692 -0.0985 0.1595
vt 0.5780 0.1496
v 0.4692 -0.0985 0.1595
vt 0.0815 0.0230
v 0.4680 -0.1549 0.1340
vt 0.5723 0.2151
v 0.4680 -0.1549 0.1340
vt 0.0096 0.0325
v 0.4680 -0.1549 0.1340
vt 0.6580 0.1875
v 0.4613 -0.1549 0.1573
vt 0.5757 0.1803
v 0.4613 -0.1549 0.1573
vt 0.6603 0.1568
v 0.4613 -0.1549 0.1573
vt 0.0366 -0.0021
v 0.4130 -0.1647 0.1188
vt 0.6541 0.2223
v 0.4130 -0.1647 0.1188
vt 0.0391 -0.0014
v 0.4130 -0.1647 0.1188
vt 0.4322 0.1532
v 0.4063 -0.1647 0.1421
vt 0.6575 0.1874
v 0.4063 -0.1647 0.1421
vt 0.0001 0.0315
v 0.4063 -0.1647 0.1421
vt 0.4335 0.2217
v 0.3868 -0.1144 0.1116
vt 0.0846 0.0209
v 0.3868 -0.1144 0.1116
vt 0.8871 0.1664
v 0.3868 -0.1144 0.1116
vt 0.2522 0.1673
v 0.3801 -0.1144 0.1349
vt 0.0225 0.0774
v 0.3801 -0.1144 0.1349
vt 0.8846 0.2383
v 0.3801 -0.1144 0.1349
vt 0.2535 0.2358
v 0.4190 -0.0735 0.1456
vt 0.4327 0.1530
v 0.4190 -0.0735 0.1456
vt 0.0728 0.0722
v 0.4190 -0.0735 0.1456
vt 0.7051 0.2226
v 0.4257 -0.0735 0.1223
vt 0.0831 0.0687
v 0.4257 -0.0735 0.1223
vt 0.4286 0.2162
v 0.4257 -0.0735 0.1223
vt 0.7077 0.1507
v 0.2787 -0.1017 -0.3889
vt 0.9244 0.2135
v 0.2787 -0.1017 -0.3889
vt 0.8200 0.1897
v 0.2787 -0.1017 -0.3889
vt 0.0762 0.0499
v 0.2977 -0.1017 -0.3734
vt 0.9269 0.1512
v 0.2977 -0.1017 -0.3734
vt 0.8191 0.1469
v 0.2977 -0.1017 -0.3734
vt 0.0762 0.0499
v 0.2735 -0.1580 -0.3827
vt 0.9038 0.2127
v 0.2735 -0.1580 -0.3827
vt 0.6907 0.2042
v 0.2735 -0.1580 -0.3827
vt 0.0402 0.0133
v 0.2925 -0.1580 -0.3673
vt 0.9063 0.1503
v 0.2925 -0.1580 -0.3673
vt 0.6898 0.1614
v 0.2925 -0.1580 -0.3673
vt 0.0402 0.0133
v 0.2369 -0.1678 -0.3396
vt 0.7593 0.2070
v 0.2369 -0.1678 -0.3396
vt 0.7044 0.1958
v 0.2369 -0.1678 -0.3396
vt 0.0040 0.0306
v 0.2559 -0.1678 -0.3242
vt 0.7618 0.1446
v 0.2559 -0.1678 -0.3242
vt 0.0040 0.0306
v 0.2559 -0.1678 -0.3242
vt 0.7035 0.1530
v 0.2195 -0.1175 -0.3191
vt 0.6907 0.2042
v 0.2195 -0.1175 -0.3191
vt 0.8209 0.2325
v 0.2195 -0.1175 -0.3191
vt 0.0177 0.0779
v 0.2385 -0.1175 -0.3037
vt 0.0177 0.0779
v 0.2385 -0.1175 -0.3037
vt 0.6932 0.1418
v 0.2385 -0.1175 -0.3037
vt 0.8200 0.1897
v 0.2454 -0.0766 -0.3496
vt 0.7927 0.2083
v 0.2454 -0.0766 -0.3496
vt 0.7927 0.2083
v 0.2454 -0.0766 -0.3496
vt 0.0623 0.0898
v 0.2644 -0.0766 -0.3341
vt 0.7952 0.1459
v 0.2644 -0.0766 -0.3341
vt 0.0623 0.0898
v 0.2644 -0.0766 -0.3341
vt 0.7952 0.1459
v -0.3013 -0.0974 -0.3696
vt 0.7745 0.1559
v -0.3013 -0.0974 -0.3696
vt 0.8064 0.1199
v -0.3013 -0.0974 -0.3696
vt 0.0835 0.0391
v -0.2822 -0.0974 -0.3850
vt 0.0791 0.0176
v -0.2822 -0.0974 -0.3850
vt 0.7720 0.2057
v -0.2822 -0.0974 -0.3850
vt 0.8095 0.1629
v -0.2961 -0.1537 -0.3634
vt 0.7910 0.1567
v -0.2961 -0.1537 -0.3634
vt 0.9370 0.1226
v -0.2961 -0.1537 -0.3634
vt 0.0426 0.0055
v -0.2770 -0.1537 -0.3788
vt 0.0288 0.0009
v -0.2770 -0.1537 -0.3788
vt 0.7885 0.2065
v -0.2770 -0.1537 -0.3788
vt 0.9400 0.1655
v -0.2597 -0.1635 -0.3202
vt 0.9370 0.1226
v -0.2597 -0.1635 -0.3202
vt 0.9064 0.1625
v -0.2597 -0.1635 -0.3202
vt -0.0020 0.0340
v -0.2406 -0.1635 -0.3356
vt 0.9400 0.1655
v -0.2406 -0.1635 -0.3356
vt -0.0026 0.0435
v -0.2406 -0.1635 -0.3356
vt 0.9039 0.2123
v -0.2424 -0.1132 -0.2996
vt 0.9612 0.1653
v -0.2424 -0.1132 -0.2996
vt 0.8239 0.1697
v -0.2424 -0.1132 -0.2996
vt 0.0113 0.0852
v -0.2233 -0.1132 -0.3150
vt 0.9586 0.2151
v -0.2233 -0.1132 -0.3150
vt 0.8269 0.2127
v -0.2233 -0.1132 -0.3150
vt 0.0282 0.0866
v -0.2490 -0.0723 -0.3456
vt 0.8772 0.2110
v -0.2490 -0.0723 -0.3456
vt 0.0787 0.0705
v -0.2490 -0.0723 -0.3456
vt 0.8772 0.2110
v -0.2681 -0.0723 -0.3302
vt 0.8797 0.1612
v -0.2681 -0.0723 -0.3302
vt 0.8797 0.1612
v -0.2681 -0.0723 -0.3302
vt 0.0641 0.0884
f 43/43 31/31 129/129
f 43/43 129/129 133/133
f 41/41 54/54 220/220
f 41/41 220/220 217/217
f 61/61 65/65 68/68
f 61/61 68/68 70/70
f 12/12 66/66 63/63
f 12/12 63/63 6/6
f 19/19 67/67 64/64
f 19/19 64/64 7/7
f 15/15 71/71 69/69
f 15/15 69/69 23/23
f 4/4 62/62 72/72
f 4/4 72/72 17/17
f 521/521 74/74 78/78
f 78/78 80/80 82/82
f 78/78 82/82 521/521
f 21/21 77/77 73/73
f 21/21 73/73 13/13
f 33/33 79/79 76/76
f 33/33 76/76 20/20
f 30/30 84/84 81/81
f 30/30 81/81 36/36
f 29/29 18/18 75/75
f 522/522 83/83 29/29
f 75/75 522/522 29/29
f 85/85 88/88 91/91
f 85/85 91/91 94/94
f 35/35 90/90 87/87
f 35/35 87/87 28/28
f 44/44 92/92 89/89
f 44/44 89/89 32/32
f 42/42 96/96 93/93
f 42/42 93/93 48/48
f 26/26 86/86 95/95
f 26/26 95/95 38/38
f 99/99 102/102 105/105
f 99/99 105/105 108/108
f 45/45 100/100 98/98
f 45/45 98/98 40/40
f 56/56 103/103 101/101
f 56/56 101/101 46/46
f 50/50 39/39 97/97
f 50/50 97/97 106/106
f 57/57 51/51 107/107
f 57/57 107/107 104/104
f 110/110 113/113 117/117
f 110/110 117/117 120/120
f 59/59 114/114 111/111
f 59/59 111/111 53/53
f 10/10 116/116 112/112
f 10/10 112/112 55/55
f 3/3 119/119 115/115
f 3/3 115/115 9/9
f 49/49 109/109 118/118
f 49/49 118/118 1/1
f 127/127 137/137 157/157
f 127/127 157/157 147/147
f 60/60 47/47 136/136
f 60/60 136/136 140/140
f 34/34 24/24 124/124
f 34/34 124/124 132/132
f 11/11 58/58 138/138
f 11/11 138/138 128/128
f 22/22 8/8 126/126
f 22/22 126/126 122/122
f 160/160 156/156 172/172
f 160/160 172/172 175/175
f 134/134 130/130 150/150
f 134/134 150/150 154/154
f 121/121 125/125 145/145
f 121/121 145/145 141/141
f 139/139 135/135 155/155
f 139/139 155/155 159/159
f 131/131 123/123 143/143
f 131/131 143/143 151/151
f 168/168 161/161 176/176
f 168/168 176/176 183/183
f 152/152 144/144 163/163
f 152/152 163/163 169/169
f 148/148 158/158 174/174
f 148/148 174/174 166/166
f 153/153 149/149 167/167
f 153/153 167/167 170/170
f 142/142 146/146 165/165
f 142/142 165/165 162/162
f 185/185 182/182 197/197
f 185/185 197/197 200/200
f 164/164 173/173 188/188
f 164/164 188/188 179/179
f 171/171 168/168 183/183
f 171/171 183/183 186/186
f 161/161 164/164 179/179
f 161/161 179/179 176/176
f 173/173 171/171 186/186
f 173/173 186/186 188/188
f 198/198 191/191 194/194
f 194/194 203/203 201/201
f 194/194 201/201 198/198
f 177/177 180/180 195/195
f 177/177 195/195 192/192
f 190/190 187/187 202/202
f 190/190 202/202 205/205
f 184/184 178/178 193/193
f 184/184 193/193 199/199
f 181/181 189/189 204/204
f 181/181 204/204 196/196
f 218/218 206/206 209/209
f 209/209 213/213 216/216
f 209/209 216/216 218/218
f 16/16 27/27 214/214
f 16/16 214/214 211/211
f 52/52 5/5 208/208
f 52/52 208/208 219/219
f 2/2 14/14 210/210
f 2/2 210/210 207/207
f 25/25 37/37 215/215
f 25/25 215/215 212/212
f 222/222 228/228 231/231
f 222/222 231/231 225/225
f 230/230 227/227 236/236
f 230/230 236/236 254/254
f 221/221 224/224 247/247
f 221/221 247/247 240/240
f 226/226 232/232 257/257
f 226/226 257/257 250/250
f 245/245 252/252 259/259
f 245/245 259/259 234/234
f 238/238 242/242 246/246
f 238/238 246/246 235/235
f 241/241 248/248 251/251
f 241/241 251/251 244/244
f 249/249 256/256 260/260
f 249/249 260/260 253/253
f 255/255 237/237 233/233
f 255/255 233/233 258/258
f 229/229 223/223 243/243
f 229/229 243/243 239/239
f 302/302 306/306 270/270
f 302/302 270/270 265/265
f 305/305 267/267 276/276
f 305/305 276/276 317/317
f 301/301 264/264 287/287
f 301/301 287/287 309/309
f 266/266 271/271 295/295
f 266/266 295/295 289/289
f 316/316 293/293 300/300
f 316/316 300/300 324/324
f 278/278 282/282 286/286
f 278/278 286/286 275/275
f 312/312 290/290 292/292
f 312/312 292/292 315/315
f 288/288 294/294 298/298
f 288/288 298/298 291/291
f 318/318 277/277 273/273
f 318/318 273/273 321/321
f 269/269 263/263 283/283
f 269/269 283/283 279/279
f 297/297 320/320 323/323
f 297/297 323/323 299/299
f 280/280 310/310 313/313
f 280/280 313/313 284/284
f 285/285 314/314 322/322
f 285/285 322/322 274/274
f 261/261 303/303 311/311
f 261/261 311/311 281/281
f 272/272 307/307 319/319
f 272/272 319/319 296/296
f 262/262 268/268 308/308
f 262/262 308/308 304/304
f 349/349 353/353 341/341
f 349/349 341/341 331/331
f 346/346 404/404 408/408
f 408/408 421/421 425/425
f 408/408 425/425 346/346
f 385/385 391/391 339/339
f 385/385 339/339 326/326
f 325/325 337/337 351/351
f 325/325 351/351 347/347
f 359/359 364/364 378/378
f 359/359 378/378 374/374
f 395/395 358/358 373/373
f 395/395 373/373 399/399
f 356/356 361/361 376/376
f 356/356 376/376 372/372
f 405/405 340/340 380/380
f 405/405 380/380 415/415
f 401/401 345/345 383/383
f 401/401 383/383 409/409
f 328/328 350/350 362/362
f 328/328 362/362 357/357
f 388/388 327/327 355/355
f 388/388 355/355 394/394
f 342/342 354/354 377/377
f 342/342 377/377 381/381
f 352/352 338/338 371/371
f 352/352 371/371 375/375
f 348/348 330/330 365/365
f 348/348 365/365 360/360
f 335/335 387/387 393/393
f 335/335 393/393 368/368
f 336/336 389/389 397/397
f 336/336 397/397 370/370
f 386/386 334/334 437/437
f 437/437 442/442 392/392
f 437/437 392/392 386/386
f 329/329 402/402 410/410
f 329/329 410/410 363/363
f 333/333 367/367 430/430
f 333/333 430/430 435/435
f 366/366 411/411 413/413
f 366/366 413/413 379/379
f 332/332 343/343 407/407
f 332/332 407/407 403/403
f 462/462 424/424 452/452
f 406/406 416/416 428/428
f 406/406 428/428 419/419
f 382/382 344/344 423/423
f 382/382 423/423 461/461
f 398/398 390/390 440/440
f 398/398 440/440 443/443
f 420/420 429/429 450/450
f 454/454 457/457 447/447
f 454/454 447/447 451/451
f 436/436 431/431 455/455
f 436/436 455/455 452/452
f 436/436 452/452 424/424
f 444/444 441/441 459/459
f 458/458 439/439 418/418
f 458/458 418/418 448/448
f 438/438 434/434 422/422
f 438/438 422/422 417/417
f 433/433 369/369 396/396
f 396/396 400/400 446/446
f 396/396 446/446 433/433
f 414/414 412/412 384/384
f 384/384 464/464 427/427
f 384/384 427/427 414/414
f 426/426 463/463 453/453
f 426/426 453/453 449/449
f 432/432 445/445 460/460
f 432/432 460/460 456/456
f 465/465 469/469 490/490
f 465/465 490/490 492/492
f 482/482 479/479 473/473
f 482/482 473/473 476/476
f 486/486 483/483 477/477
f 486/486 477/477 480/480
f 478/478 484/484 489/489
f 489/489 468/468 471/471
f 489/489 471/471 478/478
f 493/493 491/491 485/485
f 493/493 485/485 487/487
f 475/475 472/472 470/470
f 475/475 470/470 467/467
f 466/466 494/494 488/488
f 488/488 481/481 474/474
f 488/488 474/474 466/466
f 496/496 499/499 505/505
f 496/496 505/505 502/502
f 501/501 504/504 510/510
f 501/501 510/510 507/507
f 509/509 511/511 517/517
f 509/509 517/517 515/515
f 512/512 506/506 500/500
f 500/500 525/525 518/518
f 500/500 518/518 512/512
f 514/514 516/516 524/524
f 514/514 524/524 528/528
f 526/526 523/523 498/498
f 526/526 498/498 495/495
f 527/527 497/497 503/503
f 503/503 508/508 513/513
f 503/503 513/513 527/527
f 531/531 533/533 539/539
f 531/531 539/539 537/537
f 535/535 538/538 544/544
f 535/535 544/544 541/541
f 543/543 546/546 552/552
f 543/543 552/552 549/549
f 545/545 540/540 534/534
f 534/534 554/554 550/550
f 534/534 550/550 545/545
f 548/548 551/551 555/555
f 548/548 555/555 558/558
f 520/520 557/557 553/553
f 553/553 532/532 530/530
f 553/553 530/530 520/520
f 519/519 529/529 536/536
f 536/536 542/542 547/547
f 547/547 556/556 519/519
f 536/536 547/547 519/519
f 560/560 563/563 569/569
f 560/560 569/569 566/566
f 565/565 568/568 574/574
f 565/565 574/574 571/571
f 572/572 576/576 582/582
f 572/572 582/582 578/578
f 575/575 570/570 564/564
f 564/564 587/587 580/580
f 564/564 580/580 575/575
f 577/577 581/581 588/588
f 577/577 588/588 584/584
f 583/583 586/586 562/562
f 583/583 562/562 559/559
f 585/585 561/561 567/567
f 567/567 573/573 579/579
f 567/567 579/579 585/585
f 590/590 594/594 600/600
f 590/590 600/600 596/596
f 595/595 599/599 606/606
f 595/595 606/606 602/602
f 601/601 604/604 611/611
f 601/601 611/611 608/608
f 605/605 598/598 592/592
f 592/592 614/614 612/612
f 592/592 612/612 605/605
f 607/607 610/610 613/613
f 607/607 613/613 616/616
f 617/617 615/615 593/593
f 617/617 593/593 589/589
f 618/618 591/591 597/597
f 597/597 603/603 609/609
f 597/597 609/609 618/618
