v -0.1322 -0.0071 0.2213
vt 0.9881 0.6390
v -0.1322 -0.0071 0.2213
vt 0.3198 0.7915
v -0.1322 -0.0071 0.2213
vt 0.0119 0.6390
v -0.1322 0.0226 0.2213
vt 0.9881 0.3610
v -0.1322 0.0226 0.2213
vt 0.7571 0.5617
v -0.1322 0.0226 0.2213
vt 0.0119 0.3610
v -0.1646 -0.0071 -0.1984
vt 0.2559 0.6390
v -0.1646 -0.0071 -0.1984
vt 0.3198 0.7709
v -0.1646 -0.0071 -0.1984
vt 0.2559 0.6390
v -0.1646 0.0226 -0.1984
vt 0.2559 0.3610
v -0.1646 0.0226 -0.1984
vt 0.7571 0.5476
v -0.1646 0.0226 -0.1984
vt 0.2559 0.3610
v 0.1646 -0.0071 0.1984
vt 0.7441 0.6390
v 0.1646 -0.0071 0.1984
vt 0.3403 0.7915
v 0.1646 -0.0071 0.1984
vt 0.7441 0.6390
v 0.1646 0.0226 0.1984
vt 0.7441 0.3610
v 0.1646 0.0226 0.1984
vt 0.7429 0.5617
v 0.1646 0.0226 0.1984
vt 0.7441 0.3610
v 0.1322 -0.0071 -0.2213
vt 0.5000 0.6390
v 0.1322 -0.0071 -0.2213
vt 0.3403 0.7709
v 0.1322 -0.0071 -0.2213
vt 0.5000 0.6390
v 0.1322 0.0226 -0.2213
vt 0.5000 0.3610
v 0.1322 0.0226 -0.2213
vt 0.7429 0.5476
v 0.1322 0.0226 -0.2213
vt 0.5000 0.3610
f 3/3 6/6 12/12
f 3/3 12/12 9/9
f 7/7 10/10 22/22
f 7/7 22/22 19/19
f 21/21 24/24 18/18
f 21/21 18/18 15/15
f 13/13 16/16 4/4
f 13/13 4/4 1/1
f 8/8 20/20 14/14
f 8/8 14/14 2/2
f 23/23 11/11 5/5
f 23/23 5/5 17/17
