v 0.0000 0.0000 -0.1145
vt 0.5433 0.2606
v 0.0000 0.0000 -0.1145
vt 0.5433 0.2606
v -0.0991 0.0000 -0.0572
vt 0.2863 0.2606
v -0.0991 0.0000 -0.0572
vt 0.8633 0.2606
v -0.0991 0.0000 0.0572
vt 0.2863 0.2606
v -0.0991 0.0000 0.0572
vt 0.5665 0.2606
v 0.0000 0.0000 0.1145
vt 0.5433 0.2606
v 0.0000 0.0000 0.1145
vt 0.5433 0.2606
v 0.0991 0.0000 0.0572
vt 0.8003 0.2606
v 0.0991 0.0000 0.0572
vt 0.5665 0.2606
v 0.0991 0.0000 -0.0572
vt 0.8003 0.2606
v 0.0991 0.0000 -0.0572
vt 0.8633 0.2606
v 0.0000 0.0314 -0.1145
vt 0.2267 0.5644
v 0.0000 0.0314 -0.1145
vt 0.5433 0.3420
v 0.0000 0.0314 -0.1145
vt 0.2267 0.5644
v 0.0000 0.0314 -0.1145
vt 0.5433 0.3420
v -0.0991 0.0314 -0.0572
vt 0.0773 0.4782
v -0.0991 0.0314 -0.0572
vt 0.2863 0.3420
v -0.0991 0.0314 -0.0572
vt 0.0773 0.4782
v -0.0991 0.0314 -0.0572
vt 0.8633 0.3420
v -0.0991 0.0314 0.0572
vt 0.0773 0.3056
v -0.0991 0.0314 0.0572
vt 0.2863 0.3420
v -0.0991 0.0314 0.0572
vt 0.0773 0.3056
v -0.0991 0.0314 0.0572
vt 0.5665 0.3420
v 0.0000 0.0314 0.1145
vt 0.2267 0.2194
v 0.0000 0.0314 0.1145
vt 0.5433 0.3420
v 0.0000 0.0314 0.1145
vt 0.2267 0.2194
v 0.0000 0.0314 0.1145
vt 0.5433 0.3420
v 0.0991 0.0314 0.0572
vt 0.3761 0.3056
v 0.0991 0.0314 0.0572
vt 0.8003 0.3420
v 0.0991 0.0314 0.0572
vt 0.3761 0.3056
v 0.0991 0.0314 0.0572
vt 0.5665 0.3420
v 0.0991 0.0314 -0.0572
vt 0.3761 0.4782
v 0.0991 0.0314 -0.0572
vt 0.8003 0.3420
v 0.0991 0.0314 -0.0572
vt 0.3761 0.4782
v 0.0991 0.0314 -0.0572
vt 0.8633 0.3420
v 0.0000 0.0549 -0.0138
vt 0.2090 0.4226
v 0.0000 0.0549 -0.0138
vt 0.9874 0.0904
v 0.0000 0.0549 -0.0138
vt 0.9874 0.0904
v -0.0120 0.0549 -0.0069
vt 0.1913 0.3919
v -0.0120 0.0549 -0.0069
vt 0.9874 0.0378
v -0.0120 0.0549 -0.0069
vt 0.9874 0.1208
v -0.0120 0.0549 0.0069
vt 0.2090 0.3612
v -0.0120 0.0549 0.0069
vt 0.9874 0.0378
v -0.0120 0.0549 0.0069
vt 0.9874 0.0600
v 0.0000 0.0549 0.0138
vt 0.2444 0.3612
v 0.0000 0.0549 0.0138
vt 0.9874 0.0904
v 0.0000 0.0549 0.0138
vt 0.9874 0.0904
v 0.0120 0.0549 0.0069
vt 0.2622 0.3919
v 0.0120 0.0549 0.0069
vt 0.9874 0.1430
v 0.0120 0.0549 0.0069
vt 0.9874 0.0600
v 0.0120 0.0549 -0.0069
vt 0.2444 0.4226
v 0.0120 0.0549 -0.0069
vt 0.9874 0.1430
v 0.0120 0.0549 -0.0069
vt 0.9874 0.1208
v -0.0746 0.0549 -0.0431
vt 0.0059 0.3919
v -0.0746 0.0549 -0.0431
vt 0.1142 0.4568
v -0.0746 0.0549 -0.0431
vt 0.1142 0.4568
v 0.0000 0.0549 -0.0862
vt 0.1163 0.5832
v 0.0000 0.0549 -0.0862
vt 0.2267 0.5218
v 0.0000 0.0549 -0.0862
vt 0.2267 0.5218
v -0.0746 0.0549 0.0431
vt 0.1163 0.2006
v -0.0746 0.0549 0.0431
vt 0.1142 0.3270
v -0.0746 0.0549 0.0431
vt 0.1142 0.3270
v 0.0000 0.0549 0.0862
vt 0.3371 0.2006
v 0.0000 0.0549 0.0862
vt 0.2267 0.2620
v 0.0000 0.0549 0.0862
vt 0.2267 0.2620
v 0.0746 0.0549 0.0431
vt 0.4476 0.3919
v 0.0746 0.0549 0.0431
vt 0.3392 0.3270
v 0.0746 0.0549 0.0431
vt 0.3392 0.3270
v 0.0746 0.0549 -0.0431
vt 0.3371 0.5832
v 0.0746 0.0549 -0.0431
vt 0.3392 0.4568
v 0.0746 0.0549 -0.0431
vt 0.3392 0.4568
v 0.0000 0.2753 -0.0138
vt 0.6740 0.0999
v 0.0000 0.2753 -0.0138
vt 0.4357 0.0904
v 0.0000 0.2753 -0.0138
vt 0.6740 0.0999
v 0.0000 0.2753 -0.0138
vt 0.4357 0.0904
v -0.0120 0.2753 -0.0069
vt 0.6740 0.0150
v -0.0120 0.2753 -0.0069
vt 0.4357 0.0378
v -0.0120 0.2753 -0.0069
vt 0.4357 0.1208
v -0.0120 0.2753 -0.0069
vt 0.9796 0.1425
v -0.0120 0.2753 0.0069
vt 0.6220 0.1850
v -0.0120 0.2753 0.0069
vt 0.4357 0.0378
v -0.0120 0.2753 0.0069
vt 0.4357 0.0600
v -0.0120 0.2753 0.0069
vt 0.9796 0.0574
v 0.0000 0.2753 0.0138
vt 0.6220 0.0999
v 0.0000 0.2753 0.0138
vt 0.4357 0.0904
v 0.0000 0.2753 0.0138
vt 0.6220 0.0999
v 0.0000 0.2753 0.0138
vt 0.4357 0.0904
v 0.0120 0.2753 0.0069
vt 0.6220 0.0148
v 0.0120 0.2753 0.0069
vt 0.4357 0.1430
v 0.0120 0.2753 0.0069
vt 0.4357 0.0600
v 0.0120 0.2753 0.0069
vt 0.4731 0.0526
v 0.0120 0.2753 -0.0069
vt 0.6740 0.1849
v 0.0120 0.2753 -0.0069
vt 0.4357 0.1430
v 0.0120 0.2753 -0.0069
vt 0.4357 0.1208
v 0.0120 0.2753 -0.0069
vt 0.4731 0.1377
v -0.0000 0.3023 -0.0049
vt 0.6094 0.1005
v -0.0000 0.3023 -0.0049
vt 0.5119 0.0999
v -0.0000 0.3023 -0.0049
vt 0.6094 0.1005
v -0.0000 0.3023 -0.0049
vt 0.5119 0.0999
v -0.0120 0.2993 0.0013
vt 0.6094 0.0155
v -0.0120 0.2993 0.0013
vt 0.5119 0.0150
v -0.0120 0.2993 0.0013
vt 0.8425 0.1425
v -0.0120 0.2933 0.0138
vt 0.5472 0.1851
v -0.0120 0.2933 0.0138
vt 0.5102 0.1850
v -0.0120 0.2933 0.0138
vt 0.8425 0.0574
v -0.0000 0.2902 0.0200
vt 0.5472 0.1000
v -0.0000 0.2902 0.0200
vt 0.5102 0.0999
v -0.0000 0.2902 0.0200
vt 0.5472 0.1000
v -0.0000 0.2902 0.0200
vt 0.5102 0.0999
v 0.0120 0.2933 0.0138
vt 0.5472 0.0148
v 0.0120 0.2933 0.0138
vt 0.5102 0.0148
v 0.0120 0.2933 0.0138
vt 0.6103 0.0526
v 0.0120 0.2993 0.0013
vt 0.6094 0.1854
v 0.0120 0.2993 0.0013
vt 0.5119 0.1849
v 0.0120 0.2993 0.0013
vt 0.6103 0.1377
v -0.0000 0.3254 0.0113
vt 0.4496 0.1005
v -0.0000 0.3254 0.0113
vt 0.5665 0.0952
v -0.0000 0.3254 0.0113
vt 0.4496 0.1005
v -0.0000 0.3254 0.0113
vt 0.5665 0.0952
v -0.0120 0.3199 0.0154
vt 0.4496 0.0155
v -0.0120 0.3199 0.0154
vt 0.5665 0.1801
v -0.0120 0.3199 0.0154
vt 0.7094 0.1425
v -0.0120 0.3199 0.0154
vt 0.7094 0.1425
v -0.0120 0.3087 0.0236
vt 0.4411 0.1851
v -0.0120 0.3087 0.0236
vt 0.6544 0.0097
v -0.0120 0.3087 0.0236
vt 0.7094 0.0574
v -0.0120 0.3087 0.0236
vt 0.7094 0.0574
v -0.0000 0.3031 0.0277
vt 0.4411 0.1000
v -0.0000 0.3031 0.0277
vt 0.6544 0.0952
v -0.0000 0.3031 0.0277
vt 0.4411 0.1000
v -0.0000 0.3031 0.0277
vt 0.6544 0.0952
v 0.0120 0.3087 0.0236
vt 0.4411 0.0148
v 0.0120 0.3087 0.0236
vt 0.6544 0.1806
v 0.0120 0.3087 0.0236
vt 0.7434 0.0526
v 0.0120 0.3087 0.0236
vt 0.7434 0.0526
v 0.0120 0.3199 0.0154
vt 0.4496 0.1854
v 0.0120 0.3199 0.0154
vt 0.5665 0.0102
v 0.0120 0.3199 0.0154
vt 0.7434 0.1377
v 0.0120 0.3199 0.0154
vt 0.7434 0.1377
v 0.0012 0.3405 0.0484
vt 0.4055 0.1000
v 0.0012 0.3405 0.0484
vt 0.8002 0.0952
v 0.0012 0.3405 0.0484
vt 0.4055 0.1000
v 0.0012 0.3405 0.0484
vt 0.8002 0.0952
v -0.0102 0.3339 0.0493
vt 0.4055 0.1849
v -0.0102 0.3339 0.0493
vt 0.8002 0.1801
v -0.0102 0.3339 0.0493
vt 0.9295 0.1377
v -0.0102 0.3339 0.0493
vt 0.4978 0.1425
v -0.0083 0.3208 0.0522
vt 0.8442 0.0097
v -0.0083 0.3208 0.0522
vt 0.4496 0.0145
v -0.0083 0.3208 0.0522
vt 0.9295 0.0526
v -0.0083 0.3208 0.0522
vt 0.4978 0.0574
v 0.0030 0.3140 0.0545
vt 0.8442 0.0952
v 0.0030 0.3140 0.0545
vt 0.4496 0.1000
v 0.0030 0.3140 0.0545
vt 0.8442 0.0952
v 0.0030 0.3140 0.0545
vt 0.4496 0.1000
v 0.0136 0.3209 0.0534
vt 0.8442 0.1806
v 0.0136 0.3209 0.0534
vt 0.4496 0.1854
v 0.0136 0.3209 0.0534
vt 0.5233 0.0574
v 0.0136 0.3209 0.0534
vt 0.9549 0.0526
v 0.0132 0.3339 0.0501
vt 0.4055 0.0150
v 0.0132 0.3339 0.0501
vt 0.8002 0.0102
v 0.0132 0.3339 0.0501
vt 0.5233 0.1425
v 0.0132 0.3339 0.0501
vt 0.9549 0.1377
v 0.0029 0.3420 0.0884
vt 0.6370 0.0999
v 0.0029 0.3420 0.0884
vt 0.6740 0.1000
v 0.0029 0.3420 0.0884
vt 0.6370 0.0999
v 0.0029 0.3420 0.0884
vt 0.6740 0.1000
v -0.0070 0.3369 0.0844
vt 0.6370 0.1849
v -0.0070 0.3369 0.0844
vt 0.6740 0.1849
v -0.0070 0.3369 0.0844
vt 0.7086 0.1377
v -0.0070 0.3369 0.0844
vt 0.7086 0.1377
v -0.0069 0.3224 0.0793
vt 0.6319 0.0145
v -0.0069 0.3224 0.0793
vt 0.5949 0.0145
v -0.0069 0.3224 0.0793
vt 0.7086 0.0526
v -0.0069 0.3224 0.0793
vt 0.7086 0.0526
v 0.0027 0.3146 0.0782
vt 0.6319 0.1000
v 0.0027 0.3146 0.0782
vt 0.5949 0.0999
v 0.0027 0.3146 0.0782
vt 0.6319 0.1000
v 0.0027 0.3146 0.0782
vt 0.5949 0.0999
v 0.0145 0.3242 0.0830
vt 0.6319 0.1854
v 0.0145 0.3242 0.0830
vt 0.5949 0.1854
v 0.0145 0.3242 0.0830
vt 0.7529 0.0574
v 0.0145 0.3242 0.0830
vt 0.7529 0.0574
v 0.0154 0.3377 0.0887
vt 0.6370 0.0149
v 0.0154 0.3377 0.0887
vt 0.6740 0.0150
v 0.0154 0.3377 0.0887
vt 0.7529 0.1425
v 0.0154 0.3377 0.0887
vt 0.7529 0.1425
v 0.0053 0.3290 0.1312
vt 0.8913 0.0999
v 0.0053 0.3290 0.1312
vt 0.8913 0.0999
v -0.0045 0.3276 0.1234
vt 0.8913 0.1849
v -0.0045 0.3276 0.1234
vt 0.4781 0.1377
v -0.0023 0.3147 0.1150
vt 0.8034 0.0145
v -0.0023 0.3147 0.1150
vt 0.4781 0.0526
v 0.0063 0.3059 0.1136
vt 0.8034 0.0999
v 0.0063 0.3059 0.1136
vt 0.8034 0.0999
v 0.0200 0.3163 0.1195
vt 0.8031 0.1856
v 0.0200 0.3163 0.1195
vt 0.9846 0.0574
v 0.0199 0.3272 0.1288
vt 0.8913 0.0149
v 0.0199 0.3272 0.1288
vt 0.9846 0.1425
v -0.0120 0.1856 -0.0069
vt 0.4133 0.0378
v -0.0120 0.1856 -0.0069
vt 0.9874 0.0378
v -0.0120 0.1856 -0.0069
vt 0.4133 0.1208
v -0.0120 0.1856 -0.0069
vt 0.9874 0.1208
v -0.0120 0.1856 0.0069
vt 0.4133 0.0378
v -0.0120 0.1856 0.0069
vt 0.9874 0.0378
v -0.0120 0.1856 0.0069
vt 0.4133 0.0600
v -0.0120 0.1856 0.0069
vt 0.9874 0.0600
v 0.0120 0.1856 0.0069
vt 0.4133 0.1430
v 0.0120 0.1856 0.0069
vt 0.9874 0.1430
v 0.0120 0.1856 0.0069
vt 0.4133 0.0600
v 0.0120 0.1856 0.0069
vt 0.9874 0.0600
v 0.0120 0.1856 -0.0069
vt 0.4133 0.1430
v 0.0120 0.1856 -0.0069
vt 0.9874 0.1430
v 0.0120 0.1856 -0.0069
vt 0.4133 0.1208
v 0.0120 0.1856 -0.0069
vt 0.9874 0.1208
v 0.0000 0.1856 0.0138
vt 0.4133 0.0904
v 0.0000 0.1856 0.0138
vt 0.9874 0.0904
v 0.0000 0.1856 0.0138
vt 0.4133 0.0904
v 0.0000 0.1856 0.0138
vt 0.9874 0.0904
v 0.0000 0.1856 -0.0138
vt 0.4133 0.0904
v 0.0000 0.1856 -0.0138
vt 0.9874 0.0904
v 0.0000 0.1856 -0.0138
vt 0.4133 0.0904
v 0.0000 0.1856 -0.0138
vt 0.9874 0.0904
v 0.0000 0.0525 0.0400
vt 0.5057 0.1313
v 0.0000 0.0525 0.0400
vt 0.5057 0.1313
v -0.0095 0.0525 0.0469
vt 0.4895 0.1313
v -0.0095 0.0525 0.0469
vt 0.5093 0.1313
v -0.0059 0.0525 0.0581
vt 0.4957 0.1313
v -0.0059 0.0525 0.0581
vt 0.4903 0.1313
v 0.0059 0.0525 0.0581
vt 0.5157 0.1313
v 0.0059 0.0525 0.0581
vt 0.4903 0.1313
v 0.0095 0.0525 0.0469
vt 0.5218 0.1313
v 0.0095 0.0525 0.0469
vt 0.5093 0.1313
v 0.0000 0.0654 0.0400
vt 0.5057 0.1576
v 0.0000 0.0654 0.0400
vt 0.5057 0.1532
v 0.0000 0.0654 0.0400
vt 0.5057 0.1532
v -0.0095 0.0654 0.0469
vt 0.4895 0.1459
v -0.0095 0.0654 0.0469
vt 0.4895 0.1532
v -0.0095 0.0654 0.0469
vt 0.5093 0.1532
v -0.0059 0.0654 0.0581
vt 0.4957 0.1532
v -0.0059 0.0654 0.0581
vt 0.4957 0.1269
v -0.0059 0.0654 0.0581
vt 0.4903 0.1532
v 0.0059 0.0654 0.0581
vt 0.5157 0.1532
v 0.0059 0.0654 0.0581
vt 0.5157 0.1269
v 0.0059 0.0654 0.0581
vt 0.4903 0.1532
v 0.0095 0.0654 0.0469
vt 0.5218 0.1459
v 0.0095 0.0654 0.0469
vt 0.5218 0.1532
v 0.0095 0.0654 0.0469
vt 0.5093 0.1532
v -0.0702 0.2884 0.1948
vt 0.1943 0.2449
v -0.0702 0.2884 0.1948
vt 0.1943 0.2449
v -0.0702 0.2884 0.1948
vt 0.0061 0.0093
v -0.0326 0.3469 0.1737
vt 0.3247 0.4959
v -0.0326 0.3469 0.1737
vt 0.3247 0.2499
v -0.0326 0.3469 0.1737
vt 0.3247 0.2499
v -0.0710 0.2850 0.1045
vt 0.1943 0.5472
v -0.0710 0.2850 0.1045
vt 0.1943 0.5472
v -0.0710 0.2850 0.1045
vt 0.0061 0.1816
v -0.0326 0.3451 0.1243
vt 0.3247 0.4231
v -0.0326 0.3451 0.1243
vt 0.3247 0.4231
v -0.0326 0.3451 0.1243
vt 0.3247 0.4231
v 0.0887 0.2883 0.1950
vt 0.7452 0.2449
v 0.0887 0.2883 0.1950
vt 0.3824 0.0093
v 0.0887 0.2883 0.1950
vt 0.7452 0.2449
v 0.0474 0.3469 0.1737
vt 0.6148 0.4959
v 0.0474 0.3469 0.1737
vt 0.6148 0.2499
v 0.0474 0.3469 0.1737
vt 0.6148 0.2499
v 0.0891 0.2849 0.1042
vt 0.7452 0.5472
v 0.0891 0.2849 0.1042
vt 0.3824 0.1816
v 0.0891 0.2849 0.1042
vt 0.7452 0.5472
v 0.0474 0.3451 0.1243
vt 0.6148 0.4231
v 0.0474 0.3451 0.1243
vt 0.6148 0.4231
v 0.0474 0.3451 0.1243
vt 0.6148 0.4231
v -0.0596 0.3294 0.1911
vt 0.2266 0.4168
v -0.0596 0.3294 0.1911
vt 0.2266 0.4168
v -0.0596 0.3294 0.1911
vt 0.2266 0.2081
v -0.0596 0.3294 0.1911
vt 0.2423 0.4952
v -0.0596 0.3264 0.1083
vt 0.2266 0.4935
v -0.0596 0.3264 0.1083
vt 0.2266 0.4985
v -0.0596 0.3264 0.1083
vt 0.2266 0.4985
v -0.0596 0.3264 0.1083
vt 0.7129 0.4935
v 0.0745 0.3264 0.1083
vt 0.7129 0.4935
v 0.0745 0.3264 0.1083
vt 0.7129 0.4985
v 0.0745 0.3264 0.1083
vt 0.7129 0.4985
v 0.0745 0.3264 0.1083
vt 0.5752 0.4935
v 0.0745 0.3294 0.1911
vt 0.7129 0.4168
v 0.0745 0.3294 0.1911
vt 0.7129 0.4168
v 0.0745 0.3294 0.1911
vt 0.7129 0.2081
v 0.0745 0.3294 0.1911
vt 0.2849 0.4168
v -0.0828 0.2963 0.0950
vt 0.1738 0.3982
v -0.0828 0.2963 0.0950
vt 0.1738 0.3982
v -0.0828 0.2963 0.0950
vt 0.7634 0.3253
v -0.0828 0.2963 0.0950
vt 0.7634 0.3253
v 0.0976 0.2963 0.0950
vt 0.7657 0.3982
v 0.0976 0.2963 0.0950
vt 0.7657 0.3982
v 0.0976 0.2963 0.0950
vt 0.6342 0.3982
v 0.0976 0.2963 0.0950
vt 0.6342 0.3982
v 0.0976 0.3004 0.2064
vt 0.7657 0.3048
v 0.0976 0.3004 0.2064
vt 0.2807 0.3048
v 0.0976 0.3004 0.2064
vt 0.2807 0.3048
v 0.0976 0.3004 0.2064
vt 0.7657 0.3048
v -0.0828 0.3004 0.2064
vt 0.1738 0.3048
v -0.0828 0.3004 0.2064
vt 0.1738 0.3048
v -0.0828 0.3004 0.2064
vt 0.1906 0.3272
v -0.0828 0.3004 0.2064
vt 0.1906 0.3272
v -0.0815 0.2792 0.0965
vt 0.1583 0.3427
v -0.0815 0.2792 0.0965
vt 0.1583 0.5820
v -0.0815 0.2792 0.0965
vt 0.1583 0.5820
v -0.0815 0.2792 0.0965
vt 0.7781 0.2313
v -0.0815 0.2832 0.2062
vt 0.1583 0.2100
v -0.0815 0.2832 0.2062
vt 0.1583 0.2100
v -0.0815 0.2832 0.2062
vt 0.1583 0.2444
v -0.0815 0.2832 0.2062
vt 0.1752 0.2334
v 0.0963 0.2792 0.0965
vt 0.7812 0.3427
v 0.0963 0.2792 0.0965
vt 0.7812 0.5820
v 0.0963 0.2792 0.0965
vt 0.6588 0.3427
v 0.0963 0.2792 0.0965
vt 0.7812 0.5820
v 0.0979 0.2833 0.2062
vt 0.7812 0.2100
v 0.0979 0.2833 0.2062
vt 0.2868 0.2444
v 0.0979 0.2833 0.2062
vt 0.7812 0.2444
v 0.0979 0.2833 0.2062
vt 0.7812 0.2100
f 9/9 30/30 26/26
f 9/9 26/26 7/7
f 6/6 24/24 20/20
f 6/6 20/20 4/4
f 12/12 36/36 32/32
f 12/12 32/32 10/10
f 8/8 28/28 22/22
f 8/8 22/22 5/5
f 3/3 18/18 16/16
f 3/3 16/16 2/2
f 1/1 14/14 34/34
f 1/1 34/34 11/11
f 35/35 72/72 69/69
f 35/35 69/69 31/31
f 27/27 66/66 62/62
f 27/27 62/62 21/21
f 17/17 56/56 60/60
f 17/17 60/60 15/15
f 13/13 59/59 71/71
f 13/13 71/71 33/33
f 29/29 68/68 65/65
f 29/29 65/65 25/25
f 23/23 63/63 57/57
f 23/23 57/57 19/19
f 208/208 83/83 79/79
f 208/208 79/79 204/204
f 37/37 58/58 55/55
f 37/37 55/55 40/40
f 40/40 55/55 61/61
f 40/40 61/61 43/43
f 43/43 61/61 64/64
f 43/43 64/64 46/46
f 46/46 64/64 67/67
f 46/46 67/67 49/49
f 49/49 67/67 70/70
f 49/49 70/70 52/52
f 52/52 70/70 58/58
f 52/52 58/58 37/37
f 77/77 102/102 100/100
f 77/77 100/100 75/75
f 216/216 95/95 91/91
f 216/216 91/91 212/212
f 220/220 88/88 82/82
f 220/220 82/82 206/206
f 202/202 78/78 76/76
f 202/202 76/76 224/224
f 222/222 74/74 94/94
f 222/222 94/94 214/214
f 210/210 90/90 86/86
f 210/210 86/86 218/218
f 116/116 140/140 136/136
f 116/116 136/136 113/113
f 73/73 98/98 115/115
f 73/73 115/115 93/93
f 89/89 112/112 108/108
f 89/89 108/108 85/85
f 84/84 106/106 103/103
f 84/84 103/103 80/80
f 96/96 116/116 113/113
f 96/96 113/113 92/92
f 87/87 110/110 105/105
f 87/87 105/105 81/81
f 118/118 142/142 162/162
f 118/118 162/162 138/138
f 109/109 131/131 125/125
f 109/109 125/125 104/104
f 101/101 121/121 119/119
f 101/101 119/119 99/99
f 97/97 117/117 137/137
f 97/97 137/137 114/114
f 111/111 133/133 129/129
f 111/111 129/129 107/107
f 106/106 128/128 124/124
f 106/106 124/124 103/103
f 163/163 188/188 184/184
f 163/163 184/184 159/159
f 134/134 157/157 153/153
f 134/134 153/153 130/130
f 127/127 152/152 148/148
f 127/127 148/148 123/123
f 139/139 164/164 160/160
f 139/139 160/160 135/135
f 132/132 155/155 149/149
f 132/132 149/149 126/126
f 122/122 146/146 144/144
f 122/122 144/144 120/120
f 165/165 189/189 199/199
f 165/165 199/199 185/185
f 156/156 179/179 173/173
f 156/156 173/173 150/150
f 145/145 170/170 168/168
f 145/145 168/168 143/143
f 141/141 166/166 186/186
f 141/141 186/186 161/161
f 158/158 181/181 177/177
f 158/158 177/177 154/154
f 151/151 176/176 172/172
f 151/151 172/172 147/147
f 182/182 197/197 195/195
f 182/182 195/195 178/178
f 175/175 194/194 192/192
f 175/175 192/192 171/171
f 187/187 200/200 198/198
f 187/187 198/198 183/183
f 180/180 196/196 193/193
f 180/180 193/193 174/174
f 169/169 191/191 190/190
f 169/169 190/190 167/167
f 50/50 209/209 217/217
f 50/50 217/217 47/47
f 38/38 221/221 213/213
f 38/38 213/213 53/53
f 41/41 201/201 223/223
f 41/41 223/223 39/39
f 48/48 219/219 205/205
f 48/48 205/205 44/44
f 54/54 215/215 211/211
f 54/54 211/211 51/51
f 45/45 207/207 203/203
f 45/45 203/203 42/42
f 226/226 227/227 239/239
f 226/226 239/239 237/237
f 232/232 234/234 249/249
f 232/232 249/249 246/246
f 228/228 230/230 243/243
f 228/228 243/243 240/240
f 233/233 225/225 236/236
f 233/233 236/236 248/248
f 229/229 231/231 244/244
f 229/229 244/244 241/241
f 235/235 238/238 242/242
f 242/242 245/245 247/247
f 242/242 247/247 235/235
f 276/276 255/255 261/261
f 276/276 261/261 280/280
f 279/279 259/259 271/271
f 279/279 271/271 283/283
f 284/284 273/273 267/267
f 284/284 267/267 288/288
f 287/287 265/265 253/253
f 287/287 253/253 275/275
f 258/258 269/269 263/263
f 258/258 263/263 252/252
f 272/272 260/260 254/254
f 272/272 254/254 266/266
f 298/298 286/286 274/274
f 298/298 274/274 302/302
f 296/296 285/285 289/289
f 296/296 289/289 299/299
f 290/290 278/278 282/282
f 290/290 282/282 294/294
f 304/304 277/277 281/281
f 304/304 281/281 292/292
f 313/313 305/305 293/293
f 313/313 293/293 309/309
f 306/306 291/291 295/295
f 306/306 295/295 314/314
f 316/316 297/297 300/300
f 316/316 300/300 319/319
f 320/320 301/301 303/303
f 320/320 303/303 312/312
f 257/257 251/251 311/311
f 257/257 311/311 308/308
f 268/268 256/256 307/307
f 268/268 307/307 315/315
f 264/264 270/270 317/317
f 264/264 317/317 321/321
f 250/250 262/262 318/318
f 250/250 318/318 310/310
