v 0.0000 0.2900 -0.0000
vt 0.5000 1.0190
v 0.0000 0.2900 -0.0000
vt 0.5030 0.9702
v 0.0000 0.2900 -0.0000
vt 0.5000 1.0190
v 0.0000 0.2900 -0.0000
vt 0.5030 0.9702
v -0.2051 0.2051 -0.0000
vt 0.1330 0.8670
v -0.2051 0.2051 -0.0000
vt 0.1330 0.8670
v -0.2051 0.2051 -0.0000
vt 0.1636 0.9702
v -0.2051 0.2051 -0.0000
vt 0.9702 0.8424
v -0.2900 0.0000 0.0000
vt -0.0190 0.5000
v -0.2900 0.0000 0.0000
vt -0.0190 0.5000
v -0.2900 0.0000 0.0000
vt 0.9702 0.5030
v -0.2900 0.0000 0.0000
vt 0.9702 0.5030
v -0.2051 -0.2051 0.0000
vt 0.1330 0.1330
v -0.2051 -0.2051 0.0000
vt 0.1330 0.1330
v -0.2051 -0.2051 0.0000
vt 0.1636 0.9702
v -0.2051 -0.2051 0.0000
vt 0.9702 0.1636
v 0.0000 -0.2900 0.0000
vt 0.5000 -0.0190
v 0.0000 -0.2900 0.0000
vt 0.5030 0.9702
v 0.0000 -0.2900 0.0000
vt 0.5000 -0.0190
v 0.0000 -0.2900 0.0000
vt 0.5030 0.9702
v 0.2051 -0.2051 0.0000
vt 0.8424 0.9702
v 0.2051 -0.2051 0.0000
vt 0.9702 0.1636
v 0.2051 -0.2051 0.0000
vt 0.8670 0.1330
v 0.2051 -0.2051 0.0000
vt 0.8670 0.1330
v 0.2900 0.0000 0.0000
vt 0.9702 0.5030
v 0.2900 0.0000 0.0000
vt 0.9702 0.5030
v 0.2900 0.0000 0.0000
vt 1.0190 0.5000
v 0.2900 0.0000 0.0000
vt 1.0190 0.5000
v 0.2051 0.2051 -0.0000
vt 0.8424 0.9702
v 0.2051 0.2051 -0.0000
vt 0.9702 0.8424
v 0.2051 0.2051 -0.0000
vt 0.8670 0.8670
v 0.2051 0.2051 -0.0000
vt 0.8670 0.8670
v -0.2136 0.2136 -0.0161
vt 0.1495 0.9969
v -0.2136 0.2136 -0.0161
vt 0.1434 0.9993
v -0.2136 0.2136 -0.0161
vt 0.9969 0.8566
v -0.2136 0.2136 -0.0161
vt 0.9933 0.8205
v -0.0000 0.3021 -0.0161
vt 0.5030 0.9969
v -0.0000 0.3021 -0.0161
vt 0.4970 0.9993
v -0.0000 0.3021 -0.0161
vt 0.5030 0.9969
v -0.0000 0.3021 -0.0161
vt 0.4970 0.9993
v -0.3021 -0.0000 -0.0161
vt 0.9969 0.5030
v -0.3021 -0.0000 -0.0161
vt 0.9969 0.5030
v -0.3021 -0.0000 -0.0161
vt 0.9933 0.4669
v -0.3021 -0.0000 -0.0161
vt 0.9933 0.4669
v -0.2136 -0.2136 -0.0161
vt 0.1495 0.9969
v -0.2136 -0.2136 -0.0161
vt 0.1434 0.9993
v -0.2136 -0.2136 -0.0161
vt 0.9969 0.1495
v -0.2136 -0.2136 -0.0161
vt 0.9933 0.1134
v -0.0000 -0.3021 -0.0161
vt 0.5030 0.9969
v -0.0000 -0.3021 -0.0161
vt 0.4970 0.9993
v -0.0000 -0.3021 -0.0161
vt 0.5030 0.9969
v -0.0000 -0.3021 -0.0161
vt 0.4970 0.9993
v 0.2136 -0.2136 -0.0161
vt 0.8566 0.9969
v 0.2136 -0.2136 -0.0161
vt 0.8505 0.9993
v 0.2136 -0.2136 -0.0161
vt 0.9969 0.1495
v 0.2136 -0.2136 -0.0161
vt 0.9933 0.1134
v 0.3021 -0.0000 -0.0161
vt 0.9969 0.5030
v 0.3021 -0.0000 -0.0161
vt 0.9969 0.5030
v 0.3021 -0.0000 -0.0161
vt 0.9933 0.4669
v 0.3021 -0.0000 -0.0161
vt 0.9933 0.4669
v 0.2136 0.2136 -0.0161
vt 0.8566 0.9969
v 0.2136 0.2136 -0.0161
vt 0.8505 0.9993
v 0.2136 0.2136 -0.0161
vt 0.9969 0.8566
v 0.2136 0.2136 -0.0161
vt 0.9933 0.8205
v -0.2136 0.2136 -0.0339
vt 0.0253 0.1334
v -0.2136 0.2136 -0.0339
vt 0.1434 0.9698
v -0.2136 0.2136 -0.0339
vt 0.9638 0.8205
v -0.0000 0.3021 -0.0339
vt 0.0673 0.1508
v -0.0000 0.3021 -0.0339
vt 0.4970 0.9698
v -0.0000 0.3021 -0.0339
vt 0.4970 0.9698
v -0.3021 -0.0000 -0.0339
vt 0.0078 0.0913
v -0.3021 -0.0000 -0.0339
vt 0.9638 0.4669
v -0.3021 -0.0000 -0.0339
vt 0.9638 0.4669
v -0.2136 -0.2136 -0.0339
vt 0.0253 0.0493
v -0.2136 -0.2136 -0.0339
vt 0.1434 0.9698
v -0.2136 -0.2136 -0.0339
vt 0.9638 0.1134
v -0.0000 -0.3021 -0.0339
vt 0.0673 0.0319
v -0.0000 -0.3021 -0.0339
vt 0.4970 0.9698
v -0.0000 -0.3021 -0.0339
vt 0.4970 0.9698
v 0.2136 -0.2136 -0.0339
vt 0.1094 0.0493
v 0.2136 -0.2136 -0.0339
vt 0.8505 0.9698
v 0.2136 -0.2136 -0.0339
vt 0.9638 0.1134
v 0.3021 -0.0000 -0.0339
vt 0.1268 0.0913
v 0.3021 -0.0000 -0.0339
vt 0.9638 0.4669
v 0.3021 -0.0000 -0.0339
vt 0.9638 0.4669
v 0.2136 0.2136 -0.0339
vt 0.1094 0.1334
v 0.2136 0.2136 -0.0339
vt 0.8505 0.9698
v 0.2136 0.2136 -0.0339
vt 0.9638 0.8205
v -0.1933 0.1933 -0.0052
vt 0.1494 0.8506
v -0.1933 0.1933 -0.0052
vt 0.1541 0.8459
v -0.1933 0.1933 -0.0052
vt 0.1541 0.8459
v 0.0000 0.2734 -0.0052
vt 0.5000 0.9958
v 0.0000 0.2734 -0.0052
vt 0.5000 0.9892
v 0.0000 0.2734 -0.0052
vt 0.5000 0.9892
v 0.1933 0.1933 -0.0052
vt 0.8506 0.8506
v 0.1933 0.1933 -0.0052
vt 0.8459 0.8459
v 0.1933 0.1933 -0.0052
vt 0.8459 0.8459
v 0.2734 -0.0000 -0.0052
vt 0.9958 0.5000
v 0.2734 -0.0000 -0.0052
vt 0.9892 0.5000
v 0.2734 -0.0000 -0.0052
vt 0.9892 0.5000
v 0.1933 -0.1933 -0.0052
vt 0.8506 0.1494
v 0.1933 -0.1933 -0.0052
vt 0.8459 0.1541
v 0.1933 -0.1933 -0.0052
vt 0.8459 0.1541
v 0.0000 -0.2734 -0.0052
vt 0.5000 0.0042
v 0.0000 -0.2734 -0.0052
vt 0.5000 0.0108
v 0.0000 -0.2734 -0.0052
vt 0.5000 0.0108
v -0.1933 -0.1933 -0.0052
vt 0.1494 0.1494
v -0.1933 -0.1933 -0.0052
vt 0.1541 0.1541
v -0.1933 -0.1933 -0.0052
vt 0.1541 0.1541
v -0.2734 -0.0000 -0.0052
vt 0.0042 0.5000
v -0.2734 -0.0000 -0.0052
vt 0.0108 0.5000
v -0.2734 -0.0000 -0.0052
vt 0.0108 0.5000
f 92/92 89/89 110/110
f 110/110 107/107 104/104
f 104/104 101/101 98/98
f 98/98 95/95 92/92
f 92/92 110/110 104/104
f 104/104 98/98 92/92
f 36/36 67/67 72/72
f 36/36 72/72 43/43
f 29/29 61/61 37/37
f 29/29 37/37 2/2
f 22/22 55/55 58/58
f 22/22 58/58 26/26
f 15/15 45/45 51/51
f 15/15 51/51 20/20
f 8/8 35/35 41/41
f 8/8 41/41 11/11
f 25/25 57/57 63/63
f 25/25 63/63 30/30
f 18/18 49/49 53/53
f 18/18 53/53 21/21
f 12/12 42/42 47/47
f 12/12 47/47 16/16
f 4/4 39/39 33/33
f 4/4 33/33 7/7
f 71/71 65/65 68/68
f 68/68 86/86 83/83
f 83/83 80/80 77/77
f 77/77 74/74 71/71
f 71/71 68/68 83/83
f 83/83 77/77 71/71
f 59/59 84/84 88/88
f 59/59 88/88 64/64
f 50/50 78/78 81/81
f 50/50 81/81 54/54
f 44/44 73/73 76/76
f 44/44 76/76 48/48
f 40/40 70/70 66/66
f 40/40 66/66 34/34
f 62/62 87/87 69/69
f 62/62 69/69 38/38
f 56/56 82/82 85/85
f 56/56 85/85 60/60
f 46/46 75/75 79/79
f 46/46 79/79 52/52
f 5/5 90/90 93/93
f 5/5 93/93 1/1
f 3/3 94/94 96/96
f 3/3 96/96 31/31
f 32/32 97/97 100/100
f 32/32 100/100 28/28
f 27/27 99/99 103/103
f 27/27 103/103 24/24
f 23/23 102/102 106/106
f 23/23 106/106 19/19
f 17/17 105/105 108/108
f 17/17 108/108 13/13
f 14/14 109/109 111/111
f 14/14 111/111 9/9
f 10/10 112/112 91/91
f 10/10 91/91 6/6
