v -0.1880 0.0000 0.2147
vt 0.3621 0.3437
v -0.1880 0.0000 0.2147
vt 0.3297 0.0283
v -0.1880 0.0000 0.2147
vt 0.0042 0.0008
v 0.1896 0.0000 0.2132
vt 0.6329 0.3494
v 0.1896 0.0000 0.2132
vt 0.0120 0.0008
v 0.1896 0.0000 0.2132
vt 0.5968 0.0283
v -0.1896 0.0000 -0.2132
vt 0.3621 0.6563
v -0.1896 0.0000 -0.2132
vt 0.3168 0.0008
v -0.1896 0.0000 -0.2132
vt 0.0379 0.0000
v 0.1880 0.0000 -0.2147
vt 0.6329 0.6506
v 0.1880 0.0000 -0.2147
vt 0.3245 0.0008
v 0.1880 0.0000 -0.2147
vt 0.3137 0.0000
v -0.1896 1.3690 -0.2132
vt 0.4170 0.3914
v -0.1896 1.3690 -0.2132
vt 0.4170 0.3914
v -0.1896 1.3690 -0.2132
vt 0.3168 1.0008
v -0.1896 1.3690 -0.2132
vt 0.0379 1.0000
v -0.1880 1.3690 0.2147
vt 0.4170 0.2490
v -0.1880 1.3690 0.2147
vt 0.3297 0.9966
v -0.1880 1.3690 0.2147
vt 0.4170 0.2490
v -0.1880 1.3690 0.2147
vt 0.0042 1.0008
v 0.1896 1.3690 0.2132
vt 0.5427 0.2490
v 0.1896 1.3690 0.2132
vt 0.5427 0.2490
v 0.1896 1.3690 0.2132
vt 0.0120 1.0008
v 0.1896 1.3690 0.2132
vt 0.5968 0.9966
v 0.1880 1.3690 -0.2147
vt 0.5427 0.3914
v 0.1880 1.3690 -0.2147
vt 0.3245 1.0008
v 0.1880 1.3690 -0.2147
vt 0.5427 0.3914
v 0.1880 1.3690 -0.2147
vt 0.3137 1.0000
v 0.1880 1.1902 -0.2147
vt 0.3245 0.8702
v 0.1880 1.1902 -0.2147
vt 0.3137 0.8694
v 0.1880 0.7579 -0.2147
vt 0.3245 0.5545
v 0.1880 0.7579 -0.2147
vt 0.3137 0.5536
v 0.1446 0.7732 0.2134
vt 0.6012 0.3494
v 0.1446 0.7732 0.2134
vt 0.5650 0.5751
v 0.1446 0.7732 0.2134
vt 0.5196 0.6106
v 0.1446 1.1749 0.2134
vt 0.6012 0.3494
v 0.1446 1.1749 0.2134
vt 0.5650 0.8593
v 0.1446 1.1749 0.2134
vt 0.5196 0.7806
v -0.1429 1.1749 0.2145
vt 0.3900 0.8397
v -0.1429 1.1749 0.2145
vt 0.3476 0.8398
v -0.1429 1.1749 0.2145
vt 0.3616 0.8593
v -0.1429 0.7732 0.2145
vt 0.3592 0.5674
v -0.1429 0.7732 0.2145
vt 0.3476 0.5625
v -0.1429 0.7732 0.2145
vt 0.3616 0.5751
v -0.1896 0.7579 -0.2132
vt 0.3168 0.5545
v -0.1896 0.7579 -0.2132
vt 0.0379 0.5536
v -0.1896 1.1902 -0.2132
vt 0.3168 0.8702
v -0.1896 1.1902 -0.2132
vt 0.0379 0.8694
v 0.1896 0.7579 0.2132
vt 0.0120 0.5545
v 0.1896 0.7579 0.2132
vt 0.0120 0.5545
v 0.1896 0.7579 0.2132
vt 0.5968 0.5644
v 0.1896 1.1902 0.2132
vt 0.0120 0.8702
v 0.1896 1.1902 0.2132
vt 0.0120 0.8702
v 0.1896 1.1902 0.2132
vt 0.5968 0.8701
v -0.1880 1.1902 0.2147
vt 0.3297 0.8701
v -0.1880 1.1902 0.2147
vt 0.0042 0.8702
v -0.1880 1.1902 0.2147
vt 0.0042 0.8702
v -0.1880 0.7579 0.2147
vt 0.3297 0.5644
v -0.1880 0.7579 0.2147
vt 0.0042 0.5545
v -0.1880 0.7579 0.2147
vt 0.0042 0.5545
v 0.1444 0.7732 0.1547
vt 0.6012 0.3907
v 0.1444 0.7732 0.1547
vt 0.6012 1.0442
v 0.1444 0.7732 0.1547
vt 0.5445 0.6106
v 0.1444 1.1749 0.1547
vt 0.6012 0.3907
v 0.1444 1.1749 0.1547
vt 0.6012 1.3270
v 0.1444 1.1749 0.1547
vt 0.5445 0.7806
v -0.1432 1.1749 0.1558
vt 0.3900 0.8659
v -0.1432 1.1749 0.1558
vt 0.3880 0.8398
v -0.1432 1.1749 0.1558
vt 0.3629 0.8507
v -0.1432 0.7732 0.1558
vt 0.3592 0.6073
v -0.1432 0.7732 0.1558
vt 0.3880 0.5625
v -0.1432 0.7732 0.1558
vt 0.3629 0.5801
v -0.0921 1.3911 -0.1113
vt 0.4493 0.3573
v -0.0921 1.3911 -0.1113
vt 0.4493 0.3573
v -0.0921 1.3911 -0.1113
vt 0.4493 0.3573
v -0.0921 1.3911 -0.1113
vt 0.4493 0.3573
v -0.0912 1.3911 0.1120
vt 0.4493 0.2830
v -0.0912 1.3911 0.1120
vt 0.4493 0.2830
v -0.0912 1.3911 0.1120
vt 0.4493 0.2830
v -0.0912 1.3911 0.1120
vt 0.4493 0.2830
v 0.0921 1.3911 0.1113
vt 0.5104 0.2830
v 0.0921 1.3911 0.1113
vt 0.5104 0.2830
v 0.0921 1.3911 0.1113
vt 0.5104 0.2830
v 0.0921 1.3911 0.1113
vt 0.5104 0.2830
v 0.0912 1.3911 -0.1120
vt 0.5104 0.3573
v 0.0912 1.3911 -0.1120
vt 0.5104 0.3573
v 0.0912 1.3911 -0.1120
vt 0.5104 0.3573
v 0.0912 1.3911 -0.1120
vt 0.5104 0.3573
v -0.1505 1.3879 -0.1692
vt 0.4300 0.3767
v -0.1505 1.3879 -0.1692
vt 0.4300 0.3767
v -0.1505 1.3879 -0.1692
vt 0.4300 0.3767
v -0.1505 1.3879 -0.1692
vt 0.4300 0.3767
v -0.1492 1.3879 0.1703
vt 0.4300 0.2637
v -0.1492 1.3879 0.1703
vt 0.4300 0.2637
v -0.1492 1.3879 0.1703
vt 0.4300 0.2637
v -0.1492 1.3879 0.1703
vt 0.4300 0.2637
v 0.1505 1.3879 0.1692
vt 0.5297 0.2637
v 0.1505 1.3879 0.1692
vt 0.5297 0.2637
v 0.1505 1.3879 0.1692
vt 0.5297 0.2637
v 0.1505 1.3879 0.1692
vt 0.5297 0.2637
v 0.1492 1.3879 -0.1703
vt 0.5297 0.3767
v 0.1492 1.3879 -0.1703
vt 0.5297 0.3767
v 0.1492 1.3879 -0.1703
vt 0.5297 0.3767
v 0.1492 1.3879 -0.1703
vt 0.5297 0.3767
v -0.0481 1.3963 -0.0478
vt 0.4639 0.3361
v -0.0481 1.3963 -0.0478
vt 0.4639 0.3361
v -0.0481 1.3963 -0.0478
vt 0.4639 0.3361
v -0.0481 1.3963 -0.0478
vt 0.4639 0.3361
v -0.0478 1.3963 0.0481
vt 0.4639 0.3042
v -0.0478 1.3963 0.0481
vt 0.4639 0.3042
v -0.0478 1.3963 0.0481
vt 0.4639 0.3042
v -0.0478 1.3963 0.0481
vt 0.4639 0.3042
v 0.0481 1.3963 0.0478
vt 0.4958 0.3042
v 0.0481 1.3963 0.0478
vt 0.4958 0.3042
v 0.0481 1.3963 0.0478
vt 0.4958 0.3042
v 0.0481 1.3963 0.0478
vt 0.4958 0.3042
v 0.0478 1.3963 -0.0481
vt 0.4958 0.3361
v 0.0478 1.3963 -0.0481
vt 0.4958 0.3361
v 0.0478 1.3963 -0.0481
vt 0.4958 0.3361
v 0.0478 1.3963 -0.0481
vt 0.4958 0.3361
v 0.0008 0.0000 0.2139
vt 0.5000 0.3494
v 0.0008 0.0000 0.2139
vt 0.5000 0.3437
v 0.0008 0.0000 0.2139
vt 0.4633 0.0283
v -0.0008 0.0000 -0.2139
vt 0.5000 0.6563
v -0.0008 0.0000 -0.2139
vt 0.5000 0.6506
v -0.0008 0.0000 -0.2139
vt 0.1758 0.0000
v 0.0008 1.3690 0.2139
vt 0.4798 0.2490
v 0.0008 1.3690 0.2139
vt 0.4633 0.9966
v -0.0008 1.3690 -0.2139
vt 0.4798 0.3914
v -0.0008 1.3690 -0.2139
vt 0.1758 1.0000
v 0.0008 1.1902 0.2139
vt 0.4633 0.8701
v 0.0008 0.7579 0.2139
vt 0.4633 0.5644
v -0.0008 1.1902 -0.2139
vt 0.1758 0.8694
v -0.0008 0.7579 -0.2139
vt 0.1758 0.5536
v 0.0008 1.1749 0.2139
vt 0.4543 0.8397
v 0.0008 1.1749 0.2139
vt 0.5000 0.3494
v 0.0008 1.1749 0.2139
vt 0.4633 0.8593
v 0.0008 0.7732 0.2139
vt 0.4570 0.5674
v 0.0008 0.7732 0.2139
vt 0.5000 0.3494
v 0.0008 0.7732 0.2139
vt 0.4633 0.5751
v 0.0006 1.1749 0.1553
vt 0.4543 0.8659
v 0.0006 1.1749 0.1553
vt 0.5000 0.3907
v 0.0006 1.1749 0.1553
vt 0.4597 0.8507
v 0.0006 1.1749 0.1553
vt 0.5000 1.3270
v 0.0006 0.7732 0.1553
vt 0.4570 0.6073
v 0.0006 0.7732 0.1553
vt 0.5000 0.3907
v 0.0006 0.7732 0.1553
vt 0.4597 0.5801
v 0.0006 0.7732 0.1553
vt 0.5000 1.0442
v 0.0007 1.3879 0.1698
vt 0.4798 0.2637
v 0.0007 1.3879 0.1698
vt 0.4798 0.2637
v -0.0007 1.3879 -0.1698
vt 0.4798 0.3767
v -0.0007 1.3879 -0.1698
vt 0.4798 0.3767
v 0.0004 1.3911 0.1116
vt 0.4798 0.2830
v 0.0004 1.3911 0.1116
vt 0.4798 0.2830
v 0.0004 1.3911 0.1116
vt 0.4798 0.2830
v -0.0004 1.3911 -0.1116
vt 0.4798 0.3573
v -0.0004 1.3911 -0.1116
vt 0.4798 0.3573
v -0.0004 1.3911 -0.1116
vt 0.4798 0.3573
v 0.0003 1.3963 0.0678
vt 0.4798 0.2976
v 0.0003 1.3963 0.0678
vt 0.4798 0.2976
v 0.0003 1.3963 0.0678
vt 0.4798 0.2976
v 0.0003 1.3963 0.0678
vt 0.4798 0.2976
v -0.0003 1.3963 -0.0678
vt 0.4798 0.3427
v -0.0003 1.3963 -0.0678
vt 0.4798 0.3427
v -0.0003 1.3963 -0.0678
vt 0.4798 0.3427
v -0.0003 1.3963 -0.0678
vt 0.4798 0.3427
v -0.1888 0.0000 0.0007
vt 0.3621 0.5000
v -0.1888 0.0000 0.0007
vt 0.1605 0.0008
v 0.1888 0.0000 -0.0007
vt 0.6329 0.5000
v 0.1888 0.0000 -0.0007
vt 0.1683 0.0008
v -0.1888 1.3690 0.0007
vt 0.4170 0.3202
v -0.1888 1.3690 0.0007
vt 0.1605 1.0008
v 0.1888 1.3690 -0.0007
vt 0.5427 0.3202
v 0.1888 1.3690 -0.0007
vt 0.1683 1.0008
v -0.1888 1.1902 0.0007
vt 0.1605 0.8702
v -0.1888 0.7579 0.0007
vt 0.1605 0.5545
v 0.1888 1.1902 -0.0007
vt 0.1683 0.8702
v 0.1888 0.7579 -0.0007
vt 0.1683 0.5545
v -0.1498 1.3879 0.0006
vt 0.4300 0.3202
v -0.1498 1.3879 0.0006
vt 0.4300 0.3202
v 0.1498 1.3879 -0.0006
vt 0.5297 0.3202
v 0.1498 1.3879 -0.0006
vt 0.5297 0.3202
v -0.0917 1.3911 0.0004
vt 0.4493 0.3202
v -0.0917 1.3911 0.0004
vt 0.4493 0.3202
v -0.0917 1.3911 0.0004
vt 0.4493 0.3202
v 0.0917 1.3911 -0.0004
vt 0.5104 0.3202
v 0.0917 1.3911 -0.0004
vt 0.5104 0.3202
v 0.0917 1.3911 -0.0004
vt 0.5104 0.3202
v -0.0678 1.3963 0.0003
vt 0.4573 0.3202
v -0.0678 1.3963 0.0003
vt 0.4573 0.3202
v -0.0678 1.3963 0.0003
vt 0.4573 0.3202
v -0.0678 1.3963 0.0003
vt 0.4573 0.3202
v 0.0678 1.3963 -0.0003
vt 0.5024 0.3202
v 0.0678 1.3963 -0.0003
vt 0.5024 0.3202
v 0.0678 1.3963 -0.0003
vt 0.5024 0.3202
v 0.0678 1.3963 -0.0003
vt 0.5024 0.3202
v -0.0404 1.3728 0.0002
vt 0.7153 0.6359
v -0.0404 1.3728 0.0002
vt 0.7010 0.6240
v -0.0404 1.3728 0.0002
vt 0.7153 0.6359
v -0.0404 1.3728 0.0002
vt 0.7010 0.6240
v 0.0000 0.0000 0.0000
vt 0.5000 0.5000
v -0.0404 1.3848 0.0002
vt 0.4647 0.3195
v -0.0404 1.3848 0.0002
vt 0.7153 0.6426
v -0.0404 1.3848 0.0002
vt 0.4647 0.3209
v -0.0404 1.3848 0.0002
vt 0.7153 0.6426
v -0.0284 1.3848 0.0286
vt 0.4687 0.3100
v -0.0284 1.3848 0.0286
vt 0.6993 0.6426
v -0.0284 1.3848 0.0286
vt 0.4696 0.3090
v -0.0284 1.3848 0.0286
vt 0.6993 0.6426
v 0.0002 1.3848 0.0404
vt 0.4791 0.3051
v 0.0002 1.3848 0.0404
vt 0.4805 0.3051
v 0.0002 1.3848 0.0404
vt 0.7153 0.6426
v 0.0002 1.3848 0.0404
vt 0.7153 0.6426
v 0.0286 1.3848 0.0284
vt 0.4910 0.3100
v 0.0286 1.3848 0.0284
vt 0.4900 0.3090
v 0.0286 1.3848 0.0284
vt 0.6993 0.6426
v 0.0286 1.3848 0.0284
vt 0.7313 0.6426
v 0.0404 1.3848 -0.0002
vt 0.4950 0.3209
v 0.0404 1.3848 -0.0002
vt 0.7153 0.6426
v 0.0404 1.3848 -0.0002
vt 0.4950 0.3195
v 0.0404 1.3848 -0.0002
vt 0.7153 0.6426
v 0.0284 1.3848 -0.0286
vt 0.4900 0.3314
v 0.0284 1.3848 -0.0286
vt 0.7313 0.6426
v 0.0284 1.3848 -0.0286
vt 0.4910 0.3304
v 0.0284 1.3848 -0.0286
vt 0.7313 0.6426
v -0.0002 1.3848 -0.0404
vt 0.4805 0.3353
v -0.0002 1.3848 -0.0404
vt 0.4791 0.3353
v -0.0002 1.3848 -0.0404
vt 0.7153 0.6426
v -0.0002 1.3848 -0.0404
vt 0.7153 0.6426
v -0.0286 1.3848 -0.0284
vt 0.4687 0.3304
v -0.0286 1.3848 -0.0284
vt 0.4696 0.3314
v -0.0286 1.3848 -0.0284
vt 0.7313 0.6426
v -0.0286 1.3848 -0.0284
vt 0.6993 0.6426
v -0.0284 1.3728 0.0286
vt 0.6993 0.6359
v -0.0284 1.3728 0.0286
vt 0.7048 0.6149
v -0.0284 1.3728 0.0286
vt 0.6993 0.6359
v 0.0002 1.3728 0.0404
vt 0.7139 0.6111
v 0.0002 1.3728 0.0404
vt 0.7139 0.6111
v 0.0002 1.3728 0.0404
vt 0.7153 0.6359
v 0.0002 1.3728 0.0404
vt 0.7153 0.6359
v 0.0286 1.3728 0.0284
vt 0.7230 0.6149
v 0.0286 1.3728 0.0284
vt 0.6993 0.6359
v 0.0286 1.3728 0.0284
vt 0.7313 0.6359
v 0.0404 1.3728 -0.0002
vt 0.7267 0.6240
v 0.0404 1.3728 -0.0002
vt 0.7153 0.6359
v 0.0404 1.3728 -0.0002
vt 0.7267 0.6240
v 0.0404 1.3728 -0.0002
vt 0.7153 0.6359
v 0.0284 1.3728 -0.0286
vt 0.7230 0.6331
v 0.0284 1.3728 -0.0286
vt 0.7313 0.6359
v 0.0284 1.3728 -0.0286
vt 0.7313 0.6359
v -0.0002 1.3728 -0.0404
vt 0.7139 0.6369
v -0.0002 1.3728 -0.0404
vt 0.7139 0.6369
v -0.0002 1.3728 -0.0404
vt 0.7153 0.6359
v -0.0002 1.3728 -0.0404
vt 0.7153 0.6359
v -0.0286 1.3728 -0.0284
vt 0.7048 0.6331
v -0.0286 1.3728 -0.0284
vt 0.7313 0.6359
v -0.0286 1.3728 -0.0284
vt 0.6993 0.6359
v 0.0000 1.3610 0.0000
vt 0.7164 0.6265
v 0.0000 1.3610 0.0000
vt 0.7113 0.6265
v 0.0000 1.3610 0.0000
vt 0.7113 0.6215
v 0.0000 1.3610 0.0000
vt 0.7164 0.6215
v -0.0636 1.1090 0.1388
vt 0.1170 0.4901
v -0.0636 1.1090 0.1388
vt 0.1170 0.4901
v -0.0636 1.1090 0.1388
vt 0.1170 0.5105
v -0.0739 1.1015 0.1389
vt 0.1325 0.4901
v -0.0739 1.1015 0.1389
vt 0.0820 0.5161
v -0.0739 1.1015 0.1389
vt 0.1325 0.5217
v -0.0700 1.0895 0.1388
vt 0.1266 0.4901
v -0.0700 1.0895 0.1388
vt 0.0820 0.5342
v -0.0700 1.0895 0.1388
vt 0.1266 0.5399
v -0.0573 1.0895 0.1388
vt 0.1075 0.4901
v -0.0573 1.0895 0.1388
vt 0.0820 0.5342
v -0.0573 1.0895 0.1388
vt 0.1075 0.5399
v -0.0534 1.1015 0.1388
vt 0.1016 0.4901
v -0.0534 1.1015 0.1388
vt 0.0820 0.5161
v -0.0534 1.1015 0.1388
vt 0.1016 0.5217
v -0.0634 1.1090 0.1853
vt 0.1170 0.5602
v -0.0634 1.1090 0.1853
vt 0.1170 0.5105
v -0.0634 1.1090 0.1853
vt 0.1170 0.5602
v -0.0737 1.1015 0.1853
vt 0.1325 0.5217
v -0.0737 1.1015 0.1853
vt 0.1325 0.5602
v -0.0737 1.1015 0.1853
vt 0.1521 0.5161
v -0.0698 1.0895 0.1853
vt 0.1266 0.5602
v -0.0698 1.0895 0.1853
vt 0.1266 0.5399
v -0.0698 1.0895 0.1853
vt 0.1521 0.5342
v -0.0571 1.0895 0.1853
vt 0.1075 0.5602
v -0.0571 1.0895 0.1853
vt 0.1521 0.5342
v -0.0571 1.0895 0.1853
vt 0.1075 0.5399
v -0.0532 1.1015 0.1853
vt 0.1016 0.5602
v -0.0532 1.1015 0.1853
vt 0.1521 0.5161
v -0.0532 1.1015 0.1853
vt 0.1016 0.5217
v -0.0636 1.1122 0.2006
vt 0.1170 0.5452
v -0.0636 1.1122 0.2006
vt 0.1170 0.4936
v -0.0636 1.1122 0.2006
vt 0.1170 0.4936
v -0.0776 1.1122 0.1904
vt 0.1381 0.5299
v -0.0776 1.1122 0.1904
vt 0.1381 0.4936
v -0.0776 1.1122 0.1904
vt 0.1294 0.4936
v -0.0724 1.1122 0.1740
vt 0.1301 0.5051
v -0.0724 1.1122 0.1740
vt 0.1046 0.4936
v -0.0724 1.1122 0.1740
vt 0.1301 0.4936
v -0.0551 1.1122 0.1739
vt 0.1040 0.5051
v -0.0551 1.1122 0.1739
vt 0.1046 0.4936
v -0.0551 1.1122 0.1739
vt 0.1040 0.4936
v -0.0496 1.1122 0.1903
vt 0.0959 0.5299
v -0.0496 1.1122 0.1903
vt 0.1294 0.4936
v -0.0496 1.1122 0.1903
vt 0.0959 0.4936
v -0.0636 1.0704 0.1970
vt 0.1170 0.5404
v -0.0636 1.0704 0.1970
vt 0.1170 0.5567
v -0.0636 1.0704 0.1970
vt 0.1170 0.5567
v -0.0742 1.0704 0.1893
vt 0.1330 0.5288
v -0.0742 1.0704 0.1893
vt 0.1330 0.5567
v -0.0742 1.0704 0.1893
vt 0.1278 0.5567
v -0.0702 1.0704 0.1769
vt 0.1269 0.5100
v -0.0702 1.0704 0.1769
vt 0.1090 0.5567
v -0.0702 1.0704 0.1769
vt 0.1269 0.5567
v -0.0571 1.0704 0.1768
vt 0.1072 0.5100
v -0.0571 1.0704 0.1768
vt 0.1090 0.5567
v -0.0571 1.0704 0.1768
vt 0.1072 0.5567
v -0.0530 1.0704 0.1892
vt 0.1010 0.5288
v -0.0530 1.0704 0.1892
vt 0.1278 0.5567
v -0.0530 1.0704 0.1892
vt 0.1010 0.5567
v -0.0741 1.1299 0.2351
vt 0.7481 0.9060
v -0.0741 1.1299 0.2351
vt 0.7481 0.9414
v -0.0741 1.1299 0.2351
vt 0.7307 0.9414
v -0.0514 1.1299 0.2351
vt 0.7699 0.9060
v -0.0514 1.1299 0.2351
vt 0.7307 0.9414
v -0.0514 1.1299 0.2351
vt 0.7699 0.9414
v -0.0743 1.1115 0.1775
vt 0.7481 0.9615
v -0.0743 1.1115 0.1775
vt 0.7862 0.9237
v -0.0743 1.1115 0.1775
vt 0.7481 0.9237
v -0.0517 1.1115 0.1775
vt 0.7699 0.9615
v -0.0517 1.1115 0.1775
vt 0.7862 0.9237
v -0.0517 1.1115 0.1775
vt 0.7699 0.9237
v -0.0743 1.1151 0.1764
vt 0.7481 0.9627
v -0.0743 1.1151 0.1764
vt 0.7873 0.9272
v -0.0743 1.1151 0.1764
vt 0.7481 0.9272
v -0.0741 1.1335 0.2340
vt 0.7481 0.9449
v -0.0741 1.1335 0.2340
vt 0.7481 0.9071
v -0.0741 1.1335 0.2340
vt 0.7318 0.9449
v -0.0514 1.1335 0.2339
vt 0.7318 0.9449
v -0.0514 1.1335 0.2339
vt 0.7699 0.9449
v -0.0514 1.1335 0.2339
vt 0.7699 0.9071
v -0.0517 1.1151 0.1763
vt 0.7873 0.9272
v -0.0517 1.1151 0.1763
vt 0.7699 0.9627
v -0.0517 1.1151 0.1763
vt 0.7699 0.9272
v 0.0723 1.1090 0.1383
vt 0.1178 0.6331
v 0.0723 1.1090 0.1383
vt 0.1178 0.6331
v 0.0723 1.1090 0.1383
vt 0.1178 0.6121
v 0.0620 1.1015 0.1383
vt 0.1019 0.6331
v 0.0620 1.1015 0.1383
vt 0.1539 0.6064
v 0.0620 1.1015 0.1383
vt 0.1019 0.6006
v 0.0659 1.0895 0.1383
vt 0.1080 0.6331
v 0.0659 1.0895 0.1383
vt 0.1539 0.5877
v 0.0659 1.0895 0.1383
vt 0.1080 0.5819
v 0.0786 1.0895 0.1383
vt 0.1276 0.6331
v 0.0786 1.0895 0.1383
vt 0.1539 0.5877
v 0.0786 1.0895 0.1383
vt 0.1276 0.5819
v 0.0825 1.1015 0.1382
vt 0.1337 0.6331
v 0.0825 1.1015 0.1382
vt 0.1539 0.6064
v 0.0825 1.1015 0.1382
vt 0.1337 0.6006
v 0.0724 1.1090 0.1848
vt 0.1178 0.5609
v 0.0724 1.1090 0.1848
vt 0.1178 0.6121
v 0.0724 1.1090 0.1848
vt 0.1178 0.5609
v 0.0622 1.1015 0.1848
vt 0.1019 0.6006
v 0.0622 1.1015 0.1848
vt 0.1019 0.5609
v 0.0622 1.1015 0.1848
vt 0.0817 0.6064
v 0.0661 1.0895 0.1848
vt 0.1080 0.5609
v 0.0661 1.0895 0.1848
vt 0.1080 0.5819
v 0.0661 1.0895 0.1848
vt 0.0817 0.5877
v 0.0788 1.0895 0.1847
vt 0.1276 0.5609
v 0.0788 1.0895 0.1847
vt 0.0817 0.5877
v 0.0788 1.0895 0.1847
vt 0.1276 0.5819
v 0.0827 1.1015 0.1847
vt 0.1337 0.5609
v 0.0827 1.1015 0.1847
vt 0.0817 0.6064
v 0.0827 1.1015 0.1847
vt 0.1337 0.6006
v 0.0723 1.1122 0.2000
vt 0.1178 0.5763
v 0.0723 1.1122 0.2000
vt 0.1178 0.6295
v 0.0723 1.1122 0.2000
vt 0.1178 0.6295
v 0.0583 1.1122 0.1899
vt 0.0961 0.5921
v 0.0583 1.1122 0.1899
vt 0.0961 0.6295
v 0.0583 1.1122 0.1899
vt 0.1050 0.6295
v 0.0635 1.1122 0.1734
vt 0.1044 0.6177
v 0.0635 1.1122 0.1734
vt 0.1306 0.6295
v 0.0635 1.1122 0.1734
vt 0.1044 0.6295
v 0.0808 1.1122 0.1734
vt 0.1312 0.6177
v 0.0808 1.1122 0.1734
vt 0.1306 0.6295
v 0.0808 1.1122 0.1734
vt 0.1312 0.6295
v 0.0862 1.1122 0.1898
vt 0.1395 0.5921
v 0.0862 1.1122 0.1898
vt 0.1050 0.6295
v 0.0862 1.1122 0.1898
vt 0.1395 0.6295
v 0.0723 1.0704 0.1965
vt 0.1178 0.5814
v 0.0723 1.0704 0.1965
vt 0.1178 0.5645
v 0.0723 1.0704 0.1965
vt 0.1178 0.5645
v 0.0616 1.0704 0.1888
vt 0.1013 0.5933
v 0.0616 1.0704 0.1888
vt 0.1013 0.5645
v 0.0616 1.0704 0.1888
vt 0.1067 0.5645
v 0.0656 1.0704 0.1763
vt 0.1076 0.6127
v 0.0656 1.0704 0.1763
vt 0.1261 0.5645
v 0.0656 1.0704 0.1763
vt 0.1076 0.5645
v 0.0787 1.0704 0.1763
vt 0.1280 0.6127
v 0.0787 1.0704 0.1763
vt 0.1261 0.5645
v 0.0787 1.0704 0.1763
vt 0.1280 0.5645
v 0.0828 1.0704 0.1887
vt 0.1343 0.5933
v 0.0828 1.0704 0.1887
vt 0.1067 0.5645
v 0.0828 1.0704 0.1887
vt 0.1343 0.5645
v 0.0618 1.1299 0.2346
vt 0.7154 0.6221
v 0.0618 1.1299 0.2346
vt 0.7154 0.6472
v 0.0618 1.1299 0.2346
vt 0.6986 0.6558
v 0.0845 1.1299 0.2345
vt 0.7365 0.6221
v 0.0845 1.1299 0.2345
vt 0.6986 0.6558
v 0.0845 1.1299 0.2345
vt 0.7365 0.6472
v 0.0616 1.1115 0.1770
vt 0.7154 0.6757
v 0.0616 1.1115 0.1770
vt 0.7522 0.6387
v 0.0616 1.1115 0.1770
vt 0.7154 0.6472
v 0.0842 1.1115 0.1769
vt 0.7365 0.6757
v 0.0842 1.1115 0.1769
vt 0.7522 0.6387
v 0.0842 1.1115 0.1769
vt 0.7365 0.6472
v 0.0616 1.1151 0.1759
vt 0.7154 0.6757
v 0.0616 1.1151 0.1759
vt 0.7533 0.6420
v 0.0616 1.1151 0.1759
vt 0.7154 0.6506
v 0.0618 1.1335 0.2335
vt 0.7154 0.6506
v 0.0618 1.1335 0.2335
vt 0.7154 0.6221
v 0.0618 1.1335 0.2335
vt 0.6996 0.6591
v 0.0844 1.1335 0.2334
vt 0.6996 0.6591
v 0.0844 1.1335 0.2334
vt 0.7365 0.6506
v 0.0844 1.1335 0.2334
vt 0.7365 0.6221
v 0.0842 1.1151 0.1758
vt 0.7533 0.6420
v 0.0842 1.1151 0.1758
vt 0.7365 0.6757
v 0.0842 1.1151 0.1758
vt 0.7365 0.6506
v 0.0018 1.8232 -0.1907
vt 0.8212 0.1132
v 0.0018 1.8232 -0.1907
vt 0.7332 0.0714
v 0.0018 1.8232 -0.1907
vt 0.6477 0.1133
v 0.0018 1.8232 -0.1907
vt 0.7365 0.0716
v 0.1673 1.8232 -0.0960
vt 0.7583 0.1133
v 0.1673 1.8232 -0.0960
vt 0.8280 0.0716
v 0.1673 1.8232 -0.0960
vt 0.7110 0.1132
v 0.1673 1.8232 -0.0960
vt 0.6415 0.0714
v 0.1680 1.8232 0.0945
vt 0.6477 0.1133
v 0.1680 1.8232 0.0945
vt 0.8212 0.1132
v 0.1680 1.8232 0.0945
vt 0.7224 0.0716
v 0.1680 1.8232 0.0945
vt 0.6415 0.0714
v 0.0033 1.8232 0.1905
vt 0.7583 0.1133
v 0.0033 1.8232 0.1905
vt 0.7365 0.0716
v 0.0033 1.8232 0.1905
vt 0.7110 0.1132
v 0.0033 1.8232 0.1905
vt 0.7332 0.0714
v -0.1621 1.8232 0.0958
vt 0.6477 0.1133
v -0.1621 1.8232 0.0958
vt 0.8280 0.0716
v -0.1621 1.8232 0.0958
vt 0.8212 0.1132
v -0.1621 1.8232 0.0958
vt 0.6415 0.0714
v -0.1628 1.8232 -0.0948
vt 0.7110 0.1132
v -0.1628 1.8232 -0.0948
vt 0.7583 0.1133
v -0.1628 1.8232 -0.0948
vt 0.7474 0.0714
v -0.1628 1.8232 -0.0948
vt 0.8280 0.0716
v 0.1673 1.4279 -0.0960
vt 0.7153 0.1869
v 0.1673 1.4279 -0.0960
vt 0.8244 0.2915
v 0.1673 1.4279 -0.0960
vt 0.7529 0.1869
v 0.1673 1.4279 -0.0960
vt 0.6423 0.2910
v 0.0018 1.4279 -0.1907
vt 0.6491 0.1869
v 0.0018 1.4279 -0.1907
vt 0.8173 0.1869
v 0.0018 1.4279 -0.1907
vt 0.7340 0.2910
v 0.0018 1.4279 -0.1907
vt 0.7123 0.2915
v 0.1680 1.4279 0.0946
vt 0.8173 0.1869
v 0.1680 1.4279 0.0946
vt 0.6491 0.1869
v 0.1680 1.4279 0.0946
vt 0.7123 0.2915
v 0.1680 1.4279 0.0946
vt 0.6423 0.2910
v 0.0033 1.4279 0.1905
vt 0.7153 0.1869
v 0.0033 1.4279 0.1905
vt 0.7529 0.1869
v 0.0033 1.4279 0.1905
vt 0.7123 0.2915
v 0.0033 1.4279 0.1905
vt 0.7340 0.2910
v -0.1621 1.4279 0.0958
vt 0.8173 0.1869
v -0.1621 1.4279 0.0958
vt 0.8094 0.2915
v -0.1621 1.4279 0.0958
vt 0.6491 0.1869
v -0.1621 1.4279 0.0958
vt 0.6401 0.2910
v -0.1628 1.4279 -0.0947
vt 0.7529 0.1869
v -0.1628 1.4279 -0.0947
vt 0.7153 0.1869
v -0.1628 1.4279 -0.0947
vt 0.7459 0.2910
v -0.1628 1.4279 -0.0947
vt 0.8094 0.2915
v 0.1127 1.8496 -0.0642
vt 0.7081 0.0950
v 0.1127 1.8496 -0.0642
vt 0.7400 0.0816
v 0.1127 1.8496 -0.0642
vt 0.7292 0.0816
v 0.0021 1.8496 -0.1275
vt 0.7322 0.0971
v 0.0021 1.8496 -0.1275
vt 0.8030 0.0816
v 0.0021 1.8496 -0.1275
vt 0.6660 0.0816
v 0.1132 1.8496 0.0632
vt 0.7081 0.0909
v 0.1132 1.8496 0.0632
vt 0.6660 0.0816
v 0.1132 1.8496 0.0632
vt 0.8030 0.0816
v 0.0031 1.8496 0.1273
vt 0.7322 0.0888
v 0.0031 1.8496 0.1273
vt 0.7400 0.0816
v 0.0031 1.8496 0.1273
vt 0.7292 0.0816
v -0.1075 1.8496 0.0640
vt 0.7562 0.0909
v -0.1075 1.8496 0.0640
vt 0.6660 0.0816
v -0.1075 1.8496 0.0640
vt 0.8030 0.0816
v -0.1080 1.8496 -0.0634
vt 0.7562 0.0950
v -0.1080 1.8496 -0.0634
vt 0.7292 0.0816
v -0.1080 1.8496 -0.0634
vt 0.7400 0.0816
v 0.1775 1.6041 0.1000
vt 0.6383 0.1818
v 0.1775 1.6041 0.1000
vt 0.8276 0.1732
v 0.1775 1.6041 0.1000
vt 0.8326 0.1931
v 0.1775 1.6041 0.1000
vt 0.8326 0.1931
v 0.1775 1.6367 0.1000
vt 0.6383 0.1818
v 0.1775 1.6367 0.1000
vt 0.8276 0.1732
v 0.1775 1.6367 0.1000
vt 0.8326 0.1740
v 0.1775 1.6367 0.1000
vt 0.8326 0.1750
v -0.1716 1.6367 0.1014
vt 0.6383 0.1818
v -0.1716 1.6367 0.1014
vt 0.8276 0.1732
v -0.1716 1.6367 0.1014
vt 0.6370 0.1740
v -0.1716 1.6367 0.1014
vt 0.6370 0.1750
v -0.1716 1.6041 0.1014
vt 0.6383 0.1818
v -0.1716 1.6041 0.1014
vt 0.8276 0.1732
v -0.1716 1.6041 0.1014
vt 0.6370 0.1931
v -0.1716 1.6041 0.1014
vt 0.6370 0.1931
v -0.1724 1.6041 -0.1002
vt 0.7051 0.1732
v -0.1724 1.6041 -0.1002
vt 0.7481 0.1818
v -0.1724 1.6041 -0.1002
vt 0.7490 0.1931
v -0.1724 1.6041 -0.1002
vt 0.7300 0.1931
v -0.1724 1.6367 -0.1002
vt 0.7051 0.1732
v -0.1724 1.6367 -0.1002
vt 0.7481 0.1818
v -0.1724 1.6367 -0.1002
vt 0.7490 0.1750
v -0.1724 1.6367 -0.1002
vt 0.7300 0.1740
v 0.0033 1.6041 0.1905
vt 0.7084 0.1789
v 0.0033 1.6041 0.1905
vt 0.7451 0.1869
v 0.0033 1.6041 0.1905
vt 0.7370 0.1938
v 0.0033 1.6041 0.1905
vt 0.7332 0.1934
v 0.0033 1.6367 0.1905
vt 0.7084 0.1789
v 0.0033 1.6367 0.1905
vt 0.7451 0.1869
v 0.0033 1.6367 0.1905
vt 0.7365 0.1750
v 0.0033 1.6367 0.1905
vt 0.7332 0.1750
v 0.1680 1.6367 0.0946
vt 0.6413 0.1869
v 0.1680 1.6367 0.0946
vt 0.8243 0.1789
v 0.1680 1.6367 0.0946
vt 0.7224 0.1750
v 0.1680 1.6367 0.0946
vt 0.6415 0.1750
v 0.1680 1.6041 0.0946
vt 0.6413 0.1869
v 0.1680 1.6041 0.0946
vt 0.8243 0.1789
v 0.1680 1.6041 0.0946
vt 0.7230 0.1938
v 0.1680 1.6041 0.0946
vt 0.6415 0.1934
v 0.1673 1.6041 -0.0960
vt 0.7084 0.1789
v 0.1673 1.6041 -0.0960
vt 0.7451 0.1869
v 0.1673 1.6041 -0.0960
vt 0.8278 0.1938
v 0.1673 1.6041 -0.0960
vt 0.7332 0.1934
v 0.1673 1.6367 -0.0960
vt 0.7084 0.1789
v 0.1673 1.6367 -0.0960
vt 0.7451 0.1869
v 0.1673 1.6367 -0.0960
vt 0.8280 0.1750
v 0.1673 1.6367 -0.0960
vt 0.6415 0.1750
v 0.0018 1.6367 -0.1907
vt 0.6413 0.1869
v 0.0018 1.6367 -0.1907
vt 0.8243 0.1789
v 0.0018 1.6367 -0.1907
vt 0.7332 0.1750
v 0.0018 1.6367 -0.1907
vt 0.7365 0.1750
v 0.0018 1.6041 -0.1907
vt 0.6413 0.1869
v 0.0018 1.6041 -0.1907
vt 0.8243 0.1789
v 0.0018 1.6041 -0.1907
vt 0.6415 0.1934
v 0.0018 1.6041 -0.1907
vt 0.8278 0.1938
v -0.1628 1.6367 -0.0947
vt 0.7084 0.1789
v -0.1628 1.6367 -0.0947
vt 0.7451 0.1869
v -0.1628 1.6367 -0.0947
vt 0.7474 0.1750
v -0.1628 1.6367 -0.0947
vt 0.8280 0.1750
v -0.1628 1.6041 -0.0947
vt 0.7084 0.1789
v -0.1628 1.6041 -0.0947
vt 0.7451 0.1869
v -0.1628 1.6041 -0.0947
vt 0.7474 0.1934
v -0.1628 1.6041 -0.0947
vt 0.7370 0.1938
v -0.1621 1.6041 0.0958
vt 0.6413 0.1869
v -0.1621 1.6041 0.0958
vt 0.8243 0.1789
v -0.1621 1.6041 0.0958
vt 0.8278 0.1938
v -0.1621 1.6041 0.0958
vt 0.6415 0.1934
v -0.1621 1.6367 0.0958
vt 0.6413 0.1869
v -0.1621 1.6367 0.0958
vt 0.8243 0.1789
v -0.1621 1.6367 0.0958
vt 0.8280 0.1750
v -0.1621 1.6367 0.0958
vt 0.6415 0.1750
v 0.1767 1.6041 -0.1016
vt 0.7051 0.1732
v 0.1767 1.6041 -0.1016
vt 0.7481 0.1818
v 0.1767 1.6041 -0.1016
vt 0.7141 0.1931
v 0.1767 1.6041 -0.1016
vt 0.8318 0.1926
v 0.1767 1.6367 -0.1016
vt 0.7051 0.1732
v 0.1767 1.6367 -0.1016
vt 0.7481 0.1818
v 0.1767 1.6367 -0.1016
vt 0.7141 0.1740
v 0.1767 1.6367 -0.1016
vt 0.8318 0.1731
v 0.0034 1.6041 0.2015
vt 0.7051 0.1732
v 0.0034 1.6041 0.2015
vt 0.7481 0.1818
v 0.0034 1.6041 0.2015
vt 0.7396 0.1931
v 0.0034 1.6041 0.2015
vt 0.7356 0.1931
v 0.0034 1.6367 0.2015
vt 0.7051 0.1732
v 0.0034 1.6367 0.2015
vt 0.7481 0.1818
v 0.0034 1.6367 0.2015
vt 0.7396 0.1740
v 0.0034 1.6367 0.2015
vt 0.7356 0.1750
v 0.0018 1.6367 -0.2017
vt 0.6383 0.1818
v 0.0018 1.6367 -0.2017
vt 0.8276 0.1732
v 0.0018 1.6367 -0.2017
vt 0.6339 0.1731
v 0.0018 1.6367 -0.2017
vt 0.8326 0.1740
v 0.0018 1.6041 -0.2016
vt 0.6383 0.1818
v 0.0018 1.6041 -0.2016
vt 0.8276 0.1732
v 0.0018 1.6041 -0.2016
vt 0.6339 0.1926
v 0.0018 1.6041 -0.2016
vt 0.8326 0.1931
v 0.1753 1.4689 0.0987
vt 0.6390 0.1829
v 0.1753 1.4689 0.0987
vt 0.8268 0.1745
v 0.1753 1.4689 0.0987
vt 0.8351 0.2679
v 0.1753 1.4689 0.0987
vt 0.6377 0.2683
v 0.1753 1.4421 0.0988
vt 0.6390 0.1829
v 0.1753 1.4421 0.0988
vt 0.8278 0.1825
v 0.1753 1.4421 0.0988
vt 0.8351 0.2836
v 0.1753 1.4421 0.0988
vt 0.6377 0.2831
v 0.0034 1.4689 0.1989
vt 0.7058 0.1745
v 0.0034 1.4689 0.1989
vt 0.7474 0.1829
v 0.0034 1.4689 0.1989
vt 0.7341 0.2674
v 0.0034 1.4689 0.1989
vt 0.7335 0.2683
v 0.0034 1.4421 0.1989
vt 0.7068 0.1825
v 0.0034 1.4421 0.1989
vt 0.7474 0.1829
v 0.0034 1.4421 0.1989
vt 0.7341 0.2831
v 0.0034 1.4421 0.1989
vt 0.7335 0.2831
v -0.1694 1.4421 0.1001
vt 0.6390 0.1829
v -0.1694 1.4421 0.1001
vt 0.8278 0.1825
v -0.1694 1.4421 0.1001
vt 0.8354 0.2831
v -0.1694 1.4421 0.1001
vt 0.6377 0.2831
v -0.1694 1.4689 0.1001
vt 0.6390 0.1829
v -0.1694 1.4689 0.1001
vt 0.8268 0.1745
v -0.1694 1.4689 0.1001
vt 0.8354 0.2674
v -0.1694 1.4689 0.1001
vt 0.6377 0.2683
v 0.0033 1.4421 0.1905
vt 0.7094 0.1869
v 0.0033 1.4421 0.1905
vt 0.7451 0.1869
v 0.0033 1.4421 0.1905
vt 0.7123 0.2831
v 0.0033 1.4421 0.1905
vt 0.7340 0.2831
v 0.0033 1.4689 0.1905
vt 0.7084 0.1789
v 0.0033 1.4689 0.1905
vt 0.7451 0.1869
v 0.0033 1.4689 0.1905
vt 0.7370 0.2683
v 0.0033 1.4689 0.1905
vt 0.7332 0.2685
v -0.1621 1.4689 0.0958
vt 0.6413 0.1869
v -0.1621 1.4689 0.0958
vt 0.8243 0.1789
v -0.1621 1.4689 0.0958
vt 0.8278 0.2683
v -0.1621 1.4689 0.0958
vt 0.6415 0.2685
v -0.1621 1.4421 0.0958
vt 0.6413 0.1869
v -0.1621 1.4421 0.0958
vt 0.8252 0.1869
v -0.1621 1.4421 0.0958
vt 0.8094 0.2831
v -0.1621 1.4421 0.0958
vt 0.6401 0.2831
v 0.1680 1.4421 0.0946
vt 0.6413 0.1869
v 0.1680 1.4421 0.0946
vt 0.8252 0.1869
v 0.1680 1.4421 0.0946
vt 0.7123 0.2831
v 0.1680 1.4421 0.0946
vt 0.6423 0.2831
v 0.1680 1.4689 0.0946
vt 0.6413 0.1869
v 0.1680 1.4689 0.0946
vt 0.8243 0.1789
v 0.1680 1.4689 0.0946
vt 0.7230 0.2683
v 0.1680 1.4689 0.0946
vt 0.6415 0.2685
v 0.1673 1.4421 -0.0960
vt 0.7094 0.1869
v 0.1673 1.4421 -0.0960
vt 0.7451 0.1869
v 0.1673 1.4421 -0.0960
vt 0.8244 0.2831
v 0.1673 1.4421 -0.0960
vt 0.6423 0.2831
v 0.1673 1.4688 -0.0960
vt 0.7084 0.1789
v 0.1673 1.4688 -0.0960
vt 0.7451 0.1869
v 0.1673 1.4688 -0.0960
vt 0.8278 0.2683
v 0.1673 1.4688 -0.0960
vt 0.7332 0.2685
v 0.0018 1.4688 -0.1907
vt 0.6413 0.1869
v 0.0018 1.4688 -0.1907
vt 0.8243 0.1789
v 0.0018 1.4688 -0.1907
vt 0.6415 0.2685
v 0.0018 1.4688 -0.1907
vt 0.8278 0.2683
v 0.0018 1.4421 -0.1907
vt 0.6413 0.1869
v 0.0018 1.4421 -0.1907
vt 0.8252 0.1869
v 0.0018 1.4421 -0.1907
vt 0.7340 0.2831
v 0.0018 1.4421 -0.1907
vt 0.7123 0.2831
v -0.1628 1.4421 -0.0947
vt 0.7094 0.1869
v -0.1628 1.4421 -0.0947
vt 0.7451 0.1869
v -0.1628 1.4421 -0.0947
vt 0.7459 0.2831
v -0.1628 1.4421 -0.0947
vt 0.8094 0.2831
v -0.1628 1.4688 -0.0947
vt 0.7084 0.1789
v -0.1628 1.4688 -0.0947
vt 0.7451 0.1869
v -0.1628 1.4688 -0.0947
vt 0.7474 0.2685
v -0.1628 1.4688 -0.0947
vt 0.7370 0.2683
v 0.0018 1.4688 -0.1991
vt 0.6390 0.1829
v 0.0018 1.4688 -0.1991
vt 0.8268 0.1745
v 0.0018 1.4688 -0.1991
vt 0.7340 0.2683
v 0.0018 1.4688 -0.1991
vt 0.7341 0.2674
v 0.0018 1.4421 -0.1991
vt 0.6390 0.1829
v 0.0018 1.4421 -0.1991
vt 0.8278 0.1825
v 0.0018 1.4421 -0.1991
vt 0.7340 0.2831
v 0.0018 1.4421 -0.1991
vt 0.7341 0.2831
v -0.1702 1.4421 -0.0989
vt 0.7068 0.1825
v -0.1702 1.4421 -0.0989
vt 0.7474 0.1829
v -0.1702 1.4421 -0.0989
vt 0.7483 0.2831
v -0.1702 1.4421 -0.0989
vt 0.8354 0.2831
v -0.1702 1.4688 -0.0989
vt 0.7058 0.1745
v -0.1702 1.4688 -0.0989
vt 0.7474 0.1829
v -0.1702 1.4688 -0.0989
vt 0.7483 0.2683
v -0.1702 1.4688 -0.0989
vt 0.8354 0.2674
v 0.1746 1.4421 -0.1003
vt 0.7068 0.1825
v 0.1746 1.4421 -0.1003
vt 0.7474 0.1829
v 0.1746 1.4421 -0.1003
vt 0.7181 0.2836
v 0.1746 1.4421 -0.1003
vt 0.6382 0.2831
v 0.1746 1.4688 -0.1003
vt 0.7058 0.1745
v 0.1746 1.4688 -0.1003
vt 0.7474 0.1829
v 0.1746 1.4688 -0.1003
vt 0.7181 0.2679
v 0.1746 1.4688 -0.1003
vt 0.6382 0.2683
v 0.0329 1.4044 -0.0178
vt 0.7569 0.2603
v 0.0329 1.4044 -0.0178
vt 0.7498 0.3200
v 0.0329 1.4044 -0.0178
vt 0.7106 0.2603
v 0.0329 1.4044 -0.0178
vt 0.7498 0.3200
v 0.0024 1.4044 -0.0352
vt 0.6914 0.2603
v 0.0024 1.4044 -0.0352
vt 0.7757 0.2603
v 0.0024 1.4044 -0.0352
vt 0.7216 0.3200
v 0.0024 1.4044 -0.0352
vt 0.7216 0.3200
v 0.0331 1.4044 0.0174
vt 0.7757 0.2603
v 0.0331 1.4044 0.0174
vt 0.6914 0.2603
v 0.0331 1.4044 0.0174
vt 0.7216 0.3200
v 0.0331 1.4044 0.0174
vt 0.7216 0.3200
v 0.0027 1.4044 0.0350
vt 0.7569 0.2603
v 0.0027 1.4044 0.0350
vt 0.7106 0.2603
v 0.0027 1.4044 0.0350
vt 0.7498 0.3200
v 0.0027 1.4044 0.0350
vt 0.7498 0.3200
v -0.0278 1.4044 0.0176
vt 0.7757 0.2603
v -0.0278 1.4044 0.0176
vt 0.7216 0.3200
v -0.0278 1.4044 0.0176
vt 0.6914 0.2603
v -0.0278 1.4044 0.0176
vt 0.7216 0.3200
v -0.0279 1.4044 -0.0175
vt 0.7106 0.2603
v -0.0279 1.4044 -0.0175
vt 0.7569 0.2603
v -0.0279 1.4044 -0.0175
vt 0.7498 0.3200
v -0.0279 1.4044 -0.0175
vt 0.7498 0.3200
v 0.0329 1.3569 -0.0178
vt 0.7028 0.2603
v 0.0329 1.3569 -0.0178
vt 0.7556 0.2608
v 0.0329 1.3569 -0.0178
vt 0.7498 0.3638
v 0.0329 1.3569 -0.0178
vt 0.7498 0.3638
v 0.0024 1.3569 -0.0352
vt 0.6836 0.2603
v 0.0024 1.3569 -0.0352
vt 0.7770 0.2608
v 0.0024 1.3569 -0.0352
vt 0.7216 0.3638
v 0.0024 1.3569 -0.0352
vt 0.7216 0.3638
v 0.0331 1.3569 0.0174
vt 0.6836 0.2603
v 0.0331 1.3569 0.0174
vt 0.7770 0.2608
v 0.0331 1.3569 0.0174
vt 0.7216 0.3638
v 0.0331 1.3569 0.0174
vt 0.7216 0.3638
v 0.0027 1.3569 0.0350
vt 0.7028 0.2603
v 0.0027 1.3569 0.0350
vt 0.7556 0.2608
v 0.0027 1.3569 0.0350
vt 0.7498 0.3638
v 0.0027 1.3569 0.0350
vt 0.7498 0.3638
v -0.0278 1.3569 0.0176
vt 0.6836 0.2603
v -0.0278 1.3569 0.0176
vt 0.7770 0.2608
v -0.0278 1.3569 0.0176
vt 0.7216 0.3638
v -0.0278 1.3569 0.0176
vt 0.7216 0.3638
v -0.0279 1.3569 -0.0175
vt 0.7028 0.2603
v -0.0279 1.3569 -0.0175
vt 0.7556 0.2608
v -0.0279 1.3569 -0.0175
vt 0.7498 0.3638
v -0.0279 1.3569 -0.0175
vt 0.7498 0.3638
v 0.0329 1.3373 -0.0178
vt 0.7087 0.6392
v 0.0329 1.3373 -0.0178
vt 0.7118 0.6380
v 0.0329 1.3373 -0.0178
vt 0.7333 0.6377
v 0.0024 1.3373 -0.0352
vt 0.7142 0.6377
v 0.0024 1.3373 -0.0352
vt 0.7239 0.6480
v 0.0024 1.3373 -0.0352
vt 0.7331 0.6380
v 0.0331 1.3373 0.0174
vt 0.7087 0.6216
v 0.0331 1.3373 0.0174
vt 0.7142 0.6377
v 0.0331 1.3373 0.0174
vt 0.7331 0.6380
v 0.0027 1.3373 0.0350
vt 0.7118 0.6380
v 0.0027 1.3373 0.0350
vt 0.7239 0.6129
v 0.0027 1.3373 0.0350
vt 0.7333 0.6377
v -0.0278 1.3373 0.0176
vt 0.7142 0.6377
v -0.0278 1.3373 0.0176
vt 0.7331 0.6380
v -0.0278 1.3373 0.0176
vt 0.7391 0.6216
v -0.0279 1.3373 -0.0175
vt 0.7118 0.6380
v -0.0279 1.3373 -0.0175
vt 0.7333 0.6377
v -0.0279 1.3373 -0.0175
vt 0.7391 0.6392
v 0.0374 1.3569 -0.0203
vt 0.7042 0.2579
v 0.0374 1.3569 -0.0203
vt 0.7541 0.2581
v 0.0374 1.3569 -0.0203
vt 0.7435 0.6180
v 0.0374 1.3569 -0.0203
vt 0.7064 0.6168
v 0.0024 1.3569 -0.0403
vt 0.6822 0.2579
v 0.0024 1.3569 -0.0403
vt 0.7786 0.2581
v 0.0024 1.3569 -0.0403
vt 0.7389 0.6168
v 0.0024 1.3569 -0.0403
vt 0.7110 0.6180
v 0.0375 1.3569 0.0199
vt 0.6822 0.2579
v 0.0375 1.3569 0.0199
vt 0.7786 0.2581
v 0.0375 1.3569 0.0199
vt 0.7088 0.6180
v 0.0375 1.3569 0.0199
vt 0.7064 0.6168
v 0.0027 1.3569 0.0402
vt 0.7042 0.2579
v 0.0027 1.3569 0.0402
vt 0.7541 0.2581
v 0.0027 1.3569 0.0402
vt 0.7110 0.6180
v 0.0027 1.3569 0.0402
vt 0.7389 0.6168
v -0.0322 1.3569 0.0202
vt 0.6822 0.2579
v -0.0322 1.3569 0.0202
vt 0.7786 0.2581
v -0.0322 1.3569 0.0202
vt 0.7411 0.6180
v -0.0322 1.3569 0.0202
vt 0.7064 0.6168
v -0.0323 1.3569 -0.0201
vt 0.7042 0.2579
v -0.0323 1.3569 -0.0201
vt 0.7541 0.2581
v -0.0323 1.3569 -0.0201
vt 0.7439 0.6168
v -0.0323 1.3569 -0.0201
vt 0.7411 0.6180
v 0.0374 1.3373 -0.0203
vt 0.7102 0.6353
v 0.0374 1.3373 -0.0203
vt 0.7347 0.6353
v 0.0374 1.3373 -0.0203
vt 0.7435 0.6349
v 0.0374 1.3373 -0.0203
vt 0.7064 0.6351
v 0.0024 1.3373 -0.0403
vt 0.7128 0.6353
v 0.0024 1.3373 -0.0403
vt 0.7347 0.6353
v 0.0024 1.3373 -0.0403
vt 0.7389 0.6351
v 0.0024 1.3373 -0.0403
vt 0.7110 0.6349
v 0.0375 1.3373 0.0199
vt 0.7128 0.6353
v 0.0375 1.3373 0.0199
vt 0.7347 0.6353
v 0.0375 1.3373 0.0199
vt 0.7088 0.6349
v 0.0375 1.3373 0.0199
vt 0.7064 0.6351
v 0.0027 1.3373 0.0402
vt 0.7102 0.6353
v 0.0027 1.3373 0.0402
vt 0.7347 0.6353
v 0.0027 1.3373 0.0402
vt 0.7110 0.6349
v 0.0027 1.3373 0.0402
vt 0.7389 0.6351
v -0.0322 1.3373 0.0202
vt 0.7128 0.6353
v -0.0322 1.3373 0.0202
vt 0.7347 0.6353
v -0.0322 1.3373 0.0202
vt 0.7411 0.6349
v -0.0322 1.3373 0.0202
vt 0.7064 0.6351
v -0.0323 1.3373 -0.0201
vt 0.7102 0.6353
v -0.0323 1.3373 -0.0201
vt 0.7347 0.6353
v -0.0323 1.3373 -0.0201
vt 0.7439 0.6351
v -0.0323 1.3373 -0.0201
vt 0.7411 0.6349
f 201/201 125/125 10/10
f 201/201 10/10 169/169
f 173/173 25/25 102/102
f 173/173 102/102 182/182
f 126/126 9/9 46/46
f 126/126 46/46 134/134
f 168/168 3/3 59/59
f 168/168 59/59 176/176
f 170/170 11/11 31/31
f 170/170 31/31 178/178
f 175/175 56/56 20/20
f 175/175 20/20 172/172
f 131/131 54/54 24/24
f 131/131 24/24 128/128
f 123/123 6/6 51/51
f 123/123 51/51 132/132
f 177/177 29/29 26/26
f 177/177 26/26 174/174
f 139/139 33/33 61/61
f 139/139 61/61 146/146
f 133/133 30/30 32/32
f 133/133 32/32 134/134
f 175/175 47/47 45/45
f 175/175 45/45 176/176
f 177/177 53/53 49/49
f 177/177 49/49 178/178
f 133/133 48/48 16/16
f 133/133 16/16 130/130
f 37/37 34/34 51/51
f 37/37 51/51 54/54
f 137/137 37/37 54/54
f 137/137 54/54 131/131
f 44/44 41/41 55/55
f 44/44 55/55 58/58
f 140/140 44/44 58/58
f 140/140 58/58 132/132
f 143/143 69/69 72/72
f 143/143 72/72 147/147
f 135/135 39/39 67/67
f 135/135 67/67 141/141
f 40/40 43/43 71/71
f 40/40 71/71 68/68
f 35/35 38/38 66/66
f 35/35 66/66 63/63
f 184/184 80/80 111/111
f 184/184 111/111 191/191
f 171/171 19/19 96/96
f 171/171 96/96 180/180
f 129/129 14/14 92/92
f 129/129 92/92 152/152
f 127/127 22/22 100/100
f 127/127 100/100 150/150
f 183/183 73/73 89/89
f 183/183 89/89 179/179
f 153/153 77/77 93/93
f 153/153 93/93 149/149
f 186/186 81/81 97/97
f 186/186 97/97 181/181
f 156/156 87/87 103/103
f 156/156 103/103 151/151
f 189/189 110/110 206/206
f 189/189 206/206 202/202
f 158/158 75/75 107/107
f 158/158 107/107 166/166
f 155/155 83/83 113/113
f 155/155 113/113 160/160
f 187/187 86/86 117/117
f 187/187 117/117 193/193
f 78/78 154/154 159/159
f 78/78 159/159 109/109
f 88/88 157/157 165/165
f 88/88 165/165 119/119
f 195/195 120/120 224/224
f 195/195 224/224 218/218
f 74/74 156/156 151/151
f 74/74 151/151 90/90
f 82/82 153/153 149/149
f 82/82 149/149 98/98
f 17/17 127/127 150/150
f 17/17 150/150 94/94
f 27/27 129/129 152/152
f 27/27 152/152 104/104
f 36/36 136/136 142/142
f 36/36 142/142 64/64
f 65/65 144/144 148/148
f 65/65 148/148 62/62
f 34/34 140/140 132/132
f 34/34 132/132 51/51
f 41/41 137/137 131/131
f 41/41 131/131 55/55
f 30/30 133/133 130/130
f 30/30 130/130 28/28
f 48/48 133/133 134/134
f 48/48 134/134 46/46
f 42/42 138/138 145/145
f 42/42 145/145 70/70
f 2/2 123/123 132/132
f 2/2 132/132 58/58
f 55/55 131/131 128/128
f 55/55 128/128 18/18
f 12/12 126/126 134/134
f 12/12 134/134 32/32
f 167/167 7/7 124/124
f 167/167 124/124 201/201
f 1/1 167/167 201/201
f 1/1 201/201 122/122
f 112/112 161/161 210/210
f 112/112 210/210 208/208
f 84/84 188/188 194/194
f 84/84 194/194 114/114
f 115/115 196/196 220/220
f 115/115 220/220 214/214
f 85/85 186/186 181/181
f 85/85 181/181 101/101
f 79/79 183/183 179/179
f 79/79 179/179 95/95
f 13/13 171/171 180/180
f 13/13 180/180 91/91
f 76/76 185/185 192/192
f 76/76 192/192 108/108
f 29/29 177/177 178/178
f 29/29 178/178 31/31
f 57/57 175/175 176/176
f 57/57 176/176 60/60
f 52/52 177/177 174/174
f 52/52 174/174 23/23
f 47/47 175/175 172/172
f 47/47 172/172 15/15
f 5/5 170/170 178/178
f 5/5 178/178 50/50
f 8/8 168/168 176/176
f 8/8 176/176 45/45
f 21/21 173/173 182/182
f 21/21 182/182 99/99
f 121/121 201/201 169/169
f 121/121 169/169 4/4
f 229/229 233/233 257/257
f 229/229 257/257 254/254
f 223/223 228/228 253/253
f 223/223 253/253 249/249
f 232/232 205/205 199/199
f 232/232 199/199 256/256
f 203/203 207/207 234/234
f 203/203 234/234 197/197
f 118/118 163/163 226/226
f 118/118 226/226 222/222
f 164/164 106/106 231/231
f 164/164 231/231 227/227
f 105/105 190/190 204/204
f 105/105 204/204 230/230
f 162/162 116/116 215/215
f 162/162 215/215 211/211
f 258/258 244/244 248/248
f 258/258 248/248 251/251
f 198/198 259/259 252/252
f 198/198 252/252 255/255
f 235/235 237/237 260/260
f 235/235 260/260 200/200
f 238/238 241/241 246/246
f 238/238 246/246 261/261
f 213/213 217/217 243/243
f 213/213 243/243 240/240
f 216/216 221/221 247/247
f 216/216 247/247 242/242
f 209/209 212/212 239/239
f 209/209 239/239 236/236
f 219/219 225/225 250/250
f 219/219 250/250 245/245
f 270/270 267/267 264/264
f 264/264 276/276 273/273
f 264/264 273/273 270/270
f 278/278 280/280 284/284
f 284/284 288/288 291/291
f 284/284 291/291 278/278
f 275/275 290/290 287/287
f 275/275 287/287 272/272
f 269/269 285/285 282/282
f 269/269 282/282 266/266
f 262/262 277/277 289/289
f 262/262 289/289 274/274
f 271/271 286/286 283/283
f 271/271 283/283 268/268
f 265/265 281/281 279/279
f 265/265 279/279 263/263
f 298/298 295/295 292/292
f 292/292 304/304 301/301
f 292/292 301/301 298/298
f 307/307 310/310 313/313
f 313/313 316/316 319/319
f 313/313 319/319 307/307
f 305/305 320/320 317/317
f 305/305 317/317 302/302
f 299/299 314/314 312/312
f 299/299 312/312 297/297
f 294/294 309/309 321/321
f 294/294 321/321 306/306
f 303/303 318/318 315/315
f 303/303 315/315 300/300
f 296/296 311/311 308/308
f 296/296 308/308 293/293
f 322/322 328/328 331/331
f 322/322 331/331 325/325
f 338/338 342/342 344/344
f 338/338 344/344 334/334
f 326/326 332/332 343/343
f 326/326 343/343 340/340
f 329/329 324/324 339/339
f 329/329 339/339 335/335
f 333/333 330/330 336/336
f 333/333 336/336 345/345
f 323/323 327/327 341/341
f 323/323 341/341 337/337
f 354/354 351/351 348/348
f 348/348 360/360 357/357
f 348/348 357/357 354/354
f 362/362 364/364 368/368
f 368/368 372/372 375/375
f 368/368 375/375 362/362
f 359/359 374/374 371/371
f 359/359 371/371 356/356
f 353/353 369/369 366/366
f 353/353 366/366 350/350
f 346/346 361/361 373/373
f 346/346 373/373 358/358
f 355/355 370/370 367/367
f 355/355 367/367 352/352
f 349/349 365/365 363/363
f 349/349 363/363 347/347
f 382/382 379/379 376/376
f 376/376 388/388 385/385
f 376/376 385/385 382/382
f 391/391 394/394 397/397
f 397/397 400/400 403/403
f 397/397 403/403 391/391
f 389/389 404/404 401/401
f 389/389 401/401 386/386
f 383/383 398/398 396/396
f 383/383 396/396 381/381
f 378/378 393/393 405/405
f 378/378 405/405 390/390
f 387/387 402/402 399/399
f 387/387 399/399 384/384
f 380/380 395/395 392/392
f 380/380 392/392 377/377
f 406/406 412/412 415/415
f 406/406 415/415 409/409
f 422/422 426/426 428/428
f 422/422 428/428 418/418
f 410/410 416/416 427/427
f 410/410 427/427 424/424
f 413/413 408/408 423/423
f 413/413 423/423 419/419
f 417/417 414/414 420/420
f 417/417 420/420 429/429
f 407/407 411/411 425/425
f 407/407 425/425 421/421
f 450/450 448/448 492/492
f 450/450 492/492 494/494
f 475/475 459/459 693/693
f 475/475 693/693 709/709
f 443/443 447/447 566/566
f 443/443 566/566 526/526
f 431/431 437/437 543/543
f 431/431 543/543 546/546
f 449/449 452/452 554/554
f 449/449 554/554 567/567
f 441/441 445/445 527/527
f 441/441 527/527 531/531
f 559/559 551/551 651/651
f 559/559 651/651 663/663
f 514/514 511/511 507/507
f 514/514 507/507 518/518
f 484/484 478/478 481/481
f 481/481 493/493 490/490
f 490/490 487/487 484/484
f 481/481 490/490 484/484
f 444/444 439/439 486/486
f 444/444 486/486 489/489
f 436/436 430/430 482/482
f 436/436 482/482 480/480
f 432/432 451/451 495/495
f 432/432 495/495 483/483
f 446/446 442/442 488/488
f 446/446 488/488 491/491
f 438/438 434/434 479/479
f 438/438 479/479 485/485
f 563/563 558/558 662/662
f 563/563 662/662 627/627
f 550/550 539/539 647/647
f 550/550 647/647 650/650
f 435/435 440/440 530/530
f 435/435 530/530 542/542
f 610/610 606/606 602/602
f 610/610 602/602 614/614
f 453/453 433/433 547/547
f 453/453 547/547 555/555
f 618/618 630/630 471/471
f 618/618 471/471 468/468
f 533/533 536/536 568/568
f 533/533 568/568 497/497
f 544/544 541/541 573/573
f 544/544 573/573 584/584
f 561/561 520/520 576/576
f 561/561 576/576 509/509
f 557/557 560/560 508/508
f 557/557 508/508 513/513
f 537/537 548/548 588/588
f 537/537 588/588 569/569
f 540/540 529/529 501/501
f 540/540 501/501 572/572
f 631/631 658/658 476/476
f 631/631 476/476 473/473
f 498/498 570/570 574/574
f 498/498 574/574 502/502
f 510/510 578/578 582/582
f 510/510 582/582 506/506
f 591/591 515/515 519/519
f 591/591 519/519 587/587
f 571/571 590/590 586/586
f 571/571 586/586 575/575
f 579/579 499/499 503/503
f 579/579 503/503 583/583
f 549/549 556/556 512/512
f 549/549 512/512 589/589
f 521/521 532/532 496/496
f 521/521 496/496 577/577
f 552/552 545/545 585/585
f 552/552 585/585 516/516
f 564/564 553/553 517/517
f 564/564 517/517 504/504
f 524/524 565/565 505/505
f 524/524 505/505 580/580
f 528/528 525/525 581/581
f 528/528 581/581 500/500
f 635/635 619/619 469/469
f 635/635 469/469 465/465
f 522/522 562/562 626/626
f 522/522 626/626 622/622
f 659/659 655/655 461/461
f 659/659 461/461 477/477
f 642/642 634/634 464/464
f 642/642 464/464 455/455
f 538/538 534/534 638/638
f 538/538 638/638 646/646
f 654/654 643/643 457/457
f 654/654 457/457 460/460
f 653/653 656/656 672/672
f 653/653 672/672 669/669
f 629/629 616/616 604/604
f 629/629 604/604 609/609
f 633/633 640/640 680/680
f 633/633 680/680 597/597
f 617/617 632/632 596/596
f 617/617 596/596 605/605
f 657/657 628/628 608/608
f 657/657 608/608 673/673
f 648/648 645/645 685/685
f 648/648 685/685 664/664
f 535/535 523/523 623/623
f 535/535 623/623 639/639
f 607/607 599/599 595/595
f 607/607 595/595 603/603
f 671/671 675/675 679/679
f 671/671 679/679 667/667
f 598/598 682/682 686/686
f 598/598 686/686 594/594
f 674/674 611/611 615/615
f 674/674 615/615 678/678
f 683/683 670/670 666/666
f 683/683 666/666 687/687
f 624/624 661/661 677/677
f 624/624 677/677 612/612
f 641/641 652/652 668/668
f 641/641 668/668 681/681
f 636/636 621/621 601/601
f 636/636 601/601 592/592
f 644/644 637/637 593/593
f 644/644 593/593 684/684
f 620/620 625/625 613/613
f 620/620 613/613 600/600
f 660/660 649/649 665/665
f 660/660 665/665 676/676
f 707/707 710/710 734/734
f 707/707 734/734 731/731
f 466/466 470/470 704/704
f 466/466 704/704 700/700
f 454/454 462/462 696/696
f 454/454 696/696 688/688
f 472/472 474/474 708/708
f 472/472 708/708 706/706
f 463/463 467/467 701/701
f 463/463 701/701 697/697
f 458/458 456/456 690/690
f 458/458 690/690 692/692
f 713/713 721/721 763/763
f 713/713 763/763 755/755
f 699/699 703/703 727/727
f 699/699 727/727 723/723
f 694/694 691/691 715/715
f 694/694 715/715 718/718
f 711/711 695/695 719/719
f 711/711 719/719 735/735
f 702/702 705/705 730/730
f 702/702 730/730 726/726
f 689/689 698/698 722/722
f 689/689 722/722 714/714
f 740/740 736/736 742/742
f 742/742 746/746 750/750
f 750/750 753/753 740/740
f 742/742 750/750 740/740
f 728/728 732/732 774/774
f 728/728 774/774 770/770
f 747/747 743/743 786/786
f 747/747 786/786 791/791
f 716/716 712/712 754/754
f 716/716 754/754 758/758
f 741/741 751/751 798/798
f 741/741 798/798 783/783
f 725/725 729/729 771/771
f 725/725 771/771 767/767
f 777/777 761/761 785/785
f 777/777 785/785 801/801
f 768/768 772/772 796/796
f 768/768 796/796 792/792
f 756/756 764/764 788/788
f 756/756 788/788 780/780
f 773/773 776/776 800/800
f 773/773 800/800 797/797
f 765/765 769/769 793/793
f 765/765 793/793 789/789
f 760/760 757/757 781/781
f 760/760 781/781 784/784
f 749/749 745/745 790/790
f 749/749 790/790 795/795
f 733/733 717/717 759/759
f 733/733 759/759 775/775
f 738/738 739/739 782/782
f 738/738 782/782 779/779
f 720/720 724/724 766/766
f 720/720 766/766 762/762
f 752/752 748/748 794/794
f 752/752 794/794 799/799
f 744/744 737/737 778/778
f 744/744 778/778 787/787
