v 1.1026 0.8470 0.5380
vt 0.3183 0.4431
v 1.1026 0.8470 0.5380
vt 0.7812 0.4576
v 1.1026 0.8470 0.5380
vt 0.2582 0.4576
v 1.1026 0.8470 0.5380
vt 0.2718 0.4431
v 1.0974 0.8470 -0.5485
vt 0.3202 0.4431
v 1.0974 0.8470 -0.5485
vt 0.9945 0.4576
v 1.0974 0.8470 -0.5485
vt 0.3183 0.4431
v 1.0974 0.8470 -0.5485
vt 0.7812 0.4576
v 1.1026 0.8911 0.5380
vt 0.9924 0.4809
v 1.1026 0.8911 0.5380
vt 0.7812 0.4875
v 1.1026 0.8911 0.5380
vt 0.2582 0.4875
v 1.0974 0.8911 -0.5485
vt 0.9901 0.9736
v 1.0974 0.8911 -0.5485
vt 0.9945 0.4875
v 1.0974 0.8911 -0.5485
vt 0.7812 0.4875
v 1.0344 0.8911 -0.5482
vt 0.7385 0.4875
v 1.0344 0.8911 -0.5482
vt 0.9615 0.9734
v 1.0344 0.8911 -0.5482
vt 0.7385 0.4875
v 1.0344 0.8470 -0.5482
vt 0.7385 0.4576
v 1.0344 0.8470 -0.5482
vt 0.9404 0.9835
v 1.0344 0.8470 -0.5482
vt 0.2738 0.4431
v 1.0344 0.8470 -0.5482
vt 0.7385 0.4576
v 1.0344 0.8470 -0.5482
vt 0.3202 0.4431
v 1.0396 0.8911 0.5383
vt 0.9639 0.7371
v 1.0396 0.8911 0.5383
vt 0.9639 0.4807
v 1.0396 0.8911 0.5383
vt 0.7385 0.4875
v 1.0396 0.8470 0.5383
vt 0.9639 0.7171
v 1.0396 0.8470 0.5383
vt 0.9404 0.4852
v 1.0396 0.8470 0.5383
vt 0.2738 0.4431
v 1.0396 0.8470 0.5383
vt 0.7385 0.4576
v 1.0396 0.8470 0.5383
vt 0.2718 0.4431
v 1.1023 0.8470 0.4721
vt 0.7078 0.0660
v 1.1023 0.8470 0.4721
vt 0.7078 0.0660
v 1.1023 0.8470 0.4721
vt 0.9963 0.4455
v 1.1023 0.8470 0.4721
vt 0.3028 0.4576
v 1.1023 0.8470 0.4721
vt 0.3183 0.4431
v 1.1023 0.8470 0.4721
vt 0.9856 0.3664
v 1.1023 0.8470 0.4721
vt 0.3183 0.4431
v 1.0977 0.8470 -0.4827
vt 0.7078 0.9340
v 1.0977 0.8470 -0.4827
vt 0.7078 0.9340
v 1.0977 0.8470 -0.4827
vt 0.3183 0.4431
v 1.0977 0.8470 -0.4827
vt 0.2738 0.4431
v 1.0977 0.8470 -0.4827
vt 0.9499 0.4576
v 1.0977 0.8470 -0.4827
vt 0.9856 0.0263
v 1.0977 0.8470 -0.4827
vt 0.9518 0.3799
v 1.0977 0.8911 -0.4827
vt 0.9902 0.9437
v 1.0977 0.8911 -0.4827
vt 0.9499 0.4875
v 1.1023 0.8911 0.4721
vt 0.9923 0.5107
v 1.1023 0.8911 0.4721
vt 0.3028 0.4875
v 1.0347 0.8911 -0.4824
vt 0.9616 0.9436
v 1.0393 0.8911 0.4724
vt 0.9637 0.5106
v 1.0347 0.8470 -0.4824
vt 0.6505 0.9340
v 1.0347 0.8470 -0.4824
vt 0.9404 0.9534
v 1.0347 0.8470 -0.4824
vt 0.2738 0.4431
v 1.0347 0.8470 -0.4824
vt 0.2738 0.4431
v 1.0393 0.8470 0.4724
vt 0.6505 0.0660
v 1.0393 0.8470 0.4724
vt 0.9404 0.5154
v 1.0393 0.8470 0.4724
vt 0.2738 0.4431
v 1.0393 0.8470 0.4724
vt 0.3183 0.4431
v 1.0396 -0.0000 0.5383
vt 0.6505 0.0061
v 1.0396 -0.0000 0.5383
vt 0.2738 0.0039
v 1.0396 -0.0000 0.5383
vt 0.2718 0.0039
v 1.1026 -0.0000 0.5380
vt 0.7078 0.0061
v 1.1026 -0.0000 0.5380
vt 0.3183 0.0039
v 1.1026 -0.0000 0.5380
vt 0.2718 0.0039
v 1.0344 -0.0000 -0.5482
vt 0.6505 0.9939
v 1.0344 -0.0000 -0.5482
vt 0.2738 0.0039
v 1.0344 -0.0000 -0.5482
vt 0.3202 0.0039
v 1.0347 -0.0000 -0.4824
vt 0.6505 0.9340
v 1.0347 -0.0000 -0.4824
vt 0.2738 0.0039
v 1.0347 -0.0000 -0.4824
vt 0.2738 0.0039
v 1.0974 -0.0000 -0.5485
vt 0.7078 0.9939
v 1.0974 -0.0000 -0.5485
vt 0.3202 0.0039
v 1.0974 -0.0000 -0.5485
vt 0.3183 0.0039
v 1.1023 -0.0000 0.4721
vt 0.7078 0.0660
v 1.1023 -0.0000 0.4721
vt 0.3183 0.0039
v 1.1023 -0.0000 0.4721
vt 0.3183 0.0039
v 1.0393 -0.0000 0.4724
vt 0.6505 0.0660
v 1.0393 -0.0000 0.4724
vt 0.2738 0.0039
v 1.0393 -0.0000 0.4724
vt 0.3183 0.0039
v 1.0977 -0.0000 -0.4827
vt 0.7078 0.9340
v 1.0977 -0.0000 -0.4827
vt 0.3183 0.0039
v 1.0977 -0.0000 -0.4827
vt 0.2738 0.0039
v 0.4954 0.8470 -0.4798
vt 0.1603 0.9340
v 0.4954 0.8470 -0.4798
vt 0.6584 0.3799
v 0.4954 0.8470 -0.4798
vt 0.9988 0.3325
v 0.5000 0.8470 0.4750
vt 0.1603 0.0660
v 0.5000 0.8470 0.4750
vt 0.6273 0.4455
v 0.5000 0.8470 0.4750
vt 0.6190 0.3325
v 0.4954 0.1314 -0.4798
vt 0.1603 0.9340
v 0.4954 0.1314 -0.4798
vt 0.6584 0.0313
v 0.4954 0.1314 -0.4798
vt 0.9988 0.0479
v 1.0977 0.1314 -0.4827
vt 0.7078 0.9340
v 1.0977 0.1314 -0.4827
vt 0.6284 0.0263
v 1.0977 0.1314 -0.4827
vt 0.9518 0.0313
v 1.1023 0.1314 0.4721
vt 0.7078 0.0660
v 1.1023 0.1314 0.4721
vt 0.9963 0.3081
v 1.1023 0.1314 0.4721
vt 0.6284 0.3664
v 0.5000 0.1314 0.4750
vt 0.1603 0.0660
v 0.5000 0.1314 0.4750
vt 0.6273 0.3081
v 0.5000 0.1314 0.4750
vt 0.6190 0.0479
v 0.4954 0.6085 -0.4798
vt 0.6584 0.2637
v 0.4954 0.6085 -0.4798
vt 0.9988 0.2376
v 0.4954 0.3699 -0.4798
vt 0.6584 0.1475
v 0.4954 0.3699 -0.4798
vt 0.9988 0.1427
v 0.5000 0.3699 0.4750
vt 0.6273 0.4455
v 0.5000 0.3699 0.4750
vt 0.6273 0.3081
v 0.5000 0.3699 0.4750
vt 0.6190 0.1427
v 0.5000 0.6085 0.4750
vt 0.6273 0.4455
v 0.5000 0.6085 0.4750
vt 0.6273 0.3081
v 0.5000 0.6085 0.4750
vt 0.6190 0.2376
v 1.0977 0.6085 -0.4827
vt 0.8665 0.0263
v 1.0977 0.6085 -0.4827
vt 0.9518 0.2637
v 1.0977 0.3699 -0.4827
vt 0.7474 0.0263
v 1.0977 0.3699 -0.4827
vt 0.9518 0.1475
v 1.1023 0.3699 0.4721
vt 0.9963 0.4455
v 1.1023 0.3699 0.4721
vt 0.9963 0.3081
v 1.1023 0.3699 0.4721
vt 0.7474 0.3664
v 1.1023 0.6085 0.4721
vt 0.9963 0.4455
v 1.1023 0.6085 0.4721
vt 0.9963 0.3081
v 1.1023 0.6085 0.4721
vt 0.8665 0.3664
v -0.7258 0.7619 0.4743
vt 0.8409 0.4139
v -0.7258 0.7619 0.4743
vt 0.8434 0.3971
v -0.7258 0.7918 0.4743
vt 0.8355 0.4143
v -0.7258 0.7918 0.4743
vt 0.8434 0.4143
v -0.8540 0.7918 0.4749
vt 0.7749 0.4143
v -0.8540 0.7918 0.4749
vt 0.7678 0.4143
v -0.8540 0.7619 0.4749
vt 0.7663 0.4139
v -0.8540 0.7619 0.4749
vt 0.7678 0.3971
v -0.8539 0.7619 0.4986
vt 0.7663 0.3996
v -0.8539 0.7619 0.4986
vt 0.7749 0.3996
v -0.8539 0.7619 0.4986
vt 0.7678 0.3971
v -0.7257 0.7619 0.4980
vt 0.8409 0.3996
v -0.7257 0.7619 0.4980
vt 0.8355 0.3996
v -0.7257 0.7619 0.4980
vt 0.8434 0.3971
v -0.7258 0.5252 0.4743
vt 0.8409 0.4139
v -0.7258 0.5252 0.4743
vt 0.8434 0.3971
v -0.7258 0.5552 0.4743
vt 0.8355 0.4143
v -0.7258 0.5552 0.4743
vt 0.8434 0.4143
v -0.8540 0.5552 0.4749
vt 0.7749 0.4143
v -0.8540 0.5552 0.4749
vt 0.7678 0.4143
v -0.8540 0.5252 0.4749
vt 0.7663 0.4139
v -0.8540 0.5252 0.4749
vt 0.7678 0.3971
v -0.8539 0.5252 0.4986
vt 0.7663 0.3996
v -0.8539 0.5252 0.4986
vt 0.7749 0.3996
v -0.8539 0.5252 0.4986
vt 0.7678 0.3971
v -0.7257 0.5252 0.4980
vt 0.8409 0.3996
v -0.7257 0.5252 0.4980
vt 0.8355 0.3996
v -0.7257 0.5252 0.4980
vt 0.8434 0.3971
v -0.7258 0.2829 0.4743
vt 0.8409 0.4139
v -0.7258 0.2829 0.4743
vt 0.8434 0.3971
v -0.7258 0.3129 0.4743
vt 0.8355 0.4143
v -0.7258 0.3129 0.4743
vt 0.8434 0.4143
v -0.8540 0.3129 0.4749
vt 0.7749 0.4143
v -0.8540 0.3129 0.4749
vt 0.7678 0.4143
v -0.8540 0.2829 0.4749
vt 0.7663 0.4139
v -0.8540 0.2829 0.4749
vt 0.7678 0.3971
v -0.8539 0.2829 0.4986
vt 0.7663 0.3996
v -0.8539 0.2829 0.4986
vt 0.7749 0.3996
v -0.8539 0.2829 0.4986
vt 0.7678 0.3971
v -0.7257 0.2829 0.4980
vt 0.8409 0.3996
v -0.7257 0.2829 0.4980
vt 0.8355 0.3996
v -0.7257 0.2829 0.4980
vt 0.8434 0.3971
v -1.1026 0.8470 0.5380
vt 0.3183 0.4431
v -1.1026 0.8470 0.5380
vt 0.9924 0.7171
v -1.1026 0.8470 0.5380
vt 0.2582 0.4576
v -1.1026 0.8470 0.5380
vt 0.2718 0.4431
v -1.0974 0.8470 -0.5485
vt 0.3183 0.4431
v -1.0974 0.8470 -0.5485
vt 0.7812 0.4576
v -1.0974 0.8470 -0.5485
vt 0.3202 0.4431
v -1.0974 0.8470 -0.5485
vt 0.9945 0.4576
v -1.1026 0.8911 0.5380
vt 0.9924 0.4809
v -1.1026 0.8911 0.5380
vt 0.9924 0.7371
v -1.1026 0.8911 0.5380
vt 0.2582 0.4875
v -1.0974 0.8911 -0.5485
vt 0.9901 0.9736
v -1.0974 0.8911 -0.5485
vt 0.7812 0.4875
v -1.0974 0.8911 -0.5485
vt 0.9945 0.4875
v -1.0344 0.8911 -0.5482
vt 0.7385 0.4875
v -1.0344 0.8911 -0.5482
vt 0.9615 0.9734
v -1.0344 0.8911 -0.5482
vt 0.7385 0.4875
v -1.0344 0.8470 -0.5482
vt 0.7385 0.4576
v -1.0344 0.8470 -0.5482
vt 0.9404 0.9835
v -1.0344 0.8470 -0.5482
vt 0.2738 0.4431
v -1.0344 0.8470 -0.5482
vt 0.7385 0.4576
v -1.0344 0.8470 -0.5482
vt 0.3202 0.4431
v -1.0396 0.8911 0.5383
vt 0.9639 0.7371
v -1.0396 0.8911 0.5383
vt 0.9639 0.4807
v -1.0396 0.8911 0.5383
vt 0.9639 0.7371
v -1.0396 0.8470 0.5383
vt 0.9639 0.7171
v -1.0396 0.8470 0.5383
vt 0.9404 0.4852
v -1.0396 0.8470 0.5383
vt 0.2718 0.4431
v -1.0396 0.8470 0.5383
vt 0.2738 0.4431
v -1.0396 0.8470 0.5383
vt 0.9639 0.7171
v -1.1023 0.8470 0.4721
vt 0.7078 0.0660
v -1.1023 0.8470 0.4721
vt 0.7078 0.0660
v -1.1023 0.8470 0.4721
vt 0.3183 0.4431
v -1.1023 0.8470 0.4721
vt 0.9963 0.4455
v -1.1023 0.8470 0.4721
vt 0.3028 0.4576
v -1.1023 0.8470 0.4721
vt 0.3183 0.4431
v -1.1023 0.8470 0.4721
vt 0.9856 0.3664
v -1.0977 0.8470 -0.4827
vt 0.7078 0.9340
v -1.0977 0.8470 -0.4827
vt 0.7078 0.9340
v -1.0977 0.8470 -0.4827
vt 0.9518 0.3799
v -1.0977 0.8470 -0.4827
vt 0.3183 0.4431
v -1.0977 0.8470 -0.4827
vt 0.2738 0.4431
v -1.0977 0.8470 -0.4827
vt 0.9499 0.4576
v -1.0977 0.8470 -0.4827
vt 0.9856 0.0263
v -1.0977 0.8911 -0.4827
vt 0.9902 0.9437
v -1.0977 0.8911 -0.4827
vt 0.9499 0.4875
v -1.1023 0.8911 0.4721
vt 0.9923 0.5107
v -1.1023 0.8911 0.4721
vt 0.3028 0.4875
v -1.0347 0.8911 -0.4824
vt 0.9616 0.9436
v -1.0393 0.8911 0.4724
vt 0.9637 0.5106
v -1.0347 0.8470 -0.4824
vt 0.6505 0.9340
v -1.0347 0.8470 -0.4824
vt 0.9404 0.9534
v -1.0347 0.8470 -0.4824
vt 0.2738 0.4431
v -1.0347 0.8470 -0.4824
vt 0.2738 0.4431
v -1.0393 0.8470 0.4724
vt 0.6505 0.0660
v -1.0393 0.8470 0.4724
vt 0.9404 0.5154
v -1.0393 0.8470 0.4724
vt 0.2738 0.4431
v -1.0393 0.8470 0.4724
vt 0.3183 0.4431
v -1.0396 -0.0000 0.5383
vt 0.6505 0.0061
v -1.0396 -0.0000 0.5383
vt 0.2718 0.0039
v -1.0396 -0.0000 0.5383
vt 0.2738 0.0039
v -1.1026 -0.0000 0.5380
vt 0.7078 0.0061
v -1.1026 -0.0000 0.5380
vt 0.3183 0.0039
v -1.1026 -0.0000 0.5380
vt 0.2718 0.0039
v -1.0344 -0.0000 -0.5482
vt 0.6505 0.9939
v -1.0344 -0.0000 -0.5482
vt 0.2738 0.0039
v -1.0344 -0.0000 -0.5482
vt 0.3202 0.0039
v -1.0347 -0.0000 -0.4824
vt 0.6505 0.9340
v -1.0347 -0.0000 -0.4824
vt 0.2738 0.0039
v -1.0347 -0.0000 -0.4824
vt 0.2738 0.0039
v -1.0974 -0.0000 -0.5485
vt 0.7078 0.9939
v -1.0974 -0.0000 -0.5485
vt 0.3183 0.0039
v -1.0974 -0.0000 -0.5485
vt 0.3202 0.0039
v -1.1023 -0.0000 0.4721
vt 0.7078 0.0660
v -1.1023 -0.0000 0.4721
vt 0.3183 0.0039
v -1.1023 -0.0000 0.4721
vt 0.3183 0.0039
v -1.0393 -0.0000 0.4724
vt 0.6505 0.0660
v -1.0393 -0.0000 0.4724
vt 0.2738 0.0039
v -1.0393 -0.0000 0.4724
vt 0.3183 0.0039
v -1.0977 -0.0000 -0.4827
vt 0.7078 0.9340
v -1.0977 -0.0000 -0.4827
vt 0.3183 0.0039
v -1.0977 -0.0000 -0.4827
vt 0.2738 0.0039
v -0.4954 0.8470 -0.4798
vt 0.1603 0.9340
v -0.4954 0.8470 -0.4798
vt 0.6584 0.3799
v -0.4954 0.8470 -0.4798
vt 0.9988 0.3325
v -0.5000 0.8470 0.4750
vt 0.1603 0.0660
v -0.5000 0.8470 0.4750
vt 0.6190 0.3325
v -0.5000 0.8470 0.4750
vt 0.6273 0.4455
v -0.4954 0.1314 -0.4798
vt 0.1603 0.9340
v -0.4954 0.1314 -0.4798
vt 0.6584 0.0313
v -0.4954 0.1314 -0.4798
vt 0.9988 0.0479
v -1.0977 0.1314 -0.4827
vt 0.7078 0.9340
v -1.0977 0.1314 -0.4827
vt 0.9518 0.0313
v -1.0977 0.1314 -0.4827
vt 0.6284 0.0263
v -1.1023 0.1314 0.4721
vt 0.7078 0.0660
v -1.1023 0.1314 0.4721
vt 0.9963 0.3081
v -1.1023 0.1314 0.4721
vt 0.6284 0.3664
v -0.5000 0.1314 0.4750
vt 0.1603 0.0660
v -0.5000 0.1314 0.4750
vt 0.6190 0.0479
v -0.5000 0.1314 0.4750
vt 0.6273 0.3081
v -0.4954 0.6085 -0.4798
vt 0.6584 0.2637
v -0.4954 0.6085 -0.4798
vt 0.9988 0.2376
v -0.4954 0.3699 -0.4798
vt 0.6584 0.1475
v -0.4954 0.3699 -0.4798
vt 0.9988 0.1427
v -0.5000 0.3699 0.4750
vt 0.6190 0.1427
v -0.5000 0.3699 0.4750
vt 0.6273 0.4455
v -0.5000 0.3699 0.4750
vt 0.6273 0.3081
v -0.5000 0.6085 0.4750
vt 0.6190 0.2376
v -0.5000 0.6085 0.4750
vt 0.6273 0.4455
v -0.5000 0.6085 0.4750
vt 0.6273 0.3081
v -1.0977 0.6085 -0.4827
vt 0.9518 0.2637
v -1.0977 0.6085 -0.4827
vt 0.8665 0.0263
v -1.0977 0.3699 -0.4827
vt 0.9518 0.1475
v -1.0977 0.3699 -0.4827
vt 0.7474 0.0263
v -1.1023 0.3699 0.4721
vt 0.9963 0.4455
v -1.1023 0.3699 0.4721
vt 0.9963 0.3081
v -1.1023 0.3699 0.4721
vt 0.7474 0.3664
v -1.1023 0.6085 0.4721
vt 0.9963 0.4455
v -1.1023 0.6085 0.4721
vt 0.9963 0.3081
v -1.1023 0.6085 0.4721
vt 0.8665 0.3664
v 0.7258 0.7619 0.4743
vt 0.8409 0.4139
v 0.7258 0.7619 0.4743
vt 0.8434 0.3971
v 0.7258 0.7918 0.4743
vt 0.8355 0.4143
v 0.7258 0.7918 0.4743
vt 0.8434 0.4143
v 0.8540 0.7918 0.4749
vt 0.7678 0.4143
v 0.8540 0.7918 0.4749
vt 0.7749 0.4143
v 0.8540 0.7619 0.4749
vt 0.7663 0.4139
v 0.8540 0.7619 0.4749
vt 0.7678 0.3971
v 0.8539 0.7619 0.4986
vt 0.7663 0.3996
v 0.8539 0.7619 0.4986
vt 0.7678 0.3971
v 0.8539 0.7619 0.4986
vt 0.7749 0.3996
v 0.7257 0.7619 0.4980
vt 0.8409 0.3996
v 0.7257 0.7619 0.4980
vt 0.8355 0.3996
v 0.7257 0.7619 0.4980
vt 0.8434 0.3971
v 0.7258 0.5252 0.4743
vt 0.8409 0.4139
v 0.7258 0.5252 0.4743
vt 0.8434 0.3971
v 0.7258 0.5552 0.4743
vt 0.8355 0.4143
v 0.7258 0.5552 0.4743
vt 0.8434 0.4143
v 0.8540 0.5552 0.4749
vt 0.7678 0.4143
v 0.8540 0.5552 0.4749
vt 0.7749 0.4143
v 0.8540 0.5252 0.4749
vt 0.7663 0.4139
v 0.8540 0.5252 0.4749
vt 0.7678 0.3971
v 0.8539 0.5252 0.4986
vt 0.7663 0.3996
v 0.8539 0.5252 0.4986
vt 0.7678 0.3971
v 0.8539 0.5252 0.4986
vt 0.7749 0.3996
v 0.7257 0.5252 0.4980
vt 0.8409 0.3996
v 0.7257 0.5252 0.4980
vt 0.8355 0.3996
v 0.7257 0.5252 0.4980
vt 0.8434 0.3971
v 0.7258 0.2829 0.4743
vt 0.8409 0.4139
v 0.7258 0.2829 0.4743
vt 0.8434 0.3971
v 0.7258 0.3129 0.4743
vt 0.8355 0.4143
v 0.7258 0.3129 0.4743
vt 0.8434 0.4143
v 0.8540 0.3129 0.4749
vt 0.7678 0.4143
v 0.8540 0.3129 0.4749
vt 0.7749 0.4143
v 0.8540 0.2829 0.4749
vt 0.7663 0.4139
v 0.8540 0.2829 0.4749
vt 0.7678 0.3971
v 0.8539 0.2829 0.4986
vt 0.7663 0.3996
v 0.8539 0.2829 0.4986
vt 0.7678 0.3971
v 0.8539 0.2829 0.4986
vt 0.7749 0.3996
v 0.7257 0.2829 0.4980
vt 0.8409 0.3996
v 0.7257 0.2829 0.4980
vt 0.8355 0.3996
v 0.7257 0.2829 0.4980
vt 0.8434 0.3971
v 0.0000 0.8911 0.5383
vt 0.4924 0.7371
v 0.0000 0.8911 0.5383
vt 0.4924 0.4807
v 0.0000 0.8911 0.4724
vt 0.4924 0.5106
v 0.0000 0.8470 0.5383
vt 0.4924 0.7171
v 0.0000 0.8470 0.5383
vt 0.9404 0.4852
v 0.0000 0.8470 0.4724
vt 0.9404 0.5154
v 0.0000 0.8470 -0.5482
vt 0.7385 0.4576
v 0.0000 0.8470 -0.5482
vt 0.9404 0.9835
v 0.0000 0.8470 -0.4824
vt 0.9404 0.9534
v 0.0000 0.8911 -0.5482
vt 0.7385 0.4875
v 0.0000 0.8911 -0.5482
vt 0.4924 0.9734
v 0.0000 0.8911 -0.4824
vt 0.4924 0.9436
v 0.5000 0.8470 0.4724
vt 0.1603 0.0683
v 0.5000 0.8470 0.4724
vt 0.9404 0.5154
v 0.5000 0.8470 0.4724
vt 0.6201 0.3325
v -0.5000 0.8470 0.4724
vt 0.1603 0.0683
v -0.5000 0.8470 0.4724
vt 0.9404 0.5154
v -0.5000 0.8470 0.4724
vt 0.6201 0.3325
f 49/49 45/45 12/12
f 49/49 12/12 16/16
f 24/24 9/9 47/47
f 24/24 47/47 50/50
f 29/29 2/2 10/10
f 29/29 10/10 25/25
f 5/5 41/41 82/82
f 5/5 82/82 72/72
f 333/333 214/214 181/181
f 333/333 181/181 332/332
f 1/1 28/28 60/60
f 1/1 60/60 63/63
f 335/335 178/178 211/211
f 335/335 211/211 336/336
f 3/3 34/34 48/48
f 3/3 48/48 11/11
f 42/42 46/46 48/48
f 42/42 48/48 34/34
f 333/333 330/330 341/341
f 341/341 218/218 214/214
f 341/341 214/214 333/333
f 51/51 39/39 32/32
f 51/51 32/32 55/55
f 42/42 6/6 13/13
f 42/42 13/13 46/46
f 45/45 49/49 50/50
f 45/45 50/50 47/47
f 8/8 21/21 17/17
f 8/8 17/17 14/14
f 327/327 212/212 186/186
f 327/327 186/186 326/326
f 330/330 329/329 189/189
f 189/189 218/218 341/341
f 189/189 341/341 330/330
f 331/331 334/334 15/15
f 331/331 15/15 18/18
f 59/59 77/77 74/74
f 59/59 74/74 62/62
f 68/68 65/65 71/71
f 68/68 71/71 80/80
f 57/57 37/37 76/76
f 57/57 76/76 78/78
f 30/30 58/58 79/79
f 30/30 79/79 61/61
f 40/40 53/53 69/69
f 40/40 69/69 81/81
f 20/20 7/7 73/73
f 20/20 73/73 66/66
f 54/54 22/22 67/67
f 54/54 67/67 70/70
f 35/35 4/4 64/64
f 35/35 64/64 75/75
f 38/38 83/83 337/337
f 337/337 86/86 31/31
f 337/337 31/31 38/38
f 89/89 92/92 95/95
f 89/89 95/95 98/98
f 107/107 104/104 91/91
f 107/107 91/91 100/100
f 103/103 114/114 94/94
f 103/103 94/94 90/90
f 115/115 105/105 99/99
f 115/115 99/99 96/96
f 113/113 117/117 97/97
f 113/113 97/97 93/93
f 43/43 36/36 120/120
f 43/43 120/120 111/111
f 111/111 120/120 117/117
f 111/111 117/117 113/113
f 33/33 87/87 109/109
f 33/33 109/109 119/119
f 118/118 108/108 106/106
f 118/118 106/106 116/116
f 84/84 44/44 112/112
f 84/84 112/112 101/101
f 101/101 112/112 114/114
f 101/101 114/114 103/103
f 110/110 88/88 339/339
f 339/339 85/85 102/102
f 339/339 102/102 110/110
f 110/110 102/102 104/104
f 110/110 104/104 107/107
f 130/130 133/133 123/123
f 130/130 123/123 125/125
f 126/126 128/128 131/131
f 127/127 121/121 132/132
f 127/127 132/132 129/129
f 122/122 124/124 134/134
f 144/144 147/147 137/137
f 144/144 137/137 139/139
f 140/140 142/142 145/145
f 141/141 135/135 146/146
f 141/141 146/146 143/143
f 136/136 138/138 148/148
f 158/158 161/161 151/151
f 158/158 151/151 153/153
f 154/154 156/156 159/159
f 155/155 149/149 160/160
f 155/155 160/160 157/157
f 150/150 152/152 162/162
f 211/211 178/178 174/174
f 211/211 174/174 207/207
f 186/186 212/212 209/209
f 186/186 209/209 171/171
f 192/192 187/187 172/172
f 192/192 172/172 164/164
f 169/169 235/235 244/244
f 169/169 244/244 204/204
f 163/163 225/225 223/223
f 163/163 223/223 191/191
f 165/165 173/173 210/210
f 165/165 210/210 197/197
f 205/205 197/197 210/210
f 205/205 210/210 208/208
f 213/213 217/217 194/194
f 213/213 194/194 201/201
f 205/205 208/208 176/176
f 205/205 176/176 170/170
f 207/207 209/209 212/212
f 207/207 212/212 211/211
f 168/168 175/175 179/179
f 168/168 179/179 183/183
f 221/221 224/224 236/236
f 221/221 236/236 239/239
f 230/230 242/242 233/233
f 230/230 233/233 227/227
f 219/219 240/240 237/237
f 219/219 237/237 195/195
f 190/190 222/222 241/241
f 190/190 241/241 220/220
f 203/203 243/243 232/232
f 203/203 232/232 216/216
f 182/182 228/228 234/234
f 182/182 234/234 167/167
f 215/215 231/231 229/229
f 215/215 229/229 184/184
f 198/198 238/238 226/226
f 198/198 226/226 166/166
f 340/340 245/245 200/200
f 200/200 193/193 248/248
f 200/200 248/248 340/340
f 251/251 260/260 257/257
f 251/251 257/257 254/254
f 267/267 261/261 253/253
f 267/267 253/253 266/266
f 265/265 252/252 255/255
f 265/265 255/255 275/275
f 277/277 258/258 262/262
f 277/277 262/262 268/268
f 276/276 256/256 259/259
f 276/276 259/259 279/279
f 206/206 274/274 282/282
f 206/206 282/282 199/199
f 274/274 276/276 279/279
f 274/274 279/279 282/282
f 196/196 281/281 272/272
f 196/196 272/272 250/250
f 280/280 278/278 269/269
f 280/280 269/269 271/271
f 246/246 263/263 273/273
f 246/246 273/273 202/202
f 263/263 265/265 275/275
f 263/263 275/275 273/273
f 342/342 249/249 270/270
f 270/270 264/264 247/247
f 270/270 247/247 342/342
f 270/270 267/267 266/266
f 270/270 266/266 264/264
f 293/293 288/288 285/285
f 293/293 285/285 295/295
f 287/287 292/292 290/290
f 289/289 291/291 294/294
f 289/289 294/294 283/283
f 284/284 296/296 286/286
f 307/307 302/302 299/299
f 307/307 299/299 309/309
f 301/301 306/306 304/304
f 303/303 305/305 308/308
f 303/303 308/308 297/297
f 298/298 310/310 300/300
f 321/321 316/316 313/313
f 321/321 313/313 323/323
f 315/315 320/320 318/318
f 317/317 319/319 322/322
f 317/317 322/322 311/311
f 312/312 324/324 314/314
f 325/325 185/185 188/188
f 325/325 188/188 328/328
f 336/336 327/327 50/50
f 336/336 50/50 49/49
f 211/211 212/212 327/327
f 211/211 327/327 336/336
f 23/23 325/325 328/328
f 23/23 328/328 26/26
f 180/180 177/177 334/334
f 180/180 334/334 331/331
f 56/56 27/27 329/329
f 329/329 330/330 338/338
f 329/329 338/338 56/56
f 50/50 327/327 326/326
f 50/50 326/326 24/24
f 52/52 56/56 338/338
f 338/338 330/330 333/333
f 338/338 333/333 52/52
f 16/16 335/335 336/336
f 16/16 336/336 49/49
f 52/52 333/333 332/332
f 52/52 332/332 19/19
