v 1.0947 0.8470 -1.1053
vt 1.2176 0.7820
v 1.0947 0.8470 -1.1053
vt 0.8308 0.9143
v 1.0947 0.8470 -1.1053
vt 0.9648 0.9189
v 1.0999 0.8911 -0.0188
vt 0.9850 0.4865
v 1.0999 0.8911 -0.0188
vt 0.2881 0.5925
v 1.0999 0.8911 -0.0188
vt 1.2176 0.5925
v 1.0947 0.8911 -1.1053
vt 0.9850 0.9804
v 1.0947 0.8911 -1.1053
vt 0.8308 0.9343
v 1.0947 0.8911 -1.1053
vt 0.9648 0.9389
v 1.0950 0.8470 -1.0394
vt 1.2176 0.7521
v 1.0950 0.8470 -1.0394
vt 0.9695 0.9722
v 1.0950 0.8470 -1.0394
vt 0.7521 0.5725
v 1.0950 0.8470 -1.0394
vt 0.8009 0.9143
v 1.0950 0.8470 -1.0394
vt 0.9850 0.9135
v 1.0950 0.8911 -1.0394
vt 0.9850 0.9505
v 1.0950 0.8911 -1.0394
vt 0.7521 0.5925
v 1.0950 0.8911 -1.0394
vt 0.8009 0.9343
v 1.0947 0.0000 -1.1053
vt 1.2176 0.7820
v 1.0947 0.0000 -1.1053
vt 0.8308 0.5293
v 1.0947 0.0000 -1.1053
vt 0.9648 0.5542
v 1.0950 0.0000 -1.0394
vt 1.2176 0.7521
v 1.0950 0.0000 -1.0394
vt 0.8009 0.5293
v 1.0950 0.0000 -1.0394
vt 0.9850 0.5285
v -1.1050 0.8470 -1.0289
vt 0.2176 0.7521
v -1.1050 0.8470 -1.0289
vt 0.9103 0.9002
v -1.1053 0.8470 -1.0947
vt 0.2176 0.7820
v -1.1053 0.8470 -1.0947
vt 0.0177 0.9189
v -1.1053 0.8470 -1.0947
vt 0.2176 0.5725
v -1.1053 0.8470 -1.0947
vt 0.9377 0.9002
v -1.1050 0.8911 -1.0289
vt 0.0150 0.9804
v -1.1050 0.8911 -1.0289
vt 0.5418 0.7267
v -1.1050 0.8911 -1.0289
vt 0.9103 0.9202
v -1.1050 0.0000 -1.0289
vt 0.2176 0.7521
v -1.1050 0.0000 -1.0289
vt 0.9103 0.5481
v -1.0394 0.8470 -1.0950
vt 0.2475 0.7820
v -1.0394 0.8470 -1.0950
vt 0.0460 0.9189
v -1.0394 0.8470 -1.0950
vt 0.0471 0.9189
v -1.0394 0.8470 -1.0950
vt 0.2475 0.5725
v -1.0394 0.8911 -1.0950
vt 0.0150 0.9804
v -1.0394 0.8911 -1.0950
vt 0.5717 0.7566
v -1.0394 0.8911 -1.0950
vt 0.0471 0.9389
v -1.0394 0.8911 -1.0950
vt 0.2475 0.5925
v -1.1053 0.8911 -1.0947
vt 0.5418 0.7566
v -1.1053 0.8911 -1.0947
vt 0.2176 0.5925
v -1.1053 0.8911 -1.0947
vt 0.9377 0.9202
v -1.1053 0.0000 -1.0947
vt 0.2176 0.7820
v -1.1053 0.0000 -1.0947
vt 0.0177 0.5542
v -1.1053 0.0000 -1.0947
vt 0.9377 0.5481
v -1.0394 0.0000 -1.0950
vt 0.2475 0.7820
v -1.0394 0.0000 -1.0950
vt 0.0460 0.5542
v -0.0082 0.8470 1.1001
vt 0.9695 0.5082
v -0.0082 0.8470 1.1001
vt 0.4468 0.4443
v -0.0082 0.8470 1.1001
vt -0.2180 0.5725
v -0.0082 0.8470 1.1001
vt 0.4454 0.4443
v -0.0082 0.8470 1.1001
vt 0.7269 0.8639
v -1.0947 0.8470 1.1053
vt 0.2176 -0.2180
v -1.0947 0.8470 1.1053
vt 0.0232 0.9002
v -1.0947 0.8470 1.1053
vt 0.0232 0.9002
v -1.0947 0.8470 1.1053
vt 0.2331 0.8639
v -0.0082 0.8911 1.1001
vt 0.9850 0.4865
v -0.0082 0.8911 1.1001
vt -0.2180 0.5925
v -0.0082 0.8911 1.1001
vt 0.7269 0.8840
v -1.0947 0.8911 1.1053
vt 0.9850 0.9804
v -1.0947 0.8911 1.1053
vt 0.0232 0.9202
v -1.0947 0.8911 1.1053
vt 0.2331 0.8840
v -1.0289 0.8470 1.1050
vt 0.2475 -0.2180
v -1.0289 0.8470 1.1050
vt 0.9695 0.9722
v -1.0289 0.8470 1.1050
vt 0.0150 0.9135
v -1.0289 0.8470 1.1050
vt 0.2630 0.8639
v -1.0289 0.8911 1.1050
vt 0.9850 0.9505
v -1.0289 0.8911 1.1050
vt 0.2630 0.8840
v -1.0947 0.0000 1.1053
vt 0.2176 -0.2180
v -1.0947 0.0000 1.1053
vt 0.0232 0.5481
v -1.0947 0.0000 1.1053
vt 0.2331 0.4789
v -1.0289 0.0000 1.1050
vt 0.2475 -0.2180
v -1.0289 0.0000 1.1050
vt 0.0150 0.5285
v -1.0289 0.0000 1.1050
vt 0.2630 0.4789
v -0.0135 0.8911 -0.0134
vt 0.4789 0.4865
v -0.0135 0.8911 -0.0134
vt 0.4789 0.4865
v -0.0135 0.8911 -0.0134
vt 0.2881 0.5925
v -0.0135 0.8911 -0.0134
vt 0.7114 0.5925
v -1.0391 0.8911 -1.0292
vt 0.0150 0.9505
v -1.0391 0.8911 -1.0292
vt 0.0150 0.9505
v -1.0391 0.8911 -1.0292
vt 0.0150 0.9505
v -1.0391 0.8911 -1.0292
vt 0.0150 0.9505
v -1.0391 0.8911 -1.0292
vt 0.5717 0.7267
v -0.0135 0.8470 -0.0134
vt 0.4634 0.5082
v -0.0135 0.8470 -0.0134
vt 0.4634 0.5082
v -0.0135 0.8470 -0.0134
vt 0.2881 0.5725
v -0.0135 0.8470 -0.0134
vt 0.7114 0.5725
v -1.0391 0.8470 -1.0292
vt 0.2475 0.7521
v -1.0391 0.8470 -1.0292
vt -0.0005 0.9722
v -1.0391 0.8470 -1.0292
vt 0.9850 0.9135
v -1.0391 0.8470 -1.0292
vt 0.0150 0.9135
v -1.0391 0.0000 -1.0292
vt 0.2475 0.7521
v -1.0391 0.0000 -1.0292
vt 0.9850 0.5285
v -1.0391 0.0000 -1.0292
vt 0.0150 0.5285
v -0.0085 0.8470 1.0370
vt 0.4799 0.4443
v -0.0085 0.8470 1.0370
vt 0.4454 0.4443
v -0.0743 0.8470 1.0374
vt 0.4799 0.4443
v -0.0743 0.8470 1.0374
vt 0.4799 0.4443
v -0.0740 0.8470 1.1004
vt 0.4468 0.4443
v -0.0740 0.8470 1.1004
vt 0.4799 0.4443
v -0.0082 0.0000 1.1001
vt 0.6505 0.0061
v -0.0082 0.0000 1.1001
vt 0.4468 0.0002
v -0.0082 0.0000 1.1001
vt 0.4454 0.0002
v -0.0085 0.0000 1.0370
vt 0.7078 0.0061
v -0.0085 0.0000 1.0370
vt 0.4799 0.0002
v -0.0085 0.0000 1.0370
vt 0.4454 0.0002
v -0.0743 0.0000 1.0374
vt 0.7078 0.0660
v -0.0743 0.0000 1.0374
vt 0.4799 0.0002
v -0.0743 0.0000 1.0374
vt 0.4799 0.0002
v -0.0740 0.0000 1.1004
vt 0.6505 0.0660
v -0.0740 0.0000 1.1004
vt 0.4468 0.0002
v -0.0740 0.0000 1.1004
vt 0.4799 0.0002
v 1.0996 0.8470 -0.0818
vt 0.4799 0.4443
v 1.0996 0.8470 -0.0818
vt 0.4454 0.4443
v 1.0999 0.8470 -0.0188
vt 0.9695 0.5082
v 1.0999 0.8470 -0.0188
vt 0.2881 0.5725
v 1.0999 0.8470 -0.0188
vt 0.4468 0.4443
v 1.0999 0.8470 -0.0188
vt 0.4454 0.4443
v 1.0999 0.8470 -0.0188
vt 1.2176 0.5725
v 1.0338 0.8470 -0.0815
vt 0.4799 0.4443
v 1.0338 0.8470 -0.0815
vt 0.4799 0.4443
v 1.0341 0.8470 -0.0184
vt 0.4468 0.4443
v 1.0341 0.8470 -0.0184
vt 0.4799 0.4443
v 1.0999 0.0000 -0.0188
vt 0.6505 0.0061
v 1.0999 0.0000 -0.0188
vt 0.4468 0.0002
v 1.0999 0.0000 -0.0188
vt 0.4454 0.0002
v 1.0996 0.0000 -0.0818
vt 0.7078 0.0061
v 1.0996 0.0000 -0.0818
vt 0.4799 0.0002
v 1.0996 0.0000 -0.0818
vt 0.4454 0.0002
v 1.0338 0.0000 -0.0815
vt 0.7078 0.0660
v 1.0338 0.0000 -0.0815
vt 0.4799 0.0002
v 1.0338 0.0000 -0.0815
vt 0.4799 0.0002
v 1.0341 0.0000 -0.0184
vt 0.6505 0.0660
v 1.0341 0.0000 -0.0184
vt 0.4468 0.0002
v 1.0341 0.0000 -0.0184
vt 0.4799 0.0002
f 2/2 13/13 22/22
f 2/2 22/22 19/19
f 12/12 16/16 5/5
f 12/12 5/5 119/119
f 13/13 2/2 8/8
f 13/13 8/8 17/17
f 3/3 37/37 41/41
f 3/3 41/41 9/9
f 15/15 7/7 39/39
f 15/15 39/39 83/83
f 15/15 82/82 78/78
f 15/15 78/78 4/4
f 32/32 45/45 29/29
f 32/32 29/29 25/25
f 38/38 28/28 44/44
f 38/38 44/44 42/42
f 25/25 57/57 64/64
f 25/25 64/64 32/32
f 43/43 31/31 86/86
f 89/89 80/80 61/61
f 89/89 61/61 53/53
f 59/59 74/74 77/77
f 59/59 77/77 69/69
f 69/69 55/55 62/62
f 69/69 62/62 71/71
f 69/69 71/71 65/65
f 69/69 65/65 59/59
f 85/85 30/30 63/63
f 85/85 63/63 70/70
f 79/79 84/84 70/70
f 79/79 70/70 60/60
f 122/122 6/6 81/81
f 122/122 81/81 90/90
f 40/40 43/43 86/86
f 25/25 34/34 73/73
f 25/25 73/73 58/58
f 21/21 95/95 49/49
f 21/21 49/49 18/18
f 72/72 33/33 95/95
f 72/72 95/95 75/75
f 46/46 49/49 95/95
f 46/46 95/95 33/33
f 11/11 118/118 88/88
f 11/11 88/88 92/92
f 1/1 35/35 91/91
f 1/1 91/91 10/10
f 67/67 92/92 87/87
f 67/67 87/87 51/51
f 66/66 91/91 24/24
f 66/66 24/24 56/56
f 26/26 24/24 91/91
f 26/26 91/91 35/35
f 29/29 48/48 34/34
f 29/29 34/34 25/25
f 27/27 36/36 50/50
f 27/27 50/50 47/47
f 3/3 20/20 50/50
f 3/3 50/50 36/36
f 23/23 14/14 94/94
f 23/23 94/94 97/97
f 68/68 76/76 96/96
f 68/68 96/96 93/93
f 98/98 52/52 105/105
f 98/98 105/105 108/108
f 104/104 113/113 110/110
f 104/104 110/110 107/107
f 102/102 101/101 112/112
f 102/102 112/112 114/114
f 54/54 103/103 115/115
f 54/54 115/115 106/106
f 100/100 99/99 109/109
f 100/100 109/109 111/111
f 116/116 120/120 128/128
f 116/116 128/128 131/131
f 127/127 136/136 133/133
f 127/127 133/133 130/130
f 125/125 124/124 135/135
f 125/125 135/135 137/137
f 121/121 126/126 138/138
f 121/121 138/138 129/129
f 123/123 117/117 132/132
f 123/123 132/132 134/134
