v -0.2391 0.4921 0.2664
vt 0.0523 0.9658
v -0.2391 0.4921 0.2664
vt 0.0551 0.7879
v -0.2391 0.4921 0.2664
vt 0.4473 0.9645
v -0.2391 0.1126 0.2664
vt 0.0523 0.7921
v -0.2391 0.1126 0.2664
vt 0.0551 0.7879
v -0.2391 0.1126 0.2664
vt 0.4473 0.7886
v -0.1710 0.3589 -0.2613
vt 0.4443 0.2639
v -0.1710 0.3589 -0.2613
vt 0.3404 0.2261
v -0.1710 0.3589 -0.2613
vt 0.9320 0.9074
v -0.1809 0.1951 -0.2664
vt 0.4549 0.1179
v -0.1809 0.1951 -0.2664
vt 0.4018 0.7978
v -0.1809 0.1951 -0.2664
vt 0.9360 0.8370
v 0.2391 0.4921 0.2664
vt 0.4486 0.9658
v 0.2391 0.4921 0.2664
vt 0.4345 0.7879
v 0.2391 0.4921 0.2664
vt 0.4473 0.9645
v 0.2391 0.1126 0.2664
vt 0.4486 0.7921
v 0.2391 0.1126 0.2664
vt 0.4345 0.7879
v 0.2391 0.1126 0.2664
vt 0.4473 0.7886
v 0.1710 0.3589 -0.2613
vt 0.0759 0.2639
v 0.1710 0.3589 -0.2613
vt 0.1724 0.2261
v 0.1710 0.3589 -0.2613
vt 0.9320 0.9074
v 0.1809 0.1951 -0.2664
vt 0.0652 0.1179
v 0.1809 0.1951 -0.2664
vt 0.1053 0.7978
v 0.1809 0.1951 -0.2664
vt 0.9360 0.8370
v 0.2003 0.1030 -0.2095
vt 0.0516 0.0579
v 0.2003 0.1030 -0.2095
vt 0.7716 0.1405
v 0.2003 0.1030 -0.2095
vt 0.8947 0.7966
v 0.2003 0.1030 -0.2095
vt 0.8947 0.7966
v 0.2725 0.0507 0.0597
vt 0.7415 0.1984
v 0.2725 0.0507 0.0597
vt 0.7415 0.1991
v 0.2725 0.0507 0.0597
vt 0.6786 0.7741
v 0.2725 0.0507 0.0597
vt 0.6774 0.7742
v -0.2997 0.5656 0.0784
vt 0.5252 0.2945
v -0.2997 0.5656 0.0784
vt 0.8054 0.0746
v -0.2997 0.5656 0.0784
vt 0.6621 0.9980
v -0.2997 0.5656 0.0784
vt 0.6621 0.9980
v -0.2042 0.3773 -0.1665
vt 0.4432 0.2333
v -0.2042 0.3773 -0.1665
vt 0.3567 0.2647
v -0.2042 0.3773 -0.1665
vt 0.8635 0.9154
v -0.2042 0.3773 -0.1665
vt 0.8637 0.9152
v 0.2042 0.3773 -0.1665
vt 0.0929 0.2333
v 0.2042 0.3773 -0.1665
vt 0.1561 0.2647
v 0.2042 0.3773 -0.1665
vt 0.8635 0.9154
v 0.2042 0.3773 -0.1665
vt 0.8637 0.9152
v 0.2997 0.5656 0.0784
vt 0.0109 0.2945
v 0.2997 0.5656 0.0784
vt 0.8054 0.2724
v 0.2997 0.5656 0.0784
vt 0.6621 0.9980
v 0.2997 0.5656 0.0784
vt 0.6621 0.9980
v -0.2003 0.1030 -0.2095
vt 0.4735 0.0579
v -0.2003 0.1030 -0.2095
vt 0.9386 0.1405
v -0.2003 0.1030 -0.2095
vt 0.8947 0.7966
v -0.2003 0.1030 -0.2095
vt 0.8947 0.7966
v -0.2725 0.0507 0.0597
vt 0.9686 0.1984
v -0.2725 0.0507 0.0597
vt 0.9686 0.1991
v -0.2725 0.0507 0.0597
vt 0.6786 0.7741
v -0.2725 0.0507 0.0597
vt 0.6774 0.7742
v 0.2003 0.1845 -0.2207
vt 0.0516 0.1141
v 0.2003 0.1845 -0.2207
vt 0.0894 0.7983
v 0.2003 0.1845 -0.2207
vt 0.8995 0.8320
v 0.2003 0.1845 -0.2207
vt 0.9036 0.8320
v 0.1943 0.3711 -0.2108
vt 0.1609 0.2467
v 0.1943 0.3711 -0.2108
vt 0.1609 0.2467
v 0.1943 0.3711 -0.2108
vt 0.8918 0.9123
v 0.1943 0.3711 -0.2108
vt 0.8989 0.9125
v -0.2003 0.1845 -0.2207
vt 0.4735 0.1141
v -0.2003 0.1845 -0.2207
vt 0.4177 0.7983
v -0.2003 0.1845 -0.2207
vt 0.8995 0.8320
v -0.2003 0.1845 -0.2207
vt 0.9036 0.8320
v -0.1943 0.3711 -0.2108
vt 0.3518 0.2467
v -0.1943 0.3711 -0.2108
vt 0.3518 0.2467
v -0.1943 0.3711 -0.2108
vt 0.8918 0.9123
v -0.1943 0.3711 -0.2108
vt 0.8989 0.9125
v -0.0000 0.0109 0.1608
vt 0.8617 0.1392
v -0.0000 0.0109 0.1608
vt 0.8617 0.2042
v -0.0000 0.0109 0.1608
vt 0.8617 0.1392
v -0.0000 0.0109 0.1608
vt 0.8617 0.2042
v 0.1432 0.0109 0.0781
vt 0.9839 0.1780
v 0.1432 0.0109 0.0781
vt 0.9839 0.1780
v 0.1432 0.0109 0.0781
vt 0.9839 0.2042
v 0.1432 0.0109 0.0781
vt 0.7912 0.2042
v 0.1432 0.0109 -0.0873
vt 0.9839 0.2557
v 0.1432 0.0109 -0.0873
vt 0.9839 0.2557
v 0.1432 0.0109 -0.0873
vt 0.9839 0.2042
v 0.1432 0.0109 -0.0873
vt 0.9323 0.2042
v -0.0000 0.0109 -0.1700
vt 0.8617 0.2945
v -0.0000 0.0109 -0.1700
vt 0.8617 0.2042
v -0.0000 0.0109 -0.1700
vt 0.8617 0.2945
v -0.0000 0.0109 -0.1700
vt 0.8617 0.2042
v -0.1432 0.0109 -0.0873
vt 0.7396 0.2557
v -0.1432 0.0109 -0.0873
vt 0.7396 0.2557
v -0.1432 0.0109 -0.0873
vt 0.7396 0.2042
v -0.1432 0.0109 -0.0873
vt 0.9323 0.2042
v -0.1432 0.0109 0.0781
vt 0.7396 0.1780
v -0.1432 0.0109 0.0781
vt 0.7396 0.1780
v -0.1432 0.0109 0.0781
vt 0.7396 0.2042
v -0.1432 0.0109 0.0781
vt 0.7912 0.2042
v 0.1018 0.0303 0.0542
vt 0.9486 0.1892
v 0.1018 0.0303 0.0542
vt 0.9486 0.1892
v 0.1018 0.0303 0.0542
vt 0.9486 0.2133
v 0.1018 0.0303 0.0542
vt 0.8116 0.2133
v -0.0000 0.0303 0.1130
vt 0.8617 0.1616
v -0.0000 0.0303 0.1130
vt 0.8617 0.2133
v -0.0000 0.0303 0.1130
vt 0.8617 0.1616
v -0.0000 0.0303 0.1130
vt 0.8617 0.2133
v 0.1018 0.0303 -0.0634
vt 0.9486 0.2445
v 0.1018 0.0303 -0.0634
vt 0.9486 0.2445
v 0.1018 0.0303 -0.0634
vt 0.9486 0.2133
v 0.1018 0.0303 -0.0634
vt 0.9119 0.2133
v -0.0000 0.0303 -0.1222
vt 0.8617 0.2721
v -0.0000 0.0303 -0.1222
vt 0.8617 0.2133
v -0.0000 0.0303 -0.1222
vt 0.8617 0.2721
v -0.0000 0.0303 -0.1222
vt 0.8617 0.2133
v -0.1018 0.0303 -0.0634
vt 0.7748 0.2445
v -0.1018 0.0303 -0.0634
vt 0.7748 0.2445
v -0.1018 0.0303 -0.0634
vt 0.7748 0.2133
v -0.1018 0.0303 -0.0634
vt 0.9119 0.2133
v -0.1018 0.0303 0.0542
vt 0.7748 0.1892
v -0.1018 0.0303 0.0542
vt 0.7748 0.1892
v -0.1018 0.0303 0.0542
vt 0.7748 0.2133
v -0.1018 0.0303 0.0542
vt 0.8116 0.2133
v 0.1018 0.0663 0.0542
vt 0.9486 0.2302
v 0.1018 0.0663 0.0542
vt 0.9486 0.2302
v 0.1018 0.0663 0.0542
vt 0.8116 0.2302
v 0.1018 0.0663 0.0542
vt 0.8116 0.2302
v -0.0000 0.0663 0.1130
vt 0.8617 0.2302
v -0.0000 0.0663 0.1130
vt 0.8617 0.2302
v -0.0000 0.0663 0.1130
vt 0.8617 0.2302
v -0.0000 0.0663 0.1130
vt 0.8617 0.2302
v 0.1018 0.0663 -0.0634
vt 0.9486 0.2302
v 0.1018 0.0663 -0.0634
vt 0.9486 0.2302
v 0.1018 0.0663 -0.0634
vt 0.9119 0.2302
v 0.1018 0.0663 -0.0634
vt 0.9119 0.2302
v -0.0000 0.0663 -0.1222
vt 0.8617 0.2302
v -0.0000 0.0663 -0.1222
vt 0.8617 0.2302
v -0.0000 0.0663 -0.1222
vt 0.8617 0.2302
v -0.0000 0.0663 -0.1222
vt 0.8617 0.2302
v -0.1018 0.0663 -0.0634
vt 0.7748 0.2302
v -0.1018 0.0663 -0.0634
vt 0.7748 0.2302
v -0.1018 0.0663 -0.0634
vt 0.9119 0.2302
v -0.1018 0.0663 -0.0634
vt 0.9119 0.2302
v -0.1018 0.0663 0.0542
vt 0.7748 0.2302
v -0.1018 0.0663 0.0542
vt 0.7748 0.2302
v -0.1018 0.0663 0.0542
vt 0.8116 0.2302
v -0.1018 0.0663 0.0542
vt 0.8116 0.2302
v 0.0888 0.0847 0.0467
vt 0.9375 0.1928
v 0.0888 0.0847 0.0467
vt 0.9375 0.2389
v 0.0888 0.0847 0.0467
vt 0.8180 0.2389
v -0.0000 0.0847 0.0979
vt 0.8617 0.1687
v -0.0000 0.0847 0.0979
vt 0.8617 0.2389
v -0.0000 0.0847 0.0979
vt 0.8617 0.2389
v 0.0888 0.0847 -0.0558
vt 0.9375 0.2409
v 0.0888 0.0847 -0.0558
vt 0.9375 0.2389
v 0.0888 0.0847 -0.0558
vt 0.9055 0.2389
v -0.0000 0.0847 -0.1071
vt 0.8617 0.2650
v -0.0000 0.0847 -0.1071
vt 0.8617 0.2389
v -0.0000 0.0847 -0.1071
vt 0.8617 0.2389
v -0.0888 0.0847 -0.0558
vt 0.7860 0.2409
v -0.0888 0.0847 -0.0558
vt 0.7860 0.2389
v -0.0888 0.0847 -0.0558
vt 0.9055 0.2389
v -0.0888 0.0847 0.0467
vt 0.7860 0.1928
v -0.0888 0.0847 0.0467
vt 0.7860 0.2389
v -0.0888 0.0847 0.0467
vt 0.8180 0.2389
v 0.1432 0.0000 0.0781
vt 0.9839 0.1780
v 0.1432 0.0000 0.0781
vt 0.9839 0.1991
v 0.1432 0.0000 0.0781
vt 0.7912 0.1991
v -0.0000 0.0000 0.1608
vt 0.8617 0.1392
v -0.0000 0.0000 0.1608
vt 0.8617 0.1991
v -0.0000 0.0000 0.1608
vt 0.8617 0.1991
v 0.1432 0.0000 -0.0873
vt 0.9839 0.2557
v 0.1432 0.0000 -0.0873
vt 0.9839 0.1991
v 0.1432 0.0000 -0.0873
vt 0.9323 0.1991
v -0.0000 0.0000 -0.1700
vt 0.8617 0.2945
v -0.0000 0.0000 -0.1700
vt 0.8617 0.1991
v -0.0000 0.0000 -0.1700
vt 0.8617 0.1991
v -0.1432 0.0000 -0.0873
vt 0.7396 0.2557
v -0.1432 0.0000 -0.0873
vt 0.7396 0.1991
v -0.1432 0.0000 -0.0873
vt 0.9323 0.1991
v -0.1432 0.0000 0.0781
vt 0.7396 0.1780
v -0.1432 0.0000 0.0781
vt 0.7396 0.1991
v -0.1432 0.0000 0.0781
vt 0.7912 0.1991
v -0.3011 0.0374 0.2664
vt 0.0009 0.7584
v -0.3011 0.0374 0.2664
vt 0.9806 0.2434
v -0.3011 0.0374 0.2664
vt 0.5137 0.7685
v 0.3011 0.0374 0.2664
vt 0.5000 0.7584
v 0.3011 0.0374 0.2664
vt 0.7296 0.2434
v 0.3011 0.0374 0.2664
vt 0.5137 0.7685
v -0.3011 0.5673 0.2664
vt 0.0009 0.9994
v -0.3011 0.5673 0.2664
vt 0.9181 0.0742
v -0.3011 0.5673 0.2664
vt 0.5137 0.9987
v 0.3011 0.5673 0.2664
vt 0.5000 0.9994
v 0.3011 0.5673 0.2664
vt 0.9181 0.2728
v 0.3011 0.5673 0.2664
vt 0.5137 0.9987
v -0.2391 0.1126 0.2518
vt 0.0563 0.7955
v -0.2391 0.1126 0.2518
vt 0.0551 0.7906
v -0.2391 0.1126 0.2518
vt 0.4523 0.7886
v 0.2391 0.1126 0.2518
vt 0.4482 0.7955
v 0.2391 0.1126 0.2518
vt 0.4345 0.7906
v 0.2391 0.1126 0.2518
vt 0.4523 0.7886
v -0.2391 0.4921 0.2518
vt 0.0563 0.9653
v -0.2391 0.4921 0.2518
vt 0.0551 0.7906
v -0.2391 0.4921 0.2518
vt 0.4523 0.9645
v 0.2391 0.4921 0.2518
vt 0.4482 0.9653
v 0.2391 0.4921 0.2518
vt 0.4345 0.7906
v 0.2391 0.4921 0.2518
vt 0.4523 0.9645
f 10/10 7/7 19/19
f 10/10 19/19 22/22
f 67/67 71/71 9/9
f 67/67 9/9 12/12
f 32/32 48/48 192/192
f 32/32 192/192 186/186
f 188/188 191/191 46/46
f 188/188 46/46 34/34
f 14/14 2/2 200/200
f 14/14 200/200 203/203
f 69/69 61/61 20/20
f 69/69 20/20 8/8
f 58/58 66/66 11/11
f 58/58 11/11 23/23
f 185/185 182/182 54/54
f 185/185 54/54 30/30
f 183/183 189/189 36/36
f 183/183 36/36 56/56
f 39/39 51/51 55/55
f 39/39 55/55 35/35
f 50/50 26/26 29/29
f 50/50 29/29 53/53
f 47/47 31/31 27/27
f 47/47 27/27 43/43
f 41/41 37/37 33/33
f 41/41 33/33 45/45
f 60/60 64/64 44/44
f 60/60 44/44 28/28
f 24/24 21/21 63/63
f 24/24 63/63 59/59
f 25/25 49/49 65/65
f 25/25 65/65 57/57
f 38/38 42/42 62/62
f 38/38 62/62 70/70
f 52/52 40/40 72/72
f 52/52 72/72 68/68
f 91/91 88/88 174/174
f 91/91 174/174 176/176
f 112/112 115/115 138/138
f 112/112 138/138 136/136
f 93/93 75/75 103/103
f 93/93 103/103 117/117
f 87/87 89/89 113/113
f 87/87 113/113 111/111
f 78/78 82/82 106/106
f 78/78 106/106 98/98
f 90/90 94/94 118/118
f 90/90 118/118 114/114
f 81/81 85/85 109/109
f 81/81 109/109 105/105
f 73/73 77/77 97/97
f 73/73 97/97 101/101
f 125/125 121/121 146/146
f 125/125 146/146 149/149
f 100/100 108/108 132/132
f 100/100 132/132 124/124
f 116/116 120/120 144/144
f 116/116 144/144 140/140
f 107/107 110/110 134/134
f 107/107 134/134 130/130
f 102/102 99/99 122/122
f 102/102 122/122 126/126
f 119/119 104/104 128/128
f 119/119 128/128 142/142
f 148/148 145/145 151/151
f 151/151 154/154 157/157
f 157/157 160/160 148/148
f 151/151 157/157 148/148
f 141/141 127/127 150/150
f 141/141 150/150 161/161
f 135/135 137/137 158/158
f 135/135 158/158 156/156
f 123/123 131/131 153/153
f 123/123 153/153 147/147
f 139/139 143/143 162/162
f 139/139 162/162 159/159
f 129/129 133/133 155/155
f 129/129 155/155 152/152
f 169/169 163/163 166/166
f 166/166 178/178 175/175
f 175/175 172/172 169/169
f 166/166 175/175 169/169
f 84/84 80/80 165/165
f 84/84 165/165 171/171
f 96/96 92/92 177/177
f 96/96 177/177 180/180
f 86/86 83/83 170/170
f 86/86 170/170 173/173
f 79/79 74/74 167/167
f 79/79 167/167 164/164
f 76/76 95/95 179/179
f 76/76 179/179 168/168
f 16/16 4/4 181/181
f 16/16 181/181 184/184
f 4/4 1/1 187/187
f 4/4 187/187 181/181
f 13/13 16/16 184/184
f 13/13 184/184 190/190
f 1/1 13/13 190/190
f 1/1 190/190 187/187
f 196/196 202/202 199/199
f 196/196 199/199 193/193
f 3/3 6/6 195/195
f 3/3 195/195 201/201
f 18/18 15/15 204/204
f 18/18 204/204 198/198
f 5/5 17/17 197/197
f 5/5 197/197 194/194
