v -0.3414 0.0246 0.1124
vt 0.0944 0.7470
v -0.3414 0.0246 0.1124
vt 0.0075 0.6362
v -0.3414 0.0246 0.1124
vt 0.1820 0.7440
v -0.3414 0.0000 0.1124
vt 0.0944 0.7356
v -0.3414 0.0000 0.1124
vt 0.8036 0.3134
v -0.3414 0.0000 0.1124
vt 0.1814 0.7341
v -0.3414 0.0411 -0.1124
vt 0.0992 0.7476
v -0.3414 0.0411 -0.1124
vt 0.0165 0.7493
v -0.3414 0.0411 -0.1124
vt 0.3558 0.7476
v -0.3414 0.0000 -0.1124
vt 0.0992 0.7304
v -0.3414 0.0000 -0.1124
vt 0.9170 0.3134
v -0.3414 0.0000 -0.1124
vt 0.3548 0.7310
v 0.3414 0.0246 0.1124
vt 0.5758 0.7470
v 0.3414 0.0246 0.1124
vt 0.6178 0.6362
v 0.3414 0.0246 0.1124
vt 0.1899 0.7447
v 0.3414 0.0000 0.1124
vt 0.5758 0.7356
v 0.3414 0.0000 0.1124
vt 0.8036 0.1321
v 0.3414 0.0000 0.1124
vt 0.1893 0.7344
v 0.3414 0.0411 -0.1124
vt 0.5960 0.7476
v 0.3414 0.0411 -0.1124
vt 0.6104 0.7493
v 0.3414 0.0411 -0.1124
vt 0.3701 0.7488
v 0.3414 0.0000 -0.1124
vt 0.5960 0.7304
v 0.3414 0.0000 -0.1124
vt 0.9170 0.1321
v 0.3414 0.0000 -0.1124
vt 0.3691 0.7315
v -0.3414 0.0312 -0.0760
vt 0.0165 0.7324
v -0.3414 0.0312 -0.0760
vt 0.0075 0.7335
v -0.3414 0.0312 -0.0760
vt 0.3275 0.7441
v -0.3414 0.0000 -0.0760
vt 0.8989 0.3134
v -0.3414 0.0000 -0.0760
vt 0.8989 0.3134
v -0.3414 0.0000 -0.0760
vt 0.3267 0.7315
v -0.3414 0.0000 -0.0760
vt 0.3267 0.7315
v 0.3414 0.0312 -0.0760
vt 0.6104 0.7324
v 0.3414 0.0312 -0.0760
vt 0.6178 0.7335
v 0.3414 0.0312 -0.0760
vt 0.3407 0.7451
v 0.3414 0.0000 -0.0760
vt 0.8989 0.1321
v 0.3414 0.0000 -0.0760
vt 0.8990 0.1321
v 0.3414 0.0000 -0.0760
vt 0.3400 0.7320
v 0.3414 0.0000 -0.0760
vt 0.3400 0.7320
f 27/27 9/9 12/12
f 27/27 12/12 31/31
f 7/7 19/19 22/22
f 7/7 22/22 10/10
f 34/34 15/15 18/18
f 34/34 18/18 38/38
f 13/13 1/1 4/4
f 13/13 4/4 16/16
f 26/26 2/2 14/14
f 26/26 14/14 33/33
f 35/35 17/17 5/5
f 35/35 5/5 29/29
f 23/23 36/36 28/28
f 23/23 28/28 11/11
f 8/8 25/25 32/32
f 8/8 32/32 20/20
f 21/21 34/34 37/37
f 21/21 37/37 24/24
f 3/3 27/27 30/30
f 3/3 30/30 6/6
