v -0.1311 0.0000 0.2953
vt 0.7907 0.0272
v -0.1311 0.0000 0.2953
vt 0.7259 0.3358
v -0.1311 0.0000 0.2953
vt 0.7392 0.0035
v -0.1311 0.6091 0.2953
vt 0.7550 0.0218
v -0.1311 0.6091 0.2953
vt 0.7259 0.6299
v -0.1311 0.6091 0.2953
vt 0.7392 0.3286
v -0.1311 0.0000 -0.3046
vt 0.4340 0.3037
v -0.1311 0.0000 -0.3046
vt 0.7907 0.3237
v -0.1311 0.0000 -0.3046
vt 0.9777 0.0035
v -0.1311 0.6091 -0.3046
vt 0.4340 0.6326
v -0.1311 0.6091 -0.3046
vt 0.7550 0.3183
v -0.1311 0.6091 -0.3046
vt 0.9777 0.3286
v 0.1311 0.0000 0.2953
vt 0.9203 0.0272
v 0.1311 0.0000 0.2953
vt 0.9982 0.3358
v 0.1311 0.0000 0.2953
vt 0.7392 0.0035
v 0.1311 0.6091 0.2953
vt 0.9489 0.0218
v 0.1311 0.6091 0.2953
vt 0.9982 0.6299
v 0.1311 0.6091 0.2953
vt 0.7392 0.3286
v 0.1311 0.0000 -0.3046
vt 0.6995 0.3037
v 0.1311 0.0000 -0.3046
vt 0.9203 0.3237
v 0.1311 0.0000 -0.3046
vt 0.9777 0.0035
v 0.1311 0.6091 -0.3046
vt 0.6995 0.6326
v 0.1311 0.6091 -0.3046
vt 0.9489 0.3183
v 0.1311 0.6091 -0.3046
vt 0.9777 0.3286
v 0.0000 0.0000 -0.3046
vt 0.5667 0.3037
v 0.0000 0.0000 -0.3046
vt 0.8555 0.3237
v 0.0000 0.6091 -0.3046
vt 0.5667 0.6326
v 0.0000 0.6091 -0.3046
vt 0.8520 0.3183
v 0.0000 0.0000 0.3046
vt 0.8555 0.0226
v 0.0000 0.0000 0.3046
vt 0.8621 0.3358
v 0.0000 0.0000 0.3046
vt 0.8621 0.3358
v 0.0000 0.6091 0.3046
vt 0.8520 0.0172
v 0.0000 0.6091 0.3046
vt 0.8621 0.6299
v 0.0000 0.6091 0.3046
vt 0.8621 0.6299
f 3/3 6/6 12/12
f 3/3 12/12 9/9
f 25/25 27/27 22/22
f 25/25 22/22 19/19
f 21/21 24/24 18/18
f 21/21 18/18 15/15
f 31/31 34/34 5/5
f 31/31 5/5 2/2
f 26/26 20/20 13/13
f 26/26 13/13 29/29
f 28/28 11/11 4/4
f 28/28 4/4 32/32
f 23/23 28/28 32/32
f 23/23 32/32 16/16
f 8/8 26/26 29/29
f 8/8 29/29 1/1
f 14/14 17/17 33/33
f 14/14 33/33 30/30
f 7/7 10/10 27/27
f 7/7 27/27 25/25
